<svg width="300" height="216" viewBox="0 0 300 216" fill="none" xmlns="http://www.w3.org/2000/svg">
<path d="M34.008 40.456C32.424 40.456 31.064 40.184 29.928 39.64C28.792 39.08 27.864 38.352 27.144 37.456C26.424 36.544 25.888 35.568 25.536 34.528C25.2 33.472 25.032 32.448 25.032 31.456V30.928C25.032 29.84 25.208 28.768 25.56 27.712C25.912 26.64 26.448 25.672 27.168 24.808C27.904 23.944 28.824 23.256 29.928 22.744C31.048 22.216 32.368 21.952 33.888 21.952C35.472 21.952 36.872 22.248 38.088 22.84C39.304 23.432 40.272 24.256 40.992 25.312C41.728 26.352 42.16 27.576 42.288 28.984H38.328C38.216 28.28 37.96 27.68 37.56 27.184C37.16 26.688 36.64 26.304 36 26.032C35.376 25.76 34.672 25.624 33.888 25.624C33.104 25.624 32.408 25.76 31.8 26.032C31.192 26.304 30.68 26.688 30.264 27.184C29.864 27.68 29.552 28.272 29.328 28.96C29.12 29.632 29.016 30.384 29.016 31.216C29.016 32.032 29.12 32.784 29.328 33.472C29.552 34.144 29.872 34.736 30.288 35.248C30.72 35.744 31.248 36.128 31.872 36.4C32.496 36.656 33.208 36.784 34.008 36.784C35.224 36.784 36.248 36.488 37.08 35.896C37.928 35.304 38.44 34.488 38.616 33.448H42.552C42.408 34.728 41.976 35.904 41.256 36.976C40.552 38.032 39.584 38.88 38.352 39.52C37.136 40.144 35.688 40.456 34.008 40.456ZM45.1153 40V22.48H48.9793V40H45.1153ZM43.5553 25.312V22.48H48.9793V25.312H43.5553ZM60.4616 40V36.112H59.8136V31.888C59.8136 31.216 59.6536 30.712 59.3336 30.376C59.0136 30.04 58.5016 29.872 57.7976 29.872C57.4456 29.872 56.9816 29.88 56.4056 29.896C55.8296 29.912 55.2376 29.936 54.6296 29.968C54.0216 30 53.4696 30.032 52.9736 30.064V26.824C53.3416 26.792 53.7736 26.76 54.2696 26.728C54.7656 26.696 55.2776 26.672 55.8056 26.656C56.3336 26.64 56.8296 26.632 57.2936 26.632C58.6376 26.632 59.7656 26.824 60.6776 27.208C61.6056 27.592 62.3096 28.176 62.7896 28.96C63.2696 29.728 63.5096 30.72 63.5096 31.936V40H60.4616ZM56.2616 40.336C55.3176 40.336 54.4856 40.168 53.7656 39.832C53.0616 39.496 52.5096 39.016 52.1096 38.392C51.7096 37.752 51.5096 36.992 51.5096 36.112C51.5096 35.152 51.7576 34.368 52.2536 33.76C52.7496 33.136 53.4456 32.68 54.3416 32.392C55.2376 32.088 56.2696 31.936 57.4376 31.936H60.2456V34.072H57.4136C56.7416 34.072 56.2216 34.24 55.8536 34.576C55.5016 34.896 55.3256 35.336 55.3256 35.896C55.3256 36.424 55.5016 36.856 55.8536 37.192C56.2216 37.512 56.7416 37.672 57.4136 37.672C57.8456 37.672 58.2296 37.6 58.5656 37.456C58.9176 37.296 59.2056 37.032 59.4296 36.664C59.6536 36.296 59.7816 35.784 59.8136 35.128L60.7256 36.088C60.6456 37 60.4216 37.768 60.0536 38.392C59.7016 39.016 59.2056 39.496 58.5656 39.832C57.9416 40.168 57.1736 40.336 56.2616 40.336ZM71.7596 40.408C69.8876 40.408 68.4236 40.024 67.3676 39.256C66.3116 38.488 65.7516 37.408 65.6876 36.016H69.0956C69.1596 36.432 69.4076 36.808 69.8396 37.144C70.2876 37.464 70.9516 37.624 71.8316 37.624C72.5036 37.624 73.0556 37.512 73.4876 37.288C73.9356 37.048 74.1596 36.712 74.1596 36.28C74.1596 35.896 73.9916 35.592 73.6556 35.368C73.3196 35.128 72.7196 34.96 71.8556 34.864L70.8236 34.768C69.2396 34.608 68.0476 34.168 67.2476 33.448C66.4636 32.728 66.0716 31.808 66.0716 30.688C66.0716 29.76 66.3036 28.984 66.7676 28.36C67.2316 27.736 67.8716 27.264 68.6876 26.944C69.5196 26.624 70.4636 26.464 71.5196 26.464C73.2156 26.464 74.5836 26.84 75.6236 27.592C76.6636 28.328 77.2076 29.4 77.2556 30.808H73.8476C73.7836 30.376 73.5596 30.016 73.1756 29.728C72.7916 29.424 72.2236 29.272 71.4716 29.272C70.8796 29.272 70.4076 29.384 70.0556 29.608C69.7036 29.832 69.5276 30.136 69.5276 30.52C69.5276 30.888 69.6796 31.168 69.9836 31.36C70.2876 31.552 70.7836 31.688 71.4716 31.768L72.5036 31.864C74.1196 32.04 75.3756 32.488 76.2716 33.208C77.1676 33.928 77.6156 34.896 77.6156 36.112C77.6156 36.992 77.3756 37.76 76.8956 38.416C76.4156 39.056 75.7356 39.552 74.8556 39.904C73.9756 40.24 72.9436 40.408 71.7596 40.408ZM85.0956 40.408C83.2236 40.408 81.7596 40.024 80.7036 39.256C79.6476 38.488 79.0876 37.408 79.0236 36.016H82.4316C82.4956 36.432 82.7436 36.808 83.1756 37.144C83.6236 37.464 84.2876 37.624 85.1676 37.624C85.8396 37.624 86.3916 37.512 86.8236 37.288C87.2716 37.048 87.4956 36.712 87.4956 36.28C87.4956 35.896 87.3276 35.592 86.9916 35.368C86.6556 35.128 86.0556 34.96 85.1916 34.864L84.1596 34.768C82.5756 34.608 81.3836 34.168 80.5836 33.448C79.7996 32.728 79.4076 31.808 79.4076 30.688C79.4076 29.76 79.6396 28.984 80.1036 28.36C80.5676 27.736 81.2076 27.264 82.0236 26.944C82.8556 26.624 83.7996 26.464 84.8556 26.464C86.5516 26.464 87.9196 26.84 88.9596 27.592C89.9996 28.328 90.5436 29.4 90.5916 30.808H87.1836C87.1196 30.376 86.8956 30.016 86.5116 29.728C86.1276 29.424 85.5596 29.272 84.8076 29.272C84.2156 29.272 83.7436 29.384 83.3916 29.608C83.0396 29.832 82.8636 30.136 82.8636 30.52C82.8636 30.888 83.0156 31.168 83.3196 31.36C83.6236 31.552 84.1196 31.688 84.8076 31.768L85.8396 31.864C87.4556 32.04 88.7116 32.488 89.6076 33.208C90.5036 33.928 90.9516 34.896 90.9516 36.112C90.9516 36.992 90.7116 37.76 90.2316 38.416C89.7516 39.056 89.0716 39.552 88.1916 39.904C87.3116 40.24 86.2796 40.408 85.0956 40.408ZM94.0635 40V26.848H97.9035V40H94.0635ZM92.3115 29.68V26.848H97.9035V29.68H92.3115ZM95.5515 25.552C94.8315 25.552 94.2955 25.368 93.9435 25C93.6075 24.616 93.4395 24.136 93.4395 23.56C93.4395 22.968 93.6075 22.488 93.9435 22.12C94.2955 21.736 94.8315 21.544 95.5515 21.544C96.2715 21.544 96.7995 21.736 97.1355 22.12C97.4875 22.488 97.6635 22.968 97.6635 23.56C97.6635 24.136 97.4875 24.616 97.1355 25C96.7995 25.368 96.2715 25.552 95.5515 25.552ZM101.743 40V26.728C101.743 25.208 102.175 24.08 103.039 23.344C103.903 22.608 105.175 22.24 106.855 22.24H108.535V25.12H106.687C106.255 25.12 105.919 25.24 105.679 25.48C105.439 25.72 105.319 26.056 105.319 26.488V40H101.743ZM100.183 29.92V27.112H108.727V29.92H100.183ZM110.897 45.208V41.944H113.633C114.049 41.944 114.401 41.888 114.689 41.776C114.977 41.68 115.209 41.512 115.385 41.272C115.561 41.032 115.705 40.704 115.817 40.288L119.057 26.848H122.705L119.033 41.056C118.777 42.08 118.417 42.896 117.953 43.504C117.505 44.112 116.897 44.544 116.129 44.8C115.377 45.072 114.417 45.208 113.249 45.208H110.897ZM115.025 39.712V36.712H117.809V39.712H115.025ZM113.441 39.712L109.409 26.848H113.273L117.089 39.712H113.441ZM35.6861 77.208V73.944H38.4221C38.8381 73.944 39.1901 73.888 39.4781 73.776C39.7661 73.68 39.9981 73.512 40.1741 73.272C40.3501 73.032 40.4941 72.704 40.6061 72.288L43.8461 58.848H47.4941L43.8221 73.056C43.5661 74.08 43.2061 74.896 42.7421 75.504C42.2941 76.112 41.6861 76.544 40.9181 76.8C40.1661 77.072 39.2061 77.208 38.0381 77.208H35.6861ZM39.8141 71.712V68.712H42.5981V71.712H39.8141ZM38.2301 71.712L34.1981 58.848H38.0621L41.8781 71.712H38.2301ZM55.6209 72.456C54.4689 72.456 53.4449 72.28 52.5489 71.928C51.6529 71.56 50.8929 71.064 50.2689 70.44C49.6609 69.816 49.1969 69.104 48.8769 68.304C48.5569 67.488 48.3969 66.632 48.3969 65.736V65.184C48.3969 64.272 48.5569 63.408 48.8769 62.592C49.2129 61.76 49.6929 61.032 50.3169 60.408C50.9569 59.784 51.7249 59.296 52.6209 58.944C53.5169 58.576 54.5169 58.392 55.6209 58.392C56.7569 58.392 57.7649 58.576 58.6449 58.944C59.5409 59.296 60.3009 59.784 60.9249 60.408C61.5489 61.032 62.0289 61.76 62.3649 62.592C62.7009 63.408 62.8689 64.272 62.8689 65.184V65.736C62.8689 66.632 62.7089 67.488 62.3889 68.304C62.0689 69.104 61.5969 69.816 60.9729 70.44C60.3649 71.064 59.6129 71.56 58.7169 71.928C57.8209 72.28 56.7889 72.456 55.6209 72.456ZM55.6209 69.216C56.3729 69.216 56.9969 69.056 57.4929 68.736C57.9889 68.416 58.3649 67.968 58.6209 67.392C58.8929 66.816 59.0289 66.176 59.0289 65.472C59.0289 64.72 58.8929 64.064 58.6209 63.504C58.3489 62.928 57.9569 62.472 57.4449 62.136C56.9489 61.8 56.3409 61.632 55.6209 61.632C54.9169 61.632 54.3089 61.8 53.7969 62.136C53.2849 62.472 52.8929 62.928 52.6209 63.504C52.3649 64.064 52.2369 64.72 52.2369 65.472C52.2369 66.176 52.3649 66.816 52.6209 67.392C52.8769 67.968 53.2609 68.416 53.7729 68.736C54.2849 69.056 54.9009 69.216 55.6209 69.216ZM69.9889 72.408C68.4689 72.408 67.3009 71.92 66.4849 70.944C65.6689 69.952 65.2609 68.464 65.2609 66.48V58.848H69.1009V66.672C69.1009 67.376 69.3009 67.936 69.7009 68.352C70.1009 68.768 70.6369 68.976 71.3089 68.976C71.9969 68.976 72.5569 68.76 72.9889 68.328C73.4209 67.896 73.6369 67.312 73.6369 66.576V58.848H77.4769V72H74.4289V66.456H74.6929C74.6929 67.784 74.5169 68.896 74.1649 69.792C73.8289 70.672 73.3249 71.328 72.6529 71.76C71.9809 72.192 71.1489 72.408 70.1569 72.408H69.9889ZM81.0176 72V58.848H84.0656V64.488H83.9936C83.9936 62.632 84.3856 61.2 85.1696 60.192C85.9696 59.184 87.1216 58.68 88.6256 58.68H89.1296V61.992H88.1696C87.1136 61.992 86.2976 62.28 85.7216 62.856C85.1456 63.416 84.8576 64.232 84.8576 65.304V72H81.0176ZM104.102 72V68.112H103.454V63.888C103.454 63.216 103.294 62.712 102.974 62.376C102.654 62.04 102.142 61.872 101.438 61.872C101.086 61.872 100.622 61.88 100.046 61.896C99.4703 61.912 98.8783 61.936 98.2703 61.968C97.6623 62 97.1103 62.032 96.6143 62.064V58.824C96.9823 58.792 97.4143 58.76 97.9103 58.728C98.4063 58.696 98.9183 58.672 99.4463 58.656C99.9743 58.64 100.47 58.632 100.934 58.632C102.278 58.632 103.406 58.824 104.318 59.208C105.246 59.592 105.95 60.176 106.43 60.96C106.91 61.728 107.15 62.72 107.15 63.936V72H104.102ZM99.9023 72.336C98.9583 72.336 98.1263 72.168 97.4062 71.832C96.7023 71.496 96.1503 71.016 95.7503 70.392C95.3503 69.752 95.1503 68.992 95.1503 68.112C95.1503 67.152 95.3983 66.368 95.8943 65.76C96.3903 65.136 97.0863 64.68 97.9823 64.392C98.8783 64.088 99.9103 63.936 101.078 63.936H103.886V66.072H101.054C100.382 66.072 99.8623 66.24 99.4943 66.576C99.1423 66.896 98.9663 67.336 98.9663 67.896C98.9663 68.424 99.1423 68.856 99.4943 69.192C99.8623 69.512 100.382 69.672 101.054 69.672C101.486 69.672 101.87 69.6 102.206 69.456C102.558 69.296 102.846 69.032 103.07 68.664C103.294 68.296 103.422 67.784 103.454 67.128L104.366 68.088C104.286 69 104.062 69.768 103.694 70.392C103.342 71.016 102.846 71.496 102.206 71.832C101.582 72.168 100.814 72.336 99.9023 72.336ZM115.4 72.408C113.528 72.408 112.064 72.024 111.008 71.256C109.952 70.488 109.392 69.408 109.328 68.016H112.736C112.8 68.432 113.048 68.808 113.48 69.144C113.928 69.464 114.592 69.624 115.472 69.624C116.144 69.624 116.696 69.512 117.128 69.288C117.576 69.048 117.8 68.712 117.8 68.28C117.8 67.896 117.632 67.592 117.296 67.368C116.96 67.128 116.36 66.96 115.496 66.864L114.464 66.768C112.88 66.608 111.688 66.168 110.888 65.448C110.104 64.728 109.712 63.808 109.712 62.688C109.712 61.76 109.944 60.984 110.408 60.36C110.872 59.736 111.512 59.264 112.328 58.944C113.16 58.624 114.104 58.464 115.16 58.464C116.856 58.464 118.224 58.84 119.264 59.592C120.304 60.328 120.848 61.4 120.896 62.808H117.488C117.424 62.376 117.2 62.016 116.816 61.728C116.432 61.424 115.864 61.272 115.112 61.272C114.52 61.272 114.048 61.384 113.696 61.608C113.344 61.832 113.168 62.136 113.168 62.52C113.168 62.888 113.32 63.168 113.624 63.36C113.928 63.552 114.424 63.688 115.112 63.768L116.144 63.864C117.76 64.04 119.016 64.488 119.912 65.208C120.808 65.928 121.256 66.896 121.256 68.112C121.256 68.992 121.016 69.76 120.536 70.416C120.056 71.056 119.376 71.552 118.496 71.904C117.616 72.24 116.584 72.408 115.4 72.408ZM128.736 72.408C126.864 72.408 125.4 72.024 124.344 71.256C123.288 70.488 122.728 69.408 122.664 68.016H126.072C126.136 68.432 126.384 68.808 126.816 69.144C127.264 69.464 127.928 69.624 128.808 69.624C129.48 69.624 130.032 69.512 130.464 69.288C130.912 69.048 131.136 68.712 131.136 68.28C131.136 67.896 130.968 67.592 130.632 67.368C130.296 67.128 129.696 66.96 128.832 66.864L127.8 66.768C126.216 66.608 125.024 66.168 124.224 65.448C123.44 64.728 123.048 63.808 123.048 62.688C123.048 61.76 123.28 60.984 123.744 60.36C124.208 59.736 124.848 59.264 125.664 58.944C126.496 58.624 127.44 58.464 128.496 58.464C130.192 58.464 131.56 58.84 132.6 59.592C133.64 60.328 134.184 61.4 134.232 62.808H130.824C130.76 62.376 130.536 62.016 130.152 61.728C129.768 61.424 129.2 61.272 128.448 61.272C127.856 61.272 127.384 61.384 127.032 61.608C126.68 61.832 126.504 62.136 126.504 62.52C126.504 62.888 126.656 63.168 126.96 63.36C127.264 63.552 127.76 63.688 128.448 63.768L129.48 63.864C131.096 64.04 132.352 64.488 133.248 65.208C134.144 65.928 134.592 66.896 134.592 68.112C134.592 68.992 134.352 69.76 133.872 70.416C133.392 71.056 132.712 71.552 131.832 71.904C130.952 72.24 129.92 72.408 128.736 72.408ZM143.104 72.456C141.984 72.456 140.992 72.264 140.128 71.88C139.28 71.496 138.568 70.984 137.992 70.344C137.432 69.688 137 68.96 136.696 68.16C136.408 67.344 136.264 66.512 136.264 65.664V65.184C136.264 64.304 136.408 63.464 136.696 62.664C137 61.848 137.432 61.12 137.992 60.48C138.552 59.84 139.248 59.336 140.08 58.968C140.928 58.584 141.888 58.392 142.96 58.392C144.368 58.392 145.552 58.712 146.512 59.352C147.488 59.976 148.232 60.8 148.744 61.824C149.256 62.832 149.512 63.936 149.512 65.136V66.432H137.872V64.248H147.184L145.936 65.256C145.936 64.472 145.824 63.8 145.6 63.24C145.376 62.68 145.04 62.256 144.592 61.968C144.16 61.664 143.616 61.512 142.96 61.512C142.288 61.512 141.72 61.664 141.256 61.968C140.792 62.272 140.44 62.72 140.2 63.312C139.96 63.888 139.84 64.6 139.84 65.448C139.84 66.232 139.952 66.92 140.176 67.512C140.4 68.088 140.752 68.536 141.232 68.856C141.712 69.176 142.336 69.336 143.104 69.336C143.808 69.336 144.384 69.2 144.832 68.928C145.28 68.656 145.584 68.32 145.744 67.92H149.272C149.08 68.8 148.704 69.584 148.144 70.272C147.584 70.96 146.88 71.496 146.032 71.88C145.184 72.264 144.208 72.456 143.104 72.456ZM158.033 72.168C156.705 72.168 155.633 72.008 154.817 71.688C154.001 71.352 153.401 70.8 153.017 70.032C152.649 69.248 152.465 68.192 152.465 66.864V55.296H156.041V67.008C156.041 67.632 156.201 68.112 156.521 68.448C156.857 68.768 157.329 68.928 157.937 68.928H159.881V72.168H158.033ZM150.473 61.656V58.848H159.881V61.656H150.473ZM167.361 72.408C165.489 72.408 164.025 72.024 162.969 71.256C161.913 70.488 161.353 69.408 161.289 68.016H164.697C164.761 68.432 165.009 68.808 165.441 69.144C165.889 69.464 166.553 69.624 167.433 69.624C168.105 69.624 168.657 69.512 169.089 69.288C169.537 69.048 169.761 68.712 169.761 68.28C169.761 67.896 169.593 67.592 169.257 67.368C168.921 67.128 168.321 66.96 167.457 66.864L166.425 66.768C164.841 66.608 163.649 66.168 162.849 65.448C162.065 64.728 161.673 63.808 161.673 62.688C161.673 61.76 161.905 60.984 162.369 60.36C162.833 59.736 163.473 59.264 164.289 58.944C165.121 58.624 166.065 58.464 167.121 58.464C168.817 58.464 170.185 58.84 171.225 59.592C172.265 60.328 172.809 61.4 172.857 62.808H169.449C169.385 62.376 169.161 62.016 168.777 61.728C168.393 61.424 167.825 61.272 167.073 61.272C166.481 61.272 166.009 61.384 165.657 61.608C165.305 61.832 165.129 62.136 165.129 62.52C165.129 62.888 165.281 63.168 165.585 63.36C165.889 63.552 166.385 63.688 167.073 63.768L168.105 63.864C169.721 64.04 170.977 64.488 171.873 65.208C172.769 65.928 173.217 66.896 173.217 68.112C173.217 68.992 172.977 69.76 172.497 70.416C172.017 71.056 171.337 71.552 170.457 71.904C169.577 72.24 168.545 72.408 167.361 72.408Z" fill="#3E4852"/>
<rect x="48" y="136" width="138" height="56" rx="12" fill="#E20074"/>
<path d="M89 162H91C93 162 94 161 94 159V157C94 155 93 154 91 154H89C87 154 86 155 86 157V159C86 161 87 162 89 162Z" stroke="white" stroke-width="2" stroke-miterlimit="10" stroke-linecap="round" stroke-linejoin="round"/>
<path d="M77 174H79C81 174 82 173 82 171V169C82 167 81 166 79 166H77C75 166 74 167 74 169V171C74 173 75 174 77 174Z" stroke="white" stroke-width="2" stroke-miterlimit="10" stroke-linecap="round" stroke-linejoin="round"/>
<path d="M78 162C80.2091 162 82 160.209 82 158C82 155.791 80.2091 154 78 154C75.7909 154 74 155.791 74 158C74 160.209 75.7909 162 78 162Z" stroke="white" stroke-width="2" stroke-miterlimit="10" stroke-linecap="round" stroke-linejoin="round"/>
<path d="M90 174C92.2091 174 94 172.209 94 170C94 167.791 92.2091 166 90 166C87.7909 166 86 167.791 86 170C86 172.209 87.7909 174 90 174Z" stroke="white" stroke-width="2" stroke-miterlimit="10" stroke-linecap="round" stroke-linejoin="round"/>
<path d="M110.672 169.304C109.616 169.304 108.709 169.123 107.952 168.76C107.195 168.387 106.576 167.901 106.096 167.304C105.616 166.696 105.259 166.045 105.024 165.352C104.8 164.648 104.688 163.965 104.688 163.304V162.952C104.688 162.227 104.805 161.512 105.04 160.808C105.275 160.093 105.632 159.448 106.112 158.872C106.603 158.296 107.216 157.837 107.952 157.496C108.699 157.144 109.579 156.968 110.592 156.968C111.648 156.968 112.581 157.165 113.392 157.56C114.203 157.955 114.848 158.504 115.328 159.208C115.819 159.901 116.107 160.717 116.192 161.656H113.552C113.477 161.187 113.307 160.787 113.04 160.456C112.773 160.125 112.427 159.869 112 159.688C111.584 159.507 111.115 159.416 110.592 159.416C110.069 159.416 109.605 159.507 109.2 159.688C108.795 159.869 108.453 160.125 108.176 160.456C107.909 160.787 107.701 161.181 107.552 161.64C107.413 162.088 107.344 162.589 107.344 163.144C107.344 163.688 107.413 164.189 107.552 164.648C107.701 165.096 107.915 165.491 108.192 165.832C108.48 166.163 108.832 166.419 109.248 166.6C109.664 166.771 110.139 166.856 110.672 166.856C111.483 166.856 112.165 166.659 112.72 166.264C113.285 165.869 113.627 165.325 113.744 164.632H116.368C116.272 165.485 115.984 166.269 115.504 166.984C115.035 167.688 114.389 168.253 113.568 168.68C112.757 169.096 111.792 169.304 110.672 169.304ZM118.077 169V157.32H120.653V169H118.077ZM117.037 159.208V157.32H120.653V159.208H117.037ZM128.308 169V166.408H127.876V163.592C127.876 163.144 127.769 162.808 127.556 162.584C127.342 162.36 127.001 162.248 126.532 162.248C126.297 162.248 125.988 162.253 125.604 162.264C125.22 162.275 124.825 162.291 124.42 162.312C124.014 162.333 123.646 162.355 123.316 162.376V160.216C123.561 160.195 123.849 160.173 124.18 160.152C124.51 160.131 124.852 160.115 125.204 160.104C125.556 160.093 125.886 160.088 126.196 160.088C127.092 160.088 127.844 160.216 128.452 160.472C129.07 160.728 129.54 161.117 129.86 161.64C130.18 162.152 130.34 162.813 130.34 163.624V169H128.308ZM125.508 169.224C124.878 169.224 124.324 169.112 123.844 168.888C123.374 168.664 123.006 168.344 122.74 167.928C122.473 167.501 122.34 166.995 122.34 166.408C122.34 165.768 122.505 165.245 122.836 164.84C123.166 164.424 123.63 164.12 124.228 163.928C124.825 163.725 125.513 163.624 126.292 163.624H128.164V165.048H126.276C125.828 165.048 125.481 165.16 125.236 165.384C125.001 165.597 124.884 165.891 124.884 166.264C124.884 166.616 125.001 166.904 125.236 167.128C125.481 167.341 125.828 167.448 126.276 167.448C126.564 167.448 126.82 167.4 127.044 167.304C127.278 167.197 127.47 167.021 127.62 166.776C127.769 166.531 127.854 166.189 127.876 165.752L128.484 166.392C128.43 167 128.281 167.512 128.036 167.928C127.801 168.344 127.47 168.664 127.044 168.888C126.628 169.112 126.116 169.224 125.508 169.224ZM135.84 169.272C134.592 169.272 133.616 169.016 132.912 168.504C132.208 167.992 131.834 167.272 131.792 166.344H134.064C134.106 166.621 134.272 166.872 134.56 167.096C134.858 167.309 135.301 167.416 135.888 167.416C136.336 167.416 136.704 167.341 136.992 167.192C137.29 167.032 137.44 166.808 137.44 166.52C137.44 166.264 137.328 166.061 137.104 165.912C136.88 165.752 136.48 165.64 135.904 165.576L135.216 165.512C134.16 165.405 133.365 165.112 132.832 164.632C132.309 164.152 132.048 163.539 132.048 162.792C132.048 162.173 132.202 161.656 132.512 161.24C132.821 160.824 133.248 160.509 133.792 160.296C134.346 160.083 134.976 159.976 135.68 159.976C136.81 159.976 137.722 160.227 138.416 160.728C139.109 161.219 139.472 161.933 139.504 162.872H137.232C137.189 162.584 137.04 162.344 136.784 162.152C136.528 161.949 136.149 161.848 135.648 161.848C135.253 161.848 134.938 161.923 134.704 162.072C134.469 162.221 134.352 162.424 134.352 162.68C134.352 162.925 134.453 163.112 134.656 163.24C134.858 163.368 135.189 163.459 135.648 163.512L136.336 163.576C137.413 163.693 138.25 163.992 138.848 164.472C139.445 164.952 139.744 165.597 139.744 166.408C139.744 166.995 139.584 167.507 139.264 167.944C138.944 168.371 138.49 168.701 137.904 168.936C137.317 169.16 136.629 169.272 135.84 169.272ZM141.818 169V160.232H144.378V169H141.818ZM140.65 162.12V160.232H144.378V162.12H140.65ZM142.81 159.368C142.33 159.368 141.973 159.245 141.738 159C141.514 158.744 141.402 158.424 141.402 158.04C141.402 157.645 141.514 157.325 141.738 157.08C141.973 156.824 142.33 156.696 142.81 156.696C143.29 156.696 143.642 156.824 143.866 157.08C144.101 157.325 144.218 157.645 144.218 158.04C144.218 158.424 144.101 158.744 143.866 159C143.642 159.245 143.29 159.368 142.81 159.368ZM146.938 169V160.152C146.938 159.139 147.226 158.387 147.802 157.896C148.378 157.405 149.226 157.16 150.346 157.16H151.466V159.08H150.234C149.946 159.08 149.722 159.16 149.562 159.32C149.402 159.48 149.322 159.704 149.322 159.992V169H146.938ZM145.898 162.28V160.408H151.594V162.28H145.898ZM153.041 172.472V170.296H154.865C155.142 170.296 155.377 170.259 155.569 170.184C155.761 170.12 155.915 170.008 156.033 169.848C156.15 169.688 156.246 169.469 156.321 169.192L158.481 160.232H160.913L158.465 169.704C158.294 170.387 158.054 170.931 157.745 171.336C157.446 171.741 157.041 172.029 156.529 172.2C156.027 172.381 155.387 172.472 154.609 172.472H153.041ZM155.793 168.808V166.808H157.649V168.808H155.793ZM154.737 168.808L152.049 160.232H154.625L157.169 168.808H154.737Z" fill="white"/>
<path d="M251.769 53.96V47.52C251.769 46.2667 251.995 45.1467 252.449 44.16C252.902 43.1733 253.609 42.3067 254.569 41.56C255.555 40.7867 256.849 40.0933 258.449 39.48L263.129 37.68C264.275 37.2267 265.075 36.6667 265.529 36C266.009 35.3067 266.249 34.4533 266.249 33.44C266.249 32.5067 265.915 31.72 265.249 31.08C264.582 30.4133 263.635 30.08 262.409 30.08C261.182 30.08 260.235 30.4267 259.569 31.12C258.902 31.7867 258.569 32.6933 258.569 33.84H251.369C251.369 31.92 251.782 30.2133 252.609 28.72C253.462 27.2267 254.702 26.0533 256.329 25.2C257.982 24.3467 260.009 23.92 262.409 23.92C264.782 23.92 266.782 24.3333 268.409 25.16C270.062 25.9867 271.315 27.1067 272.169 28.52C273.022 29.9067 273.449 31.4667 273.449 33.2V33.68C273.449 36 272.769 37.9467 271.409 39.52C270.075 41.0667 268.075 42.3467 265.409 43.36L260.729 45.16C260.062 45.4267 259.595 45.72 259.329 46.04C259.089 46.3333 258.969 46.72 258.969 47.2V48.72L257.329 47.56H273.369V53.96H251.769Z" fill="#3E4852"/>
</svg>
