<svg width="784" height="260" viewBox="0 0 784 260" fill="none" xmlns="http://www.w3.org/2000/svg">
<rect x="0.5" y="0.5" width="783" height="259" rx="15.5" fill="white"/>
<path d="M34.008 48.456C32.424 48.456 31.064 48.184 29.928 47.64C28.792 47.08 27.864 46.352 27.144 45.456C26.424 44.544 25.888 43.568 25.536 42.528C25.2 41.472 25.032 40.448 25.032 39.456V38.928C25.032 37.84 25.208 36.768 25.56 35.712C25.912 34.64 26.448 33.672 27.168 32.808C27.904 31.944 28.824 31.256 29.928 30.744C31.048 30.216 32.368 29.952 33.888 29.952C35.472 29.952 36.872 30.248 38.088 30.84C39.304 31.432 40.272 32.256 40.992 33.312C41.728 34.352 42.16 35.576 42.288 36.984H38.328C38.216 36.28 37.96 35.68 37.56 35.184C37.16 34.688 36.64 34.304 36 34.032C35.376 33.76 34.672 33.624 33.888 33.624C33.104 33.624 32.408 33.76 31.8 34.032C31.192 34.304 30.68 34.688 30.264 35.184C29.864 35.68 29.552 36.272 29.328 36.96C29.12 37.632 29.016 38.384 29.016 39.216C29.016 40.032 29.12 40.784 29.328 41.472C29.552 42.144 29.872 42.736 30.288 43.248C30.72 43.744 31.248 44.128 31.872 44.4C32.496 44.656 33.208 44.784 34.008 44.784C35.224 44.784 36.248 44.488 37.08 43.896C37.928 43.304 38.44 42.488 38.616 41.448H42.552C42.408 42.728 41.976 43.904 41.256 44.976C40.552 46.032 39.584 46.88 38.352 47.52C37.136 48.144 35.688 48.456 34.008 48.456ZM51.3553 48.456C50.2033 48.456 49.1793 48.28 48.2833 47.928C47.3873 47.56 46.6273 47.064 46.0033 46.44C45.3953 45.816 44.9313 45.104 44.6113 44.304C44.2913 43.488 44.1313 42.632 44.1313 41.736V41.184C44.1313 40.272 44.2913 39.408 44.6113 38.592C44.9473 37.76 45.4273 37.032 46.0513 36.408C46.6913 35.784 47.4593 35.296 48.3553 34.944C49.2513 34.576 50.2513 34.392 51.3553 34.392C52.4913 34.392 53.4993 34.576 54.3793 34.944C55.2753 35.296 56.0353 35.784 56.6593 36.408C57.2833 37.032 57.7633 37.76 58.0993 38.592C58.4353 39.408 58.6033 40.272 58.6033 41.184V41.736C58.6033 42.632 58.4433 43.488 58.1233 44.304C57.8033 45.104 57.3313 45.816 56.7073 46.44C56.0993 47.064 55.3473 47.56 54.4513 47.928C53.5553 48.28 52.5233 48.456 51.3553 48.456ZM51.3553 45.216C52.1073 45.216 52.7313 45.056 53.2273 44.736C53.7233 44.416 54.0993 43.968 54.3553 43.392C54.6273 42.816 54.7633 42.176 54.7633 41.472C54.7633 40.72 54.6273 40.064 54.3553 39.504C54.0833 38.928 53.6913 38.472 53.1793 38.136C52.6833 37.8 52.0753 37.632 51.3553 37.632C50.6513 37.632 50.0433 37.8 49.5313 38.136C49.0193 38.472 48.6273 38.928 48.3553 39.504C48.0993 40.064 47.9713 40.72 47.9713 41.472C47.9713 42.176 48.0993 42.816 48.3553 43.392C48.6113 43.968 48.9953 44.416 49.5073 44.736C50.0193 45.056 50.6353 45.216 51.3553 45.216ZM61.2833 48V34.848H64.3313V40.488H64.1153C64.1153 39.144 64.2833 38.024 64.6193 37.128C64.9713 36.232 65.4993 35.56 66.2033 35.112C66.9073 34.664 67.7633 34.44 68.7713 34.44H68.9393C70.4753 34.44 71.6433 34.944 72.4433 35.952C73.2593 36.944 73.6673 38.456 73.6673 40.488V48H69.8273V40.272C69.8273 39.568 69.6193 38.992 69.2033 38.544C68.7873 38.096 68.2273 37.872 67.5233 37.872C66.8033 37.872 66.2193 38.104 65.7713 38.568C65.3393 39.016 65.1233 39.608 65.1233 40.344V48H61.2833ZM77.2035 48V34.584C77.2035 33.064 77.6275 31.936 78.4755 31.2C79.3395 30.464 80.6115 30.096 82.2915 30.096H83.5875V32.976H82.1235C81.6915 32.976 81.3555 33.096 81.1155 33.336C80.8915 33.576 80.7795 33.912 80.7795 34.344V48H77.2035ZM75.6675 37.776V34.968H83.5395V37.776H75.6675ZM86.1315 48V34.848H89.9715V48H86.1315ZM84.5715 37.68V34.848H89.9715V37.68H84.5715ZM87.6195 33.552C86.8995 33.552 86.3635 33.368 86.0115 33C85.6755 32.616 85.5075 32.136 85.5075 31.56C85.5075 30.968 85.6755 30.488 86.0115 30.12C86.3635 29.736 86.8995 29.544 87.6195 29.544C88.3555 29.544 88.8915 29.736 89.2275 30.12C89.5635 30.488 89.7315 30.968 89.7315 31.56C89.7315 32.136 89.5635 32.616 89.2275 33C88.8915 33.368 88.3555 33.552 87.6195 33.552ZM93.5333 48V34.848H96.5813V40.488H96.5093C96.5093 38.632 96.9013 37.2 97.6853 36.192C98.4853 35.184 99.6373 34.68 101.141 34.68H101.645V37.992H100.685C99.6293 37.992 98.8133 38.28 98.2373 38.856C97.6613 39.416 97.3733 40.232 97.3733 41.304V48H93.5333ZM103.635 48V34.848H106.683V40.512H106.467C106.467 39.168 106.635 38.048 106.971 37.152C107.307 36.256 107.811 35.584 108.483 35.136C109.155 34.672 109.979 34.44 110.955 34.44H111.123C112.115 34.44 112.939 34.672 113.595 35.136C114.267 35.584 114.771 36.256 115.107 37.152C115.459 38.048 115.635 39.168 115.635 40.512H114.699C114.699 39.168 114.867 38.048 115.203 37.152C115.555 36.256 116.067 35.584 116.739 35.136C117.411 34.672 118.235 34.44 119.211 34.44H119.379C120.371 34.44 121.203 34.672 121.875 35.136C122.563 35.584 123.083 36.256 123.435 37.152C123.787 38.048 123.963 39.168 123.963 40.512V48H120.123V40.296C120.123 39.576 119.931 38.992 119.547 38.544C119.179 38.096 118.651 37.872 117.963 37.872C117.275 37.872 116.731 38.104 116.331 38.568C115.931 39.016 115.731 39.616 115.731 40.368V48H111.867V40.296C111.867 39.576 111.675 38.992 111.291 38.544C110.923 38.096 110.403 37.872 109.731 37.872C109.027 37.872 108.475 38.104 108.075 38.568C107.675 39.016 107.475 39.616 107.475 40.368V48H103.635ZM133.26 48.456C132.14 48.456 131.148 48.264 130.284 47.88C129.436 47.496 128.724 46.984 128.148 46.344C127.588 45.688 127.156 44.96 126.852 44.16C126.564 43.344 126.42 42.512 126.42 41.664V41.184C126.42 40.304 126.564 39.464 126.852 38.664C127.156 37.848 127.588 37.12 128.148 36.48C128.708 35.84 129.404 35.336 130.236 34.968C131.084 34.584 132.044 34.392 133.116 34.392C134.524 34.392 135.708 34.712 136.668 35.352C137.644 35.976 138.388 36.8 138.9 37.824C139.412 38.832 139.668 39.936 139.668 41.136V42.432H128.028V40.248H137.34L136.092 41.256C136.092 40.472 135.98 39.8 135.756 39.24C135.532 38.68 135.196 38.256 134.748 37.968C134.316 37.664 133.772 37.512 133.116 37.512C132.444 37.512 131.876 37.664 131.412 37.968C130.948 38.272 130.596 38.72 130.356 39.312C130.116 39.888 129.996 40.6 129.996 41.448C129.996 42.232 130.108 42.92 130.332 43.512C130.556 44.088 130.908 44.536 131.388 44.856C131.868 45.176 132.492 45.336 133.26 45.336C133.964 45.336 134.54 45.2 134.988 44.928C135.436 44.656 135.74 44.32 135.9 43.92H139.428C139.236 44.8 138.86 45.584 138.3 46.272C137.74 46.96 137.036 47.496 136.188 47.88C135.34 48.264 134.364 48.456 133.26 48.456ZM147.637 48.432C146.709 48.432 145.861 48.264 145.093 47.928C144.341 47.592 143.685 47.128 143.125 46.536C142.565 45.928 142.133 45.216 141.829 44.4C141.541 43.584 141.397 42.704 141.397 41.76V41.208C141.397 40.264 141.533 39.384 141.805 38.568C142.093 37.752 142.501 37.04 143.029 36.432C143.573 35.808 144.221 35.328 144.973 34.992C145.725 34.64 146.565 34.464 147.493 34.464C148.549 34.464 149.461 34.696 150.229 35.16C150.997 35.608 151.597 36.28 152.029 37.176C152.461 38.056 152.701 39.144 152.749 40.44L151.741 39.504V30.48H155.605V48H152.557V42.552H153.085C153.037 43.8 152.773 44.864 152.293 45.744C151.829 46.624 151.197 47.296 150.397 47.76C149.597 48.208 148.677 48.432 147.637 48.432ZM148.597 45.216C149.189 45.216 149.725 45.088 150.205 44.832C150.701 44.56 151.093 44.168 151.381 43.656C151.685 43.144 151.837 42.528 151.837 41.808V40.92C151.837 40.216 151.685 39.624 151.381 39.144C151.077 38.664 150.677 38.296 150.181 38.04C149.685 37.784 149.149 37.656 148.573 37.656C147.933 37.656 147.357 37.824 146.845 38.16C146.349 38.48 145.957 38.928 145.669 39.504C145.381 40.064 145.237 40.72 145.237 41.472C145.237 42.24 145.381 42.904 145.669 43.464C145.957 44.024 146.357 44.456 146.869 44.76C147.381 45.064 147.957 45.216 148.597 45.216ZM28.296 80L24.36 66.848H28.32L32.016 80H28.296ZM29.496 80V76.808H33.36V80H29.496ZM30.912 80L34.104 66.848H37.8L34.392 80H30.912ZM44.5123 80.408C42.9923 80.408 41.8243 79.92 41.0083 78.944C40.1923 77.952 39.7843 76.464 39.7843 74.48V66.848H43.6243V74.672C43.6243 75.376 43.8243 75.936 44.2243 76.352C44.6243 76.768 45.1603 76.976 45.8323 76.976C46.5203 76.976 47.0803 76.76 47.5123 76.328C47.9443 75.896 48.1603 75.312 48.1603 74.576V66.848H52.0003V80H48.9523V74.456H49.2163C49.2163 75.784 49.0403 76.896 48.6883 77.792C48.3523 78.672 47.8483 79.328 47.1763 79.76C46.5043 80.192 45.6723 80.408 44.6803 80.408H44.5123ZM55.7091 80V62.48H59.5731V80H55.7091ZM54.1491 65.312V62.48H59.5731V65.312H54.1491ZM63.1114 80V66.848H66.1594V72.488H65.9434C65.9434 71.144 66.1114 70.024 66.4474 69.128C66.7994 68.232 67.3274 67.56 68.0314 67.112C68.7354 66.664 69.5914 66.44 70.5994 66.44H70.7674C72.3034 66.44 73.4714 66.944 74.2714 67.952C75.0874 68.944 75.4954 70.456 75.4954 72.488V80H71.6554V72.272C71.6554 71.568 71.4474 70.992 71.0314 70.544C70.6154 70.096 70.0554 69.872 69.3514 69.872C68.6314 69.872 68.0474 70.104 67.5994 70.568C67.1674 71.016 66.9514 71.608 66.9514 72.344V80H63.1114ZM84.7916 80.456C83.6716 80.456 82.6796 80.264 81.8156 79.88C80.9676 79.496 80.2556 78.984 79.6796 78.344C79.1196 77.688 78.6876 76.96 78.3836 76.16C78.0956 75.344 77.9516 74.512 77.9516 73.664V73.184C77.9516 72.304 78.0956 71.464 78.3836 70.664C78.6876 69.848 79.1196 69.12 79.6796 68.48C80.2396 67.84 80.9356 67.336 81.7676 66.968C82.6156 66.584 83.5756 66.392 84.6476 66.392C86.0556 66.392 87.2396 66.712 88.1996 67.352C89.1756 67.976 89.9196 68.8 90.4316 69.824C90.9436 70.832 91.1996 71.936 91.1996 73.136V74.432H79.5596V72.248H88.8716L87.6236 73.256C87.6236 72.472 87.5116 71.8 87.2876 71.24C87.0636 70.68 86.7276 70.256 86.2796 69.968C85.8476 69.664 85.3036 69.512 84.6476 69.512C83.9756 69.512 83.4076 69.664 82.9436 69.968C82.4796 70.272 82.1276 70.72 81.8876 71.312C81.6476 71.888 81.5276 72.6 81.5276 73.448C81.5276 74.232 81.6396 74.92 81.8636 75.512C82.0876 76.088 82.4396 76.536 82.9196 76.856C83.3996 77.176 84.0236 77.336 84.7916 77.336C85.4956 77.336 86.0716 77.2 86.5196 76.928C86.9676 76.656 87.2716 76.32 87.4316 75.92H90.9596C90.7676 76.8 90.3916 77.584 89.8316 78.272C89.2716 78.96 88.5676 79.496 87.7196 79.88C86.8716 80.264 85.8956 80.456 84.7916 80.456ZM93.7442 80V66.848H96.7922V72.488H96.7202C96.7202 70.632 97.1122 69.2 97.8962 68.192C98.6962 67.184 99.8482 66.68 101.352 66.68H101.856V69.992H100.896C99.8402 69.992 99.0242 70.28 98.4482 70.856C97.8722 71.416 97.5842 72.232 97.5842 73.304V80H93.7442ZM111.719 80V76.112H111.071V71.888C111.071 71.216 110.911 70.712 110.591 70.376C110.271 70.04 109.759 69.872 109.055 69.872C108.703 69.872 108.239 69.88 107.663 69.896C107.087 69.912 106.495 69.936 105.887 69.968C105.279 70 104.727 70.032 104.231 70.064V66.824C104.599 66.792 105.031 66.76 105.527 66.728C106.023 66.696 106.535 66.672 107.063 66.656C107.591 66.64 108.087 66.632 108.551 66.632C109.895 66.632 111.023 66.824 111.935 67.208C112.863 67.592 113.567 68.176 114.047 68.96C114.527 69.728 114.767 70.72 114.767 71.936V80H111.719ZM107.519 80.336C106.575 80.336 105.743 80.168 105.023 79.832C104.319 79.496 103.767 79.016 103.367 78.392C102.967 77.752 102.767 76.992 102.767 76.112C102.767 75.152 103.015 74.368 103.511 73.76C104.007 73.136 104.703 72.68 105.599 72.392C106.495 72.088 107.527 71.936 108.695 71.936H111.503V74.072H108.671C107.999 74.072 107.479 74.24 107.111 74.576C106.759 74.896 106.583 75.336 106.583 75.896C106.583 76.424 106.759 76.856 107.111 77.192C107.479 77.512 107.999 77.672 108.671 77.672C109.103 77.672 109.487 77.6 109.823 77.456C110.175 77.296 110.463 77.032 110.687 76.664C110.911 76.296 111.039 75.784 111.071 75.128L111.983 76.088C111.903 77 111.679 77.768 111.311 78.392C110.959 79.016 110.463 79.496 109.823 79.832C109.199 80.168 108.431 80.336 107.519 80.336ZM126.113 80.432C125.041 80.432 124.097 80.208 123.281 79.76C122.465 79.296 121.825 78.632 121.361 77.768C120.897 76.904 120.649 75.848 120.617 74.6H121.073V80H118.025V62.48H121.865V71.384L120.953 72.536C121.001 71.208 121.249 70.096 121.697 69.2C122.161 68.288 122.793 67.608 123.593 67.16C124.393 66.696 125.305 66.464 126.329 66.464C127.225 66.464 128.033 66.632 128.753 66.968C129.489 67.288 130.113 67.752 130.625 68.36C131.137 68.952 131.529 69.656 131.801 70.472C132.089 71.288 132.233 72.176 132.233 73.136V73.664C132.233 74.624 132.089 75.512 131.801 76.328C131.529 77.144 131.121 77.864 130.577 78.488C130.049 79.096 129.409 79.576 128.657 79.928C127.905 80.264 127.057 80.432 126.113 80.432ZM125.105 77.216C125.761 77.216 126.329 77.056 126.809 76.736C127.305 76.416 127.689 75.968 127.961 75.392C128.233 74.8 128.369 74.136 128.369 73.4C128.369 72.648 128.233 71.992 127.961 71.432C127.689 70.872 127.305 70.44 126.809 70.136C126.329 69.816 125.761 69.656 125.105 69.656C124.529 69.656 123.985 69.792 123.473 70.064C122.961 70.336 122.545 70.728 122.225 71.24C121.921 71.736 121.769 72.344 121.769 73.064V73.952C121.769 74.64 121.929 75.232 122.249 75.728C122.585 76.208 123.009 76.576 123.521 76.832C124.033 77.088 124.561 77.216 125.105 77.216ZM135.524 80V66.848H139.364V80H135.524ZM133.772 69.68V66.848H139.364V69.68H133.772ZM137.012 65.552C136.292 65.552 135.756 65.368 135.404 65C135.068 64.616 134.9 64.136 134.9 63.56C134.9 62.968 135.068 62.488 135.404 62.12C135.756 61.736 136.292 61.544 137.012 61.544C137.732 61.544 138.26 61.736 138.596 62.12C138.948 62.488 139.124 62.968 139.124 63.56C139.124 64.136 138.948 64.616 138.596 65C138.26 65.368 137.732 65.552 137.012 65.552ZM143.084 80V62.48H146.948V80H143.084ZM141.524 65.312V62.48H146.948V65.312H141.524ZM151.11 80V66.848H154.95V80H151.11ZM149.358 69.68V66.848H154.95V69.68H149.358ZM152.598 65.552C151.878 65.552 151.342 65.368 150.99 65C150.654 64.616 150.486 64.136 150.486 63.56C150.486 62.968 150.654 62.488 150.99 62.12C151.342 61.736 151.878 61.544 152.598 61.544C153.318 61.544 153.846 61.736 154.182 62.12C154.534 62.488 154.71 62.968 154.71 63.56C154.71 64.136 154.534 64.616 154.182 65C153.846 65.368 153.318 65.552 152.598 65.552ZM164.478 80.168C163.15 80.168 162.078 80.008 161.262 79.688C160.446 79.352 159.846 78.8 159.462 78.032C159.094 77.248 158.91 76.192 158.91 74.864V63.296H162.486V75.008C162.486 75.632 162.646 76.112 162.966 76.448C163.302 76.768 163.774 76.928 164.382 76.928H166.326V80.168H164.478ZM156.918 69.656V66.848H166.326V69.656H156.918ZM169.532 80V66.848H173.372V80H169.532ZM167.78 69.68V66.848H173.372V69.68H167.78ZM171.02 65.552C170.3 65.552 169.764 65.368 169.412 65C169.076 64.616 168.908 64.136 168.908 63.56C168.908 62.968 169.076 62.488 169.412 62.12C169.764 61.736 170.3 61.544 171.02 61.544C171.74 61.544 172.268 61.736 172.604 62.12C172.956 62.488 173.132 62.968 173.132 63.56C173.132 64.136 172.956 64.616 172.604 65C172.268 65.368 171.74 65.552 171.02 65.552ZM182.948 80.456C181.828 80.456 180.836 80.264 179.972 79.88C179.124 79.496 178.412 78.984 177.836 78.344C177.276 77.688 176.844 76.96 176.54 76.16C176.252 75.344 176.108 74.512 176.108 73.664V73.184C176.108 72.304 176.252 71.464 176.54 70.664C176.844 69.848 177.276 69.12 177.836 68.48C178.396 67.84 179.092 67.336 179.924 66.968C180.772 66.584 181.732 66.392 182.804 66.392C184.212 66.392 185.396 66.712 186.356 67.352C187.332 67.976 188.076 68.8 188.588 69.824C189.1 70.832 189.356 71.936 189.356 73.136V74.432H177.716V72.248H187.028L185.78 73.256C185.78 72.472 185.668 71.8 185.444 71.24C185.22 70.68 184.884 70.256 184.436 69.968C184.004 69.664 183.46 69.512 182.804 69.512C182.132 69.512 181.564 69.664 181.1 69.968C180.636 70.272 180.284 70.72 180.044 71.312C179.804 71.888 179.684 72.6 179.684 73.448C179.684 74.232 179.796 74.92 180.02 75.512C180.244 76.088 180.596 76.536 181.076 76.856C181.556 77.176 182.18 77.336 182.948 77.336C183.652 77.336 184.228 77.2 184.676 76.928C185.124 76.656 185.428 76.32 185.588 75.92H189.116C188.924 76.8 188.548 77.584 187.988 78.272C187.428 78.96 186.724 79.496 185.876 79.88C185.028 80.264 184.052 80.456 182.948 80.456ZM196.892 80.408C195.02 80.408 193.556 80.024 192.5 79.256C191.444 78.488 190.884 77.408 190.82 76.016H194.228C194.292 76.432 194.54 76.808 194.972 77.144C195.42 77.464 196.084 77.624 196.964 77.624C197.636 77.624 198.188 77.512 198.62 77.288C199.068 77.048 199.292 76.712 199.292 76.28C199.292 75.896 199.124 75.592 198.788 75.368C198.452 75.128 197.852 74.96 196.988 74.864L195.956 74.768C194.372 74.608 193.18 74.168 192.38 73.448C191.596 72.728 191.204 71.808 191.204 70.688C191.204 69.76 191.436 68.984 191.9 68.36C192.364 67.736 193.004 67.264 193.82 66.944C194.652 66.624 195.596 66.464 196.652 66.464C198.348 66.464 199.716 66.84 200.756 67.592C201.796 68.328 202.34 69.4 202.388 70.808H198.98C198.916 70.376 198.692 70.016 198.308 69.728C197.924 69.424 197.356 69.272 196.604 69.272C196.012 69.272 195.54 69.384 195.188 69.608C194.836 69.832 194.66 70.136 194.66 70.52C194.66 70.888 194.812 71.168 195.116 71.36C195.42 71.552 195.916 71.688 196.604 71.768L197.636 71.864C199.252 72.04 200.508 72.488 201.404 73.208C202.3 73.928 202.748 74.896 202.748 76.112C202.748 76.992 202.508 77.76 202.028 78.416C201.548 79.056 200.868 79.552 199.988 79.904C199.108 80.24 198.076 80.408 196.892 80.408Z" fill="#3E4852"/>
<path d="M41.408 234V195.472L44.224 197.648H30.016V187.28H53.312V234H41.408ZM28.736 234V223.632H63.808V234H28.736ZM71.73 233.936V223.632C71.73 221.627 72.0927 219.835 72.818 218.256C73.5433 216.677 74.674 215.291 76.21 214.096C77.7887 212.859 79.858 211.749 82.418 210.768L89.906 207.888C91.7407 207.163 93.0207 206.267 93.746 205.2C94.514 204.091 94.898 202.725 94.898 201.104C94.898 199.611 94.3647 198.352 93.298 197.328C92.2313 196.261 90.7167 195.728 88.754 195.728C86.7913 195.728 85.2767 196.283 84.21 197.392C83.1433 198.459 82.61 199.909 82.61 201.744H71.09C71.09 198.672 71.7513 195.941 73.074 193.552C74.4393 191.163 76.4233 189.285 79.026 187.92C81.6713 186.555 84.914 185.872 88.754 185.872C92.5513 185.872 95.7513 186.533 98.354 187.856C100.999 189.179 103.005 190.971 104.37 193.232C105.735 195.451 106.418 197.947 106.418 200.72V201.488C106.418 205.2 105.33 208.315 103.154 210.832C101.021 213.307 97.8207 215.355 93.554 216.976L86.066 219.856C84.9993 220.283 84.2527 220.752 83.826 221.264C83.442 221.733 83.25 222.352 83.25 223.12V225.552L80.626 223.696H106.29V233.936H71.73ZM132.132 235.408C128.249 235.408 124.857 234.875 121.956 233.808C119.097 232.699 116.879 231.077 115.3 228.944C113.721 226.811 112.932 224.187 112.932 221.072C112.932 219.109 113.231 217.36 113.828 215.824C114.468 214.288 115.364 212.987 116.516 211.92C117.668 210.853 119.033 210.043 120.612 209.488V208.592C119.375 208.08 118.265 207.397 117.284 206.544C116.345 205.691 115.599 204.624 115.044 203.344C114.532 202.064 114.276 200.549 114.276 198.8C114.276 195.856 115.044 193.445 116.58 191.568C118.116 189.648 120.228 188.219 122.916 187.28C125.604 186.341 128.676 185.872 132.132 185.872C135.631 185.872 138.703 186.341 141.348 187.28C144.036 188.219 146.148 189.648 147.684 191.568C149.22 193.445 149.988 195.856 149.988 198.8C149.988 200.549 149.711 202.064 149.156 203.344C148.644 204.624 147.897 205.691 146.916 206.544C145.977 207.397 144.889 208.08 143.652 208.592V209.488C145.231 210.043 146.596 210.853 147.748 211.92C148.9 212.987 149.775 214.288 150.372 215.824C151.012 217.317 151.332 219.067 151.332 221.072C151.332 224.187 150.543 226.811 148.964 228.944C147.385 231.077 145.167 232.699 142.308 233.808C139.449 234.875 136.057 235.408 132.132 235.408ZM132.132 225.68C133.625 225.68 134.948 225.467 136.1 225.04C137.252 224.571 138.148 223.888 138.788 222.992C139.471 222.096 139.812 220.944 139.812 219.536C139.812 218.128 139.492 216.976 138.852 216.08C138.212 215.184 137.316 214.523 136.164 214.096C135.012 213.669 133.668 213.456 132.132 213.456C130.639 213.456 129.295 213.669 128.1 214.096C126.948 214.523 126.052 215.184 125.412 216.08C124.772 216.976 124.452 218.128 124.452 219.536C124.452 220.944 124.772 222.096 125.412 222.992C126.095 223.888 127.012 224.571 128.164 225.04C129.316 225.467 130.639 225.68 132.132 225.68ZM132.132 204.752C134.137 204.752 135.695 204.368 136.804 203.6C137.913 202.789 138.468 201.637 138.468 200.144C138.468 198.651 137.913 197.52 136.804 196.752C135.695 195.984 134.137 195.6 132.132 195.6C130.127 195.6 128.569 195.984 127.46 196.752C126.351 197.52 125.796 198.651 125.796 200.144C125.796 201.637 126.351 202.789 127.46 203.6C128.612 204.368 130.169 204.752 132.132 204.752Z" fill="#3E4852"/>
<path d="M27.632 173V163.288H30.256V173H27.632ZM24.352 163.608V161.32H33.552V163.608H24.352ZM38.2369 173.304C37.4689 173.304 36.7862 173.187 36.1889 172.952C35.5915 172.707 35.0849 172.376 34.6689 171.96C34.2635 171.544 33.9542 171.069 33.7409 170.536C33.5275 169.992 33.4209 169.421 33.4209 168.824V168.456C33.4209 167.848 33.5275 167.272 33.7409 166.728C33.9649 166.173 34.2849 165.688 34.7009 165.272C35.1275 164.856 35.6395 164.531 36.2369 164.296C36.8342 164.051 37.5009 163.928 38.2369 163.928C38.9942 163.928 39.6662 164.051 40.2529 164.296C40.8502 164.531 41.3569 164.856 41.7729 165.272C42.1889 165.688 42.5089 166.173 42.7329 166.728C42.9569 167.272 43.0689 167.848 43.0689 168.456V168.824C43.0689 169.421 42.9622 169.992 42.7489 170.536C42.5355 171.069 42.2209 171.544 41.8049 171.96C41.3995 172.376 40.8982 172.707 40.3009 172.952C39.7035 173.187 39.0155 173.304 38.2369 173.304ZM38.2369 171.144C38.7382 171.144 39.1542 171.037 39.4849 170.824C39.8155 170.611 40.0662 170.312 40.2369 169.928C40.4182 169.544 40.5089 169.117 40.5089 168.648C40.5089 168.147 40.4182 167.709 40.2369 167.336C40.0555 166.952 39.7942 166.648 39.4529 166.424C39.1222 166.2 38.7169 166.088 38.2369 166.088C37.7675 166.088 37.3622 166.2 37.0209 166.424C36.6795 166.648 36.4182 166.952 36.2369 167.336C36.0662 167.709 35.9809 168.147 35.9809 168.648C35.9809 169.117 36.0662 169.544 36.2369 169.928C36.4075 170.312 36.6635 170.611 37.0049 170.824C37.3462 171.037 37.7569 171.144 38.2369 171.144ZM48.8395 173.112C47.9542 173.112 47.2395 173.005 46.6955 172.792C46.1515 172.568 45.7515 172.2 45.4955 171.688C45.2502 171.165 45.1275 170.461 45.1275 169.576V161.864H47.5115V169.672C47.5115 170.088 47.6182 170.408 47.8315 170.632C48.0555 170.845 48.3702 170.952 48.7755 170.952H50.0715V173.112H48.8395ZM43.7995 166.104V164.232H50.0715V166.104H43.7995ZM57.0578 173V170.408H56.6258V167.592C56.6258 167.144 56.5191 166.808 56.3058 166.584C56.0924 166.36 55.7511 166.248 55.2818 166.248C55.0471 166.248 54.7378 166.253 54.3538 166.264C53.9698 166.275 53.5751 166.291 53.1698 166.312C52.7644 166.333 52.3964 166.355 52.0658 166.376V164.216C52.3111 164.195 52.5991 164.173 52.9298 164.152C53.2604 164.131 53.6018 164.115 53.9538 164.104C54.3058 164.093 54.6364 164.088 54.9458 164.088C55.8418 164.088 56.5938 164.216 57.2018 164.472C57.8204 164.728 58.2898 165.117 58.6098 165.64C58.9298 166.152 59.0898 166.813 59.0898 167.624V173H57.0578ZM54.2578 173.224C53.6284 173.224 53.0738 173.112 52.5938 172.888C52.1244 172.664 51.7564 172.344 51.4898 171.928C51.2231 171.501 51.0898 170.995 51.0898 170.408C51.0898 169.768 51.2551 169.245 51.5858 168.84C51.9164 168.424 52.3804 168.12 52.9778 167.928C53.5751 167.725 54.2631 167.624 55.0418 167.624H56.9138V169.048H55.0258C54.5778 169.048 54.2311 169.16 53.9858 169.384C53.7511 169.597 53.6338 169.891 53.6338 170.264C53.6338 170.616 53.7511 170.904 53.9858 171.128C54.2311 171.341 54.5778 171.448 55.0258 171.448C55.3138 171.448 55.5698 171.4 55.7938 171.304C56.0284 171.197 56.2204 171.021 56.3698 170.776C56.5191 170.531 56.6044 170.189 56.6258 169.752L57.2338 170.392C57.1804 171 57.0311 171.512 56.7858 171.928C56.5511 172.344 56.2204 172.664 55.7938 172.888C55.3778 173.112 54.8658 173.224 54.2578 173.224ZM61.3738 173V161.32H63.9498V173H61.3738ZM60.3338 163.208V161.32H63.9498V163.208H60.3338ZM73.604 173.304C72.8467 173.304 72.1853 173.181 71.62 172.936C71.0653 172.68 70.6013 172.339 70.228 171.912C69.8547 171.485 69.5773 171.005 69.396 170.472C69.2147 169.928 69.124 169.368 69.124 168.792V168.488C69.124 167.891 69.22 167.32 69.412 166.776C69.604 166.221 69.8867 165.731 70.26 165.304C70.6333 164.877 71.0973 164.541 71.652 164.296C72.2173 164.051 72.8627 163.928 73.588 163.928C74.3773 163.928 75.076 164.083 75.684 164.392C76.292 164.691 76.7773 165.112 77.14 165.656C77.5027 166.2 77.7053 166.824 77.748 167.528H75.236C75.1933 167.133 75.0333 166.803 74.756 166.536C74.4893 166.259 74.1 166.12 73.588 166.12C73.1613 166.12 72.804 166.227 72.516 166.44C72.2387 166.653 72.0307 166.947 71.892 167.32C71.7533 167.693 71.684 168.136 71.684 168.648C71.684 169.117 71.748 169.544 71.876 169.928C72.004 170.301 72.2067 170.595 72.484 170.808C72.772 171.011 73.1453 171.112 73.604 171.112C73.9453 171.112 74.2333 171.053 74.468 170.936C74.7133 170.808 74.9053 170.637 75.044 170.424C75.1933 170.2 75.284 169.944 75.316 169.656H77.812C77.78 170.381 77.5773 171.021 77.204 171.576C76.8307 172.12 76.3347 172.547 75.716 172.856C75.0973 173.155 74.3933 173.304 73.604 173.304ZM83.7213 173.304C82.9533 173.304 82.2706 173.187 81.6733 172.952C81.0759 172.707 80.5693 172.376 80.1533 171.96C79.7479 171.544 79.4386 171.069 79.2253 170.536C79.0119 169.992 78.9053 169.421 78.9053 168.824V168.456C78.9053 167.848 79.0119 167.272 79.2253 166.728C79.4493 166.173 79.7693 165.688 80.1853 165.272C80.6119 164.856 81.1239 164.531 81.7213 164.296C82.3186 164.051 82.9853 163.928 83.7213 163.928C84.4786 163.928 85.1506 164.051 85.7373 164.296C86.3346 164.531 86.8413 164.856 87.2573 165.272C87.6733 165.688 87.9933 166.173 88.2173 166.728C88.4413 167.272 88.5533 167.848 88.5533 168.456V168.824C88.5533 169.421 88.4466 169.992 88.2333 170.536C88.0199 171.069 87.7053 171.544 87.2893 171.96C86.8839 172.376 86.3826 172.707 85.7853 172.952C85.1879 173.187 84.4999 173.304 83.7213 173.304ZM83.7213 171.144C84.2226 171.144 84.6386 171.037 84.9693 170.824C85.2999 170.611 85.5506 170.312 85.7213 169.928C85.9026 169.544 85.9933 169.117 85.9933 168.648C85.9933 168.147 85.9026 167.709 85.7213 167.336C85.5399 166.952 85.2786 166.648 84.9373 166.424C84.6066 166.2 84.2013 166.088 83.7213 166.088C83.2519 166.088 82.8466 166.2 82.5052 166.424C82.1639 166.648 81.9026 166.952 81.7213 167.336C81.5506 167.709 81.4653 168.147 81.4653 168.648C81.4653 169.117 81.5506 169.544 81.7213 169.928C81.8919 170.312 82.1479 170.611 82.4893 170.824C82.8306 171.037 83.2413 171.144 83.7213 171.144ZM90.3399 173V164.232H92.3719V167.992H92.2279C92.2279 167.096 92.3399 166.349 92.5639 165.752C92.7985 165.155 93.1505 164.707 93.6199 164.408C94.0892 164.109 94.6599 163.96 95.3319 163.96H95.4439C96.4679 163.96 97.2465 164.296 97.7799 164.968C98.3239 165.629 98.5959 166.637 98.5959 167.992V173H96.0359V167.848C96.0359 167.379 95.8972 166.995 95.6199 166.696C95.3425 166.397 94.9692 166.248 94.4999 166.248C94.0199 166.248 93.6305 166.403 93.3319 166.712C93.0439 167.011 92.8999 167.405 92.8999 167.896V173H90.3399ZM100.953 173V164.056C100.953 163.043 101.236 162.291 101.801 161.8C102.377 161.309 103.225 161.064 104.345 161.064H105.209V162.984H104.233C103.945 162.984 103.721 163.064 103.561 163.224C103.412 163.384 103.337 163.608 103.337 163.896V173H100.953ZM99.9294 166.184V164.312H105.177V166.184H99.9294ZM106.905 173V164.232H109.465V173H106.905ZM105.865 166.12V164.232H109.465V166.12H105.865ZM107.897 163.368C107.417 163.368 107.06 163.245 106.825 163C106.601 162.744 106.489 162.424 106.489 162.04C106.489 161.645 106.601 161.325 106.825 161.08C107.06 160.824 107.417 160.696 107.897 160.696C108.388 160.696 108.745 160.824 108.969 161.08C109.193 161.325 109.305 161.645 109.305 162.04C109.305 162.424 109.193 162.744 108.969 163C108.745 163.245 108.388 163.368 107.897 163.368ZM111.84 173V164.232H113.872V167.992H113.824C113.824 166.755 114.085 165.8 114.608 165.128C115.141 164.456 115.909 164.12 116.912 164.12H117.248V166.328H116.608C115.904 166.328 115.36 166.52 114.976 166.904C114.592 167.277 114.4 167.821 114.4 168.536V173H111.84ZM118.574 173V164.232H120.606V168.008H120.462C120.462 167.112 120.574 166.365 120.798 165.768C121.022 165.171 121.358 164.723 121.806 164.424C122.254 164.115 122.804 163.96 123.454 163.96H123.566C124.228 163.96 124.777 164.115 125.214 164.424C125.662 164.723 125.998 165.171 126.222 165.768C126.457 166.365 126.574 167.112 126.574 168.008H125.95C125.95 167.112 126.062 166.365 126.286 165.768C126.521 165.171 126.862 164.723 127.31 164.424C127.758 164.115 128.308 163.96 128.958 163.96H129.07C129.732 163.96 130.286 164.115 130.734 164.424C131.193 164.723 131.54 165.171 131.774 165.768C132.009 166.365 132.126 167.112 132.126 168.008V173H129.566V167.864C129.566 167.384 129.438 166.995 129.182 166.696C128.937 166.397 128.585 166.248 128.126 166.248C127.668 166.248 127.305 166.403 127.038 166.712C126.772 167.011 126.638 167.411 126.638 167.912V173H124.062V167.864C124.062 167.384 123.934 166.995 123.678 166.696C123.433 166.397 123.086 166.248 122.638 166.248C122.169 166.248 121.801 166.403 121.534 166.712C121.268 167.011 121.134 167.411 121.134 167.912V173H118.574ZM138.325 173.304C137.578 173.304 136.917 173.176 136.341 172.92C135.775 172.664 135.301 172.323 134.917 171.896C134.543 171.459 134.255 170.973 134.053 170.44C133.861 169.896 133.765 169.341 133.765 168.776V168.456C133.765 167.869 133.861 167.309 134.053 166.776C134.255 166.232 134.543 165.747 134.917 165.32C135.29 164.893 135.754 164.557 136.309 164.312C136.874 164.056 137.514 163.928 138.229 163.928C139.167 163.928 139.957 164.141 140.597 164.568C141.247 164.984 141.743 165.533 142.085 166.216C142.426 166.888 142.597 167.624 142.597 168.424V169.288H134.837V167.832H141.045L140.213 168.504C140.213 167.981 140.138 167.533 139.989 167.16C139.839 166.787 139.615 166.504 139.317 166.312C139.029 166.109 138.666 166.008 138.229 166.008C137.781 166.008 137.402 166.109 137.093 166.312C136.783 166.515 136.549 166.813 136.389 167.208C136.229 167.592 136.149 168.067 136.149 168.632C136.149 169.155 136.223 169.613 136.373 170.008C136.522 170.392 136.757 170.691 137.077 170.904C137.397 171.117 137.813 171.224 138.325 171.224C138.794 171.224 139.178 171.133 139.477 170.952C139.775 170.771 139.978 170.547 140.085 170.28H142.437C142.309 170.867 142.058 171.389 141.685 171.848C141.311 172.307 140.842 172.664 140.277 172.92C139.711 173.176 139.061 173.304 138.325 173.304ZM147.909 173.288C147.29 173.288 146.725 173.176 146.213 172.952C145.712 172.728 145.274 172.419 144.901 172.024C144.528 171.619 144.24 171.144 144.037 170.6C143.845 170.056 143.749 169.469 143.749 168.84V168.472C143.749 167.843 143.84 167.256 144.021 166.712C144.213 166.168 144.485 165.693 144.837 165.288C145.2 164.872 145.632 164.552 146.133 164.328C146.634 164.093 147.194 163.976 147.813 163.976C148.517 163.976 149.125 164.131 149.637 164.44C150.149 164.739 150.549 165.187 150.837 165.784C151.125 166.371 151.285 167.096 151.317 167.96L150.645 167.336V161.32H153.221V173H151.189V169.368H151.541C151.509 170.2 151.333 170.909 151.013 171.496C150.704 172.083 150.282 172.531 149.749 172.84C149.216 173.139 148.602 173.288 147.909 173.288ZM148.549 171.144C148.944 171.144 149.301 171.059 149.621 170.888C149.952 170.707 150.213 170.445 150.405 170.104C150.608 169.763 150.709 169.352 150.709 168.872V168.28C150.709 167.811 150.608 167.416 150.405 167.096C150.202 166.776 149.936 166.531 149.605 166.36C149.274 166.189 148.917 166.104 148.533 166.104C148.106 166.104 147.722 166.216 147.381 166.44C147.05 166.653 146.789 166.952 146.597 167.336C146.405 167.709 146.309 168.147 146.309 168.648C146.309 169.16 146.405 169.603 146.597 169.976C146.789 170.349 147.056 170.637 147.397 170.84C147.738 171.043 148.122 171.144 148.549 171.144ZM155.143 173V170.136H157.959V173H155.143ZM155.143 167.672V164.808H157.959V167.672H155.143Z" fill="#3E4852"/>
<path d="M621.838 63.266C620.914 63.266 620.121 63.1073 619.458 62.79C618.795 62.4633 618.254 62.0387 617.834 61.516C617.414 60.984 617.101 60.4147 616.896 59.808C616.7 59.192 616.602 58.5947 616.602 58.016V57.708C616.602 57.0733 616.705 56.448 616.91 55.832C617.115 55.2067 617.428 54.642 617.848 54.138C618.277 53.634 618.814 53.2327 619.458 52.934C620.111 52.626 620.881 52.472 621.768 52.472C622.692 52.472 623.509 52.6447 624.218 52.99C624.927 53.3353 625.492 53.816 625.912 54.432C626.341 55.0387 626.593 55.7527 626.668 56.574H624.358C624.293 56.1633 624.143 55.8133 623.91 55.524C623.677 55.2347 623.373 55.0107 623 54.852C622.636 54.6933 622.225 54.614 621.768 54.614C621.311 54.614 620.905 54.6933 620.55 54.852C620.195 55.0107 619.897 55.2347 619.654 55.524C619.421 55.8133 619.239 56.1587 619.108 56.56C618.987 56.952 618.926 57.3907 618.926 57.876C618.926 58.352 618.987 58.7907 619.108 59.192C619.239 59.584 619.425 59.9293 619.668 60.228C619.92 60.5173 620.228 60.7413 620.592 60.9C620.956 61.0493 621.371 61.124 621.838 61.124C622.547 61.124 623.145 60.9513 623.63 60.606C624.125 60.2607 624.423 59.7847 624.526 59.178H626.822C626.738 59.9247 626.486 60.6107 626.066 61.236C625.655 61.852 625.091 62.3467 624.372 62.72C623.663 63.084 622.818 63.266 621.838 63.266ZM628.219 63V55.328H629.997V58.618H629.955C629.955 57.5353 630.184 56.7 630.641 56.112C631.108 55.524 631.78 55.23 632.657 55.23H632.951V57.162H632.391C631.775 57.162 631.299 57.33 630.963 57.666C630.627 57.9927 630.459 58.4687 630.459 59.094V63H628.219ZM634.476 63V55.328H636.716V63H634.476ZM633.454 56.98V55.328H636.716V56.98H633.454ZM635.344 54.572C634.924 54.572 634.611 54.4647 634.406 54.25C634.21 54.026 634.112 53.746 634.112 53.41C634.112 53.0647 634.21 52.7847 634.406 52.57C634.611 52.346 634.924 52.234 635.344 52.234C635.764 52.234 636.072 52.346 636.268 52.57C636.473 52.7847 636.576 53.0647 636.576 53.41C636.576 53.746 636.473 54.026 636.268 54.25C636.072 54.4647 635.764 54.572 635.344 54.572ZM642.274 63.098C641.499 63.098 640.874 63.0047 640.398 62.818C639.922 62.622 639.572 62.3 639.348 61.852C639.133 61.3947 639.026 60.7787 639.026 60.004V53.256H641.112V60.088C641.112 60.452 641.205 60.732 641.392 60.928C641.588 61.1147 641.863 61.208 642.218 61.208H643.352V63.098H642.274ZM637.864 56.966V55.328H643.352V56.966H637.864ZM645.222 63V55.328H647.462V63H645.222ZM644.2 56.98V55.328H647.462V56.98H644.2ZM646.09 54.572C645.67 54.572 645.357 54.4647 645.152 54.25C644.956 54.026 644.858 53.746 644.858 53.41C644.858 53.0647 644.956 52.7847 645.152 52.57C645.357 52.346 645.67 52.234 646.09 52.234C646.51 52.234 646.818 52.346 647.014 52.57C647.219 52.7847 647.322 53.0647 647.322 53.41C647.322 53.746 647.219 54.026 647.014 54.25C646.818 54.4647 646.51 54.572 646.09 54.572ZM652.978 63.266C652.315 63.266 651.736 63.1587 651.242 62.944C650.756 62.72 650.35 62.4213 650.024 62.048C649.697 61.6747 649.454 61.2547 649.296 60.788C649.137 60.312 649.058 59.822 649.058 59.318V59.052C649.058 58.5293 649.142 58.03 649.31 57.554C649.478 57.0687 649.725 56.6393 650.052 56.266C650.378 55.8927 650.784 55.5987 651.27 55.384C651.764 55.1693 652.329 55.062 652.964 55.062C653.654 55.062 654.266 55.1973 654.798 55.468C655.33 55.7293 655.754 56.098 656.072 56.574C656.389 57.05 656.566 57.596 656.604 58.212H654.406C654.368 57.8667 654.228 57.5773 653.986 57.344C653.752 57.1013 653.412 56.98 652.964 56.98C652.59 56.98 652.278 57.0733 652.026 57.26C651.783 57.4467 651.601 57.7033 651.48 58.03C651.358 58.3567 651.298 58.744 651.298 59.192C651.298 59.6027 651.354 59.976 651.466 60.312C651.578 60.6387 651.755 60.8953 651.998 61.082C652.25 61.2593 652.576 61.348 652.978 61.348C653.276 61.348 653.528 61.2967 653.734 61.194C653.948 61.082 654.116 60.9327 654.238 60.746C654.368 60.55 654.448 60.326 654.476 60.074H656.66C656.632 60.7087 656.454 61.2687 656.128 61.754C655.801 62.23 655.367 62.6033 654.826 62.874C654.284 63.1353 653.668 63.266 652.978 63.266ZM662.726 63V60.732H662.348V58.268C662.348 57.876 662.255 57.582 662.068 57.386C661.882 57.19 661.583 57.092 661.172 57.092C660.967 57.092 660.696 57.0967 660.36 57.106C660.024 57.1153 659.679 57.1293 659.324 57.148C658.97 57.1667 658.648 57.1853 658.358 57.204V55.314C658.573 55.2953 658.825 55.2767 659.114 55.258C659.404 55.2393 659.702 55.2253 660.01 55.216C660.318 55.2067 660.608 55.202 660.878 55.202C661.662 55.202 662.32 55.314 662.852 55.538C663.394 55.762 663.804 56.1027 664.084 56.56C664.364 57.008 664.504 57.5867 664.504 58.296V63H662.726ZM660.276 63.196C659.726 63.196 659.24 63.098 658.82 62.902C658.41 62.706 658.088 62.426 657.854 62.062C657.621 61.6887 657.504 61.2453 657.504 60.732C657.504 60.172 657.649 59.7147 657.938 59.36C658.228 58.996 658.634 58.73 659.156 58.562C659.679 58.3847 660.281 58.296 660.962 58.296H662.6V59.542H660.948C660.556 59.542 660.253 59.64 660.038 59.836C659.833 60.0227 659.73 60.2793 659.73 60.606C659.73 60.914 659.833 61.166 660.038 61.362C660.253 61.5487 660.556 61.642 660.948 61.642C661.2 61.642 661.424 61.6 661.62 61.516C661.826 61.4227 661.994 61.2687 662.124 61.054C662.255 60.8393 662.33 60.5407 662.348 60.158L662.88 60.718C662.834 61.25 662.703 61.698 662.488 62.062C662.283 62.426 661.994 62.706 661.62 62.902C661.256 63.098 660.808 63.196 660.276 63.196ZM666.503 63V52.78H668.757V63H666.503ZM665.593 54.432V52.78H668.757V54.432H665.593Z" fill="#3E4852"/>
<path d="M623.756 99V88.78H626.052V99H623.756ZM617.148 99V88.78H619.444V99H617.148ZM619.038 94.87V92.854H624.162V94.87H619.038ZM628.583 99V91.328H630.823V99H628.583ZM627.561 92.98V91.328H630.823V92.98H627.561ZM629.451 90.572C629.031 90.572 628.719 90.4647 628.513 90.25C628.317 90.026 628.219 89.746 628.219 89.41C628.219 89.0647 628.317 88.7847 628.513 88.57C628.719 88.346 629.031 88.234 629.451 88.234C629.871 88.234 630.179 88.346 630.375 88.57C630.581 88.7847 630.683 89.0647 630.683 89.41C630.683 89.746 630.581 90.026 630.375 90.25C630.179 90.4647 629.871 90.572 629.451 90.572ZM635.919 102.052C635.546 102.052 635.163 102.038 634.771 102.01C634.379 101.982 634.02 101.945 633.693 101.898V100.008C634.02 100.055 634.379 100.092 634.771 100.12C635.172 100.157 635.536 100.176 635.863 100.176C636.47 100.176 636.96 100.106 637.333 99.966C637.716 99.826 637.996 99.6113 638.173 99.322C638.35 99.042 638.439 98.678 638.439 98.23V96.704L638.845 95.808C638.826 96.4893 638.691 97.0727 638.439 97.558C638.196 98.0433 637.856 98.4167 637.417 98.678C636.978 98.93 636.456 99.056 635.849 99.056C635.326 99.056 634.85 98.9627 634.421 98.776C634.001 98.58 633.642 98.3093 633.343 97.964C633.044 97.6187 632.816 97.2173 632.657 96.76C632.498 96.2933 632.419 95.7893 632.419 95.248V94.926C632.419 94.3847 632.503 93.8807 632.671 93.414C632.839 92.9473 633.082 92.5413 633.399 92.196C633.716 91.8507 634.094 91.5847 634.533 91.398C634.972 91.202 635.457 91.104 635.989 91.104C636.605 91.104 637.137 91.2393 637.585 91.51C638.042 91.7807 638.402 92.1773 638.663 92.7C638.924 93.2227 639.064 93.8527 639.083 94.59L638.775 94.674V91.328H640.553V98.09C640.553 99.0327 640.385 99.7933 640.049 100.372C639.713 100.951 639.2 101.375 638.509 101.646C637.828 101.917 636.964 102.052 635.919 102.052ZM636.549 97.166C636.894 97.166 637.207 97.0913 637.487 96.942C637.767 96.7833 637.986 96.5593 638.145 96.27C638.313 95.9807 638.397 95.6307 638.397 95.22V94.814C638.397 94.4127 638.308 94.0767 638.131 93.806C637.963 93.526 637.739 93.316 637.459 93.176C637.179 93.0267 636.88 92.952 636.563 92.952C636.19 92.952 635.858 93.0407 635.569 93.218C635.28 93.3953 635.056 93.6427 634.897 93.96C634.738 94.2773 634.659 94.6507 634.659 95.08C634.659 95.5187 634.738 95.8967 634.897 96.214C635.065 96.522 635.289 96.76 635.569 96.928C635.858 97.0867 636.185 97.166 636.549 97.166ZM642.493 99V88.78H644.733V94.674H644.397C644.397 93.8993 644.495 93.246 644.691 92.714C644.887 92.182 645.176 91.7807 645.559 91.51C645.941 91.23 646.422 91.09 647.001 91.09H647.099C647.948 91.09 648.597 91.3933 649.045 92C649.493 92.5973 649.717 93.4747 649.717 94.632V99H647.477V94.492C647.477 94.072 647.351 93.736 647.099 93.484C646.856 93.2227 646.534 93.092 646.133 93.092C645.713 93.092 645.372 93.2273 645.111 93.498C644.859 93.7687 644.733 94.128 644.733 94.576V99H642.493Z" fill="#3E4852"/>
<path d="M617.148 135V124.78H620.312L622.65 130.52H622.916L625.226 124.78H628.446V135H626.178V126.278L626.5 126.306L623.798 132.928H621.614L618.898 126.306L619.248 126.278V135H617.148ZM634.126 135.266C633.473 135.266 632.894 135.154 632.39 134.93C631.895 134.706 631.48 134.407 631.144 134.034C630.817 133.651 630.565 133.227 630.388 132.76C630.22 132.284 630.136 131.799 630.136 131.304V131.024C630.136 130.511 630.22 130.021 630.388 129.554C630.565 129.078 630.817 128.653 631.144 128.28C631.471 127.907 631.877 127.613 632.362 127.398C632.857 127.174 633.417 127.062 634.042 127.062C634.863 127.062 635.554 127.249 636.114 127.622C636.683 127.986 637.117 128.467 637.416 129.064C637.715 129.652 637.864 130.296 637.864 130.996V131.752H631.074V130.478H636.506L635.778 131.066C635.778 130.609 635.713 130.217 635.582 129.89C635.451 129.563 635.255 129.316 634.994 129.148C634.742 128.971 634.425 128.882 634.042 128.882C633.65 128.882 633.319 128.971 633.048 129.148C632.777 129.325 632.572 129.587 632.432 129.932C632.292 130.268 632.222 130.683 632.222 131.178C632.222 131.635 632.287 132.037 632.418 132.382C632.549 132.718 632.754 132.979 633.034 133.166C633.314 133.353 633.678 133.446 634.126 133.446C634.537 133.446 634.873 133.367 635.134 133.208C635.395 133.049 635.573 132.853 635.666 132.62H637.724C637.612 133.133 637.393 133.591 637.066 133.992C636.739 134.393 636.329 134.706 635.834 134.93C635.339 135.154 634.77 135.266 634.126 135.266ZM642.512 135.252C641.971 135.252 641.476 135.154 641.028 134.958C640.59 134.762 640.207 134.491 639.88 134.146C639.554 133.791 639.302 133.376 639.124 132.9C638.956 132.424 638.872 131.911 638.872 131.36V131.038C638.872 130.487 638.952 129.974 639.11 129.498C639.278 129.022 639.516 128.607 639.824 128.252C640.142 127.888 640.52 127.608 640.958 127.412C641.397 127.207 641.887 127.104 642.428 127.104C643.044 127.104 643.576 127.239 644.024 127.51C644.472 127.771 644.822 128.163 645.074 128.686C645.326 129.199 645.466 129.834 645.494 130.59L644.906 130.044V124.78H647.16V135H645.382V131.822H645.69C645.662 132.55 645.508 133.171 645.228 133.684C644.958 134.197 644.589 134.589 644.122 134.86C643.656 135.121 643.119 135.252 642.512 135.252ZM643.072 133.376C643.418 133.376 643.73 133.301 644.01 133.152C644.3 132.993 644.528 132.765 644.696 132.466C644.874 132.167 644.962 131.808 644.962 131.388V130.87C644.962 130.459 644.874 130.114 644.696 129.834C644.519 129.554 644.286 129.339 643.996 129.19C643.707 129.041 643.394 128.966 643.058 128.966C642.685 128.966 642.349 129.064 642.05 129.26C641.761 129.447 641.532 129.708 641.364 130.044C641.196 130.371 641.112 130.753 641.112 131.192C641.112 131.64 641.196 132.027 641.364 132.354C641.532 132.681 641.766 132.933 642.064 133.11C642.363 133.287 642.699 133.376 643.072 133.376ZM649.556 135V127.328H651.796V135H649.556ZM648.534 128.98V127.328H651.796V128.98H648.534ZM650.424 126.572C650.004 126.572 649.691 126.465 649.486 126.25C649.29 126.026 649.192 125.746 649.192 125.41C649.192 125.065 649.29 124.785 649.486 124.57C649.691 124.346 650.004 124.234 650.424 124.234C650.844 124.234 651.152 124.346 651.348 124.57C651.553 124.785 651.656 125.065 651.656 125.41C651.656 125.746 651.553 126.026 651.348 126.25C651.152 126.465 650.844 126.572 650.424 126.572ZM656.458 135.238C655.571 135.238 654.89 134.953 654.414 134.384C653.938 133.805 653.7 132.937 653.7 131.78V127.328H655.94V131.892C655.94 132.303 656.056 132.629 656.29 132.872C656.523 133.115 656.836 133.236 657.228 133.236C657.629 133.236 657.956 133.11 658.208 132.858C658.46 132.606 658.586 132.265 658.586 131.836V127.328H660.826V135H659.048V131.766H659.202C659.202 132.541 659.099 133.189 658.894 133.712C658.698 134.225 658.404 134.608 658.012 134.86C657.62 135.112 657.134 135.238 656.556 135.238H656.458ZM662.891 135V127.328H664.669V130.632H664.543C664.543 129.848 664.641 129.195 664.837 128.672C665.033 128.149 665.327 127.757 665.719 127.496C666.111 127.225 666.592 127.09 667.161 127.09H667.259C667.838 127.09 668.318 127.225 668.701 127.496C669.093 127.757 669.387 128.149 669.583 128.672C669.788 129.195 669.891 129.848 669.891 130.632H669.345C669.345 129.848 669.443 129.195 669.639 128.672C669.844 128.149 670.143 127.757 670.535 127.496C670.927 127.225 671.408 127.09 671.977 127.09H672.075C672.654 127.09 673.139 127.225 673.531 127.496C673.932 127.757 674.236 128.149 674.441 128.672C674.646 129.195 674.749 129.848 674.749 130.632V135H672.509V130.506C672.509 130.086 672.397 129.745 672.173 129.484C671.958 129.223 671.65 129.092 671.249 129.092C670.848 129.092 670.53 129.227 670.297 129.498C670.064 129.759 669.947 130.109 669.947 130.548V135H667.693V130.506C667.693 130.086 667.581 129.745 667.357 129.484C667.142 129.223 666.839 129.092 666.447 129.092C666.036 129.092 665.714 129.227 665.481 129.498C665.248 129.759 665.131 130.109 665.131 130.548V135H662.891Z" fill="#3E4852"/>
<path d="M617.148 171V160.78H619.444V171H617.148ZM619.164 171V168.984H623.448V171H619.164ZM628.471 171.266C627.799 171.266 627.202 171.163 626.679 170.958C626.156 170.743 625.713 170.454 625.349 170.09C624.994 169.726 624.724 169.311 624.537 168.844C624.35 168.368 624.257 167.869 624.257 167.346V167.024C624.257 166.492 624.35 165.988 624.537 165.512C624.733 165.027 625.013 164.602 625.377 164.238C625.75 163.874 626.198 163.589 626.721 163.384C627.244 163.169 627.827 163.062 628.471 163.062C629.134 163.062 629.722 163.169 630.235 163.384C630.758 163.589 631.201 163.874 631.565 164.238C631.929 164.602 632.209 165.027 632.405 165.512C632.601 165.988 632.699 166.492 632.699 167.024V167.346C632.699 167.869 632.606 168.368 632.419 168.844C632.232 169.311 631.957 169.726 631.593 170.09C631.238 170.454 630.8 170.743 630.277 170.958C629.754 171.163 629.152 171.266 628.471 171.266ZM628.471 169.376C628.91 169.376 629.274 169.283 629.563 169.096C629.852 168.909 630.072 168.648 630.221 168.312C630.38 167.976 630.459 167.603 630.459 167.192C630.459 166.753 630.38 166.371 630.221 166.044C630.062 165.708 629.834 165.442 629.535 165.246C629.246 165.05 628.891 164.952 628.471 164.952C628.06 164.952 627.706 165.05 627.407 165.246C627.108 165.442 626.88 165.708 626.721 166.044C626.572 166.371 626.497 166.753 626.497 167.192C626.497 167.603 626.572 167.976 626.721 168.312C626.87 168.648 627.094 168.909 627.393 169.096C627.692 169.283 628.051 169.376 628.471 169.376ZM636.899 171L638.299 163.58H640.749L642.373 171H640.637L638.971 163.636H639.965L638.467 171H636.899ZM636.367 171L636.353 169.138H637.893L637.907 171H636.367ZM635.359 171L633.301 163.328H635.499L637.417 171H635.359ZM641.211 171L641.225 169.138H642.765V171H641.211ZM641.841 171L643.549 163.328H645.607L643.759 171H641.841Z" fill="#3E4852"/>
<path d="M617.176 207V196.78H619.472V207H617.176ZM621.67 207V199.328H623.448V202.618H623.322C623.322 201.834 623.42 201.181 623.616 200.658C623.822 200.135 624.13 199.743 624.54 199.482C624.951 199.221 625.45 199.09 626.038 199.09H626.136C627.032 199.09 627.714 199.384 628.18 199.972C628.656 200.551 628.894 201.433 628.894 202.618V207H626.654V202.492C626.654 202.081 626.533 201.745 626.29 201.484C626.048 201.223 625.721 201.092 625.31 201.092C624.89 201.092 624.55 201.227 624.288 201.498C624.036 201.759 623.91 202.105 623.91 202.534V207H621.67ZM630.971 207V199.258C630.971 198.371 631.223 197.713 631.727 197.284C632.231 196.855 632.973 196.64 633.953 196.64H634.933V198.32H633.855C633.603 198.32 633.407 198.39 633.267 198.53C633.127 198.67 633.057 198.866 633.057 199.118V207H630.971ZM630.061 201.12V199.482H635.045V201.12H630.061ZM639.86 207.266C639.188 207.266 638.59 207.163 638.068 206.958C637.545 206.743 637.102 206.454 636.738 206.09C636.383 205.726 636.112 205.311 635.926 204.844C635.739 204.368 635.646 203.869 635.646 203.346V203.024C635.646 202.492 635.739 201.988 635.926 201.512C636.122 201.027 636.402 200.602 636.766 200.238C637.139 199.874 637.587 199.589 638.11 199.384C638.632 199.169 639.216 199.062 639.86 199.062C640.522 199.062 641.11 199.169 641.624 199.384C642.146 199.589 642.59 199.874 642.954 200.238C643.318 200.602 643.598 201.027 643.794 201.512C643.99 201.988 644.088 202.492 644.088 203.024V203.346C644.088 203.869 643.994 204.368 643.808 204.844C643.621 205.311 643.346 205.726 642.982 206.09C642.627 206.454 642.188 206.743 641.666 206.958C641.143 207.163 640.541 207.266 639.86 207.266ZM639.86 205.376C640.298 205.376 640.662 205.283 640.952 205.096C641.241 204.909 641.46 204.648 641.61 204.312C641.768 203.976 641.848 203.603 641.848 203.192C641.848 202.753 641.768 202.371 641.61 202.044C641.451 201.708 641.222 201.442 640.924 201.246C640.634 201.05 640.28 200.952 639.86 200.952C639.449 200.952 639.094 201.05 638.796 201.246C638.497 201.442 638.268 201.708 638.11 202.044C637.96 202.371 637.886 202.753 637.886 203.192C637.886 203.603 637.96 203.976 638.11 204.312C638.259 204.648 638.483 204.909 638.782 205.096C639.08 205.283 639.44 205.376 639.86 205.376ZM645.651 207V199.328H647.429V202.618H647.387C647.387 201.535 647.616 200.7 648.073 200.112C648.54 199.524 649.212 199.23 650.089 199.23H650.383V201.162H649.823C649.207 201.162 648.731 201.33 648.395 201.666C648.059 201.993 647.891 202.469 647.891 203.094V207H645.651ZM651.543 207V199.328H653.321V202.632H653.195C653.195 201.848 653.293 201.195 653.489 200.672C653.685 200.149 653.979 199.757 654.371 199.496C654.763 199.225 655.244 199.09 655.813 199.09H655.911C656.49 199.09 656.971 199.225 657.353 199.496C657.745 199.757 658.039 200.149 658.235 200.672C658.441 201.195 658.543 201.848 658.543 202.632H657.997C657.997 201.848 658.095 201.195 658.291 200.672C658.497 200.149 658.795 199.757 659.187 199.496C659.579 199.225 660.06 199.09 660.629 199.09H660.727C661.306 199.09 661.791 199.225 662.183 199.496C662.585 199.757 662.888 200.149 663.093 200.672C663.299 201.195 663.401 201.848 663.401 202.632V207H661.161V202.506C661.161 202.086 661.049 201.745 660.825 201.484C660.611 201.223 660.303 201.092 659.901 201.092C659.5 201.092 659.183 201.227 658.949 201.498C658.716 201.759 658.599 202.109 658.599 202.548V207H656.345V202.506C656.345 202.086 656.233 201.745 656.009 201.484C655.795 201.223 655.491 201.092 655.099 201.092C654.689 201.092 654.367 201.227 654.133 201.498C653.9 201.759 653.783 202.109 653.783 202.548V207H651.543ZM669.945 207V204.732H669.567V202.268C669.567 201.876 669.474 201.582 669.287 201.386C669.1 201.19 668.802 201.092 668.391 201.092C668.186 201.092 667.915 201.097 667.579 201.106C667.243 201.115 666.898 201.129 666.543 201.148C666.188 201.167 665.866 201.185 665.577 201.204V199.314C665.792 199.295 666.044 199.277 666.333 199.258C666.622 199.239 666.921 199.225 667.229 199.216C667.537 199.207 667.826 199.202 668.097 199.202C668.881 199.202 669.539 199.314 670.071 199.538C670.612 199.762 671.023 200.103 671.303 200.56C671.583 201.008 671.723 201.587 671.723 202.296V207H669.945ZM667.495 207.196C666.944 207.196 666.459 207.098 666.039 206.902C665.628 206.706 665.306 206.426 665.073 206.062C664.84 205.689 664.723 205.245 664.723 204.732C664.723 204.172 664.868 203.715 665.157 203.36C665.446 202.996 665.852 202.73 666.375 202.562C666.898 202.385 667.5 202.296 668.181 202.296H669.819V203.542H668.167C667.775 203.542 667.472 203.64 667.257 203.836C667.052 204.023 666.949 204.279 666.949 204.606C666.949 204.914 667.052 205.166 667.257 205.362C667.472 205.549 667.775 205.642 668.167 205.642C668.419 205.642 668.643 205.6 668.839 205.516C669.044 205.423 669.212 205.269 669.343 205.054C669.474 204.839 669.548 204.541 669.567 204.158L670.099 204.718C670.052 205.25 669.922 205.698 669.707 206.062C669.502 206.426 669.212 206.706 668.839 206.902C668.475 207.098 668.027 207.196 667.495 207.196ZM677.11 207.098C676.335 207.098 675.71 207.005 675.234 206.818C674.758 206.622 674.408 206.3 674.184 205.852C673.969 205.395 673.862 204.779 673.862 204.004V197.256H675.948V204.088C675.948 204.452 676.041 204.732 676.228 204.928C676.424 205.115 676.699 205.208 677.054 205.208H678.188V207.098H677.11ZM672.7 200.966V199.328H678.188V200.966H672.7ZM680.058 207V199.328H682.298V207H680.058ZM679.036 200.98V199.328H682.298V200.98H679.036ZM680.926 198.572C680.506 198.572 680.193 198.465 679.988 198.25C679.792 198.026 679.694 197.746 679.694 197.41C679.694 197.065 679.792 196.785 679.988 196.57C680.193 196.346 680.506 196.234 680.926 196.234C681.346 196.234 681.654 196.346 681.85 196.57C682.055 196.785 682.158 197.065 682.158 197.41C682.158 197.746 682.055 198.026 681.85 198.25C681.654 198.465 681.346 198.572 680.926 198.572ZM688.108 207.266C687.436 207.266 686.838 207.163 686.316 206.958C685.793 206.743 685.35 206.454 684.986 206.09C684.631 205.726 684.36 205.311 684.174 204.844C683.987 204.368 683.894 203.869 683.894 203.346V203.024C683.894 202.492 683.987 201.988 684.174 201.512C684.37 201.027 684.65 200.602 685.014 200.238C685.387 199.874 685.835 199.589 686.358 199.384C686.88 199.169 687.464 199.062 688.108 199.062C688.77 199.062 689.358 199.169 689.872 199.384C690.394 199.589 690.838 199.874 691.202 200.238C691.566 200.602 691.846 201.027 692.042 201.512C692.238 201.988 692.336 202.492 692.336 203.024V203.346C692.336 203.869 692.242 204.368 692.056 204.844C691.869 205.311 691.594 205.726 691.23 206.09C690.875 206.454 690.436 206.743 689.914 206.958C689.391 207.163 688.789 207.266 688.108 207.266ZM688.108 205.376C688.546 205.376 688.91 205.283 689.2 205.096C689.489 204.909 689.708 204.648 689.858 204.312C690.016 203.976 690.096 203.603 690.096 203.192C690.096 202.753 690.016 202.371 689.858 202.044C689.699 201.708 689.47 201.442 689.172 201.246C688.882 201.05 688.528 200.952 688.108 200.952C687.697 200.952 687.342 201.05 687.044 201.246C686.745 201.442 686.516 201.708 686.358 202.044C686.208 202.371 686.134 202.753 686.134 203.192C686.134 203.603 686.208 203.976 686.358 204.312C686.507 204.648 686.731 204.909 687.03 205.096C687.328 205.283 687.688 205.376 688.108 205.376ZM693.899 207V199.328H695.677V202.618H695.551C695.551 201.834 695.649 201.181 695.845 200.658C696.05 200.135 696.358 199.743 696.769 199.482C697.18 199.221 697.679 199.09 698.267 199.09H698.365C699.261 199.09 699.942 199.384 700.409 199.972C700.885 200.551 701.123 201.433 701.123 202.618V207H698.883V202.492C698.883 202.081 698.762 201.745 698.519 201.484C698.276 201.223 697.95 201.092 697.539 201.092C697.119 201.092 696.778 201.227 696.517 201.498C696.265 201.759 696.139 202.105 696.139 202.534V207H693.899Z" fill="#3E4852"/>
<rect x="544" y="42" width="64" height="32" rx="4" fill="#EA3829"/>
<path d="M591.071 61.04V58.646L594.907 52.486L596.685 53.648L593.409 58.926L593.605 59.22H599.681V61.04H591.071ZM596.405 63V55.636H598.533V63H596.405Z" fill="white"/>
<rect x="544" y="78" width="64" height="32" rx="4" fill="#F05F1D"/>
<path d="M595.271 99.294C594.45 99.294 593.731 99.1727 593.115 98.93C592.499 98.6873 592.023 98.3327 591.687 97.866C591.351 97.3993 591.183 96.83 591.183 96.158C591.183 95.738 591.253 95.36 591.393 95.024C591.533 94.688 591.734 94.4033 591.995 94.17C592.256 93.9367 592.56 93.7547 592.905 93.624V93.442C592.634 93.33 592.392 93.1807 592.177 92.994C591.962 92.798 591.79 92.56 591.659 92.28C591.538 92 591.477 91.6733 591.477 91.3C591.477 90.6653 591.64 90.1427 591.967 89.732C592.303 89.3213 592.756 89.0133 593.325 88.808C593.904 88.5933 594.552 88.486 595.271 88.486C596.008 88.486 596.657 88.5933 597.217 88.808C597.786 89.0133 598.234 89.3213 598.561 89.732C598.897 90.1427 599.065 90.6653 599.065 91.3C599.065 91.6733 599.004 92 598.883 92.28C598.762 92.56 598.594 92.798 598.379 92.994C598.164 93.1807 597.917 93.33 597.637 93.442V93.624C597.992 93.7547 598.295 93.9367 598.547 94.17C598.808 94.4033 599.009 94.688 599.149 95.024C599.298 95.3507 599.373 95.7287 599.373 96.158C599.373 96.83 599.2 97.3993 598.855 97.866C598.519 98.3327 598.043 98.6873 597.427 98.93C596.82 99.1727 596.102 99.294 595.271 99.294ZM595.271 97.404C595.644 97.404 595.971 97.348 596.251 97.236C596.531 97.124 596.75 96.956 596.909 96.732C597.068 96.508 597.147 96.228 597.147 95.892C597.147 95.5653 597.068 95.29 596.909 95.066C596.76 94.842 596.545 94.674 596.265 94.562C595.985 94.45 595.654 94.394 595.271 94.394C594.898 94.394 594.566 94.45 594.277 94.562C593.997 94.674 593.778 94.842 593.619 95.066C593.47 95.29 593.395 95.5653 593.395 95.892C593.395 96.228 593.474 96.508 593.633 96.732C593.792 96.956 594.011 97.124 594.291 97.236C594.571 97.348 594.898 97.404 595.271 97.404ZM595.271 92.7C595.756 92.7 596.139 92.602 596.419 92.406C596.699 92.21 596.839 91.916 596.839 91.524C596.839 91.1413 596.699 90.852 596.419 90.656C596.139 90.46 595.756 90.362 595.271 90.362C594.786 90.362 594.403 90.46 594.123 90.656C593.843 90.852 593.703 91.1413 593.703 91.524C593.703 91.916 593.843 92.21 594.123 92.406C594.412 92.602 594.795 92.7 595.271 92.7Z" fill="white"/>
<rect x="544" y="114" width="64" height="32" rx="4" fill="#F68511"/>
<path d="M586.034 135.294C585.297 135.294 584.662 135.168 584.13 134.916C583.607 134.664 583.178 134.314 582.842 133.866C582.506 133.418 582.259 132.9 582.1 132.312C581.941 131.715 581.862 131.075 581.862 130.394V129.792C581.862 128.112 582.287 126.843 583.136 125.984C583.995 125.125 585.241 124.696 586.874 124.696C587.21 124.696 587.541 124.705 587.868 124.724C588.195 124.743 588.507 124.771 588.806 124.808V126.74C588.517 126.703 588.199 126.675 587.854 126.656C587.509 126.637 587.159 126.628 586.804 126.628C586.067 126.628 585.493 126.754 585.082 127.006C584.671 127.258 584.382 127.631 584.214 128.126C584.055 128.611 583.976 129.213 583.976 129.932V131.332H583.514C583.523 130.651 583.659 130.077 583.92 129.61C584.181 129.143 584.545 128.789 585.012 128.546C585.479 128.303 586.011 128.182 586.608 128.182C587.317 128.182 587.924 128.327 588.428 128.616C588.932 128.896 589.319 129.293 589.59 129.806C589.861 130.319 589.996 130.926 589.996 131.626C589.996 132.363 589.828 133.007 589.492 133.558C589.165 134.109 588.703 134.538 588.106 134.846C587.518 135.145 586.827 135.294 586.034 135.294ZM585.964 133.39C586.347 133.39 586.673 133.315 586.944 133.166C587.215 133.017 587.42 132.811 587.56 132.55C587.709 132.289 587.784 131.99 587.784 131.654C587.784 131.299 587.714 130.996 587.574 130.744C587.434 130.483 587.229 130.282 586.958 130.142C586.697 129.993 586.375 129.918 585.992 129.918C585.665 129.918 585.357 129.983 585.068 130.114C584.779 130.245 584.545 130.441 584.368 130.702C584.2 130.954 584.116 131.271 584.116 131.654C584.116 131.981 584.181 132.279 584.312 132.55C584.452 132.811 584.657 133.017 584.928 133.166C585.208 133.315 585.553 133.39 585.964 133.39ZM591.071 133.04V130.646L594.907 124.486L596.685 125.648L593.409 130.926L593.605 131.22H599.681V133.04H591.071ZM596.405 135V127.636H598.533V135H596.405Z" fill="white"/>
<rect x="544" y="150" width="64" height="32" rx="4" fill="#F9B208"/>
<path d="M582.17 170.986V168.872C582.17 168.443 582.245 168.065 582.394 167.738C582.543 167.402 582.781 167.108 583.108 166.856C583.444 166.595 583.883 166.352 584.424 166.128L586.132 165.442C586.561 165.265 586.869 165.045 587.056 164.784C587.243 164.513 587.336 164.177 587.336 163.776C587.336 163.375 587.201 163.043 586.93 162.782C586.669 162.521 586.291 162.39 585.796 162.39C585.311 162.39 584.933 162.525 584.662 162.796C584.391 163.067 584.256 163.431 584.256 163.888H582.044C582.044 163.244 582.184 162.665 582.464 162.152C582.744 161.629 583.164 161.219 583.724 160.92C584.284 160.621 584.975 160.472 585.796 160.472C586.617 160.472 587.303 160.621 587.854 160.92C588.414 161.209 588.839 161.597 589.128 162.082C589.417 162.567 589.562 163.104 589.562 163.692V163.874C589.562 164.667 589.333 165.33 588.876 165.862C588.419 166.394 587.742 166.837 586.846 167.192L585.152 167.892C584.863 168.013 584.662 168.139 584.55 168.27C584.447 168.391 584.396 168.555 584.396 168.76V169.488L583.878 169.026H589.576V170.986H582.17ZM591.071 169.04V166.646L594.907 160.486L596.685 161.648L593.409 166.926L593.605 167.22H599.681V169.04H591.071ZM596.405 171V163.636H598.533V171H596.405Z" fill="white"/>
<rect x="544" y="186" width="64" height="32" rx="4" fill="#3892F3"/>
<path d="M585.026 207V198.292L585.642 198.768H582.576V196.78H587.322V207H585.026ZM582.338 207V205.012H589.604V207H582.338ZM595.495 207.294C594.758 207.294 594.123 207.168 593.591 206.916C593.068 206.664 592.639 206.314 592.303 205.866C591.967 205.418 591.72 204.9 591.561 204.312C591.402 203.715 591.323 203.075 591.323 202.394V201.792C591.323 200.112 591.748 198.843 592.597 197.984C593.456 197.125 594.702 196.696 596.335 196.696C596.671 196.696 597.002 196.705 597.329 196.724C597.656 196.743 597.968 196.771 598.267 196.808V198.74C597.978 198.703 597.66 198.675 597.315 198.656C596.97 198.637 596.62 198.628 596.265 198.628C595.528 198.628 594.954 198.754 594.543 199.006C594.132 199.258 593.843 199.631 593.675 200.126C593.516 200.611 593.437 201.213 593.437 201.932V203.332H592.975C592.984 202.651 593.12 202.077 593.381 201.61C593.642 201.143 594.006 200.789 594.473 200.546C594.94 200.303 595.472 200.182 596.069 200.182C596.778 200.182 597.385 200.327 597.889 200.616C598.393 200.896 598.78 201.293 599.051 201.806C599.322 202.319 599.457 202.926 599.457 203.626C599.457 204.363 599.289 205.007 598.953 205.558C598.626 206.109 598.164 206.538 597.567 206.846C596.979 207.145 596.288 207.294 595.495 207.294ZM595.425 205.39C595.808 205.39 596.134 205.315 596.405 205.166C596.676 205.017 596.881 204.811 597.021 204.55C597.17 204.289 597.245 203.99 597.245 203.654C597.245 203.299 597.175 202.996 597.035 202.744C596.895 202.483 596.69 202.282 596.419 202.142C596.158 201.993 595.836 201.918 595.453 201.918C595.126 201.918 594.818 201.983 594.529 202.114C594.24 202.245 594.006 202.441 593.829 202.702C593.661 202.954 593.577 203.271 593.577 203.654C593.577 203.981 593.642 204.279 593.773 204.55C593.913 204.811 594.118 205.017 594.389 205.166C594.669 205.315 595.014 205.39 595.425 205.39Z" fill="white"/>
<circle cx="392" cy="130" r="104" fill="#F68511"/>
<path d="M392 130L446 41.1004C430.26 31.5189 411.774 26 392 26L392 130Z" fill="#F05F1D"/>
<path d="M392 130H288C288 72.5624 334.562 26 392 26V130Z" fill="#3892F3"/>
<path d="M392 130L316.953 58C335.88 38.2773 362.506 26 392 26V130Z" fill="#3892F3"/>
<path d="M392 130L413.5 28.225C406.563 26.7668 399.371 26 392 26V130Z" fill="#EA3829"/>
<path d="M392 130L288 130C288 187.438 334.562 234 392 234L392 130Z" fill="#F9B208"/>
<path d="M448 130C448 160.928 422.928 186 392 186V74C422.928 74 448 99.0721 448 130Z" fill="black" fill-opacity="0.2"/>
<path d="M392 130H336C336 99.0721 361.072 74 392 74V130Z" fill="black" fill-opacity="0.2"/>
<path d="M392 130L336 130C336 160.928 361.072 186 392 186L392 130Z" fill="black" fill-opacity="0.2"/>
<circle cx="392" cy="130" r="48" fill="white"/>
<rect x="0.5" y="0.5" width="783" height="259" rx="15.5" stroke="#E1E4E7"/>
</svg>
