<svg width="24" height="24" viewBox="0 0 24 24" fill="none" xmlns="http://www.w3.org/2000/svg">
<mask id="path-1-inside-1_2301_84613" fill="white">
<path d="M5.1499 22C4.7399 22 4.3999 21.66 4.3999 21.25V2.75C4.3999 2.34 4.7399 2 5.1499 2C5.5599 2 5.8999 2.34 5.8999 2.75V21.25C5.8999 21.66 5.5599 22 5.1499 22Z"/>
</mask>
<path d="M5.1499 20C5.84447 20 6.3999 20.5554 6.3999 21.25H2.3999C2.3999 22.7646 3.63533 24 5.1499 24V20ZM6.3999 21.25V2.75H2.3999V21.25H6.3999ZM6.3999 2.75C6.3999 3.44457 5.84447 4 5.1499 4V0C3.63533 0 2.3999 1.23543 2.3999 2.75H6.3999ZM5.1499 4C4.45533 4 3.8999 3.44457 3.8999 2.75H7.8999C7.8999 1.23543 6.66447 0 5.1499 0V4ZM3.8999 2.75V21.25H7.8999V2.75H3.8999ZM3.8999 21.25C3.8999 20.5554 4.45533 20 5.1499 20V24C6.66447 24 7.8999 22.7646 7.8999 21.25H3.8999Z" fill="#F05F1D" mask="url(#path-1-inside-1_2301_84613)"/>
<path d="M18.1949 5.19893L18.1948 5.19894L18.1973 5.20482C18.2768 5.39522 18.2913 5.96391 17.3129 6.94227L16.1129 8.14227C15.5961 8.65903 15.3006 9.37402 15.3306 10.1138C15.3491 10.7693 15.6199 11.3959 16.1154 11.839L17.3095 13.033C17.31 13.0336 17.3105 13.0341 17.3111 13.0346C18.2569 13.9904 18.2527 14.5532 18.1664 14.7659C18.0788 14.9722 17.6773 15.3794 16.35 15.3794H5.77002V4.60938H16.35C17.7293 4.60938 18.123 5.0238 18.1949 5.19893Z" fill="#F05F1D" stroke="#F05F1D" stroke-width="2"/>
</svg>
