<svg width="24" height="24" viewBox="0 0 24 24" fill="none" xmlns="http://www.w3.org/2000/svg">
<mask id="path-1-inside-1_1886_4126" fill="white">
<path d="M5.15039 22C4.74039 22 4.40039 21.66 4.40039 21.25V2.75C4.40039 2.34 4.74039 2 5.15039 2C5.56039 2 5.90039 2.34 5.90039 2.75V21.25C5.90039 21.66 5.56039 22 5.15039 22Z"/>
</mask>
<path d="M5.15039 20C5.84496 20 6.40039 20.5554 6.40039 21.25H2.40039C2.40039 22.7646 3.63582 24 5.15039 24V20ZM6.40039 21.25V2.75H2.40039V21.25H6.40039ZM6.40039 2.75C6.40039 3.44457 5.84496 4 5.15039 4V0C3.63582 0 2.40039 1.23543 2.40039 2.75H6.40039ZM5.15039 4C4.45582 4 3.90039 3.44457 3.90039 2.75H7.90039C7.90039 1.23543 6.66496 0 5.15039 0V4ZM3.90039 2.75V21.25H7.90039V2.75H3.90039ZM3.90039 21.25C3.90039 20.5554 4.45582 20 5.15039 20V24C6.66496 24 7.90039 22.7646 7.90039 21.25H3.90039Z" fill="white" mask="url(#path-1-inside-1_1886_4126)"/>
<path d="M18.1944 5.19954L18.1943 5.19955L18.1968 5.20543C18.2763 5.39583 18.2908 5.96452 17.3124 6.94288L16.1124 8.14288C15.5957 8.65964 15.3001 9.37463 15.3301 10.1144C15.3487 10.7699 15.6195 11.3965 16.1149 11.8396L17.309 13.0336C17.3095 13.0342 17.3101 13.0347 17.3106 13.0353C18.2564 13.991 18.2522 14.5538 18.166 14.7665C18.0783 14.9728 17.6769 15.38 16.3495 15.38H5.76953V4.60999H16.3495C17.7288 4.60999 18.1225 5.02441 18.1944 5.19954Z" fill="white" stroke="white" stroke-width="2"/>
</svg>
