<svg width="21" height="20" viewBox="0 0 21 20" fill="none" xmlns="http://www.w3.org/2000/svg">
<path d="M15.4707 11.0104L15.4707 11.0103C15.7992 10.6367 16.2116 9.94586 15.8775 9.19913C15.5418 8.44856 14.7479 8.3 14.2497 8.3H13.5497V5.34C13.5497 5.03057 13.5099 4.7031 13.3866 4.40398C13.2613 4.09976 13.0131 3.7496 12.5727 3.58546C12.1339 3.42192 11.7188 3.52313 11.4271 3.66743C11.139 3.80994 10.894 4.02746 10.6905 4.25766L10.689 4.25937L10.249 4.75937L10.2488 4.75961L6.5288 8.98961L6.52876 8.98966C6.20023 9.36328 5.78785 10.0541 6.12191 10.8009C6.45769 11.5514 7.25153 11.7 7.74973 11.7H8.44973V14.66C8.44973 14.9694 8.48955 15.2969 8.61281 15.596C8.73818 15.9002 8.98631 16.2504 9.42677 16.4145C9.86559 16.5781 10.2807 16.4769 10.5724 16.3326C10.8604 16.1901 11.1054 15.9725 11.3089 15.7423L11.3104 15.7406L11.7504 15.2406L11.7507 15.2404L15.4707 11.0104ZM1.96973 10C1.96973 5.03228 6.00201 1 10.9697 1C15.9468 1 19.9697 5.03163 19.9697 10C19.9697 14.9677 15.9374 19 10.9697 19C6.00201 19 1.96973 14.9677 1.96973 10Z" fill="#EA3829" stroke="#EA3829" stroke-width="2"/>
</svg>
