<svg width="56" height="56" viewBox="0 0 56 56" fill="none" xmlns="http://www.w3.org/2000/svg">
<path fill-rule="evenodd" clip-rule="evenodd" d="M20.5842 49.6398C20.7802 50.2424 21.2001 50.7528 21.7321 51.0776C22.5441 51.5178 23.0758 52.3729 23.0758 53.3512C23.0758 54.8131 21.8718 56 20.4158 56C18.9598 56 17.7842 54.8131 17.7842 53.3512C17.7842 53.0023 17.8401 52.6691 17.9521 52.3639C18.2041 51.7947 18.2038 51.1613 18.0358 50.5784C17.1398 47.6602 14.48 39.723 14.48 39.723C14.312 39.247 14.4518 38.7223 14.8158 38.3678C14.8158 38.3678 16.104 37.07 17 36.1754C17.448 35.723 17.504 35.0115 17.14 34.4854C16.804 34.0337 16.58 33.5185 16.44 32.9739C16.272 32.3999 15.768 31.9984 15.18 31.9984C14.256 31.9732 13.08 31.9732 13.08 31.9732C13.08 31.9732 9.66379 38.7859 8.37579 41.4151C8.06779 41.9821 8.01211 42.632 8.15211 43.2468C8.26411 43.4454 8.29212 43.6654 8.29212 43.8925C8.29212 45.3544 7.11611 46.541 5.63211 46.541C4.17611 46.541 3 45.3544 3 43.8925C3 42.7832 3.67211 41.832 4.65211 41.438C5.21211 41.1961 5.68789 40.7551 5.96789 40.1951C7.3959 37.4343 11.0921 30.0566 11.0921 30.0566C11.3161 29.6078 11.7639 29.3244 12.2679 29.3244H14.9C15.656 29.3244 16.2442 28.7314 16.2442 28C16.2442 27.2686 15.656 26.6756 14.9 26.6756C13.752 26.6756 12.2679 26.6756 12.2679 26.6756C11.7639 26.6756 11.3161 26.3922 11.0921 25.9434C11.0921 25.9434 7.39579 18.5657 5.99578 15.7903C5.71578 15.2239 5.24011 14.7776 4.65211 14.5328C3.67211 14.168 3 13.2168 3 12.1075C3 10.6456 4.17611 9.45895 5.63211 9.45895C7.11611 9.45895 8.29212 10.6456 8.29212 12.1075C8.29212 12.3346 8.2639 12.5546 8.2079 12.7649C8.0679 13.3686 8.12422 14.0067 8.40422 14.5634C9.66423 17.2141 13.08 24.0268 13.08 24.0268H15.18C15.768 24.0265 16.3 23.6174 16.44 23.032C16.58 22.4815 16.804 21.9663 17.14 21.4995C17.476 20.984 17.4201 20.2868 16.9721 19.8436C16.1041 18.93 14.8158 17.6322 14.8158 17.6322C14.4518 17.2777 14.312 16.753 14.48 16.277C14.48 16.277 17.1401 8.3398 18.0921 5.44544C18.2881 4.8454 18.2598 4.19356 18.0358 3.6078C17.8398 3.33088 17.7842 2.99768 17.7842 2.6488C17.7842 1.18692 18.9598 0 20.4158 0C21.8718 0 23.0758 1.18692 23.0758 2.6488C23.0758 3.62712 22.544 4.48224 21.76 4.94088C21.2 5.26316 20.8081 5.7694 20.6121 6.36692C19.6321 9.1742 17.2521 16.338 17.2521 16.338C17.2521 16.338 18.5121 17.6058 19.3521 18.4422C19.7721 18.8658 20.4439 18.9524 20.9479 18.6525C22.3759 17.827 25.0642 16.2856 25.0642 16.2856C26.6882 15.3392 28.7038 15.3392 30.3558 16.2856C30.3558 16.2856 33.0163 17.827 34.4443 18.6525C34.9763 18.9524 35.62 18.8658 36.04 18.4422C36.88 17.6058 38.1679 16.338 38.1679 16.338C38.1679 16.338 35.7598 9.17421 34.8358 6.36021C34.6398 5.75765 34.2199 5.2472 33.6879 4.9224C32.8759 4.48224 32.3442 3.62712 32.3442 2.6488C32.3442 1.18692 33.5203 0 35.0043 0C36.4603 0 37.6358 1.18692 37.6358 2.6488C37.6358 2.99768 37.58 3.33088 37.44 3.63608C37.216 4.20532 37.1883 4.83867 37.3843 5.42163C38.2803 8.33979 40.94 16.277 40.94 16.277C41.08 16.753 40.9683 17.2777 40.6043 17.6322C40.6043 17.6322 39.316 18.93 38.42 19.8246C37.972 20.277 37.888 20.9885 38.28 21.5146C38.588 21.9663 38.84 22.4815 38.98 23.0261C39.12 23.6001 39.652 24.0016 40.24 24.0016C41.164 24.0268 42.34 24.0268 42.34 24.0268C42.34 24.0268 45.7283 17.2141 47.0443 14.5849C47.3243 14.0179 47.408 13.368 47.24 12.7532C47.156 12.5546 47.1279 12.3346 47.1279 12.1075C47.1279 10.6456 48.304 9.45895 49.7601 9.45895C51.2441 9.45895 52.4201 10.6456 52.4201 12.1075C52.4201 13.2168 51.7479 14.168 50.7679 14.562C50.1799 14.8039 49.7322 15.2449 49.4522 15.8049C48.0242 18.5657 44.3279 25.9434 44.3279 25.9434C44.1039 26.3922 43.6562 26.6756 43.1522 26.6756H40.4921C39.7641 26.6756 39.1758 27.2686 39.1758 28C39.1758 28.7314 39.7641 29.3244 40.4921 29.3244C41.6682 29.3244 43.1522 29.3244 43.1522 29.3244C43.6562 29.3244 44.1039 29.6078 44.3279 30.0566C44.3279 30.0566 48.0243 37.4343 49.4243 40.2097C49.7043 40.7761 50.1799 41.2224 50.7679 41.4672C51.7479 41.832 52.4201 42.7832 52.4201 43.8925C52.4201 45.3544 51.2441 46.541 49.7601 46.541C48.304 46.541 47.1279 45.3544 47.1279 43.8925C47.1279 43.6654 47.1562 43.4454 47.2122 43.2351C47.3522 42.6314 47.2958 41.9933 47.0158 41.4366C45.7278 38.7859 42.34 31.9732 42.34 31.9732H40.24C39.652 31.9735 39.1201 32.3826 38.9521 32.968C38.8401 33.5185 38.588 34.0337 38.28 34.5005C37.944 35.016 37.9999 35.7132 38.4479 36.1564C39.3159 37.07 40.6043 38.3678 40.6043 38.3678C40.9683 38.7223 41.08 39.247 40.94 39.723C40.94 39.723 38.2799 47.6602 37.3279 50.5546C37.1319 51.1546 37.1323 51.8064 37.3843 52.3922C37.5803 52.6691 37.6358 53.0023 37.6358 53.3512C37.6358 54.8131 36.4603 56 35.0043 56C33.5203 56 32.3442 54.8131 32.3442 53.3512C32.3442 52.3729 32.876 51.5178 33.66 51.0591C34.192 50.7368 34.6119 50.2306 34.8079 49.6331C35.7599 46.8258 38.1679 39.662 38.1679 39.662C38.1679 39.662 36.88 38.3942 36.04 37.5578C35.62 37.1342 34.9763 37.0476 34.4443 37.3475C33.0163 38.173 30.3558 39.7144 30.3558 39.7144C28.7038 40.6608 26.6882 40.6608 25.0642 39.7144C25.0642 39.7144 22.3759 38.173 20.9479 37.3475C20.4439 37.0476 19.7721 37.1342 19.3521 37.5578C18.5121 38.3942 17.2521 39.662 17.2521 39.662C17.2521 39.662 19.6322 46.8258 20.5842 49.6398ZM27.6958 33.2976C24.7838 33.2976 22.4042 30.9238 22.4042 28C22.4042 25.0762 24.7838 22.7024 27.6958 22.7024C30.6358 22.7024 33.0158 25.0762 33.0158 28C33.0158 30.9238 30.6358 33.2976 27.6958 33.2976Z" fill="#3E4852"/>
<path fill-rule="evenodd" clip-rule="evenodd" d="M30.3025 12.4868C30.5647 12.8938 30.5987 13.4159 30.3593 13.8468C30.1313 14.2777 29.6866 14.5457 29.1964 14.5457C28.2388 14.5457 27.156 14.5457 26.1984 14.5457C25.7082 14.5457 25.2636 14.2777 25.0356 13.8468C24.7962 13.4159 24.8307 12.8938 25.0929 12.4868C25.5831 11.7527 26.1301 10.9353 26.5975 10.2387C26.8369 9.87051 27.2587 9.64935 27.6919 9.64935C28.1365 9.64935 28.5585 9.87051 28.7979 10.2387C29.2653 10.9353 29.8123 11.7527 30.3025 12.4868Z" fill="#3E4852"/>
</svg>
