<svg width="50" height="56" viewBox="0 0 50 56" fill="none" xmlns="http://www.w3.org/2000/svg">
<path fill-rule="evenodd" clip-rule="evenodd" d="M17.5842 49.6398C17.7802 50.2424 18.2001 50.7528 18.7321 51.0776C19.5441 51.5178 20.0758 52.3729 20.0758 53.3512C20.0758 54.8131 18.8718 56 17.4158 56C15.9598 56 14.7842 54.8131 14.7842 53.3512C14.7842 53.0023 14.8401 52.6691 14.9521 52.3639C15.2041 51.7947 15.2038 51.1613 15.0358 50.5784C14.1398 47.6602 11.48 39.723 11.48 39.723C11.312 39.247 11.4518 38.7223 11.8158 38.3678C11.8158 38.3678 13.104 37.07 14 36.1754C14.448 35.723 14.504 35.0115 14.14 34.4854C13.804 34.0337 13.58 33.5185 13.44 32.9739C13.272 32.3999 12.768 31.9984 12.18 31.9984C11.256 31.9732 10.08 31.9732 10.08 31.9732C10.08 31.9732 6.66379 38.7859 5.37579 41.4151C5.06779 41.9821 5.01211 42.632 5.15211 43.2468C5.26411 43.4454 5.29212 43.6654 5.29212 43.8925C5.29212 45.3544 4.11611 46.541 2.63211 46.541C1.17611 46.541 0 45.3544 0 43.8925C0 42.7832 0.67211 41.832 1.65211 41.438C2.21211 41.1961 2.68789 40.7551 2.96789 40.1951C4.3959 37.4343 8.09212 30.0566 8.09212 30.0566C8.31612 29.6078 8.7639 29.3244 9.2679 29.3244H11.9C12.656 29.3244 13.2442 28.7314 13.2442 28C13.2442 27.2686 12.656 26.6756 11.9 26.6756C10.752 26.6756 9.2679 26.6756 9.2679 26.6756C8.7639 26.6756 8.31612 26.3922 8.09212 25.9434C8.09212 25.9434 4.39579 18.5657 2.99578 15.7903C2.71578 15.2239 2.24011 14.7776 1.65211 14.5328C0.67211 14.168 0 13.2168 0 12.1075C0 10.6456 1.17611 9.45895 2.63211 9.45895C4.11611 9.45895 5.29212 10.6456 5.29212 12.1075C5.29212 12.3346 5.2639 12.5546 5.2079 12.7649C5.0679 13.3686 5.12422 14.0067 5.40422 14.5634C6.66423 17.2141 10.08 24.0268 10.08 24.0268H12.18C12.768 24.0265 13.3 23.6174 13.44 23.032C13.58 22.4815 13.804 21.9663 14.14 21.4995C14.476 20.984 14.4201 20.2868 13.9721 19.8436C13.1041 18.93 11.8158 17.6322 11.8158 17.6322C11.4518 17.2777 11.312 16.753 11.48 16.277C11.48 16.277 14.1401 8.3398 15.0921 5.44544C15.2881 4.8454 15.2598 4.19356 15.0358 3.6078C14.8398 3.33088 14.7842 2.99768 14.7842 2.6488C14.7842 1.18692 15.9598 0 17.4158 0C18.8718 0 20.0758 1.18692 20.0758 2.6488C20.0758 3.62712 19.544 4.48224 18.76 4.94088C18.2 5.26316 17.8081 5.7694 17.6121 6.36692C16.6321 9.1742 14.2521 16.338 14.2521 16.338C14.2521 16.338 15.5121 17.6058 16.3521 18.4422C16.7721 18.8658 17.4439 18.9524 17.9479 18.6525C19.3759 17.827 22.0642 16.2856 22.0642 16.2856C23.6882 15.3392 25.7038 15.3392 27.3558 16.2856C27.3558 16.2856 30.0163 17.827 31.4443 18.6525C31.9763 18.9524 32.62 18.8658 33.04 18.4422C33.88 17.6058 35.1679 16.338 35.1679 16.338C35.1679 16.338 32.7598 9.17421 31.8358 6.36021C31.6398 5.75765 31.2199 5.2472 30.6879 4.9224C29.8759 4.48224 29.3442 3.62712 29.3442 2.6488C29.3442 1.18692 30.5203 0 32.0043 0C33.4603 0 34.6358 1.18692 34.6358 2.6488C34.6358 2.99768 34.58 3.33088 34.44 3.63608C34.216 4.20532 34.1883 4.83867 34.3843 5.42163C35.2803 8.33979 37.94 16.277 37.94 16.277C38.08 16.753 37.9683 17.2777 37.6043 17.6322C37.6043 17.6322 36.316 18.93 35.42 19.8246C34.972 20.277 34.888 20.9885 35.28 21.5146C35.588 21.9663 35.84 22.4815 35.98 23.0261C36.12 23.6001 36.652 24.0016 37.24 24.0016C38.164 24.0268 39.34 24.0268 39.34 24.0268C39.34 24.0268 42.7283 17.2141 44.0443 14.5849C44.3243 14.0179 44.408 13.368 44.24 12.7532C44.156 12.5546 44.1279 12.3346 44.1279 12.1075C44.1279 10.6456 45.304 9.45895 46.7601 9.45895C48.2441 9.45895 49.4201 10.6456 49.4201 12.1075C49.4201 13.2168 48.7479 14.168 47.7679 14.562C47.1799 14.8039 46.7322 15.2449 46.4522 15.8049C45.0242 18.5657 41.3279 25.9434 41.3279 25.9434C41.1039 26.3922 40.6562 26.6756 40.1522 26.6756H37.4921C36.7641 26.6756 36.1758 27.2686 36.1758 28C36.1758 28.7314 36.7641 29.3244 37.4921 29.3244C38.6682 29.3244 40.1522 29.3244 40.1522 29.3244C40.6562 29.3244 41.1039 29.6078 41.3279 30.0566C41.3279 30.0566 45.0243 37.4343 46.4243 40.2097C46.7043 40.7761 47.1799 41.2224 47.7679 41.4672C48.7479 41.832 49.4201 42.7832 49.4201 43.8925C49.4201 45.3544 48.2441 46.541 46.7601 46.541C45.304 46.541 44.1279 45.3544 44.1279 43.8925C44.1279 43.6654 44.1562 43.4454 44.2122 43.2351C44.3522 42.6314 44.2958 41.9933 44.0158 41.4366C42.7278 38.7859 39.34 31.9732 39.34 31.9732H37.24C36.652 31.9735 36.1201 32.3826 35.9521 32.968C35.8401 33.5185 35.588 34.0337 35.28 34.5005C34.944 35.016 34.9999 35.7132 35.4479 36.1564C36.3159 37.07 37.6043 38.3678 37.6043 38.3678C37.9683 38.7223 38.08 39.247 37.94 39.723C37.94 39.723 35.2799 47.6602 34.3279 50.5546C34.1319 51.1546 34.1323 51.8064 34.3843 52.3922C34.5803 52.6691 34.6358 53.0023 34.6358 53.3512C34.6358 54.8131 33.4603 56 32.0043 56C30.5203 56 29.3442 54.8131 29.3442 53.3512C29.3442 52.3729 29.876 51.5178 30.66 51.0591C31.192 50.7368 31.6119 50.2306 31.8079 49.6331C32.7599 46.8258 35.1679 39.662 35.1679 39.662C35.1679 39.662 33.88 38.3942 33.04 37.5578C32.62 37.1342 31.9763 37.0476 31.4443 37.3475C30.0163 38.173 27.3558 39.7144 27.3558 39.7144C25.7038 40.6608 23.6882 40.6608 22.0642 39.7144C22.0642 39.7144 19.3759 38.173 17.9479 37.3475C17.4439 37.0476 16.7721 37.1342 16.3521 37.5578C15.5121 38.3942 14.2521 39.662 14.2521 39.662C14.2521 39.662 16.6322 46.8258 17.5842 49.6398ZM24.6958 33.2976C21.7838 33.2976 19.4042 30.9238 19.4042 28C19.4042 25.0762 21.7838 22.7024 24.6958 22.7024C27.6358 22.7024 30.0158 25.0762 30.0158 28C30.0158 30.9238 27.6358 33.2976 24.6958 33.2976Z" fill="#E20074"/>
<path fill-rule="evenodd" clip-rule="evenodd" d="M27.3025 12.4866C27.5647 12.8936 27.5987 13.4157 27.3593 13.8466C27.1313 14.2775 26.6866 14.5454 26.1964 14.5454C25.2388 14.5454 24.156 14.5454 23.1984 14.5454C22.7082 14.5454 22.2636 14.2775 22.0356 13.8466C21.7962 13.4157 21.8307 12.8936 22.0929 12.4866C22.5831 11.7524 23.1301 10.935 23.5975 10.2385C23.8369 9.87027 24.2587 9.64911 24.6919 9.64911C25.1365 9.64911 25.5585 9.87027 25.7979 10.2385C26.2653 10.935 26.8123 11.7524 27.3025 12.4866Z" fill="#E20074"/>
</svg>
