<svg width="24" height="24" viewBox="0 0 24 24" fill="none" xmlns="http://www.w3.org/2000/svg">
<mask id="path-1-inside-1_2940_13772" fill="white">
<path d="M2.77 10C2.34 10 2 9.66 2 9.23V6.92C2 4.21 4.21 2 6.92 2H9.23C9.66 2 10 2.34 10 2.77C10 3.2 9.66 3.54 9.23 3.54H6.92C5.05 3.54 3.54 5.06 3.54 6.92V9.23C3.54 9.66 3.19 10 2.77 10Z"/>
</mask>
<path d="M2.77 10C2.34 10 2 9.66 2 9.23V6.92C2 4.21 4.21 2 6.92 2H9.23C9.66 2 10 2.34 10 2.77C10 3.2 9.66 3.54 9.23 3.54H6.92C5.05 3.54 3.54 5.06 3.54 6.92V9.23C3.54 9.66 3.19 10 2.77 10Z" fill="#292D32"/>
<path d="M2.77 8C3.44457 8 4 8.55543 4 9.23H0C0 10.7646 1.23543 12 2.77 12V8ZM4 9.23V6.92H0V9.23H4ZM4 6.92C4 5.31457 5.31457 4 6.92 4V0C3.10543 0 0 3.10543 0 6.92H4ZM6.92 4H9.23V0H6.92V4ZM9.23 4C8.55543 4 8 3.44457 8 2.77H12C12 1.23543 10.7646 0 9.23 0V4ZM8 2.77C8 2.09543 8.55543 1.54 9.23 1.54V5.54C10.7646 5.54 12 4.30457 12 2.77H8ZM9.23 1.54H6.92V5.54H9.23V1.54ZM6.92 1.54C3.94158 1.54 1.54 3.95928 1.54 6.92H5.54C5.54 6.16072 6.15842 5.54 6.92 5.54V1.54ZM1.54 6.92V9.23H5.54V6.92H1.54ZM1.54 9.23C1.54 8.53856 2.10238 8 2.77 8V12C4.27762 12 5.54 10.7814 5.54 9.23H1.54Z" fill="#292D32" mask="url(#path-1-inside-1_2940_13772)"/>
<mask id="path-3-inside-2_2940_13772" fill="white">
<path d="M21.23 10C20.81 10 20.46 9.66 20.46 9.23V6.92C20.46 5.05 18.94 3.54 17.08 3.54H14.77C14.34 3.54 14 3.19 14 2.77C14 2.35 14.34 2 14.77 2H17.08C19.79 2 22 4.21 22 6.92V9.23C22 9.66 21.66 10 21.23 10Z"/>
</mask>
<path d="M21.23 10C20.81 10 20.46 9.66 20.46 9.23V6.92C20.46 5.05 18.94 3.54 17.08 3.54H14.77C14.34 3.54 14 3.19 14 2.77C14 2.35 14.34 2 14.77 2H17.08C19.79 2 22 4.21 22 6.92V9.23C22 9.66 21.66 10 21.23 10Z" fill="#292D32"/>
<path d="M21.23 8C21.8976 8 22.46 8.53856 22.46 9.23H18.46C18.46 10.7814 19.7224 12 21.23 12V8ZM22.46 9.23V6.92H18.46V9.23H22.46ZM22.46 6.92C22.46 3.94158 20.0407 1.54 17.08 1.54V5.54C17.8393 5.54 18.46 6.15842 18.46 6.92H22.46ZM17.08 1.54H14.77V5.54H17.08V1.54ZM14.77 1.54C15.4614 1.54 16 2.10238 16 2.77H12C12 4.27762 13.2186 5.54 14.77 5.54V1.54ZM16 2.77C16 3.43762 15.4614 4 14.77 4V0C13.2186 0 12 1.26238 12 2.77H16ZM14.77 4H17.08V0H14.77V4ZM17.08 4C18.6854 4 20 5.31457 20 6.92H24C24 3.10543 20.8946 0 17.08 0V4ZM20 6.92V9.23H24V6.92H20ZM20 9.23C20 8.55543 20.5554 8 21.23 8V12C22.7646 12 24 10.7646 24 9.23H20Z" fill="#292D32" mask="url(#path-3-inside-2_2940_13772)"/>
<path d="M17.0799 21.9997H15.6899C15.2699 21.9997 14.9199 21.6597 14.9199 21.2297C14.9199 20.8097 15.2599 20.4597 15.6899 20.4597H17.0799C18.9499 20.4597 20.4599 18.9397 20.4599 17.0797V15.6997C20.4599 15.2797 20.7999 14.9297 21.2299 14.9297C21.6499 14.9297 21.9999 15.2697 21.9999 15.6997V17.0797C21.9999 19.7897 19.7899 21.9997 17.0799 21.9997Z" fill="#292D32"/>
<path d="M9.23 22H6.92C4.21 22 2 19.79 2 17.08V14.77C2 14.34 2.34 14 2.77 14C3.2 14 3.54 14.34 3.54 14.77V17.08C3.54 18.95 5.06 20.46 6.92 20.46H9.23C9.65 20.46 10 20.8 10 21.23C10 21.66 9.66 22 9.23 22Z" fill="#292D32"/>
<path d="M18.46 11.2305H17.1H6.90002H5.54002C5.11002 11.2305 4.77002 11.5805 4.77002 12.0005C4.77002 12.4205 5.11002 12.7705 5.54002 12.7705H6.90002H17.1H18.46C18.89 12.7705 19.23 12.4205 19.23 12.0005C19.23 11.5805 18.89 11.2305 18.46 11.2305Z" fill="#292D32"/>
<path d="M6.8999 13.9405V14.2705C6.8999 15.9305 8.2399 17.2705 9.8999 17.2705H14.0999C15.7599 17.2705 17.0999 15.9305 17.0999 14.2705V13.9405C17.0999 13.8205 17.0099 13.7305 16.8899 13.7305H7.1099C6.9899 13.7305 6.8999 13.8205 6.8999 13.9405Z" fill="#292D32"/>
<path d="M6.8999 10.0605V9.73047C6.8999 8.07047 8.2399 6.73047 9.8999 6.73047H14.0999C15.7599 6.73047 17.0999 8.07047 17.0999 9.73047V10.0605C17.0999 10.1805 17.0099 10.2705 16.8899 10.2705H7.1099C6.9899 10.2705 6.8999 10.1805 6.8999 10.0605Z" fill="#292D32"/>
</svg>
