<svg width="784" height="260" viewBox="0 0 784 260" fill="none" xmlns="http://www.w3.org/2000/svg">
<rect x="0.5" y="0.5" width="783" height="259" rx="15.5" fill="white"/>
<path d="M26.016 48V30.48H29.952V48H26.016ZM39.1448 48.432C38.2168 48.432 37.3688 48.264 36.6008 47.928C35.8488 47.592 35.1928 47.128 34.6328 46.536C34.0728 45.928 33.6408 45.216 33.3368 44.4C33.0488 43.584 32.9048 42.704 32.9048 41.76V41.208C32.9048 40.264 33.0408 39.384 33.3128 38.568C33.6008 37.752 34.0088 37.04 34.5368 36.432C35.0808 35.808 35.7288 35.328 36.4808 34.992C37.2328 34.64 38.0728 34.464 39.0008 34.464C40.0568 34.464 40.9688 34.696 41.7368 35.16C42.5048 35.608 43.1048 36.28 43.5368 37.176C43.9688 38.056 44.2088 39.144 44.2568 40.44L43.2488 39.504V30.48H47.1128V48H44.0648V42.552H44.5928C44.5448 43.8 44.2808 44.864 43.8008 45.744C43.3368 46.624 42.7048 47.296 41.9048 47.76C41.1048 48.208 40.1848 48.432 39.1448 48.432ZM40.1048 45.216C40.6968 45.216 41.2328 45.088 41.7128 44.832C42.2088 44.56 42.6008 44.168 42.8888 43.656C43.1928 43.144 43.3448 42.528 43.3448 41.808V40.92C43.3448 40.216 43.1928 39.624 42.8888 39.144C42.5848 38.664 42.1848 38.296 41.6888 38.04C41.1928 37.784 40.6568 37.656 40.0808 37.656C39.4408 37.656 38.8648 37.824 38.3528 38.16C37.8568 38.48 37.4648 38.928 37.1768 39.504C36.8888 40.064 36.7448 40.72 36.7448 41.472C36.7448 42.24 36.8888 42.904 37.1768 43.464C37.4648 44.024 37.8648 44.456 38.3768 44.76C38.8888 45.064 39.4648 45.216 40.1048 45.216ZM56.6198 48.456C55.4998 48.456 54.5078 48.264 53.6438 47.88C52.7958 47.496 52.0838 46.984 51.5078 46.344C50.9478 45.688 50.5158 44.96 50.2118 44.16C49.9238 43.344 49.7798 42.512 49.7798 41.664V41.184C49.7798 40.304 49.9238 39.464 50.2118 38.664C50.5158 37.848 50.9478 37.12 51.5078 36.48C52.0678 35.84 52.7638 35.336 53.5958 34.968C54.4438 34.584 55.4038 34.392 56.4758 34.392C57.8838 34.392 59.0678 34.712 60.0278 35.352C61.0038 35.976 61.7478 36.8 62.2598 37.824C62.7718 38.832 63.0278 39.936 63.0278 41.136V42.432H51.3878V40.248H60.6998L59.4518 41.256C59.4518 40.472 59.3398 39.8 59.1158 39.24C58.8918 38.68 58.5558 38.256 58.1078 37.968C57.6758 37.664 57.1318 37.512 56.4758 37.512C55.8038 37.512 55.2358 37.664 54.7718 37.968C54.3078 38.272 53.9558 38.72 53.7158 39.312C53.4758 39.888 53.3558 40.6 53.3558 41.448C53.3558 42.232 53.4678 42.92 53.6918 43.512C53.9158 44.088 54.2678 44.536 54.7478 44.856C55.2278 45.176 55.8518 45.336 56.6198 45.336C57.3238 45.336 57.8998 45.2 58.3478 44.928C58.7958 44.656 59.0998 44.32 59.2598 43.92H62.7878C62.5958 44.8 62.2198 45.584 61.6598 46.272C61.0998 46.96 60.3958 47.496 59.5478 47.88C58.6998 48.264 57.7238 48.456 56.6198 48.456ZM65.5723 48V34.848H68.6203V40.488H68.4043C68.4043 39.144 68.5723 38.024 68.9083 37.128C69.2603 36.232 69.7883 35.56 70.4923 35.112C71.1963 34.664 72.0523 34.44 73.0603 34.44H73.2283C74.7643 34.44 75.9323 34.944 76.7323 35.952C77.5483 36.944 77.9563 38.456 77.9563 40.488V48H74.1163V40.272C74.1163 39.568 73.9083 38.992 73.4923 38.544C73.0763 38.096 72.5163 37.872 71.8123 37.872C71.0923 37.872 70.5083 38.104 70.0603 38.568C69.6283 39.016 69.4123 39.608 69.4123 40.344V48H65.5723ZM87.2046 48.168C85.8766 48.168 84.8046 48.008 83.9886 47.688C83.1726 47.352 82.5726 46.8 82.1886 46.032C81.8206 45.248 81.6366 44.192 81.6366 42.864V31.296H85.2126V43.008C85.2126 43.632 85.3726 44.112 85.6926 44.448C86.0286 44.768 86.5006 44.928 87.1086 44.928H89.0526V48.168H87.2046ZM79.6446 37.656V34.848H89.0526V37.656H79.6446ZM92.2588 48V34.848H96.0988V48H92.2588ZM90.5068 37.68V34.848H96.0988V37.68H90.5068ZM93.7468 33.552C93.0268 33.552 92.4908 33.368 92.1388 33C91.8028 32.616 91.6348 32.136 91.6348 31.56C91.6348 30.968 91.8028 30.488 92.1388 30.12C92.4908 29.736 93.0268 29.544 93.7468 29.544C94.4668 29.544 94.9948 29.736 95.3308 30.12C95.6828 30.488 95.8588 30.968 95.8588 31.56C95.8588 32.136 95.6828 32.616 95.3308 33C94.9948 33.368 94.4668 33.552 93.7468 33.552ZM99.9144 48V34.584C99.9144 33.064 100.338 31.936 101.186 31.2C102.05 30.464 103.322 30.096 105.002 30.096H106.298V32.976H104.834C104.402 32.976 104.066 33.096 103.826 33.336C103.602 33.576 103.49 33.912 103.49 34.344V48H99.9144ZM98.3784 37.776V34.968H106.25V37.776H98.3784ZM108.842 48V34.848H112.682V48H108.842ZM107.282 37.68V34.848H112.682V37.68H107.282ZM110.33 33.552C109.61 33.552 109.074 33.368 108.722 33C108.386 32.616 108.218 32.136 108.218 31.56C108.218 30.968 108.386 30.488 108.722 30.12C109.074 29.736 109.61 29.544 110.33 29.544C111.066 29.544 111.602 29.736 111.938 30.12C112.274 30.488 112.442 30.968 112.442 31.56C112.442 32.136 112.274 32.616 111.938 33C111.602 33.368 111.066 33.552 110.33 33.552ZM122.268 48.456C121.148 48.456 120.156 48.264 119.292 47.88C118.444 47.496 117.732 46.984 117.156 46.344C116.596 45.688 116.164 44.96 115.86 44.16C115.572 43.344 115.428 42.512 115.428 41.664V41.184C115.428 40.304 115.572 39.464 115.86 38.664C116.164 37.848 116.596 37.12 117.156 36.48C117.716 35.84 118.412 35.336 119.244 34.968C120.092 34.584 121.052 34.392 122.124 34.392C123.532 34.392 124.716 34.712 125.676 35.352C126.652 35.976 127.396 36.8 127.908 37.824C128.42 38.832 128.676 39.936 128.676 41.136V42.432H117.036V40.248H126.348L125.1 41.256C125.1 40.472 124.988 39.8 124.764 39.24C124.54 38.68 124.204 38.256 123.756 37.968C123.324 37.664 122.78 37.512 122.124 37.512C121.452 37.512 120.884 37.664 120.42 37.968C119.956 38.272 119.604 38.72 119.364 39.312C119.124 39.888 119.004 40.6 119.004 41.448C119.004 42.232 119.116 42.92 119.34 43.512C119.564 44.088 119.916 44.536 120.396 44.856C120.876 45.176 121.5 45.336 122.268 45.336C122.972 45.336 123.548 45.2 123.996 44.928C124.444 44.656 124.748 44.32 124.908 43.92H128.436C128.244 44.8 127.868 45.584 127.308 46.272C126.748 46.96 126.044 47.496 125.196 47.88C124.348 48.264 123.372 48.456 122.268 48.456ZM136.645 48.432C135.717 48.432 134.869 48.264 134.101 47.928C133.349 47.592 132.693 47.128 132.133 46.536C131.573 45.928 131.141 45.216 130.837 44.4C130.549 43.584 130.405 42.704 130.405 41.76V41.208C130.405 40.264 130.541 39.384 130.813 38.568C131.101 37.752 131.509 37.04 132.037 36.432C132.581 35.808 133.229 35.328 133.981 34.992C134.733 34.64 135.573 34.464 136.501 34.464C137.557 34.464 138.469 34.696 139.237 35.16C140.005 35.608 140.605 36.28 141.037 37.176C141.469 38.056 141.709 39.144 141.757 40.44L140.749 39.504V30.48H144.613V48H141.565V42.552H142.093C142.045 43.8 141.781 44.864 141.301 45.744C140.837 46.624 140.205 47.296 139.405 47.76C138.605 48.208 137.685 48.432 136.645 48.432ZM137.605 45.216C138.197 45.216 138.733 45.088 139.213 44.832C139.709 44.56 140.101 44.168 140.389 43.656C140.693 43.144 140.845 42.528 140.845 41.808V40.92C140.845 40.216 140.693 39.624 140.389 39.144C140.085 38.664 139.685 38.296 139.189 38.04C138.693 37.784 138.157 37.656 137.581 37.656C136.941 37.656 136.365 37.824 135.853 38.16C135.357 38.48 134.965 38.928 134.677 39.504C134.389 40.064 134.245 40.72 134.245 41.472C134.245 42.24 134.389 42.904 134.677 43.464C134.965 44.024 135.365 44.456 135.877 44.76C136.389 45.064 136.965 45.216 137.605 45.216ZM28.296 80L24.36 66.848H28.32L32.016 80H28.296ZM29.496 80V76.808H33.36V80H29.496ZM30.912 80L34.104 66.848H37.8L34.392 80H30.912ZM44.5123 80.408C42.9923 80.408 41.8243 79.92 41.0083 78.944C40.1923 77.952 39.7843 76.464 39.7843 74.48V66.848H43.6243V74.672C43.6243 75.376 43.8243 75.936 44.2243 76.352C44.6243 76.768 45.1603 76.976 45.8323 76.976C46.5203 76.976 47.0803 76.76 47.5123 76.328C47.9443 75.896 48.1603 75.312 48.1603 74.576V66.848H52.0003V80H48.9523V74.456H49.2163C49.2163 75.784 49.0403 76.896 48.6883 77.792C48.3523 78.672 47.8483 79.328 47.1763 79.76C46.5043 80.192 45.6723 80.408 44.6803 80.408H44.5123ZM55.7091 80V62.48H59.5731V80H55.7091ZM54.1491 65.312V62.48H59.5731V65.312H54.1491ZM63.1114 80V66.848H66.1594V72.488H65.9434C65.9434 71.144 66.1114 70.024 66.4474 69.128C66.7994 68.232 67.3274 67.56 68.0314 67.112C68.7354 66.664 69.5914 66.44 70.5994 66.44H70.7674C72.3034 66.44 73.4714 66.944 74.2714 67.952C75.0874 68.944 75.4954 70.456 75.4954 72.488V80H71.6554V72.272C71.6554 71.568 71.4474 70.992 71.0314 70.544C70.6154 70.096 70.0554 69.872 69.3514 69.872C68.6314 69.872 68.0474 70.104 67.5994 70.568C67.1674 71.016 66.9514 71.608 66.9514 72.344V80H63.1114ZM84.7916 80.456C83.6716 80.456 82.6796 80.264 81.8156 79.88C80.9676 79.496 80.2556 78.984 79.6796 78.344C79.1196 77.688 78.6876 76.96 78.3836 76.16C78.0956 75.344 77.9516 74.512 77.9516 73.664V73.184C77.9516 72.304 78.0956 71.464 78.3836 70.664C78.6876 69.848 79.1196 69.12 79.6796 68.48C80.2396 67.84 80.9356 67.336 81.7676 66.968C82.6156 66.584 83.5756 66.392 84.6476 66.392C86.0556 66.392 87.2396 66.712 88.1996 67.352C89.1756 67.976 89.9196 68.8 90.4316 69.824C90.9436 70.832 91.1996 71.936 91.1996 73.136V74.432H79.5596V72.248H88.8716L87.6236 73.256C87.6236 72.472 87.5116 71.8 87.2876 71.24C87.0636 70.68 86.7276 70.256 86.2796 69.968C85.8476 69.664 85.3036 69.512 84.6476 69.512C83.9756 69.512 83.4076 69.664 82.9436 69.968C82.4796 70.272 82.1276 70.72 81.8876 71.312C81.6476 71.888 81.5276 72.6 81.5276 73.448C81.5276 74.232 81.6396 74.92 81.8636 75.512C82.0876 76.088 82.4396 76.536 82.9196 76.856C83.3996 77.176 84.0236 77.336 84.7916 77.336C85.4956 77.336 86.0716 77.2 86.5196 76.928C86.9676 76.656 87.2716 76.32 87.4316 75.92H90.9596C90.7676 76.8 90.3916 77.584 89.8316 78.272C89.2716 78.96 88.5676 79.496 87.7196 79.88C86.8716 80.264 85.8956 80.456 84.7916 80.456ZM93.7442 80V66.848H96.7922V72.488H96.7202C96.7202 70.632 97.1122 69.2 97.8962 68.192C98.6962 67.184 99.8482 66.68 101.352 66.68H101.856V69.992H100.896C99.8402 69.992 99.0242 70.28 98.4482 70.856C97.8722 71.416 97.5842 72.232 97.5842 73.304V80H93.7442ZM111.719 80V76.112H111.071V71.888C111.071 71.216 110.911 70.712 110.591 70.376C110.271 70.04 109.759 69.872 109.055 69.872C108.703 69.872 108.239 69.88 107.663 69.896C107.087 69.912 106.495 69.936 105.887 69.968C105.279 70 104.727 70.032 104.231 70.064V66.824C104.599 66.792 105.031 66.76 105.527 66.728C106.023 66.696 106.535 66.672 107.063 66.656C107.591 66.64 108.087 66.632 108.551 66.632C109.895 66.632 111.023 66.824 111.935 67.208C112.863 67.592 113.567 68.176 114.047 68.96C114.527 69.728 114.767 70.72 114.767 71.936V80H111.719ZM107.519 80.336C106.575 80.336 105.743 80.168 105.023 79.832C104.319 79.496 103.767 79.016 103.367 78.392C102.967 77.752 102.767 76.992 102.767 76.112C102.767 75.152 103.015 74.368 103.511 73.76C104.007 73.136 104.703 72.68 105.599 72.392C106.495 72.088 107.527 71.936 108.695 71.936H111.503V74.072H108.671C107.999 74.072 107.479 74.24 107.111 74.576C106.759 74.896 106.583 75.336 106.583 75.896C106.583 76.424 106.759 76.856 107.111 77.192C107.479 77.512 107.999 77.672 108.671 77.672C109.103 77.672 109.487 77.6 109.823 77.456C110.175 77.296 110.463 77.032 110.687 76.664C110.911 76.296 111.039 75.784 111.071 75.128L111.983 76.088C111.903 77 111.679 77.768 111.311 78.392C110.959 79.016 110.463 79.496 109.823 79.832C109.199 80.168 108.431 80.336 107.519 80.336ZM126.113 80.432C125.041 80.432 124.097 80.208 123.281 79.76C122.465 79.296 121.825 78.632 121.361 77.768C120.897 76.904 120.649 75.848 120.617 74.6H121.073V80H118.025V62.48H121.865V71.384L120.953 72.536C121.001 71.208 121.249 70.096 121.697 69.2C122.161 68.288 122.793 67.608 123.593 67.16C124.393 66.696 125.305 66.464 126.329 66.464C127.225 66.464 128.033 66.632 128.753 66.968C129.489 67.288 130.113 67.752 130.625 68.36C131.137 68.952 131.529 69.656 131.801 70.472C132.089 71.288 132.233 72.176 132.233 73.136V73.664C132.233 74.624 132.089 75.512 131.801 76.328C131.529 77.144 131.121 77.864 130.577 78.488C130.049 79.096 129.409 79.576 128.657 79.928C127.905 80.264 127.057 80.432 126.113 80.432ZM125.105 77.216C125.761 77.216 126.329 77.056 126.809 76.736C127.305 76.416 127.689 75.968 127.961 75.392C128.233 74.8 128.369 74.136 128.369 73.4C128.369 72.648 128.233 71.992 127.961 71.432C127.689 70.872 127.305 70.44 126.809 70.136C126.329 69.816 125.761 69.656 125.105 69.656C124.529 69.656 123.985 69.792 123.473 70.064C122.961 70.336 122.545 70.728 122.225 71.24C121.921 71.736 121.769 72.344 121.769 73.064V73.952C121.769 74.64 121.929 75.232 122.249 75.728C122.585 76.208 123.009 76.576 123.521 76.832C124.033 77.088 124.561 77.216 125.105 77.216ZM135.524 80V66.848H139.364V80H135.524ZM133.772 69.68V66.848H139.364V69.68H133.772ZM137.012 65.552C136.292 65.552 135.756 65.368 135.404 65C135.068 64.616 134.9 64.136 134.9 63.56C134.9 62.968 135.068 62.488 135.404 62.12C135.756 61.736 136.292 61.544 137.012 61.544C137.732 61.544 138.26 61.736 138.596 62.12C138.948 62.488 139.124 62.968 139.124 63.56C139.124 64.136 138.948 64.616 138.596 65C138.26 65.368 137.732 65.552 137.012 65.552ZM143.084 80V62.48H146.948V80H143.084ZM141.524 65.312V62.48H146.948V65.312H141.524ZM151.11 80V66.848H154.95V80H151.11ZM149.358 69.68V66.848H154.95V69.68H149.358ZM152.598 65.552C151.878 65.552 151.342 65.368 150.99 65C150.654 64.616 150.486 64.136 150.486 63.56C150.486 62.968 150.654 62.488 150.99 62.12C151.342 61.736 151.878 61.544 152.598 61.544C153.318 61.544 153.846 61.736 154.182 62.12C154.534 62.488 154.71 62.968 154.71 63.56C154.71 64.136 154.534 64.616 154.182 65C153.846 65.368 153.318 65.552 152.598 65.552ZM164.478 80.168C163.15 80.168 162.078 80.008 161.262 79.688C160.446 79.352 159.846 78.8 159.462 78.032C159.094 77.248 158.91 76.192 158.91 74.864V63.296H162.486V75.008C162.486 75.632 162.646 76.112 162.966 76.448C163.302 76.768 163.774 76.928 164.382 76.928H166.326V80.168H164.478ZM156.918 69.656V66.848H166.326V69.656H156.918ZM169.532 80V66.848H173.372V80H169.532ZM167.78 69.68V66.848H173.372V69.68H167.78ZM171.02 65.552C170.3 65.552 169.764 65.368 169.412 65C169.076 64.616 168.908 64.136 168.908 63.56C168.908 62.968 169.076 62.488 169.412 62.12C169.764 61.736 170.3 61.544 171.02 61.544C171.74 61.544 172.268 61.736 172.604 62.12C172.956 62.488 173.132 62.968 173.132 63.56C173.132 64.136 172.956 64.616 172.604 65C172.268 65.368 171.74 65.552 171.02 65.552ZM182.948 80.456C181.828 80.456 180.836 80.264 179.972 79.88C179.124 79.496 178.412 78.984 177.836 78.344C177.276 77.688 176.844 76.96 176.54 76.16C176.252 75.344 176.108 74.512 176.108 73.664V73.184C176.108 72.304 176.252 71.464 176.54 70.664C176.844 69.848 177.276 69.12 177.836 68.48C178.396 67.84 179.092 67.336 179.924 66.968C180.772 66.584 181.732 66.392 182.804 66.392C184.212 66.392 185.396 66.712 186.356 67.352C187.332 67.976 188.076 68.8 188.588 69.824C189.1 70.832 189.356 71.936 189.356 73.136V74.432H177.716V72.248H187.028L185.78 73.256C185.78 72.472 185.668 71.8 185.444 71.24C185.22 70.68 184.884 70.256 184.436 69.968C184.004 69.664 183.46 69.512 182.804 69.512C182.132 69.512 181.564 69.664 181.1 69.968C180.636 70.272 180.284 70.72 180.044 71.312C179.804 71.888 179.684 72.6 179.684 73.448C179.684 74.232 179.796 74.92 180.02 75.512C180.244 76.088 180.596 76.536 181.076 76.856C181.556 77.176 182.18 77.336 182.948 77.336C183.652 77.336 184.228 77.2 184.676 76.928C185.124 76.656 185.428 76.32 185.588 75.92H189.116C188.924 76.8 188.548 77.584 187.988 78.272C187.428 78.96 186.724 79.496 185.876 79.88C185.028 80.264 184.052 80.456 182.948 80.456ZM196.892 80.408C195.02 80.408 193.556 80.024 192.5 79.256C191.444 78.488 190.884 77.408 190.82 76.016H194.228C194.292 76.432 194.54 76.808 194.972 77.144C195.42 77.464 196.084 77.624 196.964 77.624C197.636 77.624 198.188 77.512 198.62 77.288C199.068 77.048 199.292 76.712 199.292 76.28C199.292 75.896 199.124 75.592 198.788 75.368C198.452 75.128 197.852 74.96 196.988 74.864L195.956 74.768C194.372 74.608 193.18 74.168 192.38 73.448C191.596 72.728 191.204 71.808 191.204 70.688C191.204 69.76 191.436 68.984 191.9 68.36C192.364 67.736 193.004 67.264 193.82 66.944C194.652 66.624 195.596 66.464 196.652 66.464C198.348 66.464 199.716 66.84 200.756 67.592C201.796 68.328 202.34 69.4 202.388 70.808H198.98C198.916 70.376 198.692 70.016 198.308 69.728C197.924 69.424 197.356 69.272 196.604 69.272C196.012 69.272 195.54 69.384 195.188 69.608C194.836 69.832 194.66 70.136 194.66 70.52C194.66 70.888 194.812 71.168 195.116 71.36C195.42 71.552 195.916 71.688 196.604 71.768L197.636 71.864C199.252 72.04 200.508 72.488 201.404 73.208C202.3 73.928 202.748 74.896 202.748 76.112C202.748 76.992 202.508 77.76 202.028 78.416C201.548 79.056 200.868 79.552 199.988 79.904C199.108 80.24 198.076 80.408 196.892 80.408Z" fill="#3E4852"/>
<circle cx="392" cy="130" r="104" fill="#F68511"/>
<path d="M392 130L446 41.1004C430.26 31.5189 411.774 26 392 26L392 130Z" fill="#F05F1D"/>
<path d="M392 130H288C288 72.5624 334.562 26 392 26V130Z" fill="#3892F3"/>
<path d="M392 130L316.953 58C335.88 38.2773 362.506 26 392 26V130Z" fill="#3892F3"/>
<path d="M392 130L413.5 28.225C406.563 26.7668 399.371 26 392 26V130Z" fill="#EA3829"/>
<path d="M392 130L288 130C288 187.438 334.562 234 392 234L392 130Z" fill="#F9B208"/>
<path d="M448 130C448 160.928 422.928 186 392 186V74C422.928 74 448 99.0721 448 130Z" fill="black" fill-opacity="0.2"/>
<path d="M392 130H336C336 99.0721 361.072 74 392 74V130Z" fill="black" fill-opacity="0.2"/>
<path d="M392 130L336 130C336 160.928 361.072 186 392 186L392 130Z" fill="black" fill-opacity="0.2"/>
<circle cx="392" cy="130" r="48" fill="white"/>
<path d="M41.408 234V195.472L44.224 197.648H30.016V187.28H53.312V234H41.408ZM28.736 234V223.632H63.808V234H28.736ZM89.266 235.28C85.5113 235.28 82.226 234.576 79.41 233.168C76.6367 231.717 74.482 229.776 72.946 227.344C71.41 224.912 70.642 222.181 70.642 219.152H82.162C82.162 220.432 82.4607 221.541 83.058 222.48C83.698 223.419 84.5727 224.144 85.682 224.656C86.7913 225.168 88.0287 225.424 89.394 225.424C90.93 225.424 92.2313 225.104 93.298 224.464C94.4073 223.824 95.2393 222.949 95.794 221.84C96.3487 220.731 96.626 219.472 96.626 218.064C96.626 216.656 96.3487 215.397 95.794 214.288C95.2393 213.179 94.4287 212.304 93.362 211.664C92.2953 211.024 91.0153 210.704 89.522 210.704C87.9433 210.704 86.5567 211.045 85.362 211.728C84.21 212.368 83.3993 213.179 82.93 214.16H71.666L74.034 187.28H104.242V197.52H78.77L83.25 194.64L81.97 208.784L79.666 208.144C80.5193 207.035 81.458 206.053 82.482 205.2C83.5487 204.304 84.8073 203.6 86.258 203.088C87.7513 202.533 89.586 202.256 91.762 202.256C95.09 202.256 97.97 202.939 100.402 204.304C102.877 205.627 104.775 207.461 106.098 209.808C107.463 212.112 108.146 214.757 108.146 217.744V218.512C108.146 221.499 107.399 224.272 105.906 226.832C104.455 229.349 102.322 231.397 99.506 232.976C96.69 234.512 93.2767 235.28 89.266 235.28ZM131.684 235.28C127.972 235.28 124.729 234.619 121.956 233.296C119.225 231.973 117.113 230.139 115.62 227.792C114.127 225.445 113.38 222.779 113.38 219.792H124.9C124.9 221.456 125.497 222.821 126.692 223.888C127.929 224.912 129.593 225.424 131.684 225.424C133.092 225.424 134.287 225.168 135.268 224.656C136.292 224.101 137.081 223.376 137.636 222.48C138.191 221.541 138.468 220.496 138.468 219.344C138.468 217.595 137.871 216.144 136.676 214.992C135.481 213.84 133.817 213.264 131.684 213.264C130.532 213.264 129.444 213.477 128.42 213.904C127.396 214.331 126.521 214.864 125.796 215.504L120.484 206.736L133.668 198.544L133.092 197.52H115.364V187.28H148.26V197.456L131.364 207.76L125.348 205.904C126.372 205.563 127.439 205.328 128.548 205.2C129.7 205.029 130.745 204.944 131.684 204.944C135.396 204.944 138.617 205.52 141.348 206.672C144.121 207.824 146.255 209.467 147.748 211.6C149.241 213.733 149.988 216.315 149.988 219.344V220.112C149.988 223.056 149.241 225.68 147.748 227.984C146.255 230.245 144.121 232.037 141.348 233.36C138.617 234.64 135.396 235.28 131.684 235.28ZM176.214 235.408C172.843 235.408 169.921 234.832 167.446 233.68C165.014 232.528 162.987 230.949 161.366 228.944C159.787 226.896 158.614 224.528 157.846 221.84C157.078 219.109 156.694 216.187 156.694 213.072V210.448C156.694 202.555 158.678 196.667 162.646 192.784C166.614 188.859 172.459 186.896 180.182 186.896C181.675 186.896 183.211 186.939 184.79 187.024C186.411 187.109 187.905 187.237 189.27 187.408V197.392C187.947 197.264 186.433 197.157 184.726 197.072C183.062 196.944 181.419 196.88 179.798 196.88C176.598 196.88 174.123 197.413 172.374 198.48C170.625 199.547 169.409 201.125 168.726 203.216C168.043 205.307 167.702 207.909 167.702 211.024V216.656H165.398C165.441 213.541 166.059 210.939 167.254 208.848C168.491 206.757 170.177 205.179 172.31 204.112C174.443 203.045 176.854 202.512 179.542 202.512C182.657 202.512 185.366 203.152 187.67 204.432C189.974 205.712 191.766 207.525 193.046 209.872C194.326 212.219 194.966 215.013 194.966 218.256C194.966 221.755 194.155 224.784 192.534 227.344C190.955 229.904 188.758 231.888 185.942 233.296C183.126 234.704 179.883 235.408 176.214 235.408ZM175.83 225.552C177.409 225.552 178.753 225.253 179.862 224.656C181.014 224.059 181.889 223.227 182.486 222.16C183.126 221.093 183.446 219.856 183.446 218.448C183.446 216.997 183.126 215.76 182.486 214.736C181.889 213.669 181.035 212.837 179.926 212.24C178.817 211.643 177.494 211.344 175.958 211.344C174.635 211.344 173.377 211.6 172.182 212.112C170.987 212.624 170.027 213.413 169.302 214.48C168.577 215.504 168.214 216.827 168.214 218.448C168.214 219.813 168.491 221.051 169.046 222.16C169.643 223.227 170.518 224.059 171.67 224.656C172.822 225.253 174.209 225.552 175.83 225.552Z" fill="#3E4852"/>
<path d="M27.632 173V163.288H30.256V173H27.632ZM24.352 163.608V161.32H33.552V163.608H24.352ZM38.2369 173.304C37.4689 173.304 36.7862 173.187 36.1889 172.952C35.5915 172.707 35.0849 172.376 34.6689 171.96C34.2635 171.544 33.9542 171.069 33.7409 170.536C33.5275 169.992 33.4209 169.421 33.4209 168.824V168.456C33.4209 167.848 33.5275 167.272 33.7409 166.728C33.9649 166.173 34.2849 165.688 34.7009 165.272C35.1275 164.856 35.6395 164.531 36.2369 164.296C36.8342 164.051 37.5009 163.928 38.2369 163.928C38.9942 163.928 39.6662 164.051 40.2529 164.296C40.8502 164.531 41.3569 164.856 41.7729 165.272C42.1889 165.688 42.5089 166.173 42.7329 166.728C42.9569 167.272 43.0689 167.848 43.0689 168.456V168.824C43.0689 169.421 42.9622 169.992 42.7489 170.536C42.5355 171.069 42.2209 171.544 41.8049 171.96C41.3995 172.376 40.8982 172.707 40.3009 172.952C39.7035 173.187 39.0155 173.304 38.2369 173.304ZM38.2369 171.144C38.7382 171.144 39.1542 171.037 39.4849 170.824C39.8155 170.611 40.0662 170.312 40.2369 169.928C40.4182 169.544 40.5089 169.117 40.5089 168.648C40.5089 168.147 40.4182 167.709 40.2369 167.336C40.0555 166.952 39.7942 166.648 39.4529 166.424C39.1222 166.2 38.7169 166.088 38.2369 166.088C37.7675 166.088 37.3622 166.2 37.0209 166.424C36.6795 166.648 36.4182 166.952 36.2369 167.336C36.0662 167.709 35.9809 168.147 35.9809 168.648C35.9809 169.117 36.0662 169.544 36.2369 169.928C36.4075 170.312 36.6635 170.611 37.0049 170.824C37.3462 171.037 37.7569 171.144 38.2369 171.144ZM48.8395 173.112C47.9542 173.112 47.2395 173.005 46.6955 172.792C46.1515 172.568 45.7515 172.2 45.4955 171.688C45.2502 171.165 45.1275 170.461 45.1275 169.576V161.864H47.5115V169.672C47.5115 170.088 47.6182 170.408 47.8315 170.632C48.0555 170.845 48.3702 170.952 48.7755 170.952H50.0715V173.112H48.8395ZM43.7995 166.104V164.232H50.0715V166.104H43.7995ZM57.0578 173V170.408H56.6258V167.592C56.6258 167.144 56.5191 166.808 56.3058 166.584C56.0924 166.36 55.7511 166.248 55.2818 166.248C55.0471 166.248 54.7378 166.253 54.3538 166.264C53.9698 166.275 53.5751 166.291 53.1698 166.312C52.7644 166.333 52.3964 166.355 52.0658 166.376V164.216C52.3111 164.195 52.5991 164.173 52.9298 164.152C53.2604 164.131 53.6018 164.115 53.9538 164.104C54.3058 164.093 54.6364 164.088 54.9458 164.088C55.8418 164.088 56.5938 164.216 57.2018 164.472C57.8204 164.728 58.2898 165.117 58.6098 165.64C58.9298 166.152 59.0898 166.813 59.0898 167.624V173H57.0578ZM54.2578 173.224C53.6284 173.224 53.0738 173.112 52.5938 172.888C52.1244 172.664 51.7564 172.344 51.4898 171.928C51.2231 171.501 51.0898 170.995 51.0898 170.408C51.0898 169.768 51.2551 169.245 51.5858 168.84C51.9164 168.424 52.3804 168.12 52.9778 167.928C53.5751 167.725 54.2631 167.624 55.0418 167.624H56.9138V169.048H55.0258C54.5778 169.048 54.2311 169.16 53.9858 169.384C53.7511 169.597 53.6338 169.891 53.6338 170.264C53.6338 170.616 53.7511 170.904 53.9858 171.128C54.2311 171.341 54.5778 171.448 55.0258 171.448C55.3138 171.448 55.5698 171.4 55.7938 171.304C56.0284 171.197 56.2204 171.021 56.3698 170.776C56.5191 170.531 56.6044 170.189 56.6258 169.752L57.2338 170.392C57.1804 171 57.0311 171.512 56.7858 171.928C56.5511 172.344 56.2204 172.664 55.7938 172.888C55.3778 173.112 54.8658 173.224 54.2578 173.224ZM61.3738 173V161.32H63.9498V173H61.3738ZM60.3338 163.208V161.32H63.9498V163.208H60.3338ZM70.084 173V164.232H72.644V173H70.084ZM68.916 166.12V164.232H72.644V166.12H68.916ZM71.076 163.368C70.596 163.368 70.2387 163.245 70.004 163C69.78 162.744 69.668 162.424 69.668 162.04C69.668 161.645 69.78 161.325 70.004 161.08C70.2387 160.824 70.596 160.696 71.076 160.696C71.556 160.696 71.908 160.824 72.132 161.08C72.3667 161.325 72.484 161.645 72.484 162.04C72.484 162.424 72.3667 162.744 72.132 163C71.908 163.245 71.556 163.368 71.076 163.368ZM78.6278 173.288C78.0091 173.288 77.4438 173.176 76.9318 172.952C76.4304 172.728 75.9931 172.419 75.6198 172.024C75.2464 171.619 74.9584 171.144 74.7558 170.6C74.5638 170.056 74.4678 169.469 74.4678 168.84V168.472C74.4678 167.843 74.5584 167.256 74.7398 166.712C74.9318 166.168 75.2038 165.693 75.5558 165.288C75.9184 164.872 76.3504 164.552 76.8518 164.328C77.3531 164.093 77.9131 163.976 78.5318 163.976C79.2358 163.976 79.8438 164.131 80.3558 164.44C80.8678 164.739 81.2678 165.187 81.5558 165.784C81.8438 166.371 82.0038 167.096 82.0358 167.96L81.3638 167.336V161.32H83.9398V173H81.9078V169.368H82.2598C82.2278 170.2 82.0518 170.909 81.7318 171.496C81.4224 172.083 81.0011 172.531 80.4678 172.84C79.9344 173.139 79.3211 173.288 78.6278 173.288ZM79.2678 171.144C79.6624 171.144 80.0198 171.059 80.3398 170.888C80.6704 170.707 80.9318 170.445 81.1238 170.104C81.3264 169.763 81.4278 169.352 81.4278 168.872V168.28C81.4278 167.811 81.3264 167.416 81.1238 167.096C80.9211 166.776 80.6544 166.531 80.3238 166.36C79.9931 166.189 79.6358 166.104 79.2518 166.104C78.8251 166.104 78.4411 166.216 78.0998 166.44C77.7691 166.653 77.5078 166.952 77.3158 167.336C77.1238 167.709 77.0278 168.147 77.0278 168.648C77.0278 169.16 77.1238 169.603 77.3158 169.976C77.5078 170.349 77.7744 170.637 78.1158 170.84C78.4571 171.043 78.8411 171.144 79.2678 171.144ZM90.2778 173.304C89.5311 173.304 88.8698 173.176 88.2938 172.92C87.7284 172.664 87.2538 172.323 86.8698 171.896C86.4964 171.459 86.2084 170.973 86.0058 170.44C85.8138 169.896 85.7178 169.341 85.7178 168.776V168.456C85.7178 167.869 85.8138 167.309 86.0058 166.776C86.2084 166.232 86.4964 165.747 86.8698 165.32C87.2431 164.893 87.7071 164.557 88.2618 164.312C88.8271 164.056 89.4671 163.928 90.1818 163.928C91.1204 163.928 91.9098 164.141 92.5498 164.568C93.2004 164.984 93.6964 165.533 94.0378 166.216C94.3791 166.888 94.5498 167.624 94.5498 168.424V169.288H86.7898V167.832H92.9978L92.1658 168.504C92.1658 167.981 92.0911 167.533 91.9418 167.16C91.7924 166.787 91.5684 166.504 91.2698 166.312C90.9818 166.109 90.6191 166.008 90.1818 166.008C89.7338 166.008 89.3551 166.109 89.0458 166.312C88.7364 166.515 88.5018 166.813 88.3418 167.208C88.1818 167.592 88.1018 168.067 88.1018 168.632C88.1018 169.155 88.1764 169.613 88.3258 170.008C88.4751 170.392 88.7098 170.691 89.0298 170.904C89.3498 171.117 89.7658 171.224 90.2778 171.224C90.7471 171.224 91.1311 171.133 91.4298 170.952C91.7284 170.771 91.9311 170.547 92.0378 170.28H94.3898C94.2618 170.867 94.0111 171.389 93.6378 171.848C93.2644 172.307 92.7951 172.664 92.2298 172.92C91.6644 173.176 91.0138 173.304 90.2778 173.304ZM96.2461 173V164.232H98.2781V167.992H98.1341C98.1341 167.096 98.2461 166.349 98.4701 165.752C98.7048 165.155 99.0568 164.707 99.5261 164.408C99.9955 164.109 100.566 163.96 101.238 163.96H101.35C102.374 163.96 103.153 164.296 103.686 164.968C104.23 165.629 104.502 166.637 104.502 167.992V173H101.942V167.848C101.942 167.379 101.803 166.995 101.526 166.696C101.249 166.397 100.875 166.248 100.406 166.248C99.9261 166.248 99.5368 166.403 99.2381 166.712C98.9501 167.011 98.8061 167.405 98.8061 167.896V173H96.2461ZM110.668 173.112C109.782 173.112 109.068 173.005 108.524 172.792C107.98 172.568 107.58 172.2 107.324 171.688C107.078 171.165 106.956 170.461 106.956 169.576V161.864H109.34V169.672C109.34 170.088 109.446 170.408 109.66 170.632C109.884 170.845 110.198 170.952 110.604 170.952H111.9V173.112H110.668ZM105.628 166.104V164.232H111.9V166.104H105.628ZM114.037 173V164.232H116.597V173H114.037ZM112.869 166.12V164.232H116.597V166.12H112.869ZM115.029 163.368C114.549 163.368 114.192 163.245 113.957 163C113.733 162.744 113.621 162.424 113.621 162.04C113.621 161.645 113.733 161.325 113.957 161.08C114.192 160.824 114.549 160.696 115.029 160.696C115.509 160.696 115.861 160.824 116.085 161.08C116.32 161.325 116.437 161.645 116.437 162.04C116.437 162.424 116.32 162.744 116.085 163C115.861 163.245 115.509 163.368 115.029 163.368ZM119.141 173V164.056C119.141 163.043 119.424 162.291 119.989 161.8C120.565 161.309 121.413 161.064 122.533 161.064H123.397V162.984H122.421C122.133 162.984 121.909 163.064 121.749 163.224C121.6 163.384 121.525 163.608 121.525 163.896V173H119.141ZM118.117 166.184V164.312H123.365V166.184H118.117ZM125.093 173V164.232H127.653V173H125.093ZM124.053 166.12V164.232H127.653V166.12H124.053ZM126.085 163.368C125.605 163.368 125.248 163.245 125.013 163C124.789 162.744 124.677 162.424 124.677 162.04C124.677 161.645 124.789 161.325 125.013 161.08C125.248 160.824 125.605 160.696 126.085 160.696C126.576 160.696 126.933 160.824 127.157 161.08C127.381 161.325 127.493 161.645 127.493 162.04C127.493 162.424 127.381 162.744 127.157 163C126.933 163.245 126.576 163.368 126.085 163.368ZM134.043 173.304C133.297 173.304 132.635 173.176 132.059 172.92C131.494 172.664 131.019 172.323 130.635 171.896C130.262 171.459 129.974 170.973 129.771 170.44C129.579 169.896 129.483 169.341 129.483 168.776V168.456C129.483 167.869 129.579 167.309 129.771 166.776C129.974 166.232 130.262 165.747 130.635 165.32C131.009 164.893 131.473 164.557 132.027 164.312C132.593 164.056 133.233 163.928 133.947 163.928C134.886 163.928 135.675 164.141 136.315 164.568C136.966 164.984 137.462 165.533 137.803 166.216C138.145 166.888 138.315 167.624 138.315 168.424V169.288H130.555V167.832H136.763L135.931 168.504C135.931 167.981 135.857 167.533 135.707 167.16C135.558 166.787 135.334 166.504 135.035 166.312C134.747 166.109 134.385 166.008 133.947 166.008C133.499 166.008 133.121 166.109 132.811 166.312C132.502 166.515 132.267 166.813 132.107 167.208C131.947 167.592 131.867 168.067 131.867 168.632C131.867 169.155 131.942 169.613 132.091 170.008C132.241 170.392 132.475 170.691 132.795 170.904C133.115 171.117 133.531 171.224 134.043 171.224C134.513 171.224 134.897 171.133 135.195 170.952C135.494 170.771 135.697 170.547 135.803 170.28H138.155C138.027 170.867 137.777 171.389 137.403 171.848C137.03 172.307 136.561 172.664 135.995 172.92C135.43 173.176 134.779 173.304 134.043 173.304ZM143.628 173.288C143.009 173.288 142.444 173.176 141.932 172.952C141.43 172.728 140.993 172.419 140.62 172.024C140.246 171.619 139.958 171.144 139.756 170.6C139.564 170.056 139.468 169.469 139.468 168.84V168.472C139.468 167.843 139.558 167.256 139.74 166.712C139.932 166.168 140.204 165.693 140.556 165.288C140.918 164.872 141.35 164.552 141.852 164.328C142.353 164.093 142.913 163.976 143.532 163.976C144.236 163.976 144.844 164.131 145.356 164.44C145.868 164.739 146.268 165.187 146.556 165.784C146.844 166.371 147.004 167.096 147.036 167.96L146.364 167.336V161.32H148.94V173H146.908V169.368H147.26C147.228 170.2 147.052 170.909 146.732 171.496C146.422 172.083 146.001 172.531 145.468 172.84C144.934 173.139 144.321 173.288 143.628 173.288ZM144.268 171.144C144.662 171.144 145.02 171.059 145.34 170.888C145.67 170.707 145.932 170.445 146.124 170.104C146.326 169.763 146.428 169.352 146.428 168.872V168.28C146.428 167.811 146.326 167.416 146.124 167.096C145.921 166.776 145.654 166.531 145.324 166.36C144.993 166.189 144.636 166.104 144.252 166.104C143.825 166.104 143.441 166.216 143.1 166.44C142.769 166.653 142.508 166.952 142.316 167.336C142.124 167.709 142.028 168.147 142.028 168.648C142.028 169.16 142.124 169.603 142.316 169.976C142.508 170.349 142.774 170.637 143.116 170.84C143.457 171.043 143.841 171.144 144.268 171.144ZM150.862 173V170.136H153.678V173H150.862ZM150.862 167.672V164.808H153.678V167.672H150.862Z" fill="#3E4852"/>
<path d="M621.838 63.266C620.914 63.266 620.121 63.1073 619.458 62.79C618.795 62.4633 618.254 62.0387 617.834 61.516C617.414 60.984 617.101 60.4147 616.896 59.808C616.7 59.192 616.602 58.5947 616.602 58.016V57.708C616.602 57.0733 616.705 56.448 616.91 55.832C617.115 55.2067 617.428 54.642 617.848 54.138C618.277 53.634 618.814 53.2327 619.458 52.934C620.111 52.626 620.881 52.472 621.768 52.472C622.692 52.472 623.509 52.6447 624.218 52.99C624.927 53.3353 625.492 53.816 625.912 54.432C626.341 55.0387 626.593 55.7527 626.668 56.574H624.358C624.293 56.1633 624.143 55.8133 623.91 55.524C623.677 55.2347 623.373 55.0107 623 54.852C622.636 54.6933 622.225 54.614 621.768 54.614C621.311 54.614 620.905 54.6933 620.55 54.852C620.195 55.0107 619.897 55.2347 619.654 55.524C619.421 55.8133 619.239 56.1587 619.108 56.56C618.987 56.952 618.926 57.3907 618.926 57.876C618.926 58.352 618.987 58.7907 619.108 59.192C619.239 59.584 619.425 59.9293 619.668 60.228C619.92 60.5173 620.228 60.7413 620.592 60.9C620.956 61.0493 621.371 61.124 621.838 61.124C622.547 61.124 623.145 60.9513 623.63 60.606C624.125 60.2607 624.423 59.7847 624.526 59.178H626.822C626.738 59.9247 626.486 60.6107 626.066 61.236C625.655 61.852 625.091 62.3467 624.372 62.72C623.663 63.084 622.818 63.266 621.838 63.266ZM628.219 63V55.328H629.997V58.618H629.955C629.955 57.5353 630.184 56.7 630.641 56.112C631.108 55.524 631.78 55.23 632.657 55.23H632.951V57.162H632.391C631.775 57.162 631.299 57.33 630.963 57.666C630.627 57.9927 630.459 58.4687 630.459 59.094V63H628.219ZM634.476 63V55.328H636.716V63H634.476ZM633.454 56.98V55.328H636.716V56.98H633.454ZM635.344 54.572C634.924 54.572 634.611 54.4647 634.406 54.25C634.21 54.026 634.112 53.746 634.112 53.41C634.112 53.0647 634.21 52.7847 634.406 52.57C634.611 52.346 634.924 52.234 635.344 52.234C635.764 52.234 636.072 52.346 636.268 52.57C636.473 52.7847 636.576 53.0647 636.576 53.41C636.576 53.746 636.473 54.026 636.268 54.25C636.072 54.4647 635.764 54.572 635.344 54.572ZM642.274 63.098C641.499 63.098 640.874 63.0047 640.398 62.818C639.922 62.622 639.572 62.3 639.348 61.852C639.133 61.3947 639.026 60.7787 639.026 60.004V53.256H641.112V60.088C641.112 60.452 641.205 60.732 641.392 60.928C641.588 61.1147 641.863 61.208 642.218 61.208H643.352V63.098H642.274ZM637.864 56.966V55.328H643.352V56.966H637.864ZM645.222 63V55.328H647.462V63H645.222ZM644.2 56.98V55.328H647.462V56.98H644.2ZM646.09 54.572C645.67 54.572 645.357 54.4647 645.152 54.25C644.956 54.026 644.858 53.746 644.858 53.41C644.858 53.0647 644.956 52.7847 645.152 52.57C645.357 52.346 645.67 52.234 646.09 52.234C646.51 52.234 646.818 52.346 647.014 52.57C647.219 52.7847 647.322 53.0647 647.322 53.41C647.322 53.746 647.219 54.026 647.014 54.25C646.818 54.4647 646.51 54.572 646.09 54.572ZM652.978 63.266C652.315 63.266 651.736 63.1587 651.242 62.944C650.756 62.72 650.35 62.4213 650.024 62.048C649.697 61.6747 649.454 61.2547 649.296 60.788C649.137 60.312 649.058 59.822 649.058 59.318V59.052C649.058 58.5293 649.142 58.03 649.31 57.554C649.478 57.0687 649.725 56.6393 650.052 56.266C650.378 55.8927 650.784 55.5987 651.27 55.384C651.764 55.1693 652.329 55.062 652.964 55.062C653.654 55.062 654.266 55.1973 654.798 55.468C655.33 55.7293 655.754 56.098 656.072 56.574C656.389 57.05 656.566 57.596 656.604 58.212H654.406C654.368 57.8667 654.228 57.5773 653.986 57.344C653.752 57.1013 653.412 56.98 652.964 56.98C652.59 56.98 652.278 57.0733 652.026 57.26C651.783 57.4467 651.601 57.7033 651.48 58.03C651.358 58.3567 651.298 58.744 651.298 59.192C651.298 59.6027 651.354 59.976 651.466 60.312C651.578 60.6387 651.755 60.8953 651.998 61.082C652.25 61.2593 652.576 61.348 652.978 61.348C653.276 61.348 653.528 61.2967 653.734 61.194C653.948 61.082 654.116 60.9327 654.238 60.746C654.368 60.55 654.448 60.326 654.476 60.074H656.66C656.632 60.7087 656.454 61.2687 656.128 61.754C655.801 62.23 655.367 62.6033 654.826 62.874C654.284 63.1353 653.668 63.266 652.978 63.266ZM662.726 63V60.732H662.348V58.268C662.348 57.876 662.255 57.582 662.068 57.386C661.882 57.19 661.583 57.092 661.172 57.092C660.967 57.092 660.696 57.0967 660.36 57.106C660.024 57.1153 659.679 57.1293 659.324 57.148C658.97 57.1667 658.648 57.1853 658.358 57.204V55.314C658.573 55.2953 658.825 55.2767 659.114 55.258C659.404 55.2393 659.702 55.2253 660.01 55.216C660.318 55.2067 660.608 55.202 660.878 55.202C661.662 55.202 662.32 55.314 662.852 55.538C663.394 55.762 663.804 56.1027 664.084 56.56C664.364 57.008 664.504 57.5867 664.504 58.296V63H662.726ZM660.276 63.196C659.726 63.196 659.24 63.098 658.82 62.902C658.41 62.706 658.088 62.426 657.854 62.062C657.621 61.6887 657.504 61.2453 657.504 60.732C657.504 60.172 657.649 59.7147 657.938 59.36C658.228 58.996 658.634 58.73 659.156 58.562C659.679 58.3847 660.281 58.296 660.962 58.296H662.6V59.542H660.948C660.556 59.542 660.253 59.64 660.038 59.836C659.833 60.0227 659.73 60.2793 659.73 60.606C659.73 60.914 659.833 61.166 660.038 61.362C660.253 61.5487 660.556 61.642 660.948 61.642C661.2 61.642 661.424 61.6 661.62 61.516C661.826 61.4227 661.994 61.2687 662.124 61.054C662.255 60.8393 662.33 60.5407 662.348 60.158L662.88 60.718C662.834 61.25 662.703 61.698 662.488 62.062C662.283 62.426 661.994 62.706 661.62 62.902C661.256 63.098 660.808 63.196 660.276 63.196ZM666.503 63V52.78H668.757V63H666.503ZM665.593 54.432V52.78H668.757V54.432H665.593Z" fill="#3E4852"/>
<path d="M623.756 99V88.78H626.052V99H623.756ZM617.148 99V88.78H619.444V99H617.148ZM619.038 94.87V92.854H624.162V94.87H619.038ZM628.583 99V91.328H630.823V99H628.583ZM627.561 92.98V91.328H630.823V92.98H627.561ZM629.451 90.572C629.031 90.572 628.719 90.4647 628.513 90.25C628.317 90.026 628.219 89.746 628.219 89.41C628.219 89.0647 628.317 88.7847 628.513 88.57C628.719 88.346 629.031 88.234 629.451 88.234C629.871 88.234 630.179 88.346 630.375 88.57C630.581 88.7847 630.683 89.0647 630.683 89.41C630.683 89.746 630.581 90.026 630.375 90.25C630.179 90.4647 629.871 90.572 629.451 90.572ZM635.919 102.052C635.546 102.052 635.163 102.038 634.771 102.01C634.379 101.982 634.02 101.945 633.693 101.898V100.008C634.02 100.055 634.379 100.092 634.771 100.12C635.172 100.157 635.536 100.176 635.863 100.176C636.47 100.176 636.96 100.106 637.333 99.966C637.716 99.826 637.996 99.6113 638.173 99.322C638.35 99.042 638.439 98.678 638.439 98.23V96.704L638.845 95.808C638.826 96.4893 638.691 97.0727 638.439 97.558C638.196 98.0433 637.856 98.4167 637.417 98.678C636.978 98.93 636.456 99.056 635.849 99.056C635.326 99.056 634.85 98.9627 634.421 98.776C634.001 98.58 633.642 98.3093 633.343 97.964C633.044 97.6187 632.816 97.2173 632.657 96.76C632.498 96.2933 632.419 95.7893 632.419 95.248V94.926C632.419 94.3847 632.503 93.8807 632.671 93.414C632.839 92.9473 633.082 92.5413 633.399 92.196C633.716 91.8507 634.094 91.5847 634.533 91.398C634.972 91.202 635.457 91.104 635.989 91.104C636.605 91.104 637.137 91.2393 637.585 91.51C638.042 91.7807 638.402 92.1773 638.663 92.7C638.924 93.2227 639.064 93.8527 639.083 94.59L638.775 94.674V91.328H640.553V98.09C640.553 99.0327 640.385 99.7933 640.049 100.372C639.713 100.951 639.2 101.375 638.509 101.646C637.828 101.917 636.964 102.052 635.919 102.052ZM636.549 97.166C636.894 97.166 637.207 97.0913 637.487 96.942C637.767 96.7833 637.986 96.5593 638.145 96.27C638.313 95.9807 638.397 95.6307 638.397 95.22V94.814C638.397 94.4127 638.308 94.0767 638.131 93.806C637.963 93.526 637.739 93.316 637.459 93.176C637.179 93.0267 636.88 92.952 636.563 92.952C636.19 92.952 635.858 93.0407 635.569 93.218C635.28 93.3953 635.056 93.6427 634.897 93.96C634.738 94.2773 634.659 94.6507 634.659 95.08C634.659 95.5187 634.738 95.8967 634.897 96.214C635.065 96.522 635.289 96.76 635.569 96.928C635.858 97.0867 636.185 97.166 636.549 97.166ZM642.493 99V88.78H644.733V94.674H644.397C644.397 93.8993 644.495 93.246 644.691 92.714C644.887 92.182 645.176 91.7807 645.559 91.51C645.941 91.23 646.422 91.09 647.001 91.09H647.099C647.948 91.09 648.597 91.3933 649.045 92C649.493 92.5973 649.717 93.4747 649.717 94.632V99H647.477V94.492C647.477 94.072 647.351 93.736 647.099 93.484C646.856 93.2227 646.534 93.092 646.133 93.092C645.713 93.092 645.372 93.2273 645.111 93.498C644.859 93.7687 644.733 94.128 644.733 94.576V99H642.493Z" fill="#3E4852"/>
<path d="M617.148 135V124.78H620.312L622.65 130.52H622.916L625.226 124.78H628.446V135H626.178V126.278L626.5 126.306L623.798 132.928H621.614L618.898 126.306L619.248 126.278V135H617.148ZM634.126 135.266C633.473 135.266 632.894 135.154 632.39 134.93C631.895 134.706 631.48 134.407 631.144 134.034C630.817 133.651 630.565 133.227 630.388 132.76C630.22 132.284 630.136 131.799 630.136 131.304V131.024C630.136 130.511 630.22 130.021 630.388 129.554C630.565 129.078 630.817 128.653 631.144 128.28C631.471 127.907 631.877 127.613 632.362 127.398C632.857 127.174 633.417 127.062 634.042 127.062C634.863 127.062 635.554 127.249 636.114 127.622C636.683 127.986 637.117 128.467 637.416 129.064C637.715 129.652 637.864 130.296 637.864 130.996V131.752H631.074V130.478H636.506L635.778 131.066C635.778 130.609 635.713 130.217 635.582 129.89C635.451 129.563 635.255 129.316 634.994 129.148C634.742 128.971 634.425 128.882 634.042 128.882C633.65 128.882 633.319 128.971 633.048 129.148C632.777 129.325 632.572 129.587 632.432 129.932C632.292 130.268 632.222 130.683 632.222 131.178C632.222 131.635 632.287 132.037 632.418 132.382C632.549 132.718 632.754 132.979 633.034 133.166C633.314 133.353 633.678 133.446 634.126 133.446C634.537 133.446 634.873 133.367 635.134 133.208C635.395 133.049 635.573 132.853 635.666 132.62H637.724C637.612 133.133 637.393 133.591 637.066 133.992C636.739 134.393 636.329 134.706 635.834 134.93C635.339 135.154 634.77 135.266 634.126 135.266ZM642.512 135.252C641.971 135.252 641.476 135.154 641.028 134.958C640.59 134.762 640.207 134.491 639.88 134.146C639.554 133.791 639.302 133.376 639.124 132.9C638.956 132.424 638.872 131.911 638.872 131.36V131.038C638.872 130.487 638.952 129.974 639.11 129.498C639.278 129.022 639.516 128.607 639.824 128.252C640.142 127.888 640.52 127.608 640.958 127.412C641.397 127.207 641.887 127.104 642.428 127.104C643.044 127.104 643.576 127.239 644.024 127.51C644.472 127.771 644.822 128.163 645.074 128.686C645.326 129.199 645.466 129.834 645.494 130.59L644.906 130.044V124.78H647.16V135H645.382V131.822H645.69C645.662 132.55 645.508 133.171 645.228 133.684C644.958 134.197 644.589 134.589 644.122 134.86C643.656 135.121 643.119 135.252 642.512 135.252ZM643.072 133.376C643.418 133.376 643.73 133.301 644.01 133.152C644.3 132.993 644.528 132.765 644.696 132.466C644.874 132.167 644.962 131.808 644.962 131.388V130.87C644.962 130.459 644.874 130.114 644.696 129.834C644.519 129.554 644.286 129.339 643.996 129.19C643.707 129.041 643.394 128.966 643.058 128.966C642.685 128.966 642.349 129.064 642.05 129.26C641.761 129.447 641.532 129.708 641.364 130.044C641.196 130.371 641.112 130.753 641.112 131.192C641.112 131.64 641.196 132.027 641.364 132.354C641.532 132.681 641.766 132.933 642.064 133.11C642.363 133.287 642.699 133.376 643.072 133.376ZM649.556 135V127.328H651.796V135H649.556ZM648.534 128.98V127.328H651.796V128.98H648.534ZM650.424 126.572C650.004 126.572 649.691 126.465 649.486 126.25C649.29 126.026 649.192 125.746 649.192 125.41C649.192 125.065 649.29 124.785 649.486 124.57C649.691 124.346 650.004 124.234 650.424 124.234C650.844 124.234 651.152 124.346 651.348 124.57C651.553 124.785 651.656 125.065 651.656 125.41C651.656 125.746 651.553 126.026 651.348 126.25C651.152 126.465 650.844 126.572 650.424 126.572ZM656.458 135.238C655.571 135.238 654.89 134.953 654.414 134.384C653.938 133.805 653.7 132.937 653.7 131.78V127.328H655.94V131.892C655.94 132.303 656.056 132.629 656.29 132.872C656.523 133.115 656.836 133.236 657.228 133.236C657.629 133.236 657.956 133.11 658.208 132.858C658.46 132.606 658.586 132.265 658.586 131.836V127.328H660.826V135H659.048V131.766H659.202C659.202 132.541 659.099 133.189 658.894 133.712C658.698 134.225 658.404 134.608 658.012 134.86C657.62 135.112 657.134 135.238 656.556 135.238H656.458ZM662.891 135V127.328H664.669V130.632H664.543C664.543 129.848 664.641 129.195 664.837 128.672C665.033 128.149 665.327 127.757 665.719 127.496C666.111 127.225 666.592 127.09 667.161 127.09H667.259C667.838 127.09 668.318 127.225 668.701 127.496C669.093 127.757 669.387 128.149 669.583 128.672C669.788 129.195 669.891 129.848 669.891 130.632H669.345C669.345 129.848 669.443 129.195 669.639 128.672C669.844 128.149 670.143 127.757 670.535 127.496C670.927 127.225 671.408 127.09 671.977 127.09H672.075C672.654 127.09 673.139 127.225 673.531 127.496C673.932 127.757 674.236 128.149 674.441 128.672C674.646 129.195 674.749 129.848 674.749 130.632V135H672.509V130.506C672.509 130.086 672.397 129.745 672.173 129.484C671.958 129.223 671.65 129.092 671.249 129.092C670.848 129.092 670.53 129.227 670.297 129.498C670.064 129.759 669.947 130.109 669.947 130.548V135H667.693V130.506C667.693 130.086 667.581 129.745 667.357 129.484C667.142 129.223 666.839 129.092 666.447 129.092C666.036 129.092 665.714 129.227 665.481 129.498C665.248 129.759 665.131 130.109 665.131 130.548V135H662.891Z" fill="#3E4852"/>
<path d="M617.148 171V160.78H619.444V171H617.148ZM619.164 171V168.984H623.448V171H619.164ZM628.471 171.266C627.799 171.266 627.202 171.163 626.679 170.958C626.156 170.743 625.713 170.454 625.349 170.09C624.994 169.726 624.724 169.311 624.537 168.844C624.35 168.368 624.257 167.869 624.257 167.346V167.024C624.257 166.492 624.35 165.988 624.537 165.512C624.733 165.027 625.013 164.602 625.377 164.238C625.75 163.874 626.198 163.589 626.721 163.384C627.244 163.169 627.827 163.062 628.471 163.062C629.134 163.062 629.722 163.169 630.235 163.384C630.758 163.589 631.201 163.874 631.565 164.238C631.929 164.602 632.209 165.027 632.405 165.512C632.601 165.988 632.699 166.492 632.699 167.024V167.346C632.699 167.869 632.606 168.368 632.419 168.844C632.232 169.311 631.957 169.726 631.593 170.09C631.238 170.454 630.8 170.743 630.277 170.958C629.754 171.163 629.152 171.266 628.471 171.266ZM628.471 169.376C628.91 169.376 629.274 169.283 629.563 169.096C629.852 168.909 630.072 168.648 630.221 168.312C630.38 167.976 630.459 167.603 630.459 167.192C630.459 166.753 630.38 166.371 630.221 166.044C630.062 165.708 629.834 165.442 629.535 165.246C629.246 165.05 628.891 164.952 628.471 164.952C628.06 164.952 627.706 165.05 627.407 165.246C627.108 165.442 626.88 165.708 626.721 166.044C626.572 166.371 626.497 166.753 626.497 167.192C626.497 167.603 626.572 167.976 626.721 168.312C626.87 168.648 627.094 168.909 627.393 169.096C627.692 169.283 628.051 169.376 628.471 169.376ZM636.899 171L638.299 163.58H640.749L642.373 171H640.637L638.971 163.636H639.965L638.467 171H636.899ZM636.367 171L636.353 169.138H637.893L637.907 171H636.367ZM635.359 171L633.301 163.328H635.499L637.417 171H635.359ZM641.211 171L641.225 169.138H642.765V171H641.211ZM641.841 171L643.549 163.328H645.607L643.759 171H641.841Z" fill="#3E4852"/>
<path d="M617.176 207V196.78H619.472V207H617.176ZM621.67 207V199.328H623.448V202.618H623.322C623.322 201.834 623.42 201.181 623.616 200.658C623.822 200.135 624.13 199.743 624.54 199.482C624.951 199.221 625.45 199.09 626.038 199.09H626.136C627.032 199.09 627.714 199.384 628.18 199.972C628.656 200.551 628.894 201.433 628.894 202.618V207H626.654V202.492C626.654 202.081 626.533 201.745 626.29 201.484C626.048 201.223 625.721 201.092 625.31 201.092C624.89 201.092 624.55 201.227 624.288 201.498C624.036 201.759 623.91 202.105 623.91 202.534V207H621.67ZM630.971 207V199.258C630.971 198.371 631.223 197.713 631.727 197.284C632.231 196.855 632.973 196.64 633.953 196.64H634.933V198.32H633.855C633.603 198.32 633.407 198.39 633.267 198.53C633.127 198.67 633.057 198.866 633.057 199.118V207H630.971ZM630.061 201.12V199.482H635.045V201.12H630.061ZM639.86 207.266C639.188 207.266 638.59 207.163 638.068 206.958C637.545 206.743 637.102 206.454 636.738 206.09C636.383 205.726 636.112 205.311 635.926 204.844C635.739 204.368 635.646 203.869 635.646 203.346V203.024C635.646 202.492 635.739 201.988 635.926 201.512C636.122 201.027 636.402 200.602 636.766 200.238C637.139 199.874 637.587 199.589 638.11 199.384C638.632 199.169 639.216 199.062 639.86 199.062C640.522 199.062 641.11 199.169 641.624 199.384C642.146 199.589 642.59 199.874 642.954 200.238C643.318 200.602 643.598 201.027 643.794 201.512C643.99 201.988 644.088 202.492 644.088 203.024V203.346C644.088 203.869 643.994 204.368 643.808 204.844C643.621 205.311 643.346 205.726 642.982 206.09C642.627 206.454 642.188 206.743 641.666 206.958C641.143 207.163 640.541 207.266 639.86 207.266ZM639.86 205.376C640.298 205.376 640.662 205.283 640.952 205.096C641.241 204.909 641.46 204.648 641.61 204.312C641.768 203.976 641.848 203.603 641.848 203.192C641.848 202.753 641.768 202.371 641.61 202.044C641.451 201.708 641.222 201.442 640.924 201.246C640.634 201.05 640.28 200.952 639.86 200.952C639.449 200.952 639.094 201.05 638.796 201.246C638.497 201.442 638.268 201.708 638.11 202.044C637.96 202.371 637.886 202.753 637.886 203.192C637.886 203.603 637.96 203.976 638.11 204.312C638.259 204.648 638.483 204.909 638.782 205.096C639.08 205.283 639.44 205.376 639.86 205.376ZM645.651 207V199.328H647.429V202.618H647.387C647.387 201.535 647.616 200.7 648.073 200.112C648.54 199.524 649.212 199.23 650.089 199.23H650.383V201.162H649.823C649.207 201.162 648.731 201.33 648.395 201.666C648.059 201.993 647.891 202.469 647.891 203.094V207H645.651ZM651.543 207V199.328H653.321V202.632H653.195C653.195 201.848 653.293 201.195 653.489 200.672C653.685 200.149 653.979 199.757 654.371 199.496C654.763 199.225 655.244 199.09 655.813 199.09H655.911C656.49 199.09 656.971 199.225 657.353 199.496C657.745 199.757 658.039 200.149 658.235 200.672C658.441 201.195 658.543 201.848 658.543 202.632H657.997C657.997 201.848 658.095 201.195 658.291 200.672C658.497 200.149 658.795 199.757 659.187 199.496C659.579 199.225 660.06 199.09 660.629 199.09H660.727C661.306 199.09 661.791 199.225 662.183 199.496C662.585 199.757 662.888 200.149 663.093 200.672C663.299 201.195 663.401 201.848 663.401 202.632V207H661.161V202.506C661.161 202.086 661.049 201.745 660.825 201.484C660.611 201.223 660.303 201.092 659.901 201.092C659.5 201.092 659.183 201.227 658.949 201.498C658.716 201.759 658.599 202.109 658.599 202.548V207H656.345V202.506C656.345 202.086 656.233 201.745 656.009 201.484C655.795 201.223 655.491 201.092 655.099 201.092C654.689 201.092 654.367 201.227 654.133 201.498C653.9 201.759 653.783 202.109 653.783 202.548V207H651.543ZM669.945 207V204.732H669.567V202.268C669.567 201.876 669.474 201.582 669.287 201.386C669.1 201.19 668.802 201.092 668.391 201.092C668.186 201.092 667.915 201.097 667.579 201.106C667.243 201.115 666.898 201.129 666.543 201.148C666.188 201.167 665.866 201.185 665.577 201.204V199.314C665.792 199.295 666.044 199.277 666.333 199.258C666.622 199.239 666.921 199.225 667.229 199.216C667.537 199.207 667.826 199.202 668.097 199.202C668.881 199.202 669.539 199.314 670.071 199.538C670.612 199.762 671.023 200.103 671.303 200.56C671.583 201.008 671.723 201.587 671.723 202.296V207H669.945ZM667.495 207.196C666.944 207.196 666.459 207.098 666.039 206.902C665.628 206.706 665.306 206.426 665.073 206.062C664.84 205.689 664.723 205.245 664.723 204.732C664.723 204.172 664.868 203.715 665.157 203.36C665.446 202.996 665.852 202.73 666.375 202.562C666.898 202.385 667.5 202.296 668.181 202.296H669.819V203.542H668.167C667.775 203.542 667.472 203.64 667.257 203.836C667.052 204.023 666.949 204.279 666.949 204.606C666.949 204.914 667.052 205.166 667.257 205.362C667.472 205.549 667.775 205.642 668.167 205.642C668.419 205.642 668.643 205.6 668.839 205.516C669.044 205.423 669.212 205.269 669.343 205.054C669.474 204.839 669.548 204.541 669.567 204.158L670.099 204.718C670.052 205.25 669.922 205.698 669.707 206.062C669.502 206.426 669.212 206.706 668.839 206.902C668.475 207.098 668.027 207.196 667.495 207.196ZM677.11 207.098C676.335 207.098 675.71 207.005 675.234 206.818C674.758 206.622 674.408 206.3 674.184 205.852C673.969 205.395 673.862 204.779 673.862 204.004V197.256H675.948V204.088C675.948 204.452 676.041 204.732 676.228 204.928C676.424 205.115 676.699 205.208 677.054 205.208H678.188V207.098H677.11ZM672.7 200.966V199.328H678.188V200.966H672.7ZM680.058 207V199.328H682.298V207H680.058ZM679.036 200.98V199.328H682.298V200.98H679.036ZM680.926 198.572C680.506 198.572 680.193 198.465 679.988 198.25C679.792 198.026 679.694 197.746 679.694 197.41C679.694 197.065 679.792 196.785 679.988 196.57C680.193 196.346 680.506 196.234 680.926 196.234C681.346 196.234 681.654 196.346 681.85 196.57C682.055 196.785 682.158 197.065 682.158 197.41C682.158 197.746 682.055 198.026 681.85 198.25C681.654 198.465 681.346 198.572 680.926 198.572ZM688.108 207.266C687.436 207.266 686.838 207.163 686.316 206.958C685.793 206.743 685.35 206.454 684.986 206.09C684.631 205.726 684.36 205.311 684.174 204.844C683.987 204.368 683.894 203.869 683.894 203.346V203.024C683.894 202.492 683.987 201.988 684.174 201.512C684.37 201.027 684.65 200.602 685.014 200.238C685.387 199.874 685.835 199.589 686.358 199.384C686.88 199.169 687.464 199.062 688.108 199.062C688.77 199.062 689.358 199.169 689.872 199.384C690.394 199.589 690.838 199.874 691.202 200.238C691.566 200.602 691.846 201.027 692.042 201.512C692.238 201.988 692.336 202.492 692.336 203.024V203.346C692.336 203.869 692.242 204.368 692.056 204.844C691.869 205.311 691.594 205.726 691.23 206.09C690.875 206.454 690.436 206.743 689.914 206.958C689.391 207.163 688.789 207.266 688.108 207.266ZM688.108 205.376C688.546 205.376 688.91 205.283 689.2 205.096C689.489 204.909 689.708 204.648 689.858 204.312C690.016 203.976 690.096 203.603 690.096 203.192C690.096 202.753 690.016 202.371 689.858 202.044C689.699 201.708 689.47 201.442 689.172 201.246C688.882 201.05 688.528 200.952 688.108 200.952C687.697 200.952 687.342 201.05 687.044 201.246C686.745 201.442 686.516 201.708 686.358 202.044C686.208 202.371 686.134 202.753 686.134 203.192C686.134 203.603 686.208 203.976 686.358 204.312C686.507 204.648 686.731 204.909 687.03 205.096C687.328 205.283 687.688 205.376 688.108 205.376ZM693.899 207V199.328H695.677V202.618H695.551C695.551 201.834 695.649 201.181 695.845 200.658C696.05 200.135 696.358 199.743 696.769 199.482C697.18 199.221 697.679 199.09 698.267 199.09H698.365C699.261 199.09 699.942 199.384 700.409 199.972C700.885 200.551 701.123 201.433 701.123 202.618V207H698.883V202.492C698.883 202.081 698.762 201.745 698.519 201.484C698.276 201.223 697.95 201.092 697.539 201.092C697.119 201.092 696.778 201.227 696.517 201.498C696.265 201.759 696.139 202.105 696.139 202.534V207H693.899Z" fill="#3E4852"/>
<rect x="544" y="42" width="64" height="32" rx="4" fill="#EA3829"/>
<path d="M585.026 63V54.292L585.642 54.768H582.576V52.78H587.322V63H585.026ZM582.338 63V61.012H589.604V63H582.338ZM595.495 63.294C594.758 63.294 594.123 63.168 593.591 62.916C593.068 62.664 592.639 62.314 592.303 61.866C591.967 61.418 591.72 60.9 591.561 60.312C591.402 59.7147 591.323 59.0753 591.323 58.394V57.792C591.323 56.112 591.748 54.8427 592.597 53.984C593.456 53.1253 594.702 52.696 596.335 52.696C596.671 52.696 597.002 52.7053 597.329 52.724C597.656 52.7427 597.968 52.7707 598.267 52.808V54.74C597.978 54.7027 597.66 54.6747 597.315 54.656C596.97 54.6373 596.62 54.628 596.265 54.628C595.528 54.628 594.954 54.754 594.543 55.006C594.132 55.258 593.843 55.6313 593.675 56.126C593.516 56.6113 593.437 57.2133 593.437 57.932V59.332H592.975C592.984 58.6507 593.12 58.0767 593.381 57.61C593.642 57.1433 594.006 56.7887 594.473 56.546C594.94 56.3033 595.472 56.182 596.069 56.182C596.778 56.182 597.385 56.3267 597.889 56.616C598.393 56.896 598.78 57.2927 599.051 57.806C599.322 58.3193 599.457 58.926 599.457 59.626C599.457 60.3633 599.289 61.0073 598.953 61.558C598.626 62.1087 598.164 62.538 597.567 62.846C596.979 63.1447 596.288 63.294 595.495 63.294ZM595.425 61.39C595.808 61.39 596.134 61.3153 596.405 61.166C596.676 61.0167 596.881 60.8113 597.021 60.55C597.17 60.2887 597.245 59.99 597.245 59.654C597.245 59.2993 597.175 58.996 597.035 58.744C596.895 58.4827 596.69 58.282 596.419 58.142C596.158 57.9927 595.836 57.918 595.453 57.918C595.126 57.918 594.818 57.9833 594.529 58.114C594.24 58.2447 594.006 58.4407 593.829 58.702C593.661 58.954 593.577 59.2713 593.577 59.654C593.577 59.9807 593.642 60.2793 593.773 60.55C593.913 60.8113 594.118 61.0167 594.389 61.166C594.669 61.3153 595.014 61.39 595.425 61.39Z" fill="white"/>
<rect x="544" y="78" width="64" height="32" rx="4" fill="#F05F1D"/>
<path d="M585.712 99.266C584.919 99.266 584.228 99.1213 583.64 98.832C583.052 98.5427 582.599 98.146 582.282 97.642C581.965 97.1287 581.806 96.5547 581.806 95.92H584.032C584.032 96.3493 584.181 96.6993 584.48 96.97C584.788 97.2313 585.199 97.362 585.712 97.362C586.067 97.362 586.365 97.2967 586.608 97.166C586.86 97.0353 587.056 96.858 587.196 96.634C587.336 96.4007 587.406 96.1393 587.406 95.85C587.406 95.402 587.252 95.0333 586.944 94.744C586.645 94.4547 586.239 94.31 585.726 94.31C585.474 94.31 585.236 94.3567 585.012 94.45C584.788 94.534 584.597 94.6413 584.438 94.772L583.374 93.05L586.524 90.978L586.398 90.74H582.24V88.78H589.212V90.908L585.614 93.204L584.368 92.91C584.573 92.8353 584.797 92.7793 585.04 92.742C585.283 92.7047 585.507 92.686 585.712 92.686C586.515 92.686 587.21 92.8167 587.798 93.078C588.386 93.3393 588.834 93.7033 589.142 94.17C589.459 94.6367 589.618 95.1873 589.618 95.822V95.99C589.618 96.6153 589.459 97.1753 589.142 97.67C588.834 98.1647 588.386 98.5567 587.798 98.846C587.21 99.126 586.515 99.266 585.712 99.266ZM591.631 98.986V96.872C591.631 96.4427 591.706 96.0647 591.855 95.738C592.004 95.402 592.242 95.108 592.569 94.856C592.905 94.5947 593.344 94.352 593.885 94.128L595.593 93.442C596.022 93.2647 596.33 93.0453 596.517 92.784C596.704 92.5133 596.797 92.1773 596.797 91.776C596.797 91.3747 596.662 91.0433 596.391 90.782C596.13 90.5207 595.752 90.39 595.257 90.39C594.772 90.39 594.394 90.5253 594.123 90.796C593.852 91.0667 593.717 91.4307 593.717 91.888H591.505C591.505 91.244 591.645 90.6653 591.925 90.152C592.205 89.6293 592.625 89.2187 593.185 88.92C593.745 88.6213 594.436 88.472 595.257 88.472C596.078 88.472 596.764 88.6213 597.315 88.92C597.875 89.2093 598.3 89.5967 598.589 90.082C598.878 90.5673 599.023 91.104 599.023 91.692V91.874C599.023 92.6673 598.794 93.33 598.337 93.862C597.88 94.394 597.203 94.8373 596.307 95.192L594.613 95.892C594.324 96.0133 594.123 96.1393 594.011 96.27C593.908 96.3913 593.857 96.5547 593.857 96.76V97.488L593.339 97.026H599.037V98.986H591.631Z" fill="white"/>
<rect x="544" y="114" width="64" height="32" rx="4" fill="#F68511"/>
<path d="M576.447 135.266C575.635 135.266 574.931 135.112 574.333 134.804C573.736 134.487 573.274 134.062 572.947 133.53C572.63 132.998 572.471 132.41 572.471 131.766H574.683C574.683 132.083 574.758 132.363 574.907 132.606C575.066 132.849 575.281 133.035 575.551 133.166C575.822 133.297 576.13 133.362 576.475 133.362C576.839 133.362 577.157 133.287 577.427 133.138C577.698 132.979 577.903 132.769 578.043 132.508C578.183 132.237 578.253 131.934 578.253 131.598C578.253 131.253 578.183 130.949 578.043 130.688C577.903 130.417 577.698 130.203 577.427 130.044C577.166 129.885 576.853 129.806 576.489 129.806C576.144 129.806 575.827 129.876 575.537 130.016C575.257 130.156 575.052 130.333 574.921 130.548H572.765L573.283 124.78H579.597V126.74H574.249L575.075 126.152L574.767 129.47L574.291 129.33C574.478 129.106 574.683 128.905 574.907 128.728C575.141 128.551 575.416 128.411 575.733 128.308C576.051 128.196 576.429 128.14 576.867 128.14C577.614 128.14 578.253 128.294 578.785 128.602C579.327 128.901 579.742 129.307 580.031 129.82C580.321 130.324 580.465 130.889 580.465 131.514V131.696C580.465 132.321 580.307 132.905 579.989 133.446C579.681 133.987 579.229 134.426 578.631 134.762C578.034 135.098 577.306 135.266 576.447 135.266ZM586.034 135.294C585.297 135.294 584.662 135.168 584.13 134.916C583.607 134.664 583.178 134.314 582.842 133.866C582.506 133.418 582.259 132.9 582.1 132.312C581.941 131.715 581.862 131.075 581.862 130.394V129.792C581.862 128.112 582.287 126.843 583.136 125.984C583.995 125.125 585.241 124.696 586.874 124.696C587.21 124.696 587.541 124.705 587.868 124.724C588.195 124.743 588.507 124.771 588.806 124.808V126.74C588.517 126.703 588.199 126.675 587.854 126.656C587.509 126.637 587.159 126.628 586.804 126.628C586.067 126.628 585.493 126.754 585.082 127.006C584.671 127.258 584.382 127.631 584.214 128.126C584.055 128.611 583.976 129.213 583.976 129.932V131.332H583.514C583.523 130.651 583.659 130.077 583.92 129.61C584.181 129.143 584.545 128.789 585.012 128.546C585.479 128.303 586.011 128.182 586.608 128.182C587.317 128.182 587.924 128.327 588.428 128.616C588.932 128.896 589.319 129.293 589.59 129.806C589.861 130.319 589.996 130.926 589.996 131.626C589.996 132.363 589.828 133.007 589.492 133.558C589.165 134.109 588.703 134.538 588.106 134.846C587.518 135.145 586.827 135.294 586.034 135.294ZM585.964 133.39C586.347 133.39 586.673 133.315 586.944 133.166C587.215 133.017 587.42 132.811 587.56 132.55C587.709 132.289 587.784 131.99 587.784 131.654C587.784 131.299 587.714 130.996 587.574 130.744C587.434 130.483 587.229 130.282 586.958 130.142C586.697 129.993 586.375 129.918 585.992 129.918C585.665 129.918 585.357 129.983 585.068 130.114C584.779 130.245 584.545 130.441 584.368 130.702C584.2 130.954 584.116 131.271 584.116 131.654C584.116 131.981 584.181 132.279 584.312 132.55C584.452 132.811 584.657 133.017 584.928 133.166C585.208 133.315 585.553 133.39 585.964 133.39ZM595.271 135.294C594.45 135.294 593.731 135.173 593.115 134.93C592.499 134.687 592.023 134.333 591.687 133.866C591.351 133.399 591.183 132.83 591.183 132.158C591.183 131.738 591.253 131.36 591.393 131.024C591.533 130.688 591.734 130.403 591.995 130.17C592.256 129.937 592.56 129.755 592.905 129.624V129.442C592.634 129.33 592.392 129.181 592.177 128.994C591.962 128.798 591.79 128.56 591.659 128.28C591.538 128 591.477 127.673 591.477 127.3C591.477 126.665 591.64 126.143 591.967 125.732C592.303 125.321 592.756 125.013 593.325 124.808C593.904 124.593 594.552 124.486 595.271 124.486C596.008 124.486 596.657 124.593 597.217 124.808C597.786 125.013 598.234 125.321 598.561 125.732C598.897 126.143 599.065 126.665 599.065 127.3C599.065 127.673 599.004 128 598.883 128.28C598.762 128.56 598.594 128.798 598.379 128.994C598.164 129.181 597.917 129.33 597.637 129.442V129.624C597.992 129.755 598.295 129.937 598.547 130.17C598.808 130.403 599.009 130.688 599.149 131.024C599.298 131.351 599.373 131.729 599.373 132.158C599.373 132.83 599.2 133.399 598.855 133.866C598.519 134.333 598.043 134.687 597.427 134.93C596.82 135.173 596.102 135.294 595.271 135.294ZM595.271 133.404C595.644 133.404 595.971 133.348 596.251 133.236C596.531 133.124 596.75 132.956 596.909 132.732C597.068 132.508 597.147 132.228 597.147 131.892C597.147 131.565 597.068 131.29 596.909 131.066C596.76 130.842 596.545 130.674 596.265 130.562C595.985 130.45 595.654 130.394 595.271 130.394C594.898 130.394 594.566 130.45 594.277 130.562C593.997 130.674 593.778 130.842 593.619 131.066C593.47 131.29 593.395 131.565 593.395 131.892C593.395 132.228 593.474 132.508 593.633 132.732C593.792 132.956 594.011 133.124 594.291 133.236C594.571 133.348 594.898 133.404 595.271 133.404ZM595.271 128.7C595.756 128.7 596.139 128.602 596.419 128.406C596.699 128.21 596.839 127.916 596.839 127.524C596.839 127.141 596.699 126.852 596.419 126.656C596.139 126.46 595.756 126.362 595.271 126.362C594.786 126.362 594.403 126.46 594.123 126.656C593.843 126.852 593.703 127.141 593.703 127.524C593.703 127.916 593.843 128.21 594.123 128.406C594.412 128.602 594.795 128.7 595.271 128.7Z" fill="white"/>
<rect x="544" y="150" width="64" height="32" rx="4" fill="#F9B208"/>
<path d="M576.251 171.266C575.458 171.266 574.767 171.121 574.179 170.832C573.591 170.543 573.139 170.146 572.821 169.642C572.504 169.129 572.345 168.555 572.345 167.92H574.571C574.571 168.349 574.721 168.699 575.019 168.97C575.327 169.231 575.738 169.362 576.251 169.362C576.606 169.362 576.905 169.297 577.147 169.166C577.399 169.035 577.595 168.858 577.735 168.634C577.875 168.401 577.945 168.139 577.945 167.85C577.945 167.402 577.791 167.033 577.483 166.744C577.185 166.455 576.779 166.31 576.265 166.31C576.013 166.31 575.775 166.357 575.551 166.45C575.327 166.534 575.136 166.641 574.977 166.772L573.913 165.05L577.063 162.978L576.937 162.74H572.779V160.78H579.751V162.908L576.153 165.204L574.907 164.91C575.113 164.835 575.337 164.779 575.579 164.742C575.822 164.705 576.046 164.686 576.251 164.686C577.054 164.686 577.749 164.817 578.337 165.078C578.925 165.339 579.373 165.703 579.681 166.17C579.999 166.637 580.157 167.187 580.157 167.822V167.99C580.157 168.615 579.999 169.175 579.681 169.67C579.373 170.165 578.925 170.557 578.337 170.846C577.749 171.126 577.054 171.266 576.251 171.266ZM585.81 171.294C584.989 171.294 584.27 171.173 583.654 170.93C583.038 170.687 582.562 170.333 582.226 169.866C581.89 169.399 581.722 168.83 581.722 168.158C581.722 167.738 581.792 167.36 581.932 167.024C582.072 166.688 582.273 166.403 582.534 166.17C582.795 165.937 583.099 165.755 583.444 165.624V165.442C583.173 165.33 582.931 165.181 582.716 164.994C582.501 164.798 582.329 164.56 582.198 164.28C582.077 164 582.016 163.673 582.016 163.3C582.016 162.665 582.179 162.143 582.506 161.732C582.842 161.321 583.295 161.013 583.864 160.808C584.443 160.593 585.091 160.486 585.81 160.486C586.547 160.486 587.196 160.593 587.756 160.808C588.325 161.013 588.773 161.321 589.1 161.732C589.436 162.143 589.604 162.665 589.604 163.3C589.604 163.673 589.543 164 589.422 164.28C589.301 164.56 589.133 164.798 588.918 164.994C588.703 165.181 588.456 165.33 588.176 165.442V165.624C588.531 165.755 588.834 165.937 589.086 166.17C589.347 166.403 589.548 166.688 589.688 167.024C589.837 167.351 589.912 167.729 589.912 168.158C589.912 168.83 589.739 169.399 589.394 169.866C589.058 170.333 588.582 170.687 587.966 170.93C587.359 171.173 586.641 171.294 585.81 171.294ZM585.81 169.404C586.183 169.404 586.51 169.348 586.79 169.236C587.07 169.124 587.289 168.956 587.448 168.732C587.607 168.508 587.686 168.228 587.686 167.892C587.686 167.565 587.607 167.29 587.448 167.066C587.299 166.842 587.084 166.674 586.804 166.562C586.524 166.45 586.193 166.394 585.81 166.394C585.437 166.394 585.105 166.45 584.816 166.562C584.536 166.674 584.317 166.842 584.158 167.066C584.009 167.29 583.934 167.565 583.934 167.892C583.934 168.228 584.013 168.508 584.172 168.732C584.331 168.956 584.55 169.124 584.83 169.236C585.11 169.348 585.437 169.404 585.81 169.404ZM585.81 164.7C586.295 164.7 586.678 164.602 586.958 164.406C587.238 164.21 587.378 163.916 587.378 163.524C587.378 163.141 587.238 162.852 586.958 162.656C586.678 162.46 586.295 162.362 585.81 162.362C585.325 162.362 584.942 162.46 584.662 162.656C584.382 162.852 584.242 163.141 584.242 163.524C584.242 163.916 584.382 164.21 584.662 164.406C584.951 164.602 585.334 164.7 585.81 164.7ZM591.071 169.04V166.646L594.907 160.486L596.685 161.648L593.409 166.926L593.605 167.22H599.681V169.04H591.071ZM596.405 171V163.636H598.533V171H596.405Z" fill="white"/>
<rect x="544" y="186" width="64" height="32" rx="4" fill="#3892F3"/>
<path d="M572.709 206.986V204.872C572.709 204.443 572.784 204.065 572.933 203.738C573.083 203.402 573.321 203.108 573.647 202.856C573.983 202.595 574.422 202.352 574.963 202.128L576.671 201.442C577.101 201.265 577.409 201.045 577.595 200.784C577.782 200.513 577.875 200.177 577.875 199.776C577.875 199.375 577.74 199.043 577.469 198.782C577.208 198.521 576.83 198.39 576.335 198.39C575.85 198.39 575.472 198.525 575.201 198.796C574.931 199.067 574.795 199.431 574.795 199.888H572.583C572.583 199.244 572.723 198.665 573.003 198.152C573.283 197.629 573.703 197.219 574.263 196.92C574.823 196.621 575.514 196.472 576.335 196.472C577.157 196.472 577.843 196.621 578.393 196.92C578.953 197.209 579.378 197.597 579.667 198.082C579.957 198.567 580.101 199.104 580.101 199.692V199.874C580.101 200.667 579.873 201.33 579.415 201.862C578.958 202.394 578.281 202.837 577.385 203.192L575.691 203.892C575.402 204.013 575.201 204.139 575.089 204.27C574.987 204.391 574.935 204.555 574.935 204.76V205.488L574.417 205.026H580.115V206.986H572.709ZM585.908 207.266C585.096 207.266 584.391 207.112 583.794 206.804C583.197 206.487 582.735 206.062 582.408 205.53C582.091 204.998 581.932 204.41 581.932 203.766H584.144C584.144 204.083 584.219 204.363 584.368 204.606C584.527 204.849 584.741 205.035 585.012 205.166C585.283 205.297 585.591 205.362 585.936 205.362C586.3 205.362 586.617 205.287 586.888 205.138C587.159 204.979 587.364 204.769 587.504 204.508C587.644 204.237 587.714 203.934 587.714 203.598C587.714 203.253 587.644 202.949 587.504 202.688C587.364 202.417 587.159 202.203 586.888 202.044C586.627 201.885 586.314 201.806 585.95 201.806C585.605 201.806 585.287 201.876 584.998 202.016C584.718 202.156 584.513 202.333 584.382 202.548H582.226L582.744 196.78H589.058V198.74H583.71L584.536 198.152L584.228 201.47L583.752 201.33C583.939 201.106 584.144 200.905 584.368 200.728C584.601 200.551 584.877 200.411 585.194 200.308C585.511 200.196 585.889 200.14 586.328 200.14C587.075 200.14 587.714 200.294 588.246 200.602C588.787 200.901 589.203 201.307 589.492 201.82C589.781 202.324 589.926 202.889 589.926 203.514V203.696C589.926 204.321 589.767 204.905 589.45 205.446C589.142 205.987 588.689 206.426 588.092 206.762C587.495 207.098 586.767 207.266 585.908 207.266ZM595.495 207.294C594.758 207.294 594.123 207.168 593.591 206.916C593.068 206.664 592.639 206.314 592.303 205.866C591.967 205.418 591.72 204.9 591.561 204.312C591.402 203.715 591.323 203.075 591.323 202.394V201.792C591.323 200.112 591.748 198.843 592.597 197.984C593.456 197.125 594.702 196.696 596.335 196.696C596.671 196.696 597.002 196.705 597.329 196.724C597.656 196.743 597.968 196.771 598.267 196.808V198.74C597.978 198.703 597.66 198.675 597.315 198.656C596.97 198.637 596.62 198.628 596.265 198.628C595.528 198.628 594.954 198.754 594.543 199.006C594.132 199.258 593.843 199.631 593.675 200.126C593.516 200.611 593.437 201.213 593.437 201.932V203.332H592.975C592.984 202.651 593.12 202.077 593.381 201.61C593.642 201.143 594.006 200.789 594.473 200.546C594.94 200.303 595.472 200.182 596.069 200.182C596.778 200.182 597.385 200.327 597.889 200.616C598.393 200.896 598.78 201.293 599.051 201.806C599.322 202.319 599.457 202.926 599.457 203.626C599.457 204.363 599.289 205.007 598.953 205.558C598.626 206.109 598.164 206.538 597.567 206.846C596.979 207.145 596.288 207.294 595.495 207.294ZM595.425 205.39C595.808 205.39 596.134 205.315 596.405 205.166C596.676 205.017 596.881 204.811 597.021 204.55C597.17 204.289 597.245 203.99 597.245 203.654C597.245 203.299 597.175 202.996 597.035 202.744C596.895 202.483 596.69 202.282 596.419 202.142C596.158 201.993 595.836 201.918 595.453 201.918C595.126 201.918 594.818 201.983 594.529 202.114C594.24 202.245 594.006 202.441 593.829 202.702C593.661 202.954 593.577 203.271 593.577 203.654C593.577 203.981 593.642 204.279 593.773 204.55C593.913 204.811 594.118 205.017 594.389 205.166C594.669 205.315 595.014 205.39 595.425 205.39Z" fill="white"/>
<rect x="0.5" y="0.5" width="783" height="259" rx="15.5" stroke="#E1E4E7"/>
</svg>
