<svg width="24" height="24" viewBox="0 0 24 24" fill="none" xmlns="http://www.w3.org/2000/svg">
<path d="M13.379 17.4533L13.4181 17.4181L13.4533 17.379C13.5962 17.2202 13.7424 17.0215 13.8481 16.7524C13.938 16.5328 14 16.2766 14 16C14 15.7183 13.9357 15.4577 13.8431 15.2354C13.7481 15.0075 13.6162 14.802 13.4533 14.621L13.4181 14.5819L13.379 14.5467C13.2967 14.4726 13.2093 14.405 13.1171 14.3443C13.5032 14.0226 13.75 13.5386 13.75 13V8C13.75 7.03772 12.9623 6.25 12 6.25C11.0377 6.25 10.25 7.03772 10.25 8V13C10.25 13.5386 10.4968 14.0226 10.8829 14.3443C10.7907 14.405 10.7033 14.4726 10.621 14.5467L10.5819 14.5819L10.5467 14.621C10.3838 14.802 10.2519 15.0075 10.1569 15.2354C10.0643 15.4577 10 15.7183 10 16C10 16.2766 10.062 16.5328 10.1519 16.7524C10.2576 17.0215 10.4038 17.2202 10.5467 17.379L10.5819 17.4181L10.621 17.4533C10.802 17.6162 11.0075 17.7481 11.2354 17.8431C11.4577 17.9357 11.7183 18 12 18C12.2817 18 12.5423 17.9357 12.7646 17.8431C12.9925 17.7481 13.198 17.6162 13.379 17.4533ZM3 12C3 7.04228 7.04228 3 12 3C16.9577 3 21 7.04228 21 12C21 16.9577 16.9577 21 12 21C7.04228 21 3 16.9577 3 12Z" fill="#3892F3" stroke="#3892F3" stroke-width="2"/>
</svg>
