<svg width="300" height="216" viewBox="0 0 300 216" fill="none" xmlns="http://www.w3.org/2000/svg">
<path d="M37.488 40L31.44 31.816H29.016L36.36 22.48H40.872L34.272 30.856L34.224 29.152L42.24 40H37.488ZM25.968 40V22.48H29.904V40H25.968ZM43.7989 40V26.848H46.8469V32.488H46.6309C46.6309 31.144 46.7989 30.024 47.1349 29.128C47.4869 28.232 48.0149 27.56 48.7189 27.112C49.4229 26.664 50.2789 26.44 51.2869 26.44H51.4549C52.9909 26.44 54.1589 26.944 54.9589 27.952C55.7749 28.944 56.1829 30.456 56.1829 32.488V40H52.3429V32.272C52.3429 31.568 52.1349 30.992 51.7189 30.544C51.3029 30.096 50.7429 29.872 50.0389 29.872C49.3189 29.872 48.7349 30.104 48.2869 30.568C47.8549 31.016 47.6389 31.608 47.6389 32.344V40H43.7989ZM65.8631 40.456C64.7111 40.456 63.6871 40.28 62.7911 39.928C61.8951 39.56 61.1351 39.064 60.5111 38.44C59.9031 37.816 59.4391 37.104 59.1191 36.304C58.7991 35.488 58.6391 34.632 58.6391 33.736V33.184C58.6391 32.272 58.7991 31.408 59.1191 30.592C59.4551 29.76 59.9351 29.032 60.5591 28.408C61.1991 27.784 61.9671 27.296 62.8631 26.944C63.7591 26.576 64.7591 26.392 65.8631 26.392C66.9991 26.392 68.0071 26.576 68.8871 26.944C69.7831 27.296 70.5431 27.784 71.1671 28.408C71.7911 29.032 72.2711 29.76 72.6071 30.592C72.9431 31.408 73.1111 32.272 73.1111 33.184V33.736C73.1111 34.632 72.9511 35.488 72.6311 36.304C72.3111 37.104 71.8391 37.816 71.2151 38.44C70.6071 39.064 69.8551 39.56 68.9591 39.928C68.0631 40.28 67.0311 40.456 65.8631 40.456ZM65.8631 37.216C66.6151 37.216 67.2391 37.056 67.7351 36.736C68.2311 36.416 68.6071 35.968 68.8631 35.392C69.1351 34.816 69.2711 34.176 69.2711 33.472C69.2711 32.72 69.1351 32.064 68.8631 31.504C68.5911 30.928 68.1991 30.472 67.6871 30.136C67.1911 29.8 66.5831 29.632 65.8631 29.632C65.1591 29.632 64.5511 29.8 64.0391 30.136C63.5271 30.472 63.1351 30.928 62.8631 31.504C62.6071 32.064 62.4791 32.72 62.4791 33.472C62.4791 34.176 62.6071 34.816 62.8631 35.392C63.1191 35.968 63.5031 36.416 64.0151 36.736C64.5271 37.056 65.1431 37.216 65.8631 37.216ZM80.3104 40L82.7104 27.28H86.9104L89.6944 40H86.7184L83.8624 27.376H85.5664L82.9984 40H80.3104ZM79.3984 40L79.3744 36.808H82.0144L82.0384 40H79.3984ZM77.6704 40L74.1424 26.848H77.9104L81.1984 40H77.6704ZM87.7024 40L87.7264 36.808H90.3664V40H87.7024ZM88.7824 40L91.7104 26.848H95.2384L92.0704 40H88.7824ZM102.506 45.208V41.944H105.242C105.658 41.944 106.01 41.888 106.298 41.776C106.586 41.68 106.818 41.512 106.994 41.272C107.17 41.032 107.314 40.704 107.426 40.288L110.666 26.848H114.314L110.642 41.056C110.386 42.08 110.026 42.896 109.562 43.504C109.114 44.112 108.506 44.544 107.738 44.8C106.986 45.072 106.026 45.208 104.858 45.208H102.506ZM106.634 39.712V36.712H109.418V39.712H106.634ZM105.05 39.712L101.018 26.848H104.882L108.698 39.712H105.05ZM122.441 40.456C121.289 40.456 120.265 40.28 119.369 39.928C118.473 39.56 117.713 39.064 117.089 38.44C116.481 37.816 116.017 37.104 115.697 36.304C115.377 35.488 115.217 34.632 115.217 33.736V33.184C115.217 32.272 115.377 31.408 115.697 30.592C116.033 29.76 116.513 29.032 117.137 28.408C117.777 27.784 118.545 27.296 119.441 26.944C120.337 26.576 121.337 26.392 122.441 26.392C123.577 26.392 124.585 26.576 125.465 26.944C126.361 27.296 127.121 27.784 127.745 28.408C128.369 29.032 128.849 29.76 129.185 30.592C129.521 31.408 129.689 32.272 129.689 33.184V33.736C129.689 34.632 129.529 35.488 129.209 36.304C128.889 37.104 128.417 37.816 127.793 38.44C127.185 39.064 126.433 39.56 125.537 39.928C124.641 40.28 123.609 40.456 122.441 40.456ZM122.441 37.216C123.193 37.216 123.817 37.056 124.313 36.736C124.809 36.416 125.185 35.968 125.441 35.392C125.713 34.816 125.849 34.176 125.849 33.472C125.849 32.72 125.713 32.064 125.441 31.504C125.169 30.928 124.777 30.472 124.265 30.136C123.769 29.8 123.161 29.632 122.441 29.632C121.737 29.632 121.129 29.8 120.617 30.136C120.105 30.472 119.713 30.928 119.441 31.504C119.185 32.064 119.057 32.72 119.057 33.472C119.057 34.176 119.185 34.816 119.441 35.392C119.697 35.968 120.081 36.416 120.593 36.736C121.105 37.056 121.721 37.216 122.441 37.216ZM136.809 40.408C135.289 40.408 134.121 39.92 133.305 38.944C132.489 37.952 132.081 36.464 132.081 34.48V26.848H135.921V34.672C135.921 35.376 136.121 35.936 136.521 36.352C136.921 36.768 137.457 36.976 138.129 36.976C138.817 36.976 139.377 36.76 139.809 36.328C140.241 35.896 140.457 35.312 140.457 34.576V26.848H144.297V40H141.249V34.456H141.513C141.513 35.784 141.337 36.896 140.985 37.792C140.649 38.672 140.145 39.328 139.473 39.76C138.801 40.192 137.969 40.408 136.977 40.408H136.809ZM147.838 40V26.848H150.886V32.488H150.814C150.814 30.632 151.206 29.2 151.99 28.192C152.79 27.184 153.942 26.68 155.446 26.68H155.95V29.992H154.99C153.934 29.992 153.118 30.28 152.542 30.856C151.966 31.416 151.678 32.232 151.678 33.304V40H147.838ZM38.3741 72L34.4381 58.848H38.3981L42.0941 72H38.3741ZM39.5741 72V68.808H43.4381V72H39.5741ZM40.9901 72L44.1821 58.848H47.8781L44.4701 72H40.9901ZM54.5904 72.408C53.0704 72.408 51.9024 71.92 51.0864 70.944C50.2704 69.952 49.8624 68.464 49.8624 66.48V58.848H53.7024V66.672C53.7024 67.376 53.9024 67.936 54.3024 68.352C54.7024 68.768 55.2384 68.976 55.9104 68.976C56.5984 68.976 57.1584 68.76 57.5904 68.328C58.0224 67.896 58.2384 67.312 58.2384 66.576V58.848H62.0784V72H59.0304V66.456H59.2944C59.2944 67.784 59.1184 68.896 58.7664 69.792C58.4304 70.672 57.9264 71.328 57.2544 71.76C56.5824 72.192 55.7504 72.408 54.7584 72.408H54.5904ZM65.7872 72V54.48H69.6512V72H65.7872ZM64.2272 57.312V54.48H69.6512V57.312H64.2272ZM73.1895 72V58.848H76.2375V64.488H76.0215C76.0215 63.144 76.1895 62.024 76.5255 61.128C76.8775 60.232 77.4055 59.56 78.1095 59.112C78.8135 58.664 79.6695 58.44 80.6775 58.44H80.8455C82.3815 58.44 83.5495 58.944 84.3495 59.952C85.1655 60.944 85.5735 62.456 85.5735 64.488V72H81.7335V64.272C81.7335 63.568 81.5255 62.992 81.1095 62.544C80.6935 62.096 80.1335 61.872 79.4295 61.872C78.7095 61.872 78.1255 62.104 77.6775 62.568C77.2455 63.016 77.0295 63.608 77.0295 64.344V72H73.1895ZM94.8698 72.456C93.7498 72.456 92.7578 72.264 91.8938 71.88C91.0458 71.496 90.3338 70.984 89.7578 70.344C89.1978 69.688 88.7658 68.96 88.4618 68.16C88.1738 67.344 88.0298 66.512 88.0298 65.664V65.184C88.0298 64.304 88.1738 63.464 88.4618 62.664C88.7658 61.848 89.1978 61.12 89.7578 60.48C90.3178 59.84 91.0138 59.336 91.8458 58.968C92.6938 58.584 93.6538 58.392 94.7258 58.392C96.1338 58.392 97.3178 58.712 98.2778 59.352C99.2538 59.976 99.9978 60.8 100.51 61.824C101.022 62.832 101.278 63.936 101.278 65.136V66.432H89.6378V64.248H98.9498L97.7018 65.256C97.7018 64.472 97.5898 63.8 97.3658 63.24C97.1418 62.68 96.8058 62.256 96.3578 61.968C95.9258 61.664 95.3818 61.512 94.7258 61.512C94.0538 61.512 93.4858 61.664 93.0218 61.968C92.5578 62.272 92.2058 62.72 91.9658 63.312C91.7258 63.888 91.6058 64.6 91.6058 65.448C91.6058 66.232 91.7178 66.92 91.9418 67.512C92.1658 68.088 92.5178 68.536 92.9978 68.856C93.4778 69.176 94.1018 69.336 94.8698 69.336C95.5738 69.336 96.1498 69.2 96.5978 68.928C97.0458 68.656 97.3498 68.32 97.5098 67.92H101.038C100.846 68.8 100.47 69.584 99.9098 70.272C99.3498 70.96 98.6458 71.496 97.7978 71.88C96.9498 72.264 95.9738 72.456 94.8698 72.456ZM103.822 72V58.848H106.87V64.488H106.798C106.798 62.632 107.19 61.2 107.974 60.192C108.774 59.184 109.926 58.68 111.43 58.68H111.934V61.992H110.974C109.918 61.992 109.102 62.28 108.526 62.856C107.95 63.416 107.662 64.232 107.662 65.304V72H103.822ZM121.774 72V68.112H121.126V63.888C121.126 63.216 120.966 62.712 120.646 62.376C120.326 62.04 119.814 61.872 119.11 61.872C118.758 61.872 118.294 61.88 117.718 61.896C117.142 61.912 116.55 61.936 115.942 61.968C115.334 62 114.782 62.032 114.286 62.064V58.824C114.654 58.792 115.086 58.76 115.582 58.728C116.078 58.696 116.59 58.672 117.118 58.656C117.646 58.64 118.142 58.632 118.606 58.632C119.95 58.632 121.078 58.824 121.99 59.208C122.918 59.592 123.622 60.176 124.102 60.96C124.582 61.728 124.822 62.72 124.822 63.936V72H121.774ZM117.574 72.336C116.63 72.336 115.798 72.168 115.078 71.832C114.374 71.496 113.822 71.016 113.422 70.392C113.022 69.752 112.822 68.992 112.822 68.112C112.822 67.152 113.07 66.368 113.566 65.76C114.062 65.136 114.758 64.68 115.654 64.392C116.55 64.088 117.582 63.936 118.75 63.936H121.558V66.072H118.726C118.054 66.072 117.534 66.24 117.166 66.576C116.814 66.896 116.638 67.336 116.638 67.896C116.638 68.424 116.814 68.856 117.166 69.192C117.534 69.512 118.054 69.672 118.726 69.672C119.158 69.672 119.542 69.6 119.878 69.456C120.23 69.296 120.518 69.032 120.742 68.664C120.966 68.296 121.094 67.784 121.126 67.128L122.038 68.088C121.958 69 121.734 69.768 121.366 70.392C121.014 71.016 120.518 71.496 119.878 71.832C119.254 72.168 118.486 72.336 117.574 72.336ZM136.168 72.432C135.096 72.432 134.152 72.208 133.336 71.76C132.52 71.296 131.88 70.632 131.416 69.768C130.952 68.904 130.704 67.848 130.672 66.6H131.128V72H128.08V54.48H131.92V63.384L131.008 64.536C131.056 63.208 131.304 62.096 131.752 61.2C132.216 60.288 132.848 59.608 133.648 59.16C134.448 58.696 135.36 58.464 136.384 58.464C137.28 58.464 138.088 58.632 138.808 58.968C139.544 59.288 140.168 59.752 140.68 60.36C141.192 60.952 141.584 61.656 141.856 62.472C142.144 63.288 142.288 64.176 142.288 65.136V65.664C142.288 66.624 142.144 67.512 141.856 68.328C141.584 69.144 141.176 69.864 140.632 70.488C140.104 71.096 139.464 71.576 138.712 71.928C137.96 72.264 137.112 72.432 136.168 72.432ZM135.16 69.216C135.816 69.216 136.384 69.056 136.864 68.736C137.36 68.416 137.744 67.968 138.016 67.392C138.288 66.8 138.424 66.136 138.424 65.4C138.424 64.648 138.288 63.992 138.016 63.432C137.744 62.872 137.36 62.44 136.864 62.136C136.384 61.816 135.816 61.656 135.16 61.656C134.584 61.656 134.04 61.792 133.528 62.064C133.016 62.336 132.6 62.728 132.28 63.24C131.976 63.736 131.824 64.344 131.824 65.064V65.952C131.824 66.64 131.984 67.232 132.304 67.728C132.64 68.208 133.064 68.576 133.576 68.832C134.088 69.088 134.616 69.216 135.16 69.216ZM145.579 72V58.848H149.419V72H145.579ZM143.827 61.68V58.848H149.419V61.68H143.827ZM147.067 57.552C146.347 57.552 145.811 57.368 145.459 57C145.123 56.616 144.955 56.136 144.955 55.56C144.955 54.968 145.123 54.488 145.459 54.12C145.811 53.736 146.347 53.544 147.067 53.544C147.787 53.544 148.315 53.736 148.651 54.12C149.003 54.488 149.179 54.968 149.179 55.56C149.179 56.136 149.003 56.616 148.651 57C148.315 57.368 147.787 57.552 147.067 57.552ZM153.139 72V54.48H157.003V72H153.139ZM151.579 57.312V54.48H157.003V57.312H151.579ZM161.165 72V58.848H165.005V72H161.165ZM159.413 61.68V58.848H165.005V61.68H159.413ZM162.653 57.552C161.933 57.552 161.397 57.368 161.045 57C160.709 56.616 160.541 56.136 160.541 55.56C160.541 54.968 160.709 54.488 161.045 54.12C161.397 53.736 161.933 53.544 162.653 53.544C163.373 53.544 163.901 53.736 164.237 54.12C164.589 54.488 164.765 54.968 164.765 55.56C164.765 56.136 164.589 56.616 164.237 57C163.901 57.368 163.373 57.552 162.653 57.552ZM174.533 72.168C173.205 72.168 172.133 72.008 171.317 71.688C170.501 71.352 169.901 70.8 169.517 70.032C169.149 69.248 168.965 68.192 168.965 66.864V55.296H172.541V67.008C172.541 67.632 172.701 68.112 173.021 68.448C173.357 68.768 173.829 68.928 174.437 68.928H176.381V72.168H174.533ZM166.973 61.656V58.848H176.381V61.656H166.973ZM179.587 72V58.848H183.427V72H179.587ZM177.835 61.68V58.848H183.427V61.68H177.835ZM181.075 57.552C180.355 57.552 179.819 57.368 179.467 57C179.131 56.616 178.963 56.136 178.963 55.56C178.963 54.968 179.131 54.488 179.467 54.12C179.819 53.736 180.355 53.544 181.075 53.544C181.795 53.544 182.323 53.736 182.659 54.12C183.011 54.488 183.187 54.968 183.187 55.56C183.187 56.136 183.011 56.616 182.659 57C182.323 57.368 181.795 57.552 181.075 57.552ZM193.003 72.456C191.883 72.456 190.891 72.264 190.027 71.88C189.179 71.496 188.467 70.984 187.891 70.344C187.331 69.688 186.899 68.96 186.595 68.16C186.307 67.344 186.163 66.512 186.163 65.664V65.184C186.163 64.304 186.307 63.464 186.595 62.664C186.899 61.848 187.331 61.12 187.891 60.48C188.451 59.84 189.147 59.336 189.979 58.968C190.827 58.584 191.787 58.392 192.859 58.392C194.267 58.392 195.451 58.712 196.411 59.352C197.387 59.976 198.131 60.8 198.643 61.824C199.155 62.832 199.411 63.936 199.411 65.136V66.432H187.771V64.248H197.083L195.835 65.256C195.835 64.472 195.723 63.8 195.499 63.24C195.275 62.68 194.939 62.256 194.491 61.968C194.059 61.664 193.515 61.512 192.859 61.512C192.187 61.512 191.619 61.664 191.155 61.968C190.691 62.272 190.339 62.72 190.099 63.312C189.859 63.888 189.739 64.6 189.739 65.448C189.739 66.232 189.851 66.92 190.075 67.512C190.299 68.088 190.651 68.536 191.131 68.856C191.611 69.176 192.235 69.336 193.003 69.336C193.707 69.336 194.283 69.2 194.731 68.928C195.179 68.656 195.483 68.32 195.643 67.92H199.171C198.979 68.8 198.603 69.584 198.043 70.272C197.483 70.96 196.779 71.496 195.931 71.88C195.083 72.264 194.107 72.456 193.003 72.456ZM206.947 72.408C205.075 72.408 203.611 72.024 202.555 71.256C201.499 70.488 200.939 69.408 200.875 68.016H204.283C204.347 68.432 204.595 68.808 205.027 69.144C205.475 69.464 206.139 69.624 207.019 69.624C207.691 69.624 208.243 69.512 208.675 69.288C209.123 69.048 209.347 68.712 209.347 68.28C209.347 67.896 209.179 67.592 208.843 67.368C208.507 67.128 207.907 66.96 207.043 66.864L206.011 66.768C204.427 66.608 203.235 66.168 202.435 65.448C201.651 64.728 201.259 63.808 201.259 62.688C201.259 61.76 201.491 60.984 201.955 60.36C202.419 59.736 203.059 59.264 203.875 58.944C204.707 58.624 205.651 58.464 206.707 58.464C208.403 58.464 209.771 58.84 210.811 59.592C211.851 60.328 212.395 61.4 212.443 62.808H209.035C208.971 62.376 208.747 62.016 208.363 61.728C207.979 61.424 207.411 61.272 206.659 61.272C206.067 61.272 205.595 61.384 205.243 61.608C204.891 61.832 204.715 62.136 204.715 62.52C204.715 62.888 204.867 63.168 205.171 63.36C205.475 63.552 205.971 63.688 206.659 63.768L207.691 63.864C209.307 64.04 210.563 64.488 211.459 65.208C212.355 65.928 212.803 66.896 212.803 68.112C212.803 68.992 212.563 69.76 212.083 70.416C211.603 71.056 210.923 71.552 210.043 71.904C209.163 72.24 208.131 72.408 206.947 72.408Z" fill="#3E4852"/>
<rect x="48" y="136" width="154" height="56" rx="12" fill="#E20074"/>
<path d="M87.5799 164C87.5799 165.98 85.9799 167.58 83.9999 167.58C82.0199 167.58 80.4199 165.98 80.4199 164C80.4199 162.02 82.0199 160.42 83.9999 160.42C85.9799 160.42 87.5799 162.02 87.5799 164Z" stroke="white" stroke-width="2" stroke-linecap="round" stroke-linejoin="round"/>
<path d="M83.9998 172.27C87.5298 172.27 90.8198 170.19 93.1098 166.59C94.0098 165.18 94.0098 162.81 93.1098 161.4C90.8198 157.8 87.5298 155.72 83.9998 155.72C80.4698 155.72 77.1798 157.8 74.8898 161.4C73.9898 162.81 73.9898 165.18 74.8898 166.59C77.1798 170.19 80.4698 172.27 83.9998 172.27Z" stroke="white" stroke-width="2" stroke-linecap="round" stroke-linejoin="round"/>
<path d="M107.616 169.064V166.616H109.792C110.336 166.616 110.827 166.536 111.264 166.376C111.701 166.205 112.075 165.971 112.384 165.672C112.693 165.363 112.928 164.995 113.088 164.568C113.248 164.131 113.328 163.651 113.328 163.128C113.328 162.584 113.248 162.099 113.088 161.672C112.928 161.245 112.693 160.883 112.384 160.584C112.075 160.285 111.701 160.061 111.264 159.912C110.827 159.752 110.336 159.672 109.792 159.672H107.616V157.224H109.648C110.704 157.224 111.627 157.379 112.416 157.688C113.205 157.997 113.867 158.419 114.4 158.952C114.933 159.485 115.328 160.099 115.584 160.792C115.851 161.475 115.984 162.195 115.984 162.952V163.304C115.984 164.008 115.851 164.707 115.584 165.4C115.328 166.083 114.933 166.701 114.4 167.256C113.867 167.8 113.205 168.237 112.416 168.568C111.627 168.899 110.704 169.064 109.648 169.064H107.616ZM105.312 169.064V157.224H107.936V169.064H105.312ZM118.084 169V160.232H120.644V169H118.084ZM116.916 162.12V160.232H120.644V162.12H116.916ZM119.076 159.368C118.596 159.368 118.239 159.245 118.004 159C117.78 158.744 117.668 158.424 117.668 158.04C117.668 157.645 117.78 157.325 118.004 157.08C118.239 156.824 118.596 156.696 119.076 156.696C119.556 156.696 119.908 156.824 120.132 157.08C120.367 157.325 120.484 157.645 120.484 158.04C120.484 158.424 120.367 158.744 120.132 159C119.908 159.245 119.556 159.368 119.076 159.368ZM126.34 169.272C125.092 169.272 124.116 169.016 123.412 168.504C122.708 167.992 122.334 167.272 122.292 166.344H124.564C124.606 166.621 124.772 166.872 125.06 167.096C125.358 167.309 125.801 167.416 126.388 167.416C126.836 167.416 127.204 167.341 127.492 167.192C127.79 167.032 127.94 166.808 127.94 166.52C127.94 166.264 127.828 166.061 127.604 165.912C127.38 165.752 126.98 165.64 126.404 165.576L125.716 165.512C124.66 165.405 123.865 165.112 123.332 164.632C122.809 164.152 122.548 163.539 122.548 162.792C122.548 162.173 122.702 161.656 123.012 161.24C123.321 160.824 123.748 160.509 124.292 160.296C124.846 160.083 125.476 159.976 126.18 159.976C127.31 159.976 128.222 160.227 128.916 160.728C129.609 161.219 129.972 161.933 130.004 162.872H127.732C127.689 162.584 127.54 162.344 127.284 162.152C127.028 161.949 126.649 161.848 126.148 161.848C125.753 161.848 125.438 161.923 125.204 162.072C124.969 162.221 124.852 162.424 124.852 162.68C124.852 162.925 124.953 163.112 125.156 163.24C125.358 163.368 125.689 163.459 126.148 163.512L126.836 163.576C127.913 163.693 128.75 163.992 129.348 164.472C129.945 164.952 130.244 165.597 130.244 166.408C130.244 166.995 130.084 167.507 129.764 167.944C129.444 168.371 128.99 168.701 128.404 168.936C127.817 169.16 127.129 169.272 126.34 169.272ZM135.838 169.304C135.081 169.304 134.42 169.181 133.854 168.936C133.3 168.68 132.836 168.339 132.462 167.912C132.089 167.485 131.812 167.005 131.63 166.472C131.449 165.928 131.358 165.368 131.358 164.792V164.488C131.358 163.891 131.454 163.32 131.646 162.776C131.838 162.221 132.121 161.731 132.494 161.304C132.868 160.877 133.332 160.541 133.886 160.296C134.452 160.051 135.097 159.928 135.822 159.928C136.612 159.928 137.31 160.083 137.918 160.392C138.526 160.691 139.012 161.112 139.374 161.656C139.737 162.2 139.94 162.824 139.982 163.528H137.47C137.428 163.133 137.268 162.803 136.99 162.536C136.724 162.259 136.334 162.12 135.822 162.12C135.396 162.12 135.038 162.227 134.75 162.44C134.473 162.653 134.265 162.947 134.126 163.32C133.988 163.693 133.918 164.136 133.918 164.648C133.918 165.117 133.982 165.544 134.11 165.928C134.238 166.301 134.441 166.595 134.718 166.808C135.006 167.011 135.38 167.112 135.838 167.112C136.18 167.112 136.468 167.053 136.702 166.936C136.948 166.808 137.14 166.637 137.278 166.424C137.428 166.2 137.518 165.944 137.55 165.656H140.046C140.014 166.381 139.812 167.021 139.438 167.576C139.065 168.12 138.569 168.547 137.95 168.856C137.332 169.155 136.628 169.304 135.838 169.304ZM145.956 169.304C145.188 169.304 144.505 169.187 143.908 168.952C143.31 168.707 142.804 168.376 142.388 167.96C141.982 167.544 141.673 167.069 141.46 166.536C141.246 165.992 141.14 165.421 141.14 164.824V164.456C141.14 163.848 141.246 163.272 141.46 162.728C141.684 162.173 142.004 161.688 142.42 161.272C142.846 160.856 143.358 160.531 143.956 160.296C144.553 160.051 145.22 159.928 145.956 159.928C146.713 159.928 147.385 160.051 147.972 160.296C148.569 160.531 149.076 160.856 149.492 161.272C149.908 161.688 150.228 162.173 150.452 162.728C150.676 163.272 150.788 163.848 150.788 164.456V164.824C150.788 165.421 150.681 165.992 150.468 166.536C150.254 167.069 149.94 167.544 149.524 167.96C149.118 168.376 148.617 168.707 148.02 168.952C147.422 169.187 146.734 169.304 145.956 169.304ZM145.956 167.144C146.457 167.144 146.873 167.037 147.204 166.824C147.534 166.611 147.785 166.312 147.956 165.928C148.137 165.544 148.228 165.117 148.228 164.648C148.228 164.147 148.137 163.709 147.956 163.336C147.774 162.952 147.513 162.648 147.172 162.424C146.841 162.2 146.436 162.088 145.956 162.088C145.486 162.088 145.081 162.2 144.74 162.424C144.398 162.648 144.137 162.952 143.956 163.336C143.785 163.709 143.7 164.147 143.7 164.648C143.7 165.117 143.785 165.544 143.956 165.928C144.126 166.312 144.382 166.611 144.724 166.824C145.065 167.037 145.476 167.144 145.956 167.144ZM154.067 169L151.443 160.232H154.083L156.547 169H154.067ZM154.867 169V166.872H157.443V169H154.867ZM155.811 169L157.939 160.232H160.403L158.131 169H155.811ZM165.731 169.304C164.984 169.304 164.323 169.176 163.747 168.92C163.182 168.664 162.707 168.323 162.323 167.896C161.95 167.459 161.662 166.973 161.459 166.44C161.267 165.896 161.171 165.341 161.171 164.776V164.456C161.171 163.869 161.267 163.309 161.459 162.776C161.662 162.232 161.95 161.747 162.323 161.32C162.696 160.893 163.16 160.557 163.715 160.312C164.28 160.056 164.92 159.928 165.635 159.928C166.574 159.928 167.363 160.141 168.003 160.568C168.654 160.984 169.15 161.533 169.491 162.216C169.832 162.888 170.003 163.624 170.003 164.424V165.288H162.243V163.832H168.451L167.619 164.504C167.619 163.981 167.544 163.533 167.395 163.16C167.246 162.787 167.022 162.504 166.723 162.312C166.435 162.109 166.072 162.008 165.635 162.008C165.187 162.008 164.808 162.109 164.499 162.312C164.19 162.515 163.955 162.813 163.795 163.208C163.635 163.592 163.555 164.067 163.555 164.632C163.555 165.155 163.63 165.613 163.779 166.008C163.928 166.392 164.163 166.691 164.483 166.904C164.803 167.117 165.219 167.224 165.731 167.224C166.2 167.224 166.584 167.133 166.883 166.952C167.182 166.771 167.384 166.547 167.491 166.28H169.843C169.715 166.867 169.464 167.389 169.091 167.848C168.718 168.307 168.248 168.664 167.683 168.92C167.118 169.176 166.467 169.304 165.731 169.304ZM171.699 169V160.232H173.731V163.992H173.683C173.683 162.755 173.945 161.8 174.467 161.128C175.001 160.456 175.769 160.12 176.771 160.12H177.107V162.328H176.467C175.763 162.328 175.219 162.52 174.835 162.904C174.451 163.277 174.259 163.821 174.259 164.536V169H171.699Z" fill="white"/>
<path d="M262.209 54.8C259.889 54.8 257.862 54.3867 256.129 53.56C254.422 52.7333 253.102 51.5867 252.169 50.12C251.235 48.6533 250.769 46.9867 250.769 45.12H257.969C257.969 46.16 258.342 47.0133 259.089 47.68C259.862 48.32 260.902 48.64 262.209 48.64C263.089 48.64 263.835 48.48 264.449 48.16C265.089 47.8133 265.582 47.36 265.929 46.8C266.275 46.2133 266.449 45.56 266.449 44.84C266.449 43.7467 266.075 42.84 265.329 42.12C264.582 41.4 263.542 41.04 262.209 41.04C261.489 41.04 260.809 41.1733 260.169 41.44C259.529 41.7067 258.982 42.04 258.529 42.44L255.209 36.96L263.449 31.84L263.089 31.2H252.009V24.8H272.569V31.16L262.009 37.6L258.249 36.44C258.889 36.2267 259.555 36.08 260.249 36C260.969 35.8933 261.622 35.84 262.209 35.84C264.529 35.84 266.542 36.2 268.249 36.92C269.982 37.64 271.315 38.6667 272.249 40C273.182 41.3333 273.649 42.9467 273.649 44.84V45.32C273.649 47.16 273.182 48.8 272.249 50.24C271.315 51.6533 269.982 52.7733 268.249 53.6C266.542 54.4 264.529 54.8 262.209 54.8Z" fill="#3E4852"/>
</svg>
