<svg width="24" height="24" viewBox="0 0 24 24" fill="none" xmlns="http://www.w3.org/2000/svg">
<mask id="path-1-inside-1_2301_84632" fill="white">
<path d="M15.2599 22.0004C15.1999 22.0004 15.1299 21.9904 15.0699 21.9704C13.0599 21.4004 10.9499 21.4004 8.93991 21.9704C8.56991 22.0704 8.17991 21.8604 8.07991 21.4904C7.96991 21.1204 8.18991 20.7304 8.55991 20.6304C10.8199 19.9904 13.1999 19.9904 15.4599 20.6304C15.8299 20.7404 16.0499 21.1204 15.9399 21.4904C15.8399 21.8004 15.5599 22.0004 15.2599 22.0004Z"/>
</mask>
<path d="M15.2599 22.0004C15.1999 22.0004 15.1299 21.9904 15.0699 21.9704C13.0599 21.4004 10.9499 21.4004 8.93991 21.9704C8.56991 22.0704 8.17991 21.8604 8.07991 21.4904C7.96991 21.1204 8.18991 20.7304 8.55991 20.6304C10.8199 19.9904 13.1999 19.9904 15.4599 20.6304C15.8299 20.7404 16.0499 21.1204 15.9399 21.4904C15.8399 21.8004 15.5599 22.0004 15.2599 22.0004Z" fill="#0FB5AE"/>
<path d="M15.0699 21.9704L15.7024 20.073L15.6593 20.0587L15.6156 20.0463L15.0699 21.9704ZM8.93991 21.9704L9.46173 23.9011L9.47366 23.8979L9.48556 23.8945L8.93991 21.9704ZM8.07991 21.4904L10.0106 20.9686L10.0041 20.9444L9.99698 20.9205L8.07991 21.4904ZM8.55991 20.6304L9.08173 22.5611L9.09331 22.558L9.10485 22.5547L8.55991 20.6304ZM15.4599 20.6304L16.0299 18.7133L16.0174 18.7096L16.0049 18.7061L15.4599 20.6304ZM15.9399 21.4904L17.8433 22.1044L17.8504 22.0824L17.857 22.0603L15.9399 21.4904ZM15.2599 20.0004C15.3369 20.0004 15.4061 20.0065 15.469 20.0161C15.5313 20.0257 15.6104 20.0424 15.7024 20.073L14.4375 23.8678C14.7219 23.9626 15.0077 24.0004 15.2599 24.0004V20.0004ZM15.6156 20.0463C13.2488 19.3751 10.761 19.3751 8.39426 20.0463L9.48556 23.8945C11.1388 23.4257 12.871 23.4257 14.5243 23.8945L15.6156 20.0463ZM8.41809 20.0397C9.05178 19.8684 9.8058 20.2107 10.0106 20.9686L6.14918 22.0122C6.55401 23.5101 8.08804 24.2724 9.46173 23.9011L8.41809 20.0397ZM9.99698 20.9205C10.209 21.6337 9.79119 22.3694 9.08173 22.5611L8.03809 18.6997C6.58863 19.0914 5.73079 20.6071 6.16284 22.0603L9.99698 20.9205ZM9.10485 22.5547C11.0086 22.0156 13.0113 22.0156 14.915 22.5547L16.0049 18.7061C13.3886 17.9652 10.6313 17.9652 8.01497 18.7061L9.10485 22.5547ZM14.89 22.5475C14.265 22.3617 13.7994 21.6719 14.0228 20.9205L17.857 22.0603C18.3004 20.5689 17.3948 19.1191 16.0299 18.7133L14.89 22.5475ZM14.0365 20.8764C14.1954 20.3837 14.6675 20.0004 15.2599 20.0004V24.0004C16.4523 24.0004 17.4844 23.2171 17.8433 22.1044L14.0365 20.8764Z" fill="#0FB5AE" mask="url(#path-1-inside-1_2301_84632)"/>
<path d="M18.3138 6.80332L18.3147 6.80497C20.0632 10.3193 18.4012 14.2159 15.621 16.0904L15.18 16.3877V16.9195V17.6195V17.638L15.1807 17.6565C15.1853 17.783 15.1843 17.8697 15.1677 17.9482C15.1544 18.0115 15.135 18.0479 15.1082 18.077C15.0618 18.121 14.9334 18.2095 14.59 18.2095H9.45997C9.27895 18.2095 9.14202 18.1993 9.03492 18.1731C8.93679 18.1491 8.90627 18.1219 8.89725 18.1127C8.88389 18.099 8.87563 18.0874 8.86776 18.0496C8.8562 17.9941 8.85432 17.9256 8.85933 17.7852L8.85997 17.7674V17.7495V16.9195V16.3862L8.41713 16.0891C6.3198 14.6819 4.96997 12.2671 4.96997 10.0495C4.96997 7.90057 5.92393 5.89973 7.60317 4.56158L7.60318 4.56159L7.60764 4.558C9.27723 3.21184 11.4657 2.70049 13.6139 3.1759L13.6161 3.1764C15.6574 3.62319 17.4121 4.98245 18.3138 6.80332ZM9.37043 11.1806C9.6474 11.6464 10.0678 11.9631 10.5484 12.1273L10.4828 12.2415L10.4817 12.2434C10.0105 13.0681 10.2919 14.1252 11.1102 14.6139C11.408 14.7982 11.7273 14.8595 12 14.8595C12.6196 14.8595 13.1965 14.5272 13.5137 13.9834L13.5138 13.9834L13.5168 13.9782L14.5845 12.1221C14.5849 12.1214 14.5853 12.1207 14.5857 12.12C14.9837 11.434 15.0639 10.5785 14.6354 9.83849L14.6355 9.83845L14.6295 9.82845C14.3525 9.36264 13.9322 9.04599 13.4515 8.88175L13.5171 8.76755L13.5182 8.76566C13.9925 7.93563 13.7044 6.87021 12.8738 6.38574L12.8739 6.38571L12.8661 6.38128C12.0361 5.90697 10.9707 6.19514 10.4862 7.02565L10.4862 7.02564L10.4832 7.03088L9.41316 8.89088L9.41315 8.89087L9.41051 8.89551C9.01992 9.58296 8.9338 10.4266 9.36454 11.1706L9.36448 11.1706L9.37043 11.1806Z" fill="#0FB5AE" stroke="#0FB5AE" stroke-width="2"/>
</svg>
