<svg width="512" height="328" viewBox="0 0 512 328" fill="none" xmlns="http://www.w3.org/2000/svg">
<rect x="0.5" y="0.5" width="511" height="327" rx="15.5" fill="white"/>
<path d="M49.968 48V30.48H53.904V48H49.968ZM53.424 48V44.544H60.768V48H53.424ZM68.9948 48.456C67.8748 48.456 66.8828 48.264 66.0188 47.88C65.1708 47.496 64.4588 46.984 63.8828 46.344C63.3228 45.688 62.8908 44.96 62.5868 44.16C62.2988 43.344 62.1548 42.512 62.1548 41.664V41.184C62.1548 40.304 62.2988 39.464 62.5868 38.664C62.8908 37.848 63.3228 37.12 63.8828 36.48C64.4428 35.84 65.1388 35.336 65.9708 34.968C66.8188 34.584 67.7788 34.392 68.8508 34.392C70.2588 34.392 71.4428 34.712 72.4028 35.352C73.3788 35.976 74.1228 36.8 74.6348 37.824C75.1468 38.832 75.4028 39.936 75.4028 41.136V42.432H63.7628V40.248H73.0748L71.8268 41.256C71.8268 40.472 71.7148 39.8 71.4908 39.24C71.2668 38.68 70.9308 38.256 70.4828 37.968C70.0508 37.664 69.5068 37.512 68.8508 37.512C68.1788 37.512 67.6108 37.664 67.1468 37.968C66.6828 38.272 66.3308 38.72 66.0908 39.312C65.8508 39.888 65.7308 40.6 65.7308 41.448C65.7308 42.232 65.8428 42.92 66.0668 43.512C66.2908 44.088 66.6428 44.536 67.1228 44.856C67.6028 45.176 68.2268 45.336 68.9948 45.336C69.6988 45.336 70.2748 45.2 70.7228 44.928C71.1708 44.656 71.4748 44.32 71.6348 43.92H75.1628C74.9708 44.8 74.5948 45.584 74.0348 46.272C73.4748 46.96 72.7708 47.496 71.9228 47.88C71.0748 48.264 70.0988 48.456 68.9948 48.456ZM83.1313 53.232C82.4913 53.232 81.8353 53.208 81.1633 53.16C80.4913 53.112 79.8753 53.048 79.3153 52.968V49.728C79.8753 49.808 80.4913 49.872 81.1633 49.92C81.8513 49.984 82.4753 50.016 83.0353 50.016C84.0753 50.016 84.9153 49.896 85.5553 49.656C86.2113 49.416 86.6913 49.048 86.9953 48.552C87.2993 48.072 87.4513 47.448 87.4513 46.68V44.064L88.1473 42.528C88.1153 43.696 87.8833 44.696 87.4513 45.528C87.0353 46.36 86.4513 47 85.6993 47.448C84.9473 47.88 84.0513 48.096 83.0113 48.096C82.1153 48.096 81.2993 47.936 80.5633 47.616C79.8433 47.28 79.2273 46.816 78.7153 46.224C78.2033 45.632 77.8113 44.944 77.5393 44.16C77.2673 43.36 77.1313 42.496 77.1313 41.568V41.016C77.1313 40.088 77.2753 39.224 77.5633 38.424C77.8513 37.624 78.2673 36.928 78.8113 36.336C79.3553 35.744 80.0033 35.288 80.7553 34.968C81.5073 34.632 82.3393 34.464 83.2513 34.464C84.3073 34.464 85.2193 34.696 85.9873 35.16C86.7713 35.624 87.3873 36.304 87.8353 37.2C88.2833 38.096 88.5233 39.176 88.5553 40.44L88.0273 40.584V34.848H91.0753V46.44C91.0753 48.056 90.7873 49.36 90.2113 50.352C89.6353 51.344 88.7553 52.072 87.5713 52.536C86.4033 53 84.9233 53.232 83.1313 53.232ZM84.2113 44.856C84.8033 44.856 85.3393 44.728 85.8193 44.472C86.2993 44.2 86.6753 43.816 86.9473 43.32C87.2353 42.824 87.3793 42.224 87.3793 41.52V40.824C87.3793 40.136 87.2273 39.56 86.9233 39.096C86.6353 38.616 86.2513 38.256 85.7713 38.016C85.2913 37.76 84.7793 37.632 84.2353 37.632C83.5953 37.632 83.0273 37.784 82.5313 38.088C82.0353 38.392 81.6513 38.816 81.3793 39.36C81.1073 39.904 80.9713 40.544 80.9713 41.28C80.9713 42.032 81.1073 42.68 81.3793 43.224C81.6673 43.752 82.0513 44.16 82.5313 44.448C83.0273 44.72 83.5873 44.856 84.2113 44.856ZM102.344 48V44.112H101.696V39.888C101.696 39.216 101.536 38.712 101.216 38.376C100.896 38.04 100.384 37.872 99.6804 37.872C99.3284 37.872 98.8644 37.88 98.2884 37.896C97.7124 37.912 97.1204 37.936 96.5124 37.968C95.9044 38 95.3524 38.032 94.8564 38.064V34.824C95.2244 34.792 95.6564 34.76 96.1524 34.728C96.6484 34.696 97.1604 34.672 97.6884 34.656C98.2164 34.64 98.7124 34.632 99.1764 34.632C100.52 34.632 101.648 34.824 102.56 35.208C103.488 35.592 104.192 36.176 104.672 36.96C105.152 37.728 105.392 38.72 105.392 39.936V48H102.344ZM98.1444 48.336C97.2004 48.336 96.3684 48.168 95.6484 47.832C94.9444 47.496 94.3924 47.016 93.9924 46.392C93.5924 45.752 93.3924 44.992 93.3924 44.112C93.3924 43.152 93.6404 42.368 94.1364 41.76C94.6324 41.136 95.3284 40.68 96.2244 40.392C97.1204 40.088 98.1524 39.936 99.3204 39.936H102.128V42.072H99.2964C98.6244 42.072 98.1044 42.24 97.7364 42.576C97.3844 42.896 97.2084 43.336 97.2084 43.896C97.2084 44.424 97.3844 44.856 97.7364 45.192C98.1044 45.512 98.6244 45.672 99.2964 45.672C99.7284 45.672 100.112 45.6 100.448 45.456C100.8 45.296 101.088 45.032 101.312 44.664C101.536 44.296 101.664 43.784 101.696 43.128L102.608 44.088C102.528 45 102.304 45.768 101.936 46.392C101.584 47.016 101.088 47.496 100.448 47.832C99.8244 48.168 99.0564 48.336 98.1444 48.336ZM108.818 48V30.48H112.682V48H108.818ZM107.258 33.312V30.48H112.682V33.312H107.258ZM127.164 48.456C126.028 48.456 125.036 48.272 124.188 47.904C123.356 47.52 122.66 47.008 122.1 46.368C121.54 45.728 121.124 45.008 120.852 44.208C120.58 43.392 120.444 42.552 120.444 41.688V41.232C120.444 40.336 120.588 39.48 120.876 38.664C121.164 37.832 121.588 37.096 122.148 36.456C122.708 35.816 123.404 35.312 124.236 34.944C125.084 34.576 126.052 34.392 127.14 34.392C128.324 34.392 129.372 34.624 130.284 35.088C131.196 35.536 131.924 36.168 132.468 36.984C133.012 37.8 133.316 38.736 133.38 39.792H129.612C129.548 39.2 129.308 38.704 128.892 38.304C128.492 37.888 127.908 37.68 127.14 37.68C126.5 37.68 125.964 37.84 125.532 38.16C125.116 38.48 124.804 38.92 124.596 39.48C124.388 40.04 124.284 40.704 124.284 41.472C124.284 42.176 124.38 42.816 124.572 43.392C124.764 43.952 125.068 44.392 125.484 44.712C125.916 45.016 126.476 45.168 127.164 45.168C127.676 45.168 128.108 45.08 128.46 44.904C128.828 44.712 129.116 44.456 129.324 44.136C129.548 43.8 129.684 43.416 129.732 42.984H133.476C133.428 44.072 133.124 45.032 132.564 45.864C132.004 46.68 131.26 47.32 130.332 47.784C129.404 48.232 128.348 48.456 127.164 48.456ZM142.34 48.456C141.188 48.456 140.164 48.28 139.268 47.928C138.372 47.56 137.612 47.064 136.988 46.44C136.38 45.816 135.916 45.104 135.596 44.304C135.276 43.488 135.116 42.632 135.116 41.736V41.184C135.116 40.272 135.276 39.408 135.596 38.592C135.932 37.76 136.412 37.032 137.036 36.408C137.676 35.784 138.444 35.296 139.34 34.944C140.236 34.576 141.236 34.392 142.34 34.392C143.476 34.392 144.484 34.576 145.364 34.944C146.26 35.296 147.02 35.784 147.644 36.408C148.268 37.032 148.748 37.76 149.084 38.592C149.42 39.408 149.588 40.272 149.588 41.184V41.736C149.588 42.632 149.428 43.488 149.108 44.304C148.788 45.104 148.316 45.816 147.692 46.44C147.084 47.064 146.332 47.56 145.436 47.928C144.54 48.28 143.508 48.456 142.34 48.456ZM142.34 45.216C143.092 45.216 143.716 45.056 144.212 44.736C144.708 44.416 145.084 43.968 145.34 43.392C145.612 42.816 145.748 42.176 145.748 41.472C145.748 40.72 145.612 40.064 145.34 39.504C145.068 38.928 144.676 38.472 144.164 38.136C143.668 37.8 143.06 37.632 142.34 37.632C141.636 37.632 141.028 37.8 140.516 38.136C140.004 38.472 139.612 38.928 139.34 39.504C139.084 40.064 138.956 40.72 138.956 41.472C138.956 42.176 139.084 42.816 139.34 43.392C139.596 43.968 139.98 44.416 140.492 44.736C141.004 45.056 141.62 45.216 142.34 45.216ZM152.268 48V34.848H155.316V40.512H155.1C155.1 39.168 155.268 38.048 155.604 37.152C155.94 36.256 156.444 35.584 157.116 35.136C157.788 34.672 158.612 34.44 159.588 34.44H159.756C160.748 34.44 161.572 34.672 162.228 35.136C162.9 35.584 163.404 36.256 163.74 37.152C164.092 38.048 164.268 39.168 164.268 40.512H163.332C163.332 39.168 163.5 38.048 163.836 37.152C164.188 36.256 164.7 35.584 165.372 35.136C166.044 34.672 166.868 34.44 167.844 34.44H168.012C169.004 34.44 169.836 34.672 170.508 35.136C171.196 35.584 171.716 36.256 172.068 37.152C172.42 38.048 172.596 39.168 172.596 40.512V48H168.756V40.296C168.756 39.576 168.564 38.992 168.18 38.544C167.812 38.096 167.284 37.872 166.596 37.872C165.908 37.872 165.364 38.104 164.964 38.568C164.564 39.016 164.364 39.616 164.364 40.368V48H160.5V40.296C160.5 39.576 160.308 38.992 159.924 38.544C159.556 38.096 159.036 37.872 158.364 37.872C157.66 37.872 157.108 38.104 156.708 38.568C156.308 39.016 156.108 39.616 156.108 40.368V48H152.268ZM175.869 52.8V34.848H178.917V40.536L178.509 40.512C178.573 39.2 178.845 38.096 179.325 37.2C179.805 36.288 180.453 35.608 181.269 35.16C182.085 34.696 183.005 34.464 184.029 34.464C184.941 34.464 185.765 34.632 186.501 34.968C187.253 35.304 187.893 35.776 188.421 36.384C188.965 36.976 189.373 37.68 189.645 38.496C189.933 39.296 190.077 40.176 190.077 41.136V41.688C190.077 42.632 189.941 43.52 189.669 44.352C189.397 45.168 188.997 45.88 188.469 46.488C187.957 47.096 187.325 47.576 186.573 47.928C185.837 48.264 184.989 48.432 184.029 48.432C183.037 48.432 182.141 48.232 181.341 47.832C180.557 47.416 179.925 46.792 179.445 45.96C178.965 45.112 178.701 44.04 178.653 42.744L179.709 44.184V52.8H175.869ZM182.949 45.216C183.605 45.216 184.173 45.056 184.653 44.736C185.149 44.416 185.533 43.968 185.805 43.392C186.077 42.816 186.213 42.152 186.213 41.4C186.213 40.648 186.077 39.992 185.805 39.432C185.533 38.872 185.157 38.44 184.677 38.136C184.197 37.816 183.621 37.656 182.949 37.656C182.373 37.656 181.829 37.792 181.317 38.064C180.805 38.336 180.389 38.728 180.069 39.24C179.765 39.736 179.613 40.344 179.613 41.064V41.952C179.613 42.64 179.773 43.232 180.093 43.728C180.429 44.208 180.853 44.576 181.365 44.832C181.877 45.088 182.405 45.216 182.949 45.216ZM192.912 48V30.48H196.776V48H192.912ZM191.352 33.312V30.48H196.776V33.312H191.352ZM200.939 48V34.848H204.779V48H200.939ZM199.187 37.68V34.848H204.779V37.68H199.187ZM202.427 33.552C201.707 33.552 201.171 33.368 200.819 33C200.483 32.616 200.315 32.136 200.315 31.56C200.315 30.968 200.483 30.488 200.819 30.12C201.171 29.736 201.707 29.544 202.427 29.544C203.147 29.544 203.675 29.736 204.011 30.12C204.363 30.488 204.539 30.968 204.539 31.56C204.539 32.136 204.363 32.616 204.011 33C203.675 33.368 203.147 33.552 202.427 33.552ZM216.274 48V44.112H215.626V39.888C215.626 39.216 215.466 38.712 215.146 38.376C214.826 38.04 214.314 37.872 213.61 37.872C213.258 37.872 212.794 37.88 212.218 37.896C211.642 37.912 211.05 37.936 210.442 37.968C209.834 38 209.282 38.032 208.786 38.064V34.824C209.154 34.792 209.586 34.76 210.082 34.728C210.578 34.696 211.09 34.672 211.618 34.656C212.146 34.64 212.642 34.632 213.106 34.632C214.45 34.632 215.578 34.824 216.49 35.208C217.418 35.592 218.122 36.176 218.602 36.96C219.082 37.728 219.322 38.72 219.322 39.936V48H216.274ZM212.074 48.336C211.13 48.336 210.298 48.168 209.578 47.832C208.874 47.496 208.322 47.016 207.922 46.392C207.522 45.752 207.322 44.992 207.322 44.112C207.322 43.152 207.57 42.368 208.066 41.76C208.562 41.136 209.258 40.68 210.154 40.392C211.05 40.088 212.082 39.936 213.25 39.936H216.058V42.072H213.226C212.554 42.072 212.034 42.24 211.666 42.576C211.314 42.896 211.138 43.336 211.138 43.896C211.138 44.424 211.314 44.856 211.666 45.192C212.034 45.512 212.554 45.672 213.226 45.672C213.658 45.672 214.042 45.6 214.378 45.456C214.73 45.296 215.018 45.032 215.242 44.664C215.466 44.296 215.594 43.784 215.626 43.128L216.538 44.088C216.458 45 216.234 45.768 215.866 46.392C215.514 47.016 215.018 47.496 214.378 47.832C213.754 48.168 212.986 48.336 212.074 48.336ZM222.58 48V34.848H225.628V40.488H225.412C225.412 39.144 225.58 38.024 225.916 37.128C226.268 36.232 226.796 35.56 227.5 35.112C228.204 34.664 229.06 34.44 230.068 34.44H230.236C231.772 34.44 232.94 34.944 233.74 35.952C234.556 36.944 234.964 38.456 234.964 40.488V48H231.124V40.272C231.124 39.568 230.916 38.992 230.5 38.544C230.084 38.096 229.524 37.872 228.82 37.872C228.1 37.872 227.516 38.104 227.068 38.568C226.636 39.016 226.42 39.608 226.42 40.344V48H222.58ZM244.14 48.456C243.004 48.456 242.012 48.272 241.164 47.904C240.332 47.52 239.636 47.008 239.076 46.368C238.516 45.728 238.1 45.008 237.828 44.208C237.556 43.392 237.42 42.552 237.42 41.688V41.232C237.42 40.336 237.564 39.48 237.852 38.664C238.14 37.832 238.564 37.096 239.124 36.456C239.684 35.816 240.38 35.312 241.212 34.944C242.06 34.576 243.028 34.392 244.116 34.392C245.3 34.392 246.348 34.624 247.26 35.088C248.172 35.536 248.9 36.168 249.444 36.984C249.988 37.8 250.292 38.736 250.356 39.792H246.588C246.524 39.2 246.284 38.704 245.868 38.304C245.468 37.888 244.884 37.68 244.116 37.68C243.476 37.68 242.94 37.84 242.508 38.16C242.092 38.48 241.78 38.92 241.572 39.48C241.364 40.04 241.26 40.704 241.26 41.472C241.26 42.176 241.356 42.816 241.548 43.392C241.74 43.952 242.044 44.392 242.46 44.712C242.892 45.016 243.452 45.168 244.14 45.168C244.652 45.168 245.084 45.08 245.436 44.904C245.804 44.712 246.092 44.456 246.3 44.136C246.524 43.8 246.66 43.416 246.708 42.984H250.452C250.404 44.072 250.1 45.032 249.54 45.864C248.98 46.68 248.236 47.32 247.308 47.784C246.38 48.232 245.324 48.456 244.14 48.456ZM258.932 48.456C257.812 48.456 256.82 48.264 255.956 47.88C255.108 47.496 254.396 46.984 253.82 46.344C253.26 45.688 252.828 44.96 252.524 44.16C252.236 43.344 252.092 42.512 252.092 41.664V41.184C252.092 40.304 252.236 39.464 252.524 38.664C252.828 37.848 253.26 37.12 253.82 36.48C254.38 35.84 255.076 35.336 255.908 34.968C256.756 34.584 257.716 34.392 258.788 34.392C260.196 34.392 261.38 34.712 262.34 35.352C263.316 35.976 264.06 36.8 264.572 37.824C265.084 38.832 265.34 39.936 265.34 41.136V42.432H253.7V40.248H263.012L261.764 41.256C261.764 40.472 261.652 39.8 261.428 39.24C261.204 38.68 260.868 38.256 260.42 37.968C259.988 37.664 259.444 37.512 258.788 37.512C258.116 37.512 257.548 37.664 257.084 37.968C256.62 38.272 256.268 38.72 256.028 39.312C255.788 39.888 255.668 40.6 255.668 41.448C255.668 42.232 255.78 42.92 256.004 43.512C256.228 44.088 256.58 44.536 257.06 44.856C257.54 45.176 258.164 45.336 258.932 45.336C259.636 45.336 260.212 45.2 260.66 44.928C261.108 44.656 261.412 44.32 261.572 43.92H265.1C264.908 44.8 264.532 45.584 263.972 46.272C263.412 46.96 262.708 47.496 261.86 47.88C261.012 48.264 260.036 48.456 258.932 48.456ZM272.924 48V34.848H275.972V40.488H275.9C275.9 38.632 276.292 37.2 277.076 36.192C277.876 35.184 279.028 34.68 280.532 34.68H281.036V37.992H280.076C279.02 37.992 278.204 38.28 277.628 38.856C277.052 39.416 276.764 40.232 276.764 41.304V48H272.924ZM283.649 48V34.848H287.489V48H283.649ZM281.897 37.68V34.848H287.489V37.68H281.897ZM285.137 33.552C284.417 33.552 283.881 33.368 283.529 33C283.193 32.616 283.025 32.136 283.025 31.56C283.025 30.968 283.193 30.488 283.529 30.12C283.881 29.736 284.417 29.544 285.137 29.544C285.857 29.544 286.385 29.736 286.721 30.12C287.073 30.488 287.249 30.968 287.249 31.56C287.249 32.136 287.073 32.616 286.721 33C286.385 33.368 285.857 33.552 285.137 33.552ZM296.033 48.408C294.161 48.408 292.697 48.024 291.641 47.256C290.585 46.488 290.025 45.408 289.961 44.016H293.369C293.433 44.432 293.681 44.808 294.113 45.144C294.561 45.464 295.225 45.624 296.105 45.624C296.777 45.624 297.329 45.512 297.761 45.288C298.209 45.048 298.433 44.712 298.433 44.28C298.433 43.896 298.265 43.592 297.929 43.368C297.593 43.128 296.993 42.96 296.129 42.864L295.097 42.768C293.513 42.608 292.321 42.168 291.521 41.448C290.737 40.728 290.345 39.808 290.345 38.688C290.345 37.76 290.577 36.984 291.041 36.36C291.505 35.736 292.145 35.264 292.961 34.944C293.793 34.624 294.737 34.464 295.793 34.464C297.489 34.464 298.857 34.84 299.897 35.592C300.937 36.328 301.481 37.4 301.529 38.808H298.121C298.057 38.376 297.833 38.016 297.449 37.728C297.065 37.424 296.497 37.272 295.745 37.272C295.153 37.272 294.681 37.384 294.329 37.608C293.977 37.832 293.801 38.136 293.801 38.52C293.801 38.888 293.953 39.168 294.257 39.36C294.561 39.552 295.057 39.688 295.745 39.768L296.777 39.864C298.393 40.04 299.649 40.488 300.545 41.208C301.441 41.928 301.889 42.896 301.889 44.112C301.889 44.992 301.649 45.76 301.169 46.416C300.689 47.056 300.009 47.552 299.129 47.904C298.249 48.24 297.217 48.408 296.033 48.408ZM313.641 48L309.489 41.856H307.641L312.993 34.848H317.025L311.985 41.376L312.033 39.504L317.961 48H313.641ZM304.377 48V30.48H308.217V48H304.377Z" fill="#3E4852"/>
<rect x="326" y="24" width="49" height="32" rx="8" fill="#EA3829"/>
<path d="M336.288 45L340.384 35.704L340.208 35.464H334.528V33.32H343.376V34.984L339.072 45H336.288ZM334.528 37.352V33.32H336.656V37.352H334.528ZM349.831 45.304C348.903 45.304 348.108 45.1547 347.447 44.856C346.785 44.5467 346.247 44.1307 345.831 43.608C345.425 43.0853 345.121 42.4827 344.919 41.8C344.727 41.1067 344.631 40.376 344.631 39.608V38.696C344.631 37.6293 344.817 36.664 345.191 35.8C345.564 34.936 346.135 34.248 346.903 33.736C347.671 33.224 348.647 32.968 349.831 32.968C351.015 32.968 351.985 33.224 352.743 33.736C353.511 34.248 354.081 34.936 354.455 35.8C354.828 36.664 355.015 37.6293 355.015 38.696V39.608C355.015 40.376 354.913 41.1067 354.711 41.8C354.519 42.4827 354.215 43.0853 353.799 43.608C353.393 44.1307 352.86 44.5467 352.199 44.856C351.548 45.1547 350.759 45.304 349.831 45.304ZM349.831 42.888C350.695 42.888 351.335 42.5893 351.751 41.992C352.177 41.384 352.391 40.4453 352.391 39.176C352.391 37.832 352.172 36.8667 351.735 36.28C351.308 35.6827 350.673 35.384 349.831 35.384C348.967 35.384 348.321 35.6827 347.895 36.28C347.468 36.8667 347.255 37.8213 347.255 39.144C347.255 40.424 347.463 41.368 347.879 41.976C348.305 42.584 348.956 42.888 349.831 42.888ZM358.886 45L362.078 36.24H363.686L360.506 45H358.886ZM358.286 41.052C357.814 41.052 357.418 40.948 357.098 40.74C356.786 40.524 356.55 40.24 356.39 39.888C356.238 39.528 356.162 39.132 356.162 38.7V38.388C356.162 37.932 356.242 37.528 356.402 37.176C356.562 36.824 356.802 36.548 357.122 36.348C357.442 36.148 357.83 36.048 358.286 36.048C358.75 36.048 359.138 36.148 359.45 36.348C359.77 36.548 360.01 36.824 360.17 37.176C360.33 37.528 360.41 37.932 360.41 38.388V38.7C360.41 39.132 360.33 39.528 360.17 39.888C360.018 40.24 359.786 40.524 359.474 40.74C359.162 40.948 358.766 41.052 358.286 41.052ZM358.286 39.768C358.534 39.768 358.714 39.68 358.826 39.504C358.946 39.32 359.006 39.004 359.006 38.556C359.006 38.084 358.946 37.76 358.826 37.584C358.706 37.408 358.526 37.32 358.286 37.32C358.046 37.32 357.866 37.408 357.746 37.584C357.626 37.76 357.566 38.08 357.566 38.544C357.566 38.992 357.626 39.308 357.746 39.492C357.866 39.676 358.046 39.768 358.286 39.768ZM364.25 45.204C363.77 45.204 363.374 45.1 363.062 44.892C362.75 44.684 362.514 44.404 362.354 44.052C362.202 43.692 362.126 43.296 362.126 42.864V42.552C362.126 42.088 362.206 41.68 362.366 41.328C362.526 40.976 362.762 40.7 363.074 40.5C363.394 40.3 363.786 40.2 364.25 40.2C364.714 40.2 365.102 40.3 365.414 40.5C365.726 40.7 365.962 40.976 366.122 41.328C366.282 41.68 366.362 42.088 366.362 42.552V42.864C366.362 43.296 366.282 43.692 366.122 44.052C365.97 44.404 365.738 44.684 365.426 44.892C365.122 45.1 364.73 45.204 364.25 45.204ZM364.25 43.932C364.498 43.932 364.678 43.844 364.79 43.668C364.91 43.484 364.97 43.168 364.97 42.72C364.97 42.24 364.91 41.916 364.79 41.748C364.67 41.572 364.49 41.484 364.25 41.484C364.01 41.484 363.826 41.572 363.698 41.748C363.578 41.916 363.518 42.236 363.518 42.708C363.518 43.156 363.578 43.472 363.698 43.656C363.818 43.84 364.002 43.932 364.25 43.932Z" fill="white"/>
<path d="M291.008 291.64C289.131 291.64 287.488 291.288 286.08 290.584C284.693 289.859 283.616 288.888 282.848 287.672C282.08 286.456 281.696 285.091 281.696 283.576H287.456C287.456 284.216 287.605 284.771 287.904 285.24C288.224 285.709 288.661 286.072 289.216 286.328C289.771 286.584 290.389 286.712 291.072 286.712C291.84 286.712 292.491 286.552 293.024 286.232C293.579 285.912 293.995 285.475 294.272 284.92C294.549 284.365 294.688 283.736 294.688 283.032C294.688 282.328 294.549 281.699 294.272 281.144C293.995 280.589 293.589 280.152 293.056 279.832C292.523 279.512 291.883 279.352 291.136 279.352C290.347 279.352 289.653 279.523 289.056 279.864C288.48 280.184 288.075 280.589 287.84 281.08H282.208L283.392 267.64H298.496V272.76H285.76L288 271.32L287.36 278.392L286.208 278.072C286.635 277.517 287.104 277.027 287.616 276.6C288.149 276.152 288.779 275.8 289.504 275.544C290.251 275.267 291.168 275.128 292.256 275.128C293.92 275.128 295.36 275.469 296.576 276.152C297.813 276.813 298.763 277.731 299.424 278.904C300.107 280.056 300.448 281.379 300.448 282.872V283.256C300.448 284.749 300.075 286.136 299.328 287.416C298.603 288.675 297.536 289.699 296.128 290.488C294.72 291.256 293.013 291.64 291.008 291.64ZM310.329 291V271.736L311.737 272.824H304.633V267.64H316.281V291H310.329ZM303.993 291V285.816H321.529V291H303.993ZM325.49 290.968V285.816C325.49 284.813 325.671 283.917 326.034 283.128C326.397 282.339 326.962 281.645 327.73 281.048C328.519 280.429 329.554 279.875 330.834 279.384L334.578 277.944C335.495 277.581 336.135 277.133 336.498 276.6C336.882 276.045 337.074 275.363 337.074 274.552C337.074 273.805 336.807 273.176 336.274 272.664C335.741 272.131 334.983 271.864 334.002 271.864C333.021 271.864 332.263 272.141 331.73 272.696C331.197 273.229 330.93 273.955 330.93 274.872H325.17C325.17 273.336 325.501 271.971 326.162 270.776C326.845 269.581 327.837 268.643 329.138 267.96C330.461 267.277 332.082 266.936 334.002 266.936C335.901 266.936 337.501 267.267 338.802 267.928C340.125 268.589 341.127 269.485 341.81 270.616C342.493 271.725 342.834 272.973 342.834 274.36V274.744C342.834 276.6 342.29 278.157 341.202 279.416C340.135 280.653 338.535 281.677 336.402 282.488L332.658 283.928C332.125 284.141 331.751 284.376 331.538 284.632C331.346 284.867 331.25 285.176 331.25 285.56V286.776L329.938 285.848H342.77V290.968H325.49Z" fill="#3E4852"/>
<path d="M280.182 257L283.556 246.78H287.266L290.766 257H288.386L285.558 248.362L286.286 248.656H284.48L285.236 248.362L282.478 257H280.182ZM282.744 254.466L283.444 252.562H287.448L288.162 254.466H282.744ZM294.858 257.238C293.766 257.238 292.912 257.014 292.296 256.566C291.68 256.118 291.353 255.488 291.316 254.676H293.304C293.341 254.919 293.486 255.138 293.738 255.334C293.999 255.521 294.386 255.614 294.9 255.614C295.292 255.614 295.614 255.549 295.866 255.418C296.127 255.278 296.258 255.082 296.258 254.83C296.258 254.606 296.16 254.429 295.964 254.298C295.768 254.158 295.418 254.06 294.914 254.004L294.312 253.948C293.388 253.855 292.692 253.598 292.226 253.178C291.768 252.758 291.54 252.221 291.54 251.568C291.54 251.027 291.675 250.574 291.946 250.21C292.216 249.846 292.59 249.571 293.066 249.384C293.551 249.197 294.102 249.104 294.718 249.104C295.707 249.104 296.505 249.323 297.112 249.762C297.718 250.191 298.036 250.817 298.064 251.638H296.076C296.038 251.386 295.908 251.176 295.684 251.008C295.46 250.831 295.128 250.742 294.69 250.742C294.344 250.742 294.069 250.807 293.864 250.938C293.658 251.069 293.556 251.246 293.556 251.47C293.556 251.685 293.644 251.848 293.822 251.96C293.999 252.072 294.288 252.151 294.69 252.198L295.292 252.254C296.234 252.357 296.967 252.618 297.49 253.038C298.012 253.458 298.274 254.023 298.274 254.732C298.274 255.245 298.134 255.693 297.854 256.076C297.574 256.449 297.177 256.739 296.664 256.944C296.15 257.14 295.548 257.238 294.858 257.238ZM302.637 257.238C301.545 257.238 300.691 257.014 300.075 256.566C299.459 256.118 299.132 255.488 299.095 254.676H301.083C301.12 254.919 301.265 255.138 301.517 255.334C301.778 255.521 302.166 255.614 302.679 255.614C303.071 255.614 303.393 255.549 303.645 255.418C303.906 255.278 304.037 255.082 304.037 254.83C304.037 254.606 303.939 254.429 303.743 254.298C303.547 254.158 303.197 254.06 302.693 254.004L302.091 253.948C301.167 253.855 300.472 253.598 300.005 253.178C299.548 252.758 299.319 252.221 299.319 251.568C299.319 251.027 299.454 250.574 299.725 250.21C299.996 249.846 300.369 249.571 300.845 249.384C301.33 249.197 301.881 249.104 302.497 249.104C303.486 249.104 304.284 249.323 304.891 249.762C305.498 250.191 305.815 250.817 305.843 251.638H303.855C303.818 251.386 303.687 251.176 303.463 251.008C303.239 250.831 302.908 250.742 302.469 250.742C302.124 250.742 301.848 250.807 301.643 250.938C301.438 251.069 301.335 251.246 301.335 251.47C301.335 251.685 301.424 251.848 301.601 251.96C301.778 252.072 302.068 252.151 302.469 252.198L303.071 252.254C304.014 252.357 304.746 252.618 305.269 253.038C305.792 253.458 306.053 254.023 306.053 254.732C306.053 255.245 305.913 255.693 305.633 256.076C305.353 256.449 304.956 256.739 304.443 256.944C303.93 257.14 303.328 257.238 302.637 257.238ZM311.018 257.266C310.365 257.266 309.786 257.154 309.282 256.93C308.788 256.706 308.372 256.407 308.036 256.034C307.71 255.651 307.458 255.227 307.28 254.76C307.112 254.284 307.028 253.799 307.028 253.304V253.024C307.028 252.511 307.112 252.021 307.28 251.554C307.458 251.078 307.71 250.653 308.036 250.28C308.363 249.907 308.769 249.613 309.254 249.398C309.749 249.174 310.309 249.062 310.934 249.062C311.756 249.062 312.446 249.249 313.006 249.622C313.576 249.986 314.01 250.467 314.308 251.064C314.607 251.652 314.756 252.296 314.756 252.996V253.752H307.966V252.478H313.398L312.67 253.066C312.67 252.609 312.605 252.217 312.474 251.89C312.344 251.563 312.148 251.316 311.886 251.148C311.634 250.971 311.317 250.882 310.934 250.882C310.542 250.882 310.211 250.971 309.94 251.148C309.67 251.325 309.464 251.587 309.324 251.932C309.184 252.268 309.114 252.683 309.114 253.178C309.114 253.635 309.18 254.037 309.31 254.382C309.441 254.718 309.646 254.979 309.926 255.166C310.206 255.353 310.57 255.446 311.018 255.446C311.429 255.446 311.765 255.367 312.026 255.208C312.288 255.049 312.465 254.853 312.558 254.62H314.616C314.504 255.133 314.285 255.591 313.958 255.992C313.632 256.393 313.221 256.706 312.726 256.93C312.232 257.154 311.662 257.266 311.018 257.266ZM319.727 257.098C318.952 257.098 318.327 257.005 317.851 256.818C317.375 256.622 317.025 256.3 316.801 255.852C316.586 255.395 316.479 254.779 316.479 254.004V247.256H318.565V254.088C318.565 254.452 318.658 254.732 318.845 254.928C319.041 255.115 319.316 255.208 319.671 255.208H320.805V257.098H319.727ZM315.317 250.966V249.328H320.805V250.966H315.317ZM325.168 257.238C324.076 257.238 323.222 257.014 322.606 256.566C321.99 256.118 321.664 255.488 321.626 254.676H323.614C323.652 254.919 323.796 255.138 324.048 255.334C324.31 255.521 324.697 255.614 325.21 255.614C325.602 255.614 325.924 255.549 326.176 255.418C326.438 255.278 326.568 255.082 326.568 254.83C326.568 254.606 326.47 254.429 326.274 254.298C326.078 254.158 325.728 254.06 325.224 254.004L324.622 253.948C323.698 253.855 323.003 253.598 322.536 253.178C322.079 252.758 321.85 252.221 321.85 251.568C321.85 251.027 321.986 250.574 322.256 250.21C322.527 249.846 322.9 249.571 323.376 249.384C323.862 249.197 324.412 249.104 325.028 249.104C326.018 249.104 326.816 249.323 327.422 249.762C328.029 250.191 328.346 250.817 328.374 251.638H326.386C326.349 251.386 326.218 251.176 325.994 251.008C325.77 250.831 325.439 250.742 325 250.742C324.655 250.742 324.38 250.807 324.174 250.938C323.969 251.069 323.866 251.246 323.866 251.47C323.866 251.685 323.955 251.848 324.132 251.96C324.31 252.072 324.599 252.151 325 252.198L325.602 252.254C326.545 252.357 327.278 252.618 327.8 253.038C328.323 253.458 328.584 254.023 328.584 254.732C328.584 255.245 328.444 255.693 328.164 256.076C327.884 256.449 327.488 256.739 326.974 256.944C326.461 257.14 325.859 257.238 325.168 257.238ZM337.609 257V254.732H337.231V252.268C337.231 251.876 337.138 251.582 336.951 251.386C336.764 251.19 336.466 251.092 336.055 251.092C335.85 251.092 335.579 251.097 335.243 251.106C334.907 251.115 334.562 251.129 334.207 251.148C333.852 251.167 333.53 251.185 333.241 251.204V249.314C333.456 249.295 333.708 249.277 333.997 249.258C334.286 249.239 334.585 249.225 334.893 249.216C335.201 249.207 335.49 249.202 335.761 249.202C336.545 249.202 337.203 249.314 337.735 249.538C338.276 249.762 338.687 250.103 338.967 250.56C339.247 251.008 339.387 251.587 339.387 252.296V257H337.609ZM335.159 257.196C334.608 257.196 334.123 257.098 333.703 256.902C333.292 256.706 332.97 256.426 332.737 256.062C332.504 255.689 332.387 255.245 332.387 254.732C332.387 254.172 332.532 253.715 332.821 253.36C333.11 252.996 333.516 252.73 334.039 252.562C334.562 252.385 335.164 252.296 335.845 252.296H337.483V253.542H335.831C335.439 253.542 335.136 253.64 334.921 253.836C334.716 254.023 334.613 254.279 334.613 254.606C334.613 254.914 334.716 255.166 334.921 255.362C335.136 255.549 335.439 255.642 335.831 255.642C336.083 255.642 336.307 255.6 336.503 255.516C336.708 255.423 336.876 255.269 337.007 255.054C337.138 254.839 337.212 254.541 337.231 254.158L337.763 254.718C337.716 255.25 337.586 255.698 337.371 256.062C337.166 256.426 336.876 256.706 336.503 256.902C336.139 257.098 335.691 257.196 335.159 257.196ZM344.774 257.098C343.999 257.098 343.374 257.005 342.898 256.818C342.422 256.622 342.072 256.3 341.848 255.852C341.633 255.395 341.526 254.779 341.526 254.004V247.256H343.612V254.088C343.612 254.452 343.705 254.732 343.892 254.928C344.088 255.115 344.363 255.208 344.718 255.208H345.852V257.098H344.774ZM340.364 250.966V249.328H345.852V250.966H340.364ZM350.297 257V249.328H352.075V252.618H352.033C352.033 251.535 352.262 250.7 352.719 250.112C353.186 249.524 353.858 249.23 354.735 249.23H355.029V251.162H354.469C353.853 251.162 353.377 251.33 353.041 251.666C352.705 251.993 352.537 252.469 352.537 253.094V257H350.297ZM356.554 257V249.328H358.794V257H356.554ZM355.532 250.98V249.328H358.794V250.98H355.532ZM357.422 248.572C357.002 248.572 356.689 248.465 356.484 248.25C356.288 248.026 356.19 247.746 356.19 247.41C356.19 247.065 356.288 246.785 356.484 246.57C356.689 246.346 357.002 246.234 357.422 246.234C357.842 246.234 358.15 246.346 358.346 246.57C358.551 246.785 358.654 247.065 358.654 247.41C358.654 247.746 358.551 248.026 358.346 248.25C358.15 248.465 357.842 248.572 357.422 248.572ZM363.778 257.238C362.686 257.238 361.832 257.014 361.216 256.566C360.6 256.118 360.273 255.488 360.236 254.676H362.224C362.261 254.919 362.406 255.138 362.658 255.334C362.919 255.521 363.306 255.614 363.82 255.614C364.212 255.614 364.534 255.549 364.786 255.418C365.047 255.278 365.178 255.082 365.178 254.83C365.178 254.606 365.08 254.429 364.884 254.298C364.688 254.158 364.338 254.06 363.834 254.004L363.232 253.948C362.308 253.855 361.612 253.598 361.146 253.178C360.688 252.758 360.46 252.221 360.46 251.568C360.46 251.027 360.595 250.574 360.866 250.21C361.136 249.846 361.51 249.571 361.986 249.384C362.471 249.197 363.022 249.104 363.638 249.104C364.627 249.104 365.425 249.323 366.032 249.762C366.638 250.191 366.956 250.817 366.984 251.638H364.996C364.958 251.386 364.828 251.176 364.604 251.008C364.38 250.831 364.048 250.742 363.61 250.742C363.264 250.742 362.989 250.807 362.784 250.938C362.578 251.069 362.476 251.246 362.476 251.47C362.476 251.685 362.564 251.848 362.742 251.96C362.919 252.072 363.208 252.151 363.61 252.198L364.212 252.254C365.154 252.357 365.887 252.618 366.41 253.038C366.932 253.458 367.194 254.023 367.194 254.732C367.194 255.245 367.054 255.693 366.774 256.076C366.494 256.449 366.097 256.739 365.584 256.944C365.07 257.14 364.468 257.238 363.778 257.238ZM374.049 257L371.627 253.416H370.549L373.671 249.328H376.023L373.083 253.136L373.111 252.044L376.569 257H374.049ZM368.645 257V246.78H370.885V257H368.645Z" fill="#3E4852"/>
<circle cx="152" cy="192" r="104" fill="#F68511"/>
<path d="M152 192L48 192C48 249.438 94.5624 296 152 296L152 192Z" fill="#F9B208"/>
<path d="M152 192L152 88C94.5624 88 48 134.562 48 192L152 192Z" fill="#0FB5AE"/>
<path d="M152 192L256 192C256 134.562 209.438 88 152 88L152 192Z" fill="#EA3829"/>
<path d="M208 192C208 222.928 182.928 248 152 248V136C182.928 136 208 161.072 208 192Z" fill="black" fill-opacity="0.2"/>
<path d="M152 192H96C96 161.072 121.072 136 152 136V192Z" fill="black" fill-opacity="0.2"/>
<path d="M152 192L96 192C96 222.928 121.072 248 152 248L152 192Z" fill="black" fill-opacity="0.2"/>
<circle cx="152" cy="192" r="48" fill="white"/>
<path d="M357.838 109.266C356.914 109.266 356.121 109.107 355.458 108.79C354.795 108.463 354.254 108.039 353.834 107.516C353.414 106.984 353.101 106.415 352.896 105.808C352.7 105.192 352.602 104.595 352.602 104.016V103.708C352.602 103.073 352.705 102.448 352.91 101.832C353.115 101.207 353.428 100.642 353.848 100.138C354.277 99.634 354.814 99.2327 355.458 98.934C356.111 98.626 356.881 98.472 357.768 98.472C358.692 98.472 359.509 98.6447 360.218 98.99C360.927 99.3353 361.492 99.816 361.912 100.432C362.341 101.039 362.593 101.753 362.668 102.574H360.358C360.293 102.163 360.143 101.813 359.91 101.524C359.677 101.235 359.373 101.011 359 100.852C358.636 100.693 358.225 100.614 357.768 100.614C357.311 100.614 356.905 100.693 356.55 100.852C356.195 101.011 355.897 101.235 355.654 101.524C355.421 101.813 355.239 102.159 355.108 102.56C354.987 102.952 354.926 103.391 354.926 103.876C354.926 104.352 354.987 104.791 355.108 105.192C355.239 105.584 355.425 105.929 355.668 106.228C355.92 106.517 356.228 106.741 356.592 106.9C356.956 107.049 357.371 107.124 357.838 107.124C358.547 107.124 359.145 106.951 359.63 106.606C360.125 106.261 360.423 105.785 360.526 105.178H362.822C362.738 105.925 362.486 106.611 362.066 107.236C361.655 107.852 361.091 108.347 360.372 108.72C359.663 109.084 358.818 109.266 357.838 109.266ZM364.219 109V101.328H365.997V104.618H365.955C365.955 103.535 366.184 102.7 366.641 102.112C367.108 101.524 367.78 101.23 368.657 101.23H368.951V103.162H368.391C367.775 103.162 367.299 103.33 366.963 103.666C366.627 103.993 366.459 104.469 366.459 105.094V109H364.219ZM370.476 109V101.328H372.716V109H370.476ZM369.454 102.98V101.328H372.716V102.98H369.454ZM371.344 100.572C370.924 100.572 370.611 100.465 370.406 100.25C370.21 100.026 370.112 99.746 370.112 99.41C370.112 99.0647 370.21 98.7847 370.406 98.57C370.611 98.346 370.924 98.234 371.344 98.234C371.764 98.234 372.072 98.346 372.268 98.57C372.473 98.7847 372.576 99.0647 372.576 99.41C372.576 99.746 372.473 100.026 372.268 100.25C372.072 100.465 371.764 100.572 371.344 100.572ZM378.274 109.098C377.499 109.098 376.874 109.005 376.398 108.818C375.922 108.622 375.572 108.3 375.348 107.852C375.133 107.395 375.026 106.779 375.026 106.004V99.256H377.112V106.088C377.112 106.452 377.205 106.732 377.392 106.928C377.588 107.115 377.863 107.208 378.218 107.208H379.352V109.098H378.274ZM373.864 102.966V101.328H379.352V102.966H373.864ZM381.222 109V101.328H383.462V109H381.222ZM380.2 102.98V101.328H383.462V102.98H380.2ZM382.09 100.572C381.67 100.572 381.357 100.465 381.152 100.25C380.956 100.026 380.858 99.746 380.858 99.41C380.858 99.0647 380.956 98.7847 381.152 98.57C381.357 98.346 381.67 98.234 382.09 98.234C382.51 98.234 382.818 98.346 383.014 98.57C383.219 98.7847 383.322 99.0647 383.322 99.41C383.322 99.746 383.219 100.026 383.014 100.25C382.818 100.465 382.51 100.572 382.09 100.572ZM388.978 109.266C388.315 109.266 387.736 109.159 387.242 108.944C386.756 108.72 386.35 108.421 386.024 108.048C385.697 107.675 385.454 107.255 385.296 106.788C385.137 106.312 385.058 105.822 385.058 105.318V105.052C385.058 104.529 385.142 104.03 385.31 103.554C385.478 103.069 385.725 102.639 386.052 102.266C386.378 101.893 386.784 101.599 387.27 101.384C387.764 101.169 388.329 101.062 388.964 101.062C389.654 101.062 390.266 101.197 390.798 101.468C391.33 101.729 391.754 102.098 392.072 102.574C392.389 103.05 392.566 103.596 392.604 104.212H390.406C390.368 103.867 390.228 103.577 389.986 103.344C389.752 103.101 389.412 102.98 388.964 102.98C388.59 102.98 388.278 103.073 388.026 103.26C387.783 103.447 387.601 103.703 387.48 104.03C387.358 104.357 387.298 104.744 387.298 105.192C387.298 105.603 387.354 105.976 387.466 106.312C387.578 106.639 387.755 106.895 387.998 107.082C388.25 107.259 388.576 107.348 388.978 107.348C389.276 107.348 389.528 107.297 389.734 107.194C389.948 107.082 390.116 106.933 390.238 106.746C390.368 106.55 390.448 106.326 390.476 106.074H392.66C392.632 106.709 392.454 107.269 392.128 107.754C391.801 108.23 391.367 108.603 390.826 108.874C390.284 109.135 389.668 109.266 388.978 109.266ZM398.726 109V106.732H398.348V104.268C398.348 103.876 398.255 103.582 398.068 103.386C397.882 103.19 397.583 103.092 397.172 103.092C396.967 103.092 396.696 103.097 396.36 103.106C396.024 103.115 395.679 103.129 395.324 103.148C394.97 103.167 394.648 103.185 394.358 103.204V101.314C394.573 101.295 394.825 101.277 395.114 101.258C395.404 101.239 395.702 101.225 396.01 101.216C396.318 101.207 396.608 101.202 396.878 101.202C397.662 101.202 398.32 101.314 398.852 101.538C399.394 101.762 399.804 102.103 400.084 102.56C400.364 103.008 400.504 103.587 400.504 104.296V109H398.726ZM396.276 109.196C395.726 109.196 395.24 109.098 394.82 108.902C394.41 108.706 394.088 108.426 393.854 108.062C393.621 107.689 393.504 107.245 393.504 106.732C393.504 106.172 393.649 105.715 393.938 105.36C394.228 104.996 394.634 104.73 395.156 104.562C395.679 104.385 396.281 104.296 396.962 104.296H398.6V105.542H396.948C396.556 105.542 396.253 105.64 396.038 105.836C395.833 106.023 395.73 106.279 395.73 106.606C395.73 106.914 395.833 107.166 396.038 107.362C396.253 107.549 396.556 107.642 396.948 107.642C397.2 107.642 397.424 107.6 397.62 107.516C397.826 107.423 397.994 107.269 398.124 107.054C398.255 106.839 398.33 106.541 398.348 106.158L398.88 106.718C398.834 107.25 398.703 107.698 398.488 108.062C398.283 108.426 397.994 108.706 397.62 108.902C397.256 109.098 396.808 109.196 396.276 109.196ZM402.503 109V98.78H404.757V109H402.503ZM401.593 100.432V98.78H404.757V100.432H401.593Z" fill="#3E4852"/>
<path d="M359.756 145V134.78H362.052V145H359.756ZM353.148 145V134.78H355.444V145H353.148ZM355.038 140.87V138.854H360.162V140.87H355.038ZM364.583 145V137.328H366.823V145H364.583ZM363.561 138.98V137.328H366.823V138.98H363.561ZM365.451 136.572C365.031 136.572 364.719 136.465 364.513 136.25C364.317 136.026 364.219 135.746 364.219 135.41C364.219 135.065 364.317 134.785 364.513 134.57C364.719 134.346 365.031 134.234 365.451 134.234C365.871 134.234 366.179 134.346 366.375 134.57C366.581 134.785 366.683 135.065 366.683 135.41C366.683 135.746 366.581 136.026 366.375 136.25C366.179 136.465 365.871 136.572 365.451 136.572ZM371.919 148.052C371.546 148.052 371.163 148.038 370.771 148.01C370.379 147.982 370.02 147.945 369.693 147.898V146.008C370.02 146.055 370.379 146.092 370.771 146.12C371.172 146.157 371.536 146.176 371.863 146.176C372.47 146.176 372.96 146.106 373.333 145.966C373.716 145.826 373.996 145.611 374.173 145.322C374.35 145.042 374.439 144.678 374.439 144.23V142.704L374.845 141.808C374.826 142.489 374.691 143.073 374.439 143.558C374.196 144.043 373.856 144.417 373.417 144.678C372.978 144.93 372.456 145.056 371.849 145.056C371.326 145.056 370.85 144.963 370.421 144.776C370.001 144.58 369.642 144.309 369.343 143.964C369.044 143.619 368.816 143.217 368.657 142.76C368.498 142.293 368.419 141.789 368.419 141.248V140.926C368.419 140.385 368.503 139.881 368.671 139.414C368.839 138.947 369.082 138.541 369.399 138.196C369.716 137.851 370.094 137.585 370.533 137.398C370.972 137.202 371.457 137.104 371.989 137.104C372.605 137.104 373.137 137.239 373.585 137.51C374.042 137.781 374.402 138.177 374.663 138.7C374.924 139.223 375.064 139.853 375.083 140.59L374.775 140.674V137.328H376.553V144.09C376.553 145.033 376.385 145.793 376.049 146.372C375.713 146.951 375.2 147.375 374.509 147.646C373.828 147.917 372.964 148.052 371.919 148.052ZM372.549 143.166C372.894 143.166 373.207 143.091 373.487 142.942C373.767 142.783 373.986 142.559 374.145 142.27C374.313 141.981 374.397 141.631 374.397 141.22V140.814C374.397 140.413 374.308 140.077 374.131 139.806C373.963 139.526 373.739 139.316 373.459 139.176C373.179 139.027 372.88 138.952 372.563 138.952C372.19 138.952 371.858 139.041 371.569 139.218C371.28 139.395 371.056 139.643 370.897 139.96C370.738 140.277 370.659 140.651 370.659 141.08C370.659 141.519 370.738 141.897 370.897 142.214C371.065 142.522 371.289 142.76 371.569 142.928C371.858 143.087 372.185 143.166 372.549 143.166ZM378.493 145V134.78H380.733V140.674H380.397C380.397 139.899 380.495 139.246 380.691 138.714C380.887 138.182 381.176 137.781 381.559 137.51C381.941 137.23 382.422 137.09 383.001 137.09H383.099C383.948 137.09 384.597 137.393 385.045 138C385.493 138.597 385.717 139.475 385.717 140.632V145H383.477V140.492C383.477 140.072 383.351 139.736 383.099 139.484C382.856 139.223 382.534 139.092 382.133 139.092C381.713 139.092 381.372 139.227 381.111 139.498C380.859 139.769 380.733 140.128 380.733 140.576V145H378.493Z" fill="#3E4852"/>
<path d="M353.148 181V170.78H356.312L358.65 176.52H358.916L361.226 170.78H364.446V181H362.178V172.278L362.5 172.306L359.798 178.928H357.614L354.898 172.306L355.248 172.278V181H353.148ZM370.126 181.266C369.473 181.266 368.894 181.154 368.39 180.93C367.895 180.706 367.48 180.407 367.144 180.034C366.817 179.651 366.565 179.227 366.388 178.76C366.22 178.284 366.136 177.799 366.136 177.304V177.024C366.136 176.511 366.22 176.021 366.388 175.554C366.565 175.078 366.817 174.653 367.144 174.28C367.471 173.907 367.877 173.613 368.362 173.398C368.857 173.174 369.417 173.062 370.042 173.062C370.863 173.062 371.554 173.249 372.114 173.622C372.683 173.986 373.117 174.467 373.416 175.064C373.715 175.652 373.864 176.296 373.864 176.996V177.752H367.074V176.478H372.506L371.778 177.066C371.778 176.609 371.713 176.217 371.582 175.89C371.451 175.563 371.255 175.316 370.994 175.148C370.742 174.971 370.425 174.882 370.042 174.882C369.65 174.882 369.319 174.971 369.048 175.148C368.777 175.325 368.572 175.587 368.432 175.932C368.292 176.268 368.222 176.683 368.222 177.178C368.222 177.635 368.287 178.037 368.418 178.382C368.549 178.718 368.754 178.979 369.034 179.166C369.314 179.353 369.678 179.446 370.126 179.446C370.537 179.446 370.873 179.367 371.134 179.208C371.395 179.049 371.573 178.853 371.666 178.62H373.724C373.612 179.133 373.393 179.591 373.066 179.992C372.739 180.393 372.329 180.706 371.834 180.93C371.339 181.154 370.77 181.266 370.126 181.266ZM378.512 181.252C377.971 181.252 377.476 181.154 377.028 180.958C376.59 180.762 376.207 180.491 375.88 180.146C375.554 179.791 375.302 179.376 375.124 178.9C374.956 178.424 374.872 177.911 374.872 177.36V177.038C374.872 176.487 374.952 175.974 375.11 175.498C375.278 175.022 375.516 174.607 375.824 174.252C376.142 173.888 376.52 173.608 376.958 173.412C377.397 173.207 377.887 173.104 378.428 173.104C379.044 173.104 379.576 173.239 380.024 173.51C380.472 173.771 380.822 174.163 381.074 174.686C381.326 175.199 381.466 175.834 381.494 176.59L380.906 176.044V170.78H383.16V181H381.382V177.822H381.69C381.662 178.55 381.508 179.171 381.228 179.684C380.958 180.197 380.589 180.589 380.122 180.86C379.656 181.121 379.119 181.252 378.512 181.252ZM379.072 179.376C379.418 179.376 379.73 179.301 380.01 179.152C380.3 178.993 380.528 178.765 380.696 178.466C380.874 178.167 380.962 177.808 380.962 177.388V176.87C380.962 176.459 380.874 176.114 380.696 175.834C380.519 175.554 380.286 175.339 379.996 175.19C379.707 175.041 379.394 174.966 379.058 174.966C378.685 174.966 378.349 175.064 378.05 175.26C377.761 175.447 377.532 175.708 377.364 176.044C377.196 176.371 377.112 176.753 377.112 177.192C377.112 177.64 377.196 178.027 377.364 178.354C377.532 178.681 377.766 178.933 378.064 179.11C378.363 179.287 378.699 179.376 379.072 179.376ZM385.556 181V173.328H387.796V181H385.556ZM384.534 174.98V173.328H387.796V174.98H384.534ZM386.424 172.572C386.004 172.572 385.691 172.465 385.486 172.25C385.29 172.026 385.192 171.746 385.192 171.41C385.192 171.065 385.29 170.785 385.486 170.57C385.691 170.346 386.004 170.234 386.424 170.234C386.844 170.234 387.152 170.346 387.348 170.57C387.553 170.785 387.656 171.065 387.656 171.41C387.656 171.746 387.553 172.026 387.348 172.25C387.152 172.465 386.844 172.572 386.424 172.572ZM392.458 181.238C391.571 181.238 390.89 180.953 390.414 180.384C389.938 179.805 389.7 178.937 389.7 177.78V173.328H391.94V177.892C391.94 178.303 392.056 178.629 392.29 178.872C392.523 179.115 392.836 179.236 393.228 179.236C393.629 179.236 393.956 179.11 394.208 178.858C394.46 178.606 394.586 178.265 394.586 177.836V173.328H396.826V181H395.048V177.766H395.202C395.202 178.541 395.099 179.189 394.894 179.712C394.698 180.225 394.404 180.608 394.012 180.86C393.62 181.112 393.134 181.238 392.556 181.238H392.458ZM398.891 181V173.328H400.669V176.632H400.543C400.543 175.848 400.641 175.195 400.837 174.672C401.033 174.149 401.327 173.757 401.719 173.496C402.111 173.225 402.592 173.09 403.161 173.09H403.259C403.838 173.09 404.318 173.225 404.701 173.496C405.093 173.757 405.387 174.149 405.583 174.672C405.788 175.195 405.891 175.848 405.891 176.632H405.345C405.345 175.848 405.443 175.195 405.639 174.672C405.844 174.149 406.143 173.757 406.535 173.496C406.927 173.225 407.408 173.09 407.977 173.09H408.075C408.654 173.09 409.139 173.225 409.531 173.496C409.932 173.757 410.236 174.149 410.441 174.672C410.646 175.195 410.749 175.848 410.749 176.632V181H408.509V176.506C408.509 176.086 408.397 175.745 408.173 175.484C407.958 175.223 407.65 175.092 407.249 175.092C406.848 175.092 406.53 175.227 406.297 175.498C406.064 175.759 405.947 176.109 405.947 176.548V181H403.693V176.506C403.693 176.086 403.581 175.745 403.357 175.484C403.142 175.223 402.839 175.092 402.447 175.092C402.036 175.092 401.714 175.227 401.481 175.498C401.248 175.759 401.131 176.109 401.131 176.548V181H398.891Z" fill="#3E4852"/>
<path d="M353.148 217V206.78H355.444V217H353.148ZM355.164 217V214.984H359.448V217H355.164ZM364.471 217.266C363.799 217.266 363.202 217.163 362.679 216.958C362.156 216.743 361.713 216.454 361.349 216.09C360.994 215.726 360.724 215.311 360.537 214.844C360.35 214.368 360.257 213.869 360.257 213.346V213.024C360.257 212.492 360.35 211.988 360.537 211.512C360.733 211.027 361.013 210.602 361.377 210.238C361.75 209.874 362.198 209.589 362.721 209.384C363.244 209.169 363.827 209.062 364.471 209.062C365.134 209.062 365.722 209.169 366.235 209.384C366.758 209.589 367.201 209.874 367.565 210.238C367.929 210.602 368.209 211.027 368.405 211.512C368.601 211.988 368.699 212.492 368.699 213.024V213.346C368.699 213.869 368.606 214.368 368.419 214.844C368.232 215.311 367.957 215.726 367.593 216.09C367.238 216.454 366.8 216.743 366.277 216.958C365.754 217.163 365.152 217.266 364.471 217.266ZM364.471 215.376C364.91 215.376 365.274 215.283 365.563 215.096C365.852 214.909 366.072 214.648 366.221 214.312C366.38 213.976 366.459 213.603 366.459 213.192C366.459 212.753 366.38 212.371 366.221 212.044C366.062 211.708 365.834 211.442 365.535 211.246C365.246 211.05 364.891 210.952 364.471 210.952C364.06 210.952 363.706 211.05 363.407 211.246C363.108 211.442 362.88 211.708 362.721 212.044C362.572 212.371 362.497 212.753 362.497 213.192C362.497 213.603 362.572 213.976 362.721 214.312C362.87 214.648 363.094 214.909 363.393 215.096C363.692 215.283 364.051 215.376 364.471 215.376ZM372.899 217L374.299 209.58H376.749L378.373 217H376.637L374.971 209.636H375.965L374.467 217H372.899ZM372.367 217L372.353 215.138H373.893L373.907 217H372.367ZM371.359 217L369.301 209.328H371.499L373.417 217H371.359ZM377.211 217L377.225 215.138H378.765V217H377.211ZM377.841 217L379.549 209.328H381.607L379.759 217H377.841Z" fill="#3E4852"/>
<rect x="280" y="88" width="64" height="32" rx="4" fill="#EA3829"/>
<path d="M311.565 109V100.292L312.181 100.768H309.115V98.78H313.861V109H311.565ZM308.877 109V107.012H316.143V109H308.877ZM318.17 108.986V106.872C318.17 106.443 318.245 106.065 318.394 105.738C318.543 105.402 318.781 105.108 319.108 104.856C319.444 104.595 319.883 104.352 320.424 104.128L322.132 103.442C322.561 103.265 322.869 103.045 323.056 102.784C323.243 102.513 323.336 102.177 323.336 101.776C323.336 101.375 323.201 101.043 322.93 100.782C322.669 100.521 322.291 100.39 321.796 100.39C321.311 100.39 320.933 100.525 320.662 100.796C320.391 101.067 320.256 101.431 320.256 101.888H318.044C318.044 101.244 318.184 100.665 318.464 100.152C318.744 99.6293 319.164 99.2187 319.724 98.92C320.284 98.6213 320.975 98.472 321.796 98.472C322.617 98.472 323.303 98.6213 323.854 98.92C324.414 99.2093 324.839 99.5967 325.128 100.082C325.417 100.567 325.562 101.104 325.562 101.692V101.874C325.562 102.667 325.333 103.33 324.876 103.862C324.419 104.394 323.742 104.837 322.846 105.192L321.152 105.892C320.863 106.013 320.662 106.139 320.55 106.27C320.447 106.391 320.396 106.555 320.396 106.76V107.488L319.878 107.026H325.576V108.986H318.17ZM331.271 109.294C330.45 109.294 329.731 109.173 329.115 108.93C328.499 108.687 328.023 108.333 327.687 107.866C327.351 107.399 327.183 106.83 327.183 106.158C327.183 105.738 327.253 105.36 327.393 105.024C327.533 104.688 327.734 104.403 327.995 104.17C328.256 103.937 328.56 103.755 328.905 103.624V103.442C328.634 103.33 328.392 103.181 328.177 102.994C327.962 102.798 327.79 102.56 327.659 102.28C327.538 102 327.477 101.673 327.477 101.3C327.477 100.665 327.64 100.143 327.967 99.732C328.303 99.3213 328.756 99.0133 329.325 98.808C329.904 98.5933 330.552 98.486 331.271 98.486C332.008 98.486 332.657 98.5933 333.217 98.808C333.786 99.0133 334.234 99.3213 334.561 99.732C334.897 100.143 335.065 100.665 335.065 101.3C335.065 101.673 335.004 102 334.883 102.28C334.762 102.56 334.594 102.798 334.379 102.994C334.164 103.181 333.917 103.33 333.637 103.442V103.624C333.992 103.755 334.295 103.937 334.547 104.17C334.808 104.403 335.009 104.688 335.149 105.024C335.298 105.351 335.373 105.729 335.373 106.158C335.373 106.83 335.2 107.399 334.855 107.866C334.519 108.333 334.043 108.687 333.427 108.93C332.82 109.173 332.102 109.294 331.271 109.294ZM331.271 107.404C331.644 107.404 331.971 107.348 332.251 107.236C332.531 107.124 332.75 106.956 332.909 106.732C333.068 106.508 333.147 106.228 333.147 105.892C333.147 105.565 333.068 105.29 332.909 105.066C332.76 104.842 332.545 104.674 332.265 104.562C331.985 104.45 331.654 104.394 331.271 104.394C330.898 104.394 330.566 104.45 330.277 104.562C329.997 104.674 329.778 104.842 329.619 105.066C329.47 105.29 329.395 105.565 329.395 105.892C329.395 106.228 329.474 106.508 329.633 106.732C329.792 106.956 330.011 107.124 330.291 107.236C330.571 107.348 330.898 107.404 331.271 107.404ZM331.271 102.7C331.756 102.7 332.139 102.602 332.419 102.406C332.699 102.21 332.839 101.916 332.839 101.524C332.839 101.141 332.699 100.852 332.419 100.656C332.139 100.46 331.756 100.362 331.271 100.362C330.786 100.362 330.403 100.46 330.123 100.656C329.843 100.852 329.703 101.141 329.703 101.524C329.703 101.916 329.843 102.21 330.123 102.406C330.412 102.602 330.795 102.7 331.271 102.7Z" fill="white"/>
<rect x="280" y="124" width="64" height="32" rx="4" fill="#F68511"/>
<path d="M311.565 145V136.292L312.181 136.768H309.115V134.78H313.861V145H311.565ZM308.877 145V143.012H316.143V145H308.877ZM318.17 144.986V142.872C318.17 142.443 318.245 142.065 318.394 141.738C318.543 141.402 318.781 141.108 319.108 140.856C319.444 140.595 319.883 140.352 320.424 140.128L322.132 139.442C322.561 139.265 322.869 139.045 323.056 138.784C323.243 138.513 323.336 138.177 323.336 137.776C323.336 137.375 323.201 137.043 322.93 136.782C322.669 136.521 322.291 136.39 321.796 136.39C321.311 136.39 320.933 136.525 320.662 136.796C320.391 137.067 320.256 137.431 320.256 137.888H318.044C318.044 137.244 318.184 136.665 318.464 136.152C318.744 135.629 319.164 135.219 319.724 134.92C320.284 134.621 320.975 134.472 321.796 134.472C322.617 134.472 323.303 134.621 323.854 134.92C324.414 135.209 324.839 135.597 325.128 136.082C325.417 136.567 325.562 137.104 325.562 137.692V137.874C325.562 138.667 325.333 139.33 324.876 139.862C324.419 140.394 323.742 140.837 322.846 141.192L321.152 141.892C320.863 142.013 320.662 142.139 320.55 142.27C320.447 142.391 320.396 142.555 320.396 142.76V143.488L319.878 143.026H325.576V144.986H318.17ZM331.271 145.294C330.45 145.294 329.731 145.173 329.115 144.93C328.499 144.687 328.023 144.333 327.687 143.866C327.351 143.399 327.183 142.83 327.183 142.158C327.183 141.738 327.253 141.36 327.393 141.024C327.533 140.688 327.734 140.403 327.995 140.17C328.256 139.937 328.56 139.755 328.905 139.624V139.442C328.634 139.33 328.392 139.181 328.177 138.994C327.962 138.798 327.79 138.56 327.659 138.28C327.538 138 327.477 137.673 327.477 137.3C327.477 136.665 327.64 136.143 327.967 135.732C328.303 135.321 328.756 135.013 329.325 134.808C329.904 134.593 330.552 134.486 331.271 134.486C332.008 134.486 332.657 134.593 333.217 134.808C333.786 135.013 334.234 135.321 334.561 135.732C334.897 136.143 335.065 136.665 335.065 137.3C335.065 137.673 335.004 138 334.883 138.28C334.762 138.56 334.594 138.798 334.379 138.994C334.164 139.181 333.917 139.33 333.637 139.442V139.624C333.992 139.755 334.295 139.937 334.547 140.17C334.808 140.403 335.009 140.688 335.149 141.024C335.298 141.351 335.373 141.729 335.373 142.158C335.373 142.83 335.2 143.399 334.855 143.866C334.519 144.333 334.043 144.687 333.427 144.93C332.82 145.173 332.102 145.294 331.271 145.294ZM331.271 143.404C331.644 143.404 331.971 143.348 332.251 143.236C332.531 143.124 332.75 142.956 332.909 142.732C333.068 142.508 333.147 142.228 333.147 141.892C333.147 141.565 333.068 141.29 332.909 141.066C332.76 140.842 332.545 140.674 332.265 140.562C331.985 140.45 331.654 140.394 331.271 140.394C330.898 140.394 330.566 140.45 330.277 140.562C329.997 140.674 329.778 140.842 329.619 141.066C329.47 141.29 329.395 141.565 329.395 141.892C329.395 142.228 329.474 142.508 329.633 142.732C329.792 142.956 330.011 143.124 330.291 143.236C330.571 143.348 330.898 143.404 331.271 143.404ZM331.271 138.7C331.756 138.7 332.139 138.602 332.419 138.406C332.699 138.21 332.839 137.916 332.839 137.524C332.839 137.141 332.699 136.852 332.419 136.656C332.139 136.46 331.756 136.362 331.271 136.362C330.786 136.362 330.403 136.46 330.123 136.656C329.843 136.852 329.703 137.141 329.703 137.524C329.703 137.916 329.843 138.21 330.123 138.406C330.412 138.602 330.795 138.7 331.271 138.7Z" fill="white"/>
<rect x="280" y="160" width="64" height="32" rx="4" fill="#F9B208"/>
<path d="M311.565 181V172.292L312.181 172.768H309.115V170.78H313.861V181H311.565ZM308.877 181V179.012H316.143V181H308.877ZM318.17 180.986V178.872C318.17 178.443 318.245 178.065 318.394 177.738C318.543 177.402 318.781 177.108 319.108 176.856C319.444 176.595 319.883 176.352 320.424 176.128L322.132 175.442C322.561 175.265 322.869 175.045 323.056 174.784C323.243 174.513 323.336 174.177 323.336 173.776C323.336 173.375 323.201 173.043 322.93 172.782C322.669 172.521 322.291 172.39 321.796 172.39C321.311 172.39 320.933 172.525 320.662 172.796C320.391 173.067 320.256 173.431 320.256 173.888H318.044C318.044 173.244 318.184 172.665 318.464 172.152C318.744 171.629 319.164 171.219 319.724 170.92C320.284 170.621 320.975 170.472 321.796 170.472C322.617 170.472 323.303 170.621 323.854 170.92C324.414 171.209 324.839 171.597 325.128 172.082C325.417 172.567 325.562 173.104 325.562 173.692V173.874C325.562 174.667 325.333 175.33 324.876 175.862C324.419 176.394 323.742 176.837 322.846 177.192L321.152 177.892C320.863 178.013 320.662 178.139 320.55 178.27C320.447 178.391 320.396 178.555 320.396 178.76V179.488L319.878 179.026H325.576V180.986H318.17ZM331.271 181.294C330.45 181.294 329.731 181.173 329.115 180.93C328.499 180.687 328.023 180.333 327.687 179.866C327.351 179.399 327.183 178.83 327.183 178.158C327.183 177.738 327.253 177.36 327.393 177.024C327.533 176.688 327.734 176.403 327.995 176.17C328.256 175.937 328.56 175.755 328.905 175.624V175.442C328.634 175.33 328.392 175.181 328.177 174.994C327.962 174.798 327.79 174.56 327.659 174.28C327.538 174 327.477 173.673 327.477 173.3C327.477 172.665 327.64 172.143 327.967 171.732C328.303 171.321 328.756 171.013 329.325 170.808C329.904 170.593 330.552 170.486 331.271 170.486C332.008 170.486 332.657 170.593 333.217 170.808C333.786 171.013 334.234 171.321 334.561 171.732C334.897 172.143 335.065 172.665 335.065 173.3C335.065 173.673 335.004 174 334.883 174.28C334.762 174.56 334.594 174.798 334.379 174.994C334.164 175.181 333.917 175.33 333.637 175.442V175.624C333.992 175.755 334.295 175.937 334.547 176.17C334.808 176.403 335.009 176.688 335.149 177.024C335.298 177.351 335.373 177.729 335.373 178.158C335.373 178.83 335.2 179.399 334.855 179.866C334.519 180.333 334.043 180.687 333.427 180.93C332.82 181.173 332.102 181.294 331.271 181.294ZM331.271 179.404C331.644 179.404 331.971 179.348 332.251 179.236C332.531 179.124 332.75 178.956 332.909 178.732C333.068 178.508 333.147 178.228 333.147 177.892C333.147 177.565 333.068 177.29 332.909 177.066C332.76 176.842 332.545 176.674 332.265 176.562C331.985 176.45 331.654 176.394 331.271 176.394C330.898 176.394 330.566 176.45 330.277 176.562C329.997 176.674 329.778 176.842 329.619 177.066C329.47 177.29 329.395 177.565 329.395 177.892C329.395 178.228 329.474 178.508 329.633 178.732C329.792 178.956 330.011 179.124 330.291 179.236C330.571 179.348 330.898 179.404 331.271 179.404ZM331.271 174.7C331.756 174.7 332.139 174.602 332.419 174.406C332.699 174.21 332.839 173.916 332.839 173.524C332.839 173.141 332.699 172.852 332.419 172.656C332.139 172.46 331.756 172.362 331.271 172.362C330.786 172.362 330.403 172.46 330.123 172.656C329.843 172.852 329.703 173.141 329.703 173.524C329.703 173.916 329.843 174.21 330.123 174.406C330.412 174.602 330.795 174.7 331.271 174.7Z" fill="white"/>
<rect x="280" y="196" width="64" height="32" rx="4" fill="#0FB5AE"/>
<path d="M311.565 217V208.292L312.181 208.768H309.115V206.78H313.861V217H311.565ZM308.877 217V215.012H316.143V217H308.877ZM318.17 216.986V214.872C318.17 214.443 318.245 214.065 318.394 213.738C318.543 213.402 318.781 213.108 319.108 212.856C319.444 212.595 319.883 212.352 320.424 212.128L322.132 211.442C322.561 211.265 322.869 211.045 323.056 210.784C323.243 210.513 323.336 210.177 323.336 209.776C323.336 209.375 323.201 209.043 322.93 208.782C322.669 208.521 322.291 208.39 321.796 208.39C321.311 208.39 320.933 208.525 320.662 208.796C320.391 209.067 320.256 209.431 320.256 209.888H318.044C318.044 209.244 318.184 208.665 318.464 208.152C318.744 207.629 319.164 207.219 319.724 206.92C320.284 206.621 320.975 206.472 321.796 206.472C322.617 206.472 323.303 206.621 323.854 206.92C324.414 207.209 324.839 207.597 325.128 208.082C325.417 208.567 325.562 209.104 325.562 209.692V209.874C325.562 210.667 325.333 211.33 324.876 211.862C324.419 212.394 323.742 212.837 322.846 213.192L321.152 213.892C320.863 214.013 320.662 214.139 320.55 214.27C320.447 214.391 320.396 214.555 320.396 214.76V215.488L319.878 215.026H325.576V216.986H318.17ZM331.271 217.294C330.45 217.294 329.731 217.173 329.115 216.93C328.499 216.687 328.023 216.333 327.687 215.866C327.351 215.399 327.183 214.83 327.183 214.158C327.183 213.738 327.253 213.36 327.393 213.024C327.533 212.688 327.734 212.403 327.995 212.17C328.256 211.937 328.56 211.755 328.905 211.624V211.442C328.634 211.33 328.392 211.181 328.177 210.994C327.962 210.798 327.79 210.56 327.659 210.28C327.538 210 327.477 209.673 327.477 209.3C327.477 208.665 327.64 208.143 327.967 207.732C328.303 207.321 328.756 207.013 329.325 206.808C329.904 206.593 330.552 206.486 331.271 206.486C332.008 206.486 332.657 206.593 333.217 206.808C333.786 207.013 334.234 207.321 334.561 207.732C334.897 208.143 335.065 208.665 335.065 209.3C335.065 209.673 335.004 210 334.883 210.28C334.762 210.56 334.594 210.798 334.379 210.994C334.164 211.181 333.917 211.33 333.637 211.442V211.624C333.992 211.755 334.295 211.937 334.547 212.17C334.808 212.403 335.009 212.688 335.149 213.024C335.298 213.351 335.373 213.729 335.373 214.158C335.373 214.83 335.2 215.399 334.855 215.866C334.519 216.333 334.043 216.687 333.427 216.93C332.82 217.173 332.102 217.294 331.271 217.294ZM331.271 215.404C331.644 215.404 331.971 215.348 332.251 215.236C332.531 215.124 332.75 214.956 332.909 214.732C333.068 214.508 333.147 214.228 333.147 213.892C333.147 213.565 333.068 213.29 332.909 213.066C332.76 212.842 332.545 212.674 332.265 212.562C331.985 212.45 331.654 212.394 331.271 212.394C330.898 212.394 330.566 212.45 330.277 212.562C329.997 212.674 329.778 212.842 329.619 213.066C329.47 213.29 329.395 213.565 329.395 213.892C329.395 214.228 329.474 214.508 329.633 214.732C329.792 214.956 330.011 215.124 330.291 215.236C330.571 215.348 330.898 215.404 331.271 215.404ZM331.271 210.7C331.756 210.7 332.139 210.602 332.419 210.406C332.699 210.21 332.839 209.916 332.839 209.524C332.839 209.141 332.699 208.852 332.419 208.656C332.139 208.46 331.756 208.362 331.271 208.362C330.786 208.362 330.403 208.46 330.123 208.656C329.843 208.852 329.703 209.141 329.703 209.524C329.703 209.916 329.843 210.21 330.123 210.406C330.412 210.602 330.795 210.7 331.271 210.7Z" fill="white"/>
<rect x="0.5" y="0.5" width="511" height="327" rx="15.5" stroke="#E1E4E7"/>
</svg>
