<svg width="300" height="216" viewBox="0 0 300 216" fill="none" xmlns="http://www.w3.org/2000/svg">
<path d="M25.968 40V22.48H29.904V40H25.968ZM29.424 40V36.544H36.768V40H29.424ZM44.9948 40.456C43.8748 40.456 42.8828 40.264 42.0188 39.88C41.1708 39.496 40.4588 38.984 39.8828 38.344C39.3228 37.688 38.8908 36.96 38.5868 36.16C38.2988 35.344 38.1548 34.512 38.1548 33.664V33.184C38.1548 32.304 38.2988 31.464 38.5868 30.664C38.8908 29.848 39.3228 29.12 39.8828 28.48C40.4428 27.84 41.1388 27.336 41.9708 26.968C42.8188 26.584 43.7788 26.392 44.8508 26.392C46.2588 26.392 47.4428 26.712 48.4028 27.352C49.3788 27.976 50.1228 28.8 50.6348 29.824C51.1468 30.832 51.4028 31.936 51.4028 33.136V34.432H39.7628V32.248H49.0748L47.8268 33.256C47.8268 32.472 47.7148 31.8 47.4908 31.24C47.2668 30.68 46.9308 30.256 46.4828 29.968C46.0508 29.664 45.5068 29.512 44.8508 29.512C44.1788 29.512 43.6108 29.664 43.1468 29.968C42.6828 30.272 42.3308 30.72 42.0908 31.312C41.8508 31.888 41.7308 32.6 41.7308 33.448C41.7308 34.232 41.8428 34.92 42.0668 35.512C42.2908 36.088 42.6428 36.536 43.1228 36.856C43.6028 37.176 44.2268 37.336 44.9948 37.336C45.6988 37.336 46.2748 37.2 46.7228 36.928C47.1708 36.656 47.4748 36.32 47.6348 35.92H51.1628C50.9708 36.8 50.5948 37.584 50.0348 38.272C49.4748 38.96 48.7708 39.496 47.9228 39.88C47.0748 40.264 46.0988 40.456 44.9948 40.456ZM61.8913 40V36.112H61.2433V31.888C61.2433 31.216 61.0833 30.712 60.7633 30.376C60.4433 30.04 59.9313 29.872 59.2273 29.872C58.8753 29.872 58.4113 29.88 57.8353 29.896C57.2593 29.912 56.6673 29.936 56.0593 29.968C55.4513 30 54.8993 30.032 54.4033 30.064V26.824C54.7713 26.792 55.2033 26.76 55.6993 26.728C56.1953 26.696 56.7073 26.672 57.2353 26.656C57.7633 26.64 58.2593 26.632 58.7233 26.632C60.0673 26.632 61.1953 26.824 62.1073 27.208C63.0353 27.592 63.7393 28.176 64.2193 28.96C64.6993 29.728 64.9393 30.72 64.9393 31.936V40H61.8913ZM57.6913 40.336C56.7473 40.336 55.9153 40.168 55.1953 39.832C54.4913 39.496 53.9393 39.016 53.5393 38.392C53.1393 37.752 52.9393 36.992 52.9393 36.112C52.9393 35.152 53.1873 34.368 53.6833 33.76C54.1793 33.136 54.8753 32.68 55.7713 32.392C56.6673 32.088 57.6993 31.936 58.8673 31.936H61.6753V34.072H58.8433C58.1713 34.072 57.6513 34.24 57.2833 34.576C56.9313 34.896 56.7553 35.336 56.7553 35.896C56.7553 36.424 56.9313 36.856 57.2833 37.192C57.6513 37.512 58.1713 37.672 58.8433 37.672C59.2753 37.672 59.6593 37.6 59.9953 37.456C60.3473 37.296 60.6353 37.032 60.8593 36.664C61.0833 36.296 61.2113 35.784 61.2433 35.128L62.1553 36.088C62.0753 37 61.8513 37.768 61.4833 38.392C61.1313 39.016 60.6353 39.496 59.9953 39.832C59.3713 40.168 58.6033 40.336 57.6913 40.336ZM68.1973 40V26.848H71.2453V32.488H71.1733C71.1733 30.632 71.5653 29.2 72.3493 28.192C73.1493 27.184 74.3013 26.68 75.8053 26.68H76.3093V29.992H75.3493C74.2933 29.992 73.4773 30.28 72.9013 30.856C72.3253 31.416 72.0373 32.232 72.0373 33.304V40H68.1973ZM78.2989 40V26.848H81.3469V32.488H81.1309C81.1309 31.144 81.2989 30.024 81.6349 29.128C81.9869 28.232 82.5149 27.56 83.2189 27.112C83.9229 26.664 84.7789 26.44 85.7869 26.44H85.9549C87.4909 26.44 88.6589 26.944 89.4589 27.952C90.2749 28.944 90.6829 30.456 90.6829 32.488V40H86.8429V32.272C86.8429 31.568 86.6349 30.992 86.2189 30.544C85.8029 30.096 85.2429 29.872 84.5389 29.872C83.8189 29.872 83.2349 30.104 82.7869 30.568C82.3549 31.016 82.1389 31.608 82.1389 32.344V40H78.2989ZM98.9942 40V26.848H102.042V32.512H101.826C101.826 31.168 101.994 30.048 102.33 29.152C102.666 28.256 103.17 27.584 103.842 27.136C104.514 26.672 105.338 26.44 106.314 26.44H106.482C107.474 26.44 108.298 26.672 108.954 27.136C109.626 27.584 110.13 28.256 110.466 29.152C110.818 30.048 110.994 31.168 110.994 32.512H110.058C110.058 31.168 110.226 30.048 110.562 29.152C110.914 28.256 111.426 27.584 112.098 27.136C112.77 26.672 113.594 26.44 114.57 26.44H114.738C115.73 26.44 116.562 26.672 117.234 27.136C117.922 27.584 118.442 28.256 118.794 29.152C119.146 30.048 119.322 31.168 119.322 32.512V40H115.482V32.296C115.482 31.576 115.29 30.992 114.906 30.544C114.538 30.096 114.01 29.872 113.322 29.872C112.634 29.872 112.09 30.104 111.69 30.568C111.29 31.016 111.09 31.616 111.09 32.368V40H107.226V32.296C107.226 31.576 107.034 30.992 106.65 30.544C106.282 30.096 105.762 29.872 105.09 29.872C104.386 29.872 103.834 30.104 103.434 30.568C103.034 31.016 102.834 31.616 102.834 32.368V40H98.9942ZM129.004 40.456C127.852 40.456 126.828 40.28 125.932 39.928C125.036 39.56 124.276 39.064 123.652 38.44C123.044 37.816 122.58 37.104 122.26 36.304C121.94 35.488 121.78 34.632 121.78 33.736V33.184C121.78 32.272 121.94 31.408 122.26 30.592C122.596 29.76 123.076 29.032 123.7 28.408C124.34 27.784 125.108 27.296 126.004 26.944C126.9 26.576 127.9 26.392 129.004 26.392C130.14 26.392 131.148 26.576 132.028 26.944C132.924 27.296 133.684 27.784 134.308 28.408C134.932 29.032 135.412 29.76 135.748 30.592C136.084 31.408 136.252 32.272 136.252 33.184V33.736C136.252 34.632 136.092 35.488 135.772 36.304C135.452 37.104 134.98 37.816 134.356 38.44C133.748 39.064 132.996 39.56 132.1 39.928C131.204 40.28 130.172 40.456 129.004 40.456ZM129.004 37.216C129.756 37.216 130.38 37.056 130.876 36.736C131.372 36.416 131.748 35.968 132.004 35.392C132.276 34.816 132.412 34.176 132.412 33.472C132.412 32.72 132.276 32.064 132.004 31.504C131.732 30.928 131.34 30.472 130.828 30.136C130.332 29.8 129.724 29.632 129.004 29.632C128.3 29.632 127.692 29.8 127.18 30.136C126.668 30.472 126.276 30.928 126.004 31.504C125.748 32.064 125.62 32.72 125.62 33.472C125.62 34.176 125.748 34.816 126.004 35.392C126.26 35.968 126.644 36.416 127.156 36.736C127.668 37.056 128.284 37.216 129.004 37.216ZM138.932 40V26.848H141.98V32.488H141.908C141.908 30.632 142.3 29.2 143.084 28.192C143.884 27.184 145.036 26.68 146.54 26.68H147.044V29.992H146.084C145.028 29.992 144.212 30.28 143.636 30.856C143.06 31.416 142.772 32.232 142.772 33.304V40H138.932ZM154.987 40.456C153.867 40.456 152.875 40.264 152.011 39.88C151.163 39.496 150.451 38.984 149.875 38.344C149.315 37.688 148.883 36.96 148.579 36.16C148.291 35.344 148.147 34.512 148.147 33.664V33.184C148.147 32.304 148.291 31.464 148.579 30.664C148.883 29.848 149.315 29.12 149.875 28.48C150.435 27.84 151.131 27.336 151.963 26.968C152.811 26.584 153.771 26.392 154.843 26.392C156.251 26.392 157.435 26.712 158.395 27.352C159.371 27.976 160.115 28.8 160.627 29.824C161.139 30.832 161.395 31.936 161.395 33.136V34.432H149.755V32.248H159.067L157.819 33.256C157.819 32.472 157.707 31.8 157.483 31.24C157.259 30.68 156.923 30.256 156.475 29.968C156.043 29.664 155.499 29.512 154.843 29.512C154.171 29.512 153.603 29.664 153.139 29.968C152.675 30.272 152.323 30.72 152.083 31.312C151.843 31.888 151.723 32.6 151.723 33.448C151.723 34.232 151.835 34.92 152.059 35.512C152.283 36.088 152.635 36.536 153.115 36.856C153.595 37.176 154.219 37.336 154.987 37.336C155.691 37.336 156.267 37.2 156.715 36.928C157.163 36.656 157.467 36.32 157.627 35.92H161.155C160.963 36.8 160.587 37.584 160.027 38.272C159.467 38.96 158.763 39.496 157.915 39.88C157.067 40.264 156.091 40.456 154.987 40.456ZM43.7741 72V68.112H43.1261V63.888C43.1261 63.216 42.9661 62.712 42.6461 62.376C42.3261 62.04 41.8141 61.872 41.1101 61.872C40.7581 61.872 40.2941 61.88 39.7181 61.896C39.1421 61.912 38.5501 61.936 37.9421 61.968C37.3341 62 36.7821 62.032 36.2861 62.064V58.824C36.6541 58.792 37.0861 58.76 37.5821 58.728C38.0781 58.696 38.5901 58.672 39.1181 58.656C39.6461 58.64 40.1421 58.632 40.6061 58.632C41.9501 58.632 43.0781 58.824 43.9901 59.208C44.9181 59.592 45.6221 60.176 46.1021 60.96C46.5821 61.728 46.8221 62.72 46.8221 63.936V72H43.7741ZM39.5741 72.336C38.6301 72.336 37.7981 72.168 37.0781 71.832C36.3741 71.496 35.8221 71.016 35.4221 70.392C35.0221 69.752 34.8221 68.992 34.8221 68.112C34.8221 67.152 35.0701 66.368 35.5661 65.76C36.0621 65.136 36.7581 64.68 37.6541 64.392C38.5501 64.088 39.5821 63.936 40.7501 63.936H43.5581V66.072H40.7261C40.0541 66.072 39.5341 66.24 39.1661 66.576C38.8141 66.896 38.6381 67.336 38.6381 67.896C38.6381 68.424 38.8141 68.856 39.1661 69.192C39.5341 69.512 40.0541 69.672 40.7261 69.672C41.1581 69.672 41.5421 69.6 41.8781 69.456C42.2301 69.296 42.5181 69.032 42.7421 68.664C42.9661 68.296 43.0941 67.784 43.1261 67.128L44.0381 68.088C43.9581 69 43.7341 69.768 43.3661 70.392C43.0141 71.016 42.5181 71.496 41.8781 71.832C41.2541 72.168 40.4861 72.336 39.5741 72.336ZM50.0801 72V58.848H53.1281V64.488H52.9121C52.9121 63.144 53.0801 62.024 53.4161 61.128C53.7681 60.232 54.2961 59.56 55.0001 59.112C55.7041 58.664 56.5601 58.44 57.5681 58.44H57.7361C59.2721 58.44 60.4401 58.944 61.2401 59.952C62.0561 60.944 62.4641 62.456 62.4641 64.488V72H58.6241V64.272C58.6241 63.568 58.4161 62.992 58.0001 62.544C57.5841 62.096 57.0241 61.872 56.3201 61.872C55.6001 61.872 55.0161 62.104 54.5681 62.568C54.1361 63.016 53.9201 63.608 53.9201 64.344V72H50.0801ZM71.1604 72.432C70.2324 72.432 69.3844 72.264 68.6164 71.928C67.8644 71.592 67.2084 71.128 66.6484 70.536C66.0884 69.928 65.6564 69.216 65.3524 68.4C65.0644 67.584 64.9204 66.704 64.9204 65.76V65.208C64.9204 64.264 65.0564 63.384 65.3284 62.568C65.6164 61.752 66.0244 61.04 66.5524 60.432C67.0964 59.808 67.7444 59.328 68.4964 58.992C69.2484 58.64 70.0884 58.464 71.0164 58.464C72.0724 58.464 72.9844 58.696 73.7524 59.16C74.5204 59.608 75.1204 60.28 75.5524 61.176C75.9844 62.056 76.2244 63.144 76.2724 64.44L75.2644 63.504V54.48H79.1284V72H76.0804V66.552H76.6084C76.5604 67.8 76.2964 68.864 75.8164 69.744C75.3524 70.624 74.7204 71.296 73.9204 71.76C73.1204 72.208 72.2004 72.432 71.1604 72.432ZM72.1204 69.216C72.7124 69.216 73.2484 69.088 73.7284 68.832C74.2244 68.56 74.6164 68.168 74.9044 67.656C75.2084 67.144 75.3604 66.528 75.3604 65.808V64.92C75.3604 64.216 75.2084 63.624 74.9044 63.144C74.6004 62.664 74.2004 62.296 73.7044 62.04C73.2084 61.784 72.6724 61.656 72.0964 61.656C71.4564 61.656 70.8804 61.824 70.3684 62.16C69.8724 62.48 69.4804 62.928 69.1924 63.504C68.9044 64.064 68.7604 64.72 68.7604 65.472C68.7604 66.24 68.9044 66.904 69.1924 67.464C69.4804 68.024 69.8804 68.456 70.3924 68.76C70.9044 69.064 71.4804 69.216 72.1204 69.216ZM88.2744 72V58.848H92.1144V72H88.2744ZM86.5224 61.68V58.848H92.1144V61.68H86.5224ZM89.7624 57.552C89.0424 57.552 88.5064 57.368 88.1544 57C87.8184 56.616 87.6504 56.136 87.6504 55.56C87.6504 54.968 87.8184 54.488 88.1544 54.12C88.5064 53.736 89.0424 53.544 89.7624 53.544C90.4824 53.544 91.0104 53.736 91.3464 54.12C91.6984 54.488 91.8744 54.968 91.8744 55.56C91.8744 56.136 91.6984 56.616 91.3464 57C91.0104 57.368 90.4824 57.552 89.7624 57.552ZM95.6661 72V58.848H98.7141V64.512H98.4981C98.4981 63.168 98.6661 62.048 99.0021 61.152C99.3381 60.256 99.8421 59.584 100.514 59.136C101.186 58.672 102.01 58.44 102.986 58.44H103.154C104.146 58.44 104.97 58.672 105.626 59.136C106.298 59.584 106.802 60.256 107.138 61.152C107.49 62.048 107.666 63.168 107.666 64.512H106.73C106.73 63.168 106.898 62.048 107.234 61.152C107.586 60.256 108.098 59.584 108.77 59.136C109.442 58.672 110.266 58.44 111.242 58.44H111.41C112.402 58.44 113.234 58.672 113.906 59.136C114.594 59.584 115.114 60.256 115.466 61.152C115.818 62.048 115.994 63.168 115.994 64.512V72H112.154V64.296C112.154 63.576 111.962 62.992 111.578 62.544C111.21 62.096 110.682 61.872 109.994 61.872C109.306 61.872 108.762 62.104 108.362 62.568C107.962 63.016 107.762 63.616 107.762 64.368V72H103.898V64.296C103.898 63.576 103.706 62.992 103.322 62.544C102.954 62.096 102.434 61.872 101.762 61.872C101.058 61.872 100.506 62.104 100.106 62.568C99.7061 63.016 99.5061 63.616 99.5061 64.368V72H95.6661ZM119.268 76.8V58.848H122.316V64.536L121.908 64.512C121.972 63.2 122.244 62.096 122.724 61.2C123.204 60.288 123.852 59.608 124.668 59.16C125.484 58.696 126.404 58.464 127.428 58.464C128.34 58.464 129.164 58.632 129.9 58.968C130.652 59.304 131.292 59.776 131.82 60.384C132.364 60.976 132.772 61.68 133.044 62.496C133.332 63.296 133.476 64.176 133.476 65.136V65.688C133.476 66.632 133.34 67.52 133.068 68.352C132.796 69.168 132.396 69.88 131.868 70.488C131.356 71.096 130.724 71.576 129.972 71.928C129.236 72.264 128.388 72.432 127.428 72.432C126.436 72.432 125.54 72.232 124.74 71.832C123.956 71.416 123.324 70.792 122.844 69.96C122.364 69.112 122.1 68.04 122.052 66.744L123.108 68.184V76.8H119.268ZM126.348 69.216C127.004 69.216 127.572 69.056 128.052 68.736C128.548 68.416 128.932 67.968 129.204 67.392C129.476 66.816 129.612 66.152 129.612 65.4C129.612 64.648 129.476 63.992 129.204 63.432C128.932 62.872 128.556 62.44 128.076 62.136C127.596 61.816 127.02 61.656 126.348 61.656C125.772 61.656 125.228 61.792 124.716 62.064C124.204 62.336 123.788 62.728 123.468 63.24C123.164 63.736 123.012 64.344 123.012 65.064V65.952C123.012 66.64 123.172 67.232 123.492 67.728C123.828 68.208 124.252 68.576 124.764 68.832C125.276 69.088 125.804 69.216 126.348 69.216ZM136.143 72V58.848H139.191V64.488H139.119C139.119 62.632 139.511 61.2 140.295 60.192C141.095 59.184 142.247 58.68 143.751 58.68H144.255V61.992H143.295C142.239 61.992 141.423 62.28 140.847 62.856C140.271 63.416 139.983 64.232 139.983 65.304V72H136.143ZM152.582 72.456C151.43 72.456 150.406 72.28 149.51 71.928C148.614 71.56 147.854 71.064 147.23 70.44C146.622 69.816 146.158 69.104 145.838 68.304C145.518 67.488 145.358 66.632 145.358 65.736V65.184C145.358 64.272 145.518 63.408 145.838 62.592C146.174 61.76 146.654 61.032 147.278 60.408C147.918 59.784 148.686 59.296 149.582 58.944C150.478 58.576 151.478 58.392 152.582 58.392C153.718 58.392 154.726 58.576 155.606 58.944C156.502 59.296 157.262 59.784 157.886 60.408C158.51 61.032 158.99 61.76 159.326 62.592C159.662 63.408 159.83 64.272 159.83 65.184V65.736C159.83 66.632 159.67 67.488 159.35 68.304C159.03 69.104 158.558 69.816 157.934 70.44C157.326 71.064 156.574 71.56 155.678 71.928C154.782 72.28 153.75 72.456 152.582 72.456ZM152.582 69.216C153.334 69.216 153.958 69.056 154.454 68.736C154.95 68.416 155.326 67.968 155.582 67.392C155.854 66.816 155.99 66.176 155.99 65.472C155.99 64.72 155.854 64.064 155.582 63.504C155.31 62.928 154.918 62.472 154.406 62.136C153.91 61.8 153.302 61.632 152.582 61.632C151.878 61.632 151.27 61.8 150.758 62.136C150.246 62.472 149.854 62.928 149.582 63.504C149.326 64.064 149.198 64.72 149.198 65.472C149.198 66.176 149.326 66.816 149.582 67.392C149.838 67.968 150.222 68.416 150.734 68.736C151.246 69.056 151.862 69.216 152.582 69.216ZM164.749 72L160.813 58.848H164.773L168.469 72H164.749ZM165.949 72V68.808H169.813V72H165.949ZM167.365 72L170.557 58.848H174.253L170.845 72H167.365ZM182.245 72.456C181.125 72.456 180.133 72.264 179.269 71.88C178.421 71.496 177.709 70.984 177.133 70.344C176.573 69.688 176.141 68.96 175.837 68.16C175.549 67.344 175.405 66.512 175.405 65.664V65.184C175.405 64.304 175.549 63.464 175.837 62.664C176.141 61.848 176.573 61.12 177.133 60.48C177.693 59.84 178.389 59.336 179.221 58.968C180.069 58.584 181.029 58.392 182.101 58.392C183.509 58.392 184.693 58.712 185.653 59.352C186.629 59.976 187.373 60.8 187.885 61.824C188.397 62.832 188.653 63.936 188.653 65.136V66.432H177.013V64.248H186.325L185.077 65.256C185.077 64.472 184.965 63.8 184.741 63.24C184.517 62.68 184.181 62.256 183.733 61.968C183.301 61.664 182.757 61.512 182.101 61.512C181.429 61.512 180.861 61.664 180.397 61.968C179.933 62.272 179.581 62.72 179.341 63.312C179.101 63.888 178.981 64.6 178.981 65.448C178.981 66.232 179.093 66.92 179.317 67.512C179.541 68.088 179.893 68.536 180.373 68.856C180.853 69.176 181.477 69.336 182.245 69.336C182.949 69.336 183.525 69.2 183.973 68.928C184.421 68.656 184.725 68.32 184.885 67.92H188.413C188.221 68.8 187.845 69.584 187.285 70.272C186.725 70.96 186.021 71.496 185.173 71.88C184.325 72.264 183.349 72.456 182.245 72.456Z" fill="#3E4852"/>
<rect x="48" y="136" width="126" height="56" rx="12" fill="#E20074"/>
<path d="M92.91 163.12C92.91 168.01 89.36 172.59 84.51 173.93C84.18 174.02 83.82 174.02 83.49 173.93C78.64 172.59 75.09 168.01 75.09 163.12V158.73C75.09 157.91 75.71 156.98 76.48 156.67L82.05 154.39C83.3 153.88 84.71 153.88 85.96 154.39L91.53 156.67C92.29 156.98 92.92 157.91 92.92 158.73L92.91 163.12Z" stroke="white" stroke-width="2" stroke-linecap="round" stroke-linejoin="round"/>
<path d="M84 164.5C85.1046 164.5 86 163.605 86 162.5C86 161.395 85.1046 160.5 84 160.5C82.8954 160.5 82 161.395 82 162.5C82 163.605 82.8954 164.5 84 164.5Z" stroke="white" stroke-width="2" stroke-miterlimit="10" stroke-linecap="round" stroke-linejoin="round"/>
<path d="M84 164.5V167.5" stroke="white" stroke-width="2" stroke-miterlimit="10" stroke-linecap="round" stroke-linejoin="round"/>
<path d="M105.312 169V157.32H107.936V169H105.312ZM107.616 169V166.696H112.512V169H107.616ZM117.997 169.304C117.25 169.304 116.589 169.176 116.013 168.92C115.447 168.664 114.973 168.323 114.589 167.896C114.215 167.459 113.927 166.973 113.725 166.44C113.533 165.896 113.437 165.341 113.437 164.776V164.456C113.437 163.869 113.533 163.309 113.725 162.776C113.927 162.232 114.215 161.747 114.589 161.32C114.962 160.893 115.426 160.557 115.981 160.312C116.546 160.056 117.186 159.928 117.901 159.928C118.839 159.928 119.629 160.141 120.269 160.568C120.919 160.984 121.415 161.533 121.757 162.216C122.098 162.888 122.269 163.624 122.269 164.424V165.288H114.509V163.832H120.717L119.885 164.504C119.885 163.981 119.81 163.533 119.661 163.16C119.511 162.787 119.287 162.504 118.989 162.312C118.701 162.109 118.338 162.008 117.901 162.008C117.453 162.008 117.074 162.109 116.765 162.312C116.455 162.515 116.221 162.813 116.061 163.208C115.901 163.592 115.821 164.067 115.821 164.632C115.821 165.155 115.895 165.613 116.045 166.008C116.194 166.392 116.429 166.691 116.749 166.904C117.069 167.117 117.485 167.224 117.997 167.224C118.466 167.224 118.85 167.133 119.149 166.952C119.447 166.771 119.65 166.547 119.757 166.28H122.109C121.981 166.867 121.73 167.389 121.357 167.848C120.983 168.307 120.514 168.664 119.949 168.92C119.383 169.176 118.733 169.304 117.997 169.304ZM129.261 169V166.408H128.829V163.592C128.829 163.144 128.722 162.808 128.509 162.584C128.296 162.36 127.954 162.248 127.485 162.248C127.25 162.248 126.941 162.253 126.557 162.264C126.173 162.275 125.778 162.291 125.373 162.312C124.968 162.333 124.6 162.355 124.269 162.376V160.216C124.514 160.195 124.802 160.173 125.133 160.152C125.464 160.131 125.805 160.115 126.157 160.104C126.509 160.093 126.84 160.088 127.149 160.088C128.045 160.088 128.797 160.216 129.405 160.472C130.024 160.728 130.493 161.117 130.813 161.64C131.133 162.152 131.293 162.813 131.293 163.624V169H129.261ZM126.461 169.224C125.832 169.224 125.277 169.112 124.797 168.888C124.328 168.664 123.96 168.344 123.693 167.928C123.426 167.501 123.293 166.995 123.293 166.408C123.293 165.768 123.458 165.245 123.789 164.84C124.12 164.424 124.584 164.12 125.181 163.928C125.778 163.725 126.466 163.624 127.245 163.624H129.117V165.048H127.229C126.781 165.048 126.434 165.16 126.189 165.384C125.954 165.597 125.837 165.891 125.837 166.264C125.837 166.616 125.954 166.904 126.189 167.128C126.434 167.341 126.781 167.448 127.229 167.448C127.517 167.448 127.773 167.4 127.997 167.304C128.232 167.197 128.424 167.021 128.573 166.776C128.722 166.531 128.808 166.189 128.829 165.752L129.437 166.392C129.384 167 129.234 167.512 128.989 167.928C128.754 168.344 128.424 168.664 127.997 168.888C127.581 169.112 127.069 169.224 126.461 169.224ZM133.465 169V160.232H135.497V163.992H135.449C135.449 162.755 135.71 161.8 136.233 161.128C136.766 160.456 137.534 160.12 138.537 160.12H138.873V162.328H138.233C137.529 162.328 136.985 162.52 136.601 162.904C136.217 163.277 136.025 163.821 136.025 164.536V169H133.465ZM140.199 169V160.232H142.231V163.992H142.087C142.087 163.096 142.199 162.349 142.423 161.752C142.658 161.155 143.01 160.707 143.479 160.408C143.949 160.109 144.519 159.96 145.191 159.96H145.303C146.327 159.96 147.106 160.296 147.639 160.968C148.183 161.629 148.455 162.637 148.455 163.992V169H145.895V163.848C145.895 163.379 145.757 162.995 145.479 162.696C145.202 162.397 144.829 162.248 144.359 162.248C143.879 162.248 143.49 162.403 143.191 162.712C142.903 163.011 142.759 163.405 142.759 163.896V169H140.199Z" fill="white"/>
<path d="M262.729 54.8C260.382 54.8 258.329 54.36 256.569 53.48C254.835 52.5733 253.489 51.36 252.529 49.84C251.569 48.32 251.089 46.6133 251.089 44.72H258.289C258.289 45.52 258.475 46.2133 258.849 46.8C259.249 47.3867 259.795 47.84 260.489 48.16C261.182 48.48 261.955 48.64 262.809 48.64C263.769 48.64 264.582 48.44 265.249 48.04C265.942 47.64 266.462 47.0933 266.809 46.4C267.155 45.7067 267.329 44.92 267.329 44.04C267.329 43.16 267.155 42.3733 266.809 41.68C266.462 40.9867 265.955 40.44 265.289 40.04C264.622 39.64 263.822 39.44 262.889 39.44C261.902 39.44 261.035 39.6533 260.289 40.08C259.569 40.48 259.062 40.9867 258.769 41.6H251.729L253.209 24.8H272.089V31.2H256.169L258.969 29.4L258.169 38.24L256.729 37.84C257.262 37.1467 257.849 36.5333 258.489 36C259.155 35.44 259.942 35 260.849 34.68C261.782 34.3333 262.929 34.16 264.289 34.16C266.369 34.16 268.169 34.5867 269.689 35.44C271.235 36.2667 272.422 37.4133 273.249 38.88C274.102 40.32 274.529 41.9733 274.529 43.84V44.32C274.529 46.1867 274.062 47.92 273.129 49.52C272.222 51.0933 270.889 52.3733 269.129 53.36C267.369 54.32 265.235 54.8 262.729 54.8Z" fill="#3E4852"/>
</svg>
