<svg width="1440" height="1040" viewBox="0 0 1440 1040" fill="none" xmlns="http://www.w3.org/2000/svg">
<path d="M714.685 -242.5C385.209 -242.5 107.5 -10.9197 107.5 286.788C107.5 467.481 159.2 653.891 260.946 795.141C362.7 936.404 514.514 1032.5 714.685 1032.5C1141.99 1032.5 1432.5 672.628 1432.5 286.787C1432.5 123.301 1343.46 -9.03545 1209.23 -100.481C1075 -191.922 895.574 -242.5 714.685 -242.5Z" stroke="#3E4852" stroke-opacity="0.2"/>
<path d="M706.028 -334.5C295.651 -334.5 7.49996 27.2266 7.49998 423.381C7.49998 595.001 93.3334 735.794 223.557 833.667C353.774 931.534 528.389 986.5 706.028 986.5C1042.49 986.5 1340.5 748.422 1340.5 423.381C1340.5 233.128 1280.44 43.6722 1171.11 -98.2306C1061.77 -240.142 903.134 -334.5 706.028 -334.5Z" stroke="#3E4852" stroke-opacity="0.2"/>
<path d="M788.817 -392.5C432.141 -392.5 179.5 -68.2331 179.5 289.039C179.5 634.853 443.654 930.5 788.817 930.5C948.885 930.5 1076.82 850.266 1164.72 729.975C1252.62 609.692 1300.5 449.345 1300.5 289.039C1300.5 122.56 1255.71 -47.8009 1169.36 -176.558C1083.01 -305.325 955.071 -392.5 788.817 -392.5Z" stroke="#3E4852" stroke-opacity="0.2"/>
<path d="M723.613 -138.5C481.98 -138.5 297.5 68.2904 297.5 309.676C297.5 444.645 336.436 580.831 409.162 683.288C481.894 785.755 588.439 854.5 723.613 854.5C1008.12 854.5 1206.5 593.81 1206.5 309.676C1206.5 52.4478 980.938 -138.5 723.613 -138.5Z" stroke="#3E4852" stroke-opacity="0.2"/>
</svg>
