<?xml version="1.0" encoding="utf-8"?>
<svg width="1920" height="1200" viewBox="0 0 1920 1200" fill="none" xmlns="http://www.w3.org/2000/svg">
  <g clip-path="url(#clip0_1167_55799)">
    <rect width="1920" height="1200" fill="#F8F9FA" x="4.1" y="5.467"/>
    <path d="M1920 4.51952e-05V279.023C1613.16 357.997 1291.49 400 960 400C628.512 400 306.835 357.997 0 279.023V0L1920 4.51952e-05Z" fill="white"/>
    <path d="M1682.5 314.685C1682.5 -14.7914 1450.92 -292.5 1153.21 -292.5C972.519 -292.5 786.109 -240.8 644.859 -139.054C503.596 -37.2998 407.5 114.514 407.5 314.685C407.5 741.993 767.372 1032.5 1153.21 1032.5C1316.7 1032.5 1449.04 943.455 1540.48 809.227C1631.92 675.004 1682.5 495.574 1682.5 314.685Z" stroke="#3E4852" stroke-opacity="0.2"/>
    <path d="M1774.5 306.028C1774.5 -104.349 1412.77 -392.5 1016.62 -392.5C844.999 -392.5 704.206 -306.667 606.333 -176.443C508.466 -46.2259 453.5 128.389 453.5 306.028C453.5 642.493 691.578 940.5 1016.62 940.5C1206.87 940.5 1396.33 880.442 1538.23 771.107C1680.14 661.766 1774.5 503.134 1774.5 306.028Z" stroke="#3E4852" stroke-opacity="0.2"/>
    <path d="M1832.5 388.817C1832.5 32.1406 1508.23 -220.5 1150.96 -220.5C805.147 -220.5 509.5 43.6541 509.5 388.817C509.5 548.885 589.734 676.821 710.025 764.723C830.308 852.619 990.655 900.5 1150.96 900.5C1317.44 900.5 1487.8 855.711 1616.56 769.364C1745.33 683.01 1832.5 555.072 1832.5 388.817Z" stroke="#3E4852" stroke-opacity="0.2"/>
    <path d="M1578.5 323.613C1578.5 81.9801 1371.71 -102.5 1130.32 -102.5C995.355 -102.5 859.169 -63.5642 756.712 9.16178C654.245 81.8945 585.5 188.439 585.5 323.613C585.5 608.118 846.19 806.5 1130.32 806.5C1387.55 806.5 1578.5 580.938 1578.5 323.613Z" stroke="#3E4852" stroke-opacity="0.2"/>
    <path d="M1114.69 -242.5C785.209 -242.5 507.5 -10.9196 507.5 286.788C507.5 467.481 559.2 653.891 660.946 795.141C762.7 936.404 914.514 1032.5 1114.69 1032.5C1541.99 1032.5 1832.5 672.628 1832.5 286.788C1832.5 123.302 1743.46 -9.03533 1609.23 -100.481C1475 -191.921 1295.57 -242.5 1114.69 -242.5Z" stroke="#3E4852" stroke-opacity="0.2"/>
    <path d="M1106.03 -334.5C695.651 -334.5 407.5 27.2267 407.5 423.382C407.5 595.001 493.333 735.794 623.557 833.667C753.774 931.535 928.389 986.5 1106.03 986.5C1442.49 986.5 1740.5 748.422 1740.5 423.382C1740.5 233.128 1680.44 43.6723 1571.11 -98.2305C1461.77 -240.142 1303.13 -334.5 1106.03 -334.5Z" stroke="#3E4852" stroke-opacity="0.2"/>
    <path d="M1188.82 -392.5C832.141 -392.5 579.5 -68.233 579.5 289.04C579.5 634.853 843.654 930.5 1188.82 930.5C1348.89 930.5 1476.82 850.266 1564.72 729.975C1652.62 609.692 1700.5 449.345 1700.5 289.04C1700.5 122.56 1655.71 -47.8008 1569.36 -176.558C1483.01 -305.325 1355.07 -392.5 1188.82 -392.5Z" stroke="#3E4852" stroke-opacity="0.2"/>
    <path d="M1123.61 -138.5C881.98 -138.5 697.5 68.2904 697.5 309.676C697.5 444.645 736.436 580.831 809.162 683.288C881.894 785.755 988.439 854.5 1123.61 854.5C1408.12 854.5 1606.5 593.81 1606.5 309.676C1606.5 52.4478 1380.94 -138.5 1123.61 -138.5Z" stroke="#3E4852" stroke-opacity="0.2"/>
    <path d="M482.5 1394.69C482.5 1065.21 250.92 787.5 -46.7875 787.5C-227.481 787.5 -413.891 839.2 -555.141 940.946C-696.404 1042.7 -792.5 1194.51 -792.5 1394.69C-792.5 1821.99 -432.628 2112.5 -46.7875 2112.5C116.698 2112.5 249.035 2023.46 340.481 1889.23C431.922 1755 482.5 1575.57 482.5 1394.69Z" stroke="#3E4852" stroke-opacity="0.2"/>
    <path d="M574.5 1386.03C574.5 975.651 212.773 687.5 -183.381 687.5C-355.001 687.5 -495.794 773.333 -593.667 903.557C-691.534 1033.77 -746.5 1208.39 -746.5 1386.03C-746.5 1722.49 -508.422 2020.5 -183.381 2020.5C6.87225 2020.5 196.328 1960.44 338.231 1851.11C480.142 1741.77 574.5 1583.13 574.5 1386.03Z" stroke="#3E4852" stroke-opacity="0.2"/>
    <path d="M632.5 1468.82C632.5 1112.14 308.233 859.5 -49.0394 859.5C-394.853 859.5 -690.5 1123.65 -690.5 1468.82C-690.5 1628.89 -610.266 1756.82 -489.975 1844.72C-369.692 1932.62 -209.345 1980.5 -49.0394 1980.5C117.44 1980.5 287.801 1935.71 416.558 1849.36C545.325 1763.01 632.5 1635.07 632.5 1468.82Z" stroke="#3E4852" stroke-opacity="0.2"/>
    <path d="M378.5 1403.61C378.5 1161.98 171.71 977.5 -69.6758 977.5C-204.645 977.5 -340.831 1016.44 -443.288 1089.16C-545.755 1161.89 -614.5 1268.44 -614.5 1403.61C-614.5 1688.12 -353.81 1886.5 -69.6758 1886.5C187.552 1886.5 378.5 1660.94 378.5 1403.61Z" stroke="#3E4852" stroke-opacity="0.2"/>
    <path d="M-85.315 837.5C-414.791 837.5 -692.5 1069.08 -692.5 1366.79C-692.5 1547.48 -640.8 1733.89 -539.054 1875.14C-437.3 2016.4 -285.486 2112.5 -85.3149 2112.5C341.993 2112.5 632.5 1752.63 632.5 1366.79C632.5 1203.3 543.455 1070.96 409.227 979.519C275.004 888.078 95.5742 837.5 -85.315 837.5Z" stroke="#3E4852" stroke-opacity="0.2"/>
    <path d="M-93.9717 745.5C-504.349 745.5 -792.5 1107.23 -792.5 1503.38C-792.5 1675 -706.667 1815.79 -576.443 1913.67C-446.226 2011.53 -271.611 2066.5 -93.9716 2066.5C242.493 2066.5 540.5 1828.42 540.5 1503.38C540.5 1313.13 480.442 1123.67 371.107 981.769C261.765 839.858 103.134 745.5 -93.9717 745.5Z" stroke="#3E4852" stroke-opacity="0.2"/>
    <path d="M-11.1828 687.5C-367.859 687.5 -620.5 1011.77 -620.5 1369.04C-620.5 1714.85 -356.346 2010.5 -11.1827 2010.5C148.885 2010.5 276.821 1930.27 364.723 1809.97C452.619 1689.69 500.5 1529.34 500.5 1369.04C500.5 1202.56 455.711 1032.2 369.364 903.442C283.009 774.675 155.071 687.5 -11.1828 687.5Z" stroke="#3E4852" stroke-opacity="0.2"/>
    <path d="M-76.3869 941.5C-318.02 941.5 -502.5 1148.29 -502.5 1389.68C-502.5 1524.65 -463.564 1660.83 -390.838 1763.29C-318.106 1865.75 -211.561 1934.5 -76.3868 1934.5C208.118 1934.5 406.5 1673.81 406.5 1389.68C406.5 1132.45 180.938 941.5 -76.3869 941.5Z" stroke="#3E4852" stroke-opacity="0.2"/>
  </g>
  <defs>
    <clipPath id="clip0_1167_55799">
      <rect width="1920" height="1200" fill="white"/>
    </clipPath>
  </defs>
</svg>