<svg width="90" height="72" viewBox="0 0 90 72" fill="none" xmlns="http://www.w3.org/2000/svg">
<path d="M4.67187 69.5229L6.88519 66.4931V71.8014H8.87811V63.215H7.13043L4.42662 66.8656L1.75692 63.215H0V71.8014H2.00217V66.4713L4.17516 69.5229H4.67187Z" fill="#0C0644"/>
<path d="M17.5552 68.638H19.9859C19.7717 69.6438 19.0267 70.2802 17.636 70.2802C16.1521 70.2802 14.9414 69.0819 14.9414 67.5019C14.9414 65.9156 16.1521 64.7235 17.636 64.7235C18.5083 64.7235 19.2408 65.1209 19.7033 65.6889L21.0102 64.3634C20.1193 63.4849 18.9429 62.9976 17.636 62.9976C15.0408 62.9976 12.9453 64.9936 12.9453 67.4957C12.9453 69.9915 15.0408 72 17.636 72C20.2249 72 22.1092 70.066 21.9758 67.1914H17.5614L17.5552 68.638Z" fill="#0C0644"/>
<path d="M28.0336 67.2878V64.9316H30.0233C30.6814 64.9316 31.2061 65.4314 31.2061 66.1175C31.2061 66.819 30.6814 67.2878 30.0233 67.2878H28.0336ZM33.4163 71.8014L31.6035 68.7096C32.5875 68.2594 33.2084 67.3374 33.2084 66.1175C33.2084 64.3884 31.9138 63.215 30.1071 63.215H26.0312V71.8014H28.0336V69.0044H29.6198L31.116 71.8014H33.4163Z" fill="#0C0644"/>
<path d="M39.9189 63.215H37.917V71.8042H39.9189V63.215Z" fill="#0C0644"/>
<path d="M52.2441 63.215H50.2512V68.3494L46.1566 63.215H44.415V71.8014H46.4143V66.6545L50.5151 71.8014H52.2441V63.215Z" fill="#0C0644"/>
<path d="M58.7455 70.0847V64.9316H63.3026C65.0721 64.9316 65.9256 65.9436 65.9256 67.5268C65.9256 69.169 64.9944 70.0847 63.3026 70.0847H58.7455ZM56.7432 71.8014H63.3522C66.2919 71.8014 67.928 70.0599 67.928 67.502C67.928 64.7112 65.9504 63.215 63.3335 63.215H56.7432V71.8014Z" fill="#0C0644"/>
<path d="M71.9775 71.8014H78.0836V70.0847H73.9797V68.4115H77.4534V66.6948H73.9797V64.9379H78.0277V63.215H71.9775V71.8014Z" fill="#0C0644"/>
<path d="M84.5862 67.2878V64.9316H86.576C87.2341 64.9316 87.7588 65.4314 87.7588 66.1175C87.7588 66.819 87.2341 67.2878 86.576 67.2878H84.5862ZM89.9691 71.8014L88.1561 68.7096C89.1401 68.2594 89.761 67.3374 89.761 66.1175C89.761 64.3884 88.4634 63.215 86.6599 63.215H82.584V71.8014H84.5862V69.0044H86.1725L87.6688 71.8014H89.9691Z" fill="#0C0644"/>
<path fill-rule="evenodd" clip-rule="evenodd" d="M89.9981 0H0V53.9989H89.9981V0ZM67.4986 34.6327C65.2703 37.387 61.8647 39.1492 58.0488 39.1492C51.3421 39.1492 45.8991 33.705 45.8991 26.9994C45.8991 20.2935 51.3421 14.8497 58.0488 14.8497C62.8835 14.8497 67.0594 17.6782 69.0178 21.7684L63.8195 23.5003C62.6351 21.5517 60.4932 20.2496 58.0488 20.2496C54.3229 20.2496 51.2989 23.2739 51.2989 26.9994C51.2989 30.7246 54.3229 33.7493 58.0488 33.7493C60.5436 33.7493 62.7287 32.3911 63.8951 30.3744H59.3988V26.3245H71.5485V38.4742H67.4986V34.6327ZM18.4496 38.4742H23.8495V26.3245L29.2494 31.7243H31.9493L37.3492 26.3245V38.4742H42.7491V15.5247H40.0492L30.5994 24.9745L21.1496 15.5247H18.4496V38.4742Z" fill="#0C0644"/>
</svg>

