<svg width="300" height="216" viewBox="0 0 300 216" fill="none" xmlns="http://www.w3.org/2000/svg">
<path d="M25.968 40V22.48H31.392L35.4 32.32H35.856L39.816 22.48H45.336V40H41.448V25.048L42 25.096L37.368 36.448H33.624L28.968 25.096L29.568 25.048V40H25.968ZM49.6729 40V26.848H53.5129V40H49.6729ZM47.9209 29.68V26.848H53.5129V29.68H47.9209ZM51.1609 25.552C50.4409 25.552 49.9049 25.368 49.5529 25C49.2169 24.616 49.0489 24.136 49.0489 23.56C49.0489 22.968 49.2169 22.488 49.5529 22.12C49.9049 21.736 50.4409 21.544 51.1609 21.544C51.8809 21.544 52.4089 21.736 52.7449 22.12C53.0969 22.488 53.2729 22.968 53.2729 23.56C53.2729 24.136 53.0969 24.616 52.7449 25C52.4089 25.368 51.8809 25.552 51.1609 25.552ZM63.0405 40.168C61.7125 40.168 60.6405 40.008 59.8245 39.688C59.0085 39.352 58.4085 38.8 58.0245 38.032C57.6565 37.248 57.4725 36.192 57.4725 34.864V23.296H61.0485V35.008C61.0485 35.632 61.2085 36.112 61.5285 36.448C61.8645 36.768 62.3365 36.928 62.9445 36.928H64.8885V40.168H63.0405ZM55.4805 29.656V26.848H64.8885V29.656H55.4805ZM68.0948 40V26.848H71.9348V40H68.0948ZM66.3428 29.68V26.848H71.9348V29.68H66.3428ZM69.5828 25.552C68.8628 25.552 68.3268 25.368 67.9748 25C67.6388 24.616 67.4708 24.136 67.4708 23.56C67.4708 22.968 67.6388 22.488 67.9748 22.12C68.3268 21.736 68.8628 21.544 69.5828 21.544C70.3028 21.544 70.8308 21.736 71.1668 22.12C71.5188 22.488 71.6948 22.968 71.6948 23.56C71.6948 24.136 71.5188 24.616 71.1668 25C70.8308 25.368 70.3028 25.552 69.5828 25.552ZM80.6704 45.232C80.0304 45.232 79.3744 45.208 78.7024 45.16C78.0304 45.112 77.4144 45.048 76.8544 44.968V41.728C77.4144 41.808 78.0304 41.872 78.7024 41.92C79.3904 41.984 80.0144 42.016 80.5744 42.016C81.6144 42.016 82.4544 41.896 83.0944 41.656C83.7504 41.416 84.2304 41.048 84.5344 40.552C84.8384 40.072 84.9904 39.448 84.9904 38.68V36.064L85.6864 34.528C85.6544 35.696 85.4224 36.696 84.9904 37.528C84.5744 38.36 83.9904 39 83.2384 39.448C82.4864 39.88 81.5904 40.096 80.5504 40.096C79.6544 40.096 78.8384 39.936 78.1024 39.616C77.3824 39.28 76.7664 38.816 76.2544 38.224C75.7424 37.632 75.3504 36.944 75.0784 36.16C74.8064 35.36 74.6704 34.496 74.6704 33.568V33.016C74.6704 32.088 74.8144 31.224 75.1024 30.424C75.3904 29.624 75.8064 28.928 76.3504 28.336C76.8944 27.744 77.5424 27.288 78.2944 26.968C79.0464 26.632 79.8784 26.464 80.7904 26.464C81.8464 26.464 82.7584 26.696 83.5264 27.16C84.3104 27.624 84.9264 28.304 85.3744 29.2C85.8224 30.096 86.0624 31.176 86.0944 32.44L85.5664 32.584V26.848H88.6144V38.44C88.6144 40.056 88.3264 41.36 87.7504 42.352C87.1744 43.344 86.2944 44.072 85.1104 44.536C83.9424 45 82.4624 45.232 80.6704 45.232ZM81.7504 36.856C82.3424 36.856 82.8784 36.728 83.3584 36.472C83.8384 36.2 84.2144 35.816 84.4864 35.32C84.7744 34.824 84.9184 34.224 84.9184 33.52V32.824C84.9184 32.136 84.7664 31.56 84.4624 31.096C84.1744 30.616 83.7904 30.256 83.3104 30.016C82.8304 29.76 82.3184 29.632 81.7744 29.632C81.1344 29.632 80.5664 29.784 80.0704 30.088C79.5744 30.392 79.1904 30.816 78.9184 31.36C78.6464 31.904 78.5104 32.544 78.5104 33.28C78.5104 34.032 78.6464 34.68 78.9184 35.224C79.2064 35.752 79.5904 36.16 80.0704 36.448C80.5664 36.72 81.1264 36.856 81.7504 36.856ZM99.8835 40V36.112H99.2355V31.888C99.2355 31.216 99.0755 30.712 98.7555 30.376C98.4355 30.04 97.9235 29.872 97.2195 29.872C96.8675 29.872 96.4035 29.88 95.8275 29.896C95.2515 29.912 94.6595 29.936 94.0515 29.968C93.4435 30 92.8915 30.032 92.3955 30.064V26.824C92.7635 26.792 93.1955 26.76 93.6915 26.728C94.1875 26.696 94.6995 26.672 95.2275 26.656C95.7555 26.64 96.2515 26.632 96.7155 26.632C98.0595 26.632 99.1875 26.824 100.1 27.208C101.028 27.592 101.732 28.176 102.212 28.96C102.692 29.728 102.932 30.72 102.932 31.936V40H99.8835ZM95.6835 40.336C94.7395 40.336 93.9075 40.168 93.1875 39.832C92.4835 39.496 91.9315 39.016 91.5315 38.392C91.1315 37.752 90.9315 36.992 90.9315 36.112C90.9315 35.152 91.1795 34.368 91.6755 33.76C92.1715 33.136 92.8675 32.68 93.7635 32.392C94.6595 32.088 95.6915 31.936 96.8595 31.936H99.6675V34.072H96.8355C96.1635 34.072 95.6435 34.24 95.2755 34.576C94.9235 34.896 94.7475 35.336 94.7475 35.896C94.7475 36.424 94.9235 36.856 95.2755 37.192C95.6435 37.512 96.1635 37.672 96.8355 37.672C97.2675 37.672 97.6515 37.6 97.9875 37.456C98.3395 37.296 98.6275 37.032 98.8515 36.664C99.0755 36.296 99.2035 35.784 99.2355 35.128L100.148 36.088C100.068 37 99.8435 37.768 99.4755 38.392C99.1235 39.016 98.6275 39.496 97.9875 39.832C97.3635 40.168 96.5955 40.336 95.6835 40.336ZM112.166 40.168C110.838 40.168 109.766 40.008 108.95 39.688C108.134 39.352 107.534 38.8 107.15 38.032C106.782 37.248 106.598 36.192 106.598 34.864V23.296H110.174V35.008C110.174 35.632 110.334 36.112 110.654 36.448C110.99 36.768 111.462 36.928 112.07 36.928H114.014V40.168H112.166ZM104.606 29.656V26.848H114.014V29.656H104.606ZM122.573 40.456C121.453 40.456 120.461 40.264 119.597 39.88C118.749 39.496 118.037 38.984 117.461 38.344C116.901 37.688 116.469 36.96 116.165 36.16C115.877 35.344 115.733 34.512 115.733 33.664V33.184C115.733 32.304 115.877 31.464 116.165 30.664C116.469 29.848 116.901 29.12 117.461 28.48C118.021 27.84 118.717 27.336 119.549 26.968C120.397 26.584 121.357 26.392 122.429 26.392C123.837 26.392 125.021 26.712 125.981 27.352C126.957 27.976 127.701 28.8 128.213 29.824C128.725 30.832 128.981 31.936 128.981 33.136V34.432H117.341V32.248H126.653L125.405 33.256C125.405 32.472 125.293 31.8 125.069 31.24C124.845 30.68 124.509 30.256 124.061 29.968C123.629 29.664 123.085 29.512 122.429 29.512C121.757 29.512 121.189 29.664 120.725 29.968C120.261 30.272 119.909 30.72 119.669 31.312C119.429 31.888 119.309 32.6 119.309 33.448C119.309 34.232 119.421 34.92 119.645 35.512C119.869 36.088 120.221 36.536 120.701 36.856C121.181 37.176 121.805 37.336 122.573 37.336C123.277 37.336 123.853 37.2 124.301 36.928C124.749 36.656 125.053 36.32 125.213 35.92H128.741C128.549 36.8 128.173 37.584 127.613 38.272C127.053 38.96 126.349 39.496 125.501 39.88C124.653 40.264 123.677 40.456 122.573 40.456ZM35.6861 77.208V73.944H38.4221C38.8381 73.944 39.1901 73.888 39.4781 73.776C39.7661 73.68 39.9981 73.512 40.1741 73.272C40.3501 73.032 40.4941 72.704 40.6061 72.288L43.8461 58.848H47.4941L43.8221 73.056C43.5661 74.08 43.2061 74.896 42.7421 75.504C42.2941 76.112 41.6861 76.544 40.9181 76.8C40.1661 77.072 39.2061 77.208 38.0381 77.208H35.6861ZM39.8141 71.712V68.712H42.5981V71.712H39.8141ZM38.2301 71.712L34.1981 58.848H38.0621L41.8781 71.712H38.2301ZM55.6209 72.456C54.4689 72.456 53.4449 72.28 52.5489 71.928C51.6529 71.56 50.8929 71.064 50.2689 70.44C49.6609 69.816 49.1969 69.104 48.8769 68.304C48.5569 67.488 48.3969 66.632 48.3969 65.736V65.184C48.3969 64.272 48.5569 63.408 48.8769 62.592C49.2129 61.76 49.6929 61.032 50.3169 60.408C50.9569 59.784 51.7249 59.296 52.6209 58.944C53.5169 58.576 54.5169 58.392 55.6209 58.392C56.7569 58.392 57.7649 58.576 58.6449 58.944C59.5409 59.296 60.3009 59.784 60.9249 60.408C61.5489 61.032 62.0289 61.76 62.3649 62.592C62.7009 63.408 62.8689 64.272 62.8689 65.184V65.736C62.8689 66.632 62.7089 67.488 62.3889 68.304C62.0689 69.104 61.5969 69.816 60.9729 70.44C60.3649 71.064 59.6129 71.56 58.7169 71.928C57.8209 72.28 56.7889 72.456 55.6209 72.456ZM55.6209 69.216C56.3729 69.216 56.9969 69.056 57.4929 68.736C57.9889 68.416 58.3649 67.968 58.6209 67.392C58.8929 66.816 59.0289 66.176 59.0289 65.472C59.0289 64.72 58.8929 64.064 58.6209 63.504C58.3489 62.928 57.9569 62.472 57.4449 62.136C56.9489 61.8 56.3409 61.632 55.6209 61.632C54.9169 61.632 54.3089 61.8 53.7969 62.136C53.2849 62.472 52.8929 62.928 52.6209 63.504C52.3649 64.064 52.2369 64.72 52.2369 65.472C52.2369 66.176 52.3649 66.816 52.6209 67.392C52.8769 67.968 53.2609 68.416 53.7729 68.736C54.2849 69.056 54.9009 69.216 55.6209 69.216ZM69.9889 72.408C68.4689 72.408 67.3009 71.92 66.4849 70.944C65.6689 69.952 65.2609 68.464 65.2609 66.48V58.848H69.1009V66.672C69.1009 67.376 69.3009 67.936 69.7009 68.352C70.1009 68.768 70.6369 68.976 71.3089 68.976C71.9969 68.976 72.5569 68.76 72.9889 68.328C73.4209 67.896 73.6369 67.312 73.6369 66.576V58.848H77.4769V72H74.4289V66.456H74.6929C74.6929 67.784 74.5169 68.896 74.1649 69.792C73.8289 70.672 73.3249 71.328 72.6529 71.76C71.9809 72.192 71.1489 72.408 70.1569 72.408H69.9889ZM81.0176 72V58.848H84.0656V64.488H83.9936C83.9936 62.632 84.3856 61.2 85.1696 60.192C85.9696 59.184 87.1216 58.68 88.6256 58.68H89.1296V61.992H88.1696C87.1136 61.992 86.2976 62.28 85.7216 62.856C85.1456 63.416 84.8576 64.232 84.8576 65.304V72H81.0176ZM96.1583 72V58.848H99.2063V64.488H99.1343C99.1343 62.632 99.5263 61.2 100.31 60.192C101.11 59.184 102.262 58.68 103.766 58.68H104.27V61.992H103.31C102.254 61.992 101.438 62.28 100.862 62.856C100.286 63.416 99.9983 64.232 99.9983 65.304V72H96.1583ZM106.884 72V58.848H110.724V72H106.884ZM105.132 61.68V58.848H110.724V61.68H105.132ZM108.372 57.552C107.652 57.552 107.116 57.368 106.764 57C106.428 56.616 106.26 56.136 106.26 55.56C106.26 54.968 106.428 54.488 106.764 54.12C107.116 53.736 107.652 53.544 108.372 53.544C109.092 53.544 109.62 53.736 109.956 54.12C110.308 54.488 110.484 54.968 110.484 55.56C110.484 56.136 110.308 56.616 109.956 57C109.62 57.368 109.092 57.552 108.372 57.552ZM119.267 72.408C117.395 72.408 115.931 72.024 114.875 71.256C113.819 70.488 113.259 69.408 113.195 68.016H116.603C116.667 68.432 116.915 68.808 117.347 69.144C117.795 69.464 118.459 69.624 119.339 69.624C120.011 69.624 120.563 69.512 120.995 69.288C121.443 69.048 121.667 68.712 121.667 68.28C121.667 67.896 121.499 67.592 121.163 67.368C120.827 67.128 120.227 66.96 119.363 66.864L118.331 66.768C116.747 66.608 115.555 66.168 114.755 65.448C113.971 64.728 113.579 63.808 113.579 62.688C113.579 61.76 113.811 60.984 114.275 60.36C114.739 59.736 115.379 59.264 116.195 58.944C117.027 58.624 117.971 58.464 119.027 58.464C120.723 58.464 122.091 58.84 123.131 59.592C124.171 60.328 124.715 61.4 124.763 62.808H121.355C121.291 62.376 121.067 62.016 120.683 61.728C120.299 61.424 119.731 61.272 118.979 61.272C118.387 61.272 117.915 61.384 117.563 61.608C117.211 61.832 117.035 62.136 117.035 62.52C117.035 62.888 117.187 63.168 117.491 63.36C117.795 63.552 118.291 63.688 118.979 63.768L120.011 63.864C121.627 64.04 122.883 64.488 123.779 65.208C124.675 65.928 125.123 66.896 125.123 68.112C125.123 68.992 124.883 69.76 124.403 70.416C123.923 71.056 123.243 71.552 122.363 71.904C121.483 72.24 120.451 72.408 119.267 72.408ZM136.875 72L132.723 65.856H130.875L136.227 58.848H140.259L135.219 65.376L135.267 63.504L141.195 72H136.875ZM127.611 72V54.48H131.451V72H127.611ZM147.557 72.408C145.685 72.408 144.221 72.024 143.165 71.256C142.109 70.488 141.549 69.408 141.485 68.016H144.893C144.957 68.432 145.205 68.808 145.637 69.144C146.085 69.464 146.749 69.624 147.629 69.624C148.301 69.624 148.853 69.512 149.285 69.288C149.733 69.048 149.957 68.712 149.957 68.28C149.957 67.896 149.789 67.592 149.453 67.368C149.117 67.128 148.517 66.96 147.653 66.864L146.621 66.768C145.037 66.608 143.845 66.168 143.045 65.448C142.261 64.728 141.869 63.808 141.869 62.688C141.869 61.76 142.101 60.984 142.565 60.36C143.029 59.736 143.669 59.264 144.485 58.944C145.317 58.624 146.261 58.464 147.317 58.464C149.013 58.464 150.381 58.84 151.421 59.592C152.461 60.328 153.005 61.4 153.053 62.808H149.645C149.581 62.376 149.357 62.016 148.973 61.728C148.589 61.424 148.021 61.272 147.269 61.272C146.677 61.272 146.205 61.384 145.853 61.608C145.501 61.832 145.325 62.136 145.325 62.52C145.325 62.888 145.477 63.168 145.781 63.36C146.085 63.552 146.581 63.688 147.269 63.768L148.301 63.864C149.917 64.04 151.173 64.488 152.069 65.208C152.965 65.928 153.413 66.896 153.413 68.112C153.413 68.992 153.173 69.76 152.693 70.416C152.213 71.056 151.533 71.552 150.653 71.904C149.773 72.24 148.741 72.408 147.557 72.408Z" fill="#3E4852"/>
<g opacity="0.2">
<rect x="48" y="136" width="151" height="56" rx="12" fill="#E20074"/>
<path d="M92.5902 162.55V159.12C92.5902 157.89 91.6502 156.53 90.5002 156.1L85.5102 154.23C84.6802 153.92 83.3202 153.92 82.4902 154.23L77.5002 156.11C76.3502 156.54 75.4102 157.9 75.4102 159.12V166.55C75.4102 167.73 76.1902 169.28 77.1402 169.99L81.4402 173.2C82.1402 173.74 83.0702 174 84.0002 174" stroke="white" stroke-width="2" stroke-linecap="round" stroke-linejoin="round"/>
<path d="M88 172C90.2091 172 92 170.209 92 168C92 165.791 90.2091 164 88 164C85.7909 164 84 165.791 84 168C84 170.209 85.7909 172 88 172Z" stroke="white" stroke-width="2" stroke-linecap="round" stroke-linejoin="round"/>
<path d="M92.9955 173H93.0045" stroke="white" stroke-width="2" stroke-linecap="round" stroke-linejoin="round"/>
<path d="M105.312 169V157.32H108.928L111.6 163.88H111.904L114.544 157.32H118.224V169H115.632V159.032L116 159.064L112.912 166.632H110.416L107.312 159.064L107.712 159.032V169H105.312ZM121.115 169V160.232H123.675V169H121.115ZM119.947 162.12V160.232H123.675V162.12H119.947ZM122.107 159.368C121.627 159.368 121.27 159.245 121.035 159C120.811 158.744 120.699 158.424 120.699 158.04C120.699 157.645 120.811 157.325 121.035 157.08C121.27 156.824 121.627 156.696 122.107 156.696C122.587 156.696 122.939 156.824 123.163 157.08C123.398 157.325 123.515 157.645 123.515 158.04C123.515 158.424 123.398 158.744 123.163 159C122.939 159.245 122.587 159.368 122.107 159.368ZM130.027 169.112C129.142 169.112 128.427 169.005 127.883 168.792C127.339 168.568 126.939 168.2 126.683 167.688C126.438 167.165 126.315 166.461 126.315 165.576V157.864H128.699V165.672C128.699 166.088 128.806 166.408 129.019 166.632C129.243 166.845 129.558 166.952 129.963 166.952H131.259V169.112H130.027ZM124.987 162.104V160.232H131.259V162.104H124.987ZM133.397 169V160.232H135.957V169H133.397ZM132.229 162.12V160.232H135.957V162.12H132.229ZM134.389 159.368C133.909 159.368 133.551 159.245 133.317 159C133.093 158.744 132.981 158.424 132.981 158.04C132.981 157.645 133.093 157.325 133.317 157.08C133.551 156.824 133.909 156.696 134.389 156.696C134.869 156.696 135.221 156.824 135.445 157.08C135.679 157.325 135.797 157.645 135.797 158.04C135.797 158.424 135.679 158.744 135.445 159C135.221 159.245 134.869 159.368 134.389 159.368ZM141.78 172.488C141.354 172.488 140.916 172.472 140.468 172.44C140.02 172.408 139.61 172.365 139.236 172.312V170.152C139.61 170.205 140.02 170.248 140.468 170.28C140.927 170.323 141.343 170.344 141.716 170.344C142.41 170.344 142.97 170.264 143.396 170.104C143.834 169.944 144.154 169.699 144.356 169.368C144.559 169.048 144.66 168.632 144.66 168.12V166.376L145.124 165.352C145.103 166.131 144.948 166.797 144.66 167.352C144.383 167.907 143.994 168.333 143.492 168.632C142.991 168.92 142.394 169.064 141.7 169.064C141.103 169.064 140.559 168.957 140.068 168.744C139.588 168.52 139.178 168.211 138.836 167.816C138.495 167.421 138.234 166.963 138.052 166.44C137.871 165.907 137.78 165.331 137.78 164.712V164.344C137.78 163.725 137.876 163.149 138.068 162.616C138.26 162.083 138.538 161.619 138.9 161.224C139.263 160.829 139.695 160.525 140.196 160.312C140.698 160.088 141.252 159.976 141.86 159.976C142.564 159.976 143.172 160.131 143.684 160.44C144.207 160.749 144.618 161.203 144.916 161.8C145.215 162.397 145.375 163.117 145.396 163.96L145.044 164.056V160.232H147.076V167.96C147.076 169.037 146.884 169.907 146.5 170.568C146.116 171.229 145.53 171.715 144.74 172.024C143.962 172.333 142.975 172.488 141.78 172.488ZM142.5 166.904C142.895 166.904 143.252 166.819 143.572 166.648C143.892 166.467 144.143 166.211 144.324 165.88C144.516 165.549 144.612 165.149 144.612 164.68V164.216C144.612 163.757 144.511 163.373 144.308 163.064C144.116 162.744 143.86 162.504 143.54 162.344C143.22 162.173 142.879 162.088 142.516 162.088C142.09 162.088 141.711 162.189 141.38 162.392C141.05 162.595 140.794 162.877 140.612 163.24C140.431 163.603 140.34 164.029 140.34 164.52C140.34 165.021 140.431 165.453 140.612 165.816C140.804 166.168 141.06 166.44 141.38 166.632C141.711 166.813 142.084 166.904 142.5 166.904ZM154.589 169V166.408H154.157V163.592C154.157 163.144 154.05 162.808 153.837 162.584C153.624 162.36 153.282 162.248 152.813 162.248C152.578 162.248 152.269 162.253 151.885 162.264C151.501 162.275 151.106 162.291 150.701 162.312C150.296 162.333 149.928 162.355 149.597 162.376V160.216C149.842 160.195 150.13 160.173 150.461 160.152C150.792 160.131 151.133 160.115 151.485 160.104C151.837 160.093 152.168 160.088 152.477 160.088C153.373 160.088 154.125 160.216 154.733 160.472C155.352 160.728 155.821 161.117 156.141 161.64C156.461 162.152 156.621 162.813 156.621 163.624V169H154.589ZM151.789 169.224C151.16 169.224 150.605 169.112 150.125 168.888C149.656 168.664 149.288 168.344 149.021 167.928C148.754 167.501 148.621 166.995 148.621 166.408C148.621 165.768 148.786 165.245 149.117 164.84C149.448 164.424 149.912 164.12 150.509 163.928C151.106 163.725 151.794 163.624 152.573 163.624H154.445V165.048H152.557C152.109 165.048 151.762 165.16 151.517 165.384C151.282 165.597 151.165 165.891 151.165 166.264C151.165 166.616 151.282 166.904 151.517 167.128C151.762 167.341 152.109 167.448 152.557 167.448C152.845 167.448 153.101 167.4 153.325 167.304C153.56 167.197 153.752 167.021 153.901 166.776C154.05 166.531 154.136 166.189 154.157 165.752L154.765 166.392C154.712 167 154.562 167.512 154.317 167.928C154.082 168.344 153.752 168.664 153.325 168.888C152.909 169.112 152.397 169.224 151.789 169.224ZM162.777 169.112C161.892 169.112 161.177 169.005 160.633 168.792C160.089 168.568 159.689 168.2 159.433 167.688C159.188 167.165 159.065 166.461 159.065 165.576V157.864H161.449V165.672C161.449 166.088 161.556 166.408 161.769 166.632C161.993 166.845 162.308 166.952 162.713 166.952H164.009V169.112H162.777ZM157.737 162.104V160.232H164.009V162.104H157.737ZM169.715 169.304C168.969 169.304 168.307 169.176 167.731 168.92C167.166 168.664 166.691 168.323 166.307 167.896C165.934 167.459 165.646 166.973 165.443 166.44C165.251 165.896 165.155 165.341 165.155 164.776V164.456C165.155 163.869 165.251 163.309 165.443 162.776C165.646 162.232 165.934 161.747 166.307 161.32C166.681 160.893 167.145 160.557 167.699 160.312C168.265 160.056 168.905 159.928 169.619 159.928C170.558 159.928 171.347 160.141 171.987 160.568C172.638 160.984 173.134 161.533 173.475 162.216C173.817 162.888 173.987 163.624 173.987 164.424V165.288H166.227V163.832H172.435L171.603 164.504C171.603 163.981 171.529 163.533 171.379 163.16C171.23 162.787 171.006 162.504 170.707 162.312C170.419 162.109 170.057 162.008 169.619 162.008C169.171 162.008 168.793 162.109 168.483 162.312C168.174 162.515 167.939 162.813 167.779 163.208C167.619 163.592 167.539 164.067 167.539 164.632C167.539 165.155 167.614 165.613 167.763 166.008C167.913 166.392 168.147 166.691 168.467 166.904C168.787 167.117 169.203 167.224 169.715 167.224C170.185 167.224 170.569 167.133 170.867 166.952C171.166 166.771 171.369 166.547 171.475 166.28H173.827C173.699 166.867 173.449 167.389 173.075 167.848C172.702 168.307 172.233 168.664 171.667 168.92C171.102 169.176 170.451 169.304 169.715 169.304Z" fill="white"/>
</g>
<path d="M250.169 48.84V41.28L260.769 23.92L266.649 27.64L257.929 42.04L258.529 42.92H275.369V48.84H250.169ZM265.369 54V32.84H272.249V54H265.369Z" fill="#3E4852"/>
</svg>
