<svg width="512" height="328" viewBox="0 0 512 328" fill="none" xmlns="http://www.w3.org/2000/svg">
<rect x="0.5" y="0.5" width="511" height="327" rx="15.5" fill="white"/>
<path d="M58.368 48.456C56.784 48.456 55.4 48.184 54.216 47.64C53.048 47.08 52.08 46.352 51.312 45.456C50.544 44.544 49.968 43.56 49.584 42.504C49.216 41.448 49.032 40.432 49.032 39.456V38.928C49.032 37.84 49.224 36.768 49.608 35.712C50.008 34.64 50.6 33.672 51.384 32.808C52.168 31.944 53.144 31.256 54.312 30.744C55.48 30.216 56.832 29.952 58.368 29.952C59.904 29.952 61.256 30.216 62.424 30.744C63.592 31.256 64.568 31.944 65.352 32.808C66.136 33.672 66.728 34.64 67.128 35.712C67.528 36.768 67.728 37.84 67.728 38.928V39.456C67.728 40.432 67.536 41.448 67.152 42.504C66.768 43.56 66.192 44.544 65.424 45.456C64.656 46.352 63.68 47.08 62.496 47.64C61.328 48.184 59.952 48.456 58.368 48.456ZM58.368 44.784C59.2 44.784 59.944 44.64 60.6 44.352C61.272 44.064 61.84 43.664 62.304 43.152C62.784 42.64 63.144 42.048 63.384 41.376C63.624 40.704 63.744 39.984 63.744 39.216C63.744 38.4 63.616 37.656 63.36 36.984C63.12 36.296 62.76 35.704 62.28 35.208C61.816 34.696 61.256 34.304 60.6 34.032C59.944 33.76 59.2 33.624 58.368 33.624C57.536 33.624 56.792 33.76 56.136 34.032C55.48 34.304 54.912 34.696 54.432 35.208C53.968 35.704 53.616 36.296 53.376 36.984C53.136 37.656 53.016 38.4 53.016 39.216C53.016 39.984 53.136 40.704 53.376 41.376C53.616 42.048 53.968 42.64 54.432 43.152C54.912 43.664 55.48 44.064 56.136 44.352C56.792 44.64 57.536 44.784 58.368 44.784ZM70.4942 52.8V34.848H73.5422V40.536L73.1342 40.512C73.1982 39.2 73.4702 38.096 73.9502 37.2C74.4302 36.288 75.0782 35.608 75.8942 35.16C76.7102 34.696 77.6302 34.464 78.6542 34.464C79.5662 34.464 80.3902 34.632 81.1262 34.968C81.8782 35.304 82.5182 35.776 83.0462 36.384C83.5902 36.976 83.9982 37.68 84.2702 38.496C84.5582 39.296 84.7022 40.176 84.7022 41.136V41.688C84.7022 42.632 84.5662 43.52 84.2942 44.352C84.0222 45.168 83.6222 45.88 83.0942 46.488C82.5822 47.096 81.9502 47.576 81.1982 47.928C80.4622 48.264 79.6142 48.432 78.6542 48.432C77.6622 48.432 76.7662 48.232 75.9662 47.832C75.1822 47.416 74.5502 46.792 74.0702 45.96C73.5902 45.112 73.3262 44.04 73.2782 42.744L74.3342 44.184V52.8H70.4942ZM77.5742 45.216C78.2302 45.216 78.7982 45.056 79.2782 44.736C79.7742 44.416 80.1582 43.968 80.4302 43.392C80.7022 42.816 80.8382 42.152 80.8382 41.4C80.8382 40.648 80.7022 39.992 80.4302 39.432C80.1582 38.872 79.7822 38.44 79.3022 38.136C78.8222 37.816 78.2462 37.656 77.5742 37.656C76.9982 37.656 76.4542 37.792 75.9422 38.064C75.4302 38.336 75.0142 38.728 74.6942 39.24C74.3902 39.736 74.2382 40.344 74.2382 41.064V41.952C74.2382 42.64 74.3982 43.232 74.7182 43.728C75.0542 44.208 75.4782 44.576 75.9902 44.832C76.5022 45.088 77.0302 45.216 77.5742 45.216ZM93.3932 48.456C92.2732 48.456 91.2812 48.264 90.4172 47.88C89.5692 47.496 88.8572 46.984 88.2812 46.344C87.7212 45.688 87.2892 44.96 86.9852 44.16C86.6972 43.344 86.5532 42.512 86.5532 41.664V41.184C86.5532 40.304 86.6972 39.464 86.9852 38.664C87.2892 37.848 87.7212 37.12 88.2812 36.48C88.8412 35.84 89.5372 35.336 90.3692 34.968C91.2172 34.584 92.1772 34.392 93.2492 34.392C94.6572 34.392 95.8412 34.712 96.8012 35.352C97.7772 35.976 98.5212 36.8 99.0332 37.824C99.5452 38.832 99.8012 39.936 99.8012 41.136V42.432H88.1612V40.248H97.4732L96.2252 41.256C96.2252 40.472 96.1132 39.8 95.8892 39.24C95.6652 38.68 95.3292 38.256 94.8812 37.968C94.4492 37.664 93.9052 37.512 93.2492 37.512C92.5772 37.512 92.0092 37.664 91.5452 37.968C91.0812 38.272 90.7292 38.72 90.4892 39.312C90.2492 39.888 90.1292 40.6 90.1292 41.448C90.1292 42.232 90.2412 42.92 90.4652 43.512C90.6892 44.088 91.0412 44.536 91.5212 44.856C92.0012 45.176 92.6252 45.336 93.3932 45.336C94.0972 45.336 94.6732 45.2 95.1212 44.928C95.5692 44.656 95.8732 44.32 96.0332 43.92H99.5612C99.3692 44.8 98.9932 45.584 98.4332 46.272C97.8732 46.96 97.1692 47.496 96.3212 47.88C95.4732 48.264 94.4972 48.456 93.3932 48.456ZM102.346 48V34.848H105.394V40.488H105.322C105.322 38.632 105.714 37.2 106.498 36.192C107.298 35.184 108.45 34.68 109.954 34.68H110.458V37.992H109.498C108.442 37.992 107.626 38.28 107.05 38.856C106.474 39.416 106.186 40.232 106.186 41.304V48H102.346ZM120.298 48V44.112H119.65V39.888C119.65 39.216 119.49 38.712 119.17 38.376C118.85 38.04 118.338 37.872 117.634 37.872C117.282 37.872 116.818 37.88 116.242 37.896C115.666 37.912 115.074 37.936 114.466 37.968C113.858 38 113.306 38.032 112.81 38.064V34.824C113.178 34.792 113.61 34.76 114.106 34.728C114.602 34.696 115.114 34.672 115.642 34.656C116.17 34.64 116.666 34.632 117.13 34.632C118.474 34.632 119.602 34.824 120.514 35.208C121.442 35.592 122.146 36.176 122.626 36.96C123.106 37.728 123.346 38.72 123.346 39.936V48H120.298ZM116.098 48.336C115.154 48.336 114.322 48.168 113.602 47.832C112.898 47.496 112.346 47.016 111.946 46.392C111.546 45.752 111.346 44.992 111.346 44.112C111.346 43.152 111.594 42.368 112.09 41.76C112.586 41.136 113.282 40.68 114.178 40.392C115.074 40.088 116.106 39.936 117.274 39.936H120.082V42.072H117.25C116.578 42.072 116.058 42.24 115.69 42.576C115.338 42.896 115.162 43.336 115.162 43.896C115.162 44.424 115.338 44.856 115.69 45.192C116.058 45.512 116.578 45.672 117.25 45.672C117.682 45.672 118.066 45.6 118.402 45.456C118.754 45.296 119.042 45.032 119.266 44.664C119.49 44.296 119.618 43.784 119.65 43.128L120.562 44.088C120.482 45 120.258 45.768 119.89 46.392C119.538 47.016 119.042 47.496 118.402 47.832C117.778 48.168 117.01 48.336 116.098 48.336ZM132.58 48.168C131.252 48.168 130.18 48.008 129.364 47.688C128.548 47.352 127.948 46.8 127.564 46.032C127.196 45.248 127.012 44.192 127.012 42.864V31.296H130.588V43.008C130.588 43.632 130.748 44.112 131.068 44.448C131.404 44.768 131.876 44.928 132.484 44.928H134.428V48.168H132.58ZM125.02 37.656V34.848H134.428V37.656H125.02ZM137.634 48V34.848H141.474V48H137.634ZM135.882 37.68V34.848H141.474V37.68H135.882ZM139.122 33.552C138.402 33.552 137.866 33.368 137.514 33C137.178 32.616 137.01 32.136 137.01 31.56C137.01 30.968 137.178 30.488 137.514 30.12C137.866 29.736 138.402 29.544 139.122 29.544C139.842 29.544 140.37 29.736 140.706 30.12C141.058 30.488 141.234 30.968 141.234 31.56C141.234 32.136 141.058 32.616 140.706 33C140.37 33.368 139.842 33.552 139.122 33.552ZM151.433 48.456C150.281 48.456 149.257 48.28 148.361 47.928C147.465 47.56 146.705 47.064 146.081 46.44C145.473 45.816 145.009 45.104 144.689 44.304C144.369 43.488 144.209 42.632 144.209 41.736V41.184C144.209 40.272 144.369 39.408 144.689 38.592C145.025 37.76 145.505 37.032 146.129 36.408C146.769 35.784 147.537 35.296 148.433 34.944C149.329 34.576 150.329 34.392 151.433 34.392C152.569 34.392 153.577 34.576 154.457 34.944C155.353 35.296 156.113 35.784 156.737 36.408C157.361 37.032 157.841 37.76 158.177 38.592C158.513 39.408 158.681 40.272 158.681 41.184V41.736C158.681 42.632 158.521 43.488 158.201 44.304C157.881 45.104 157.409 45.816 156.785 46.44C156.177 47.064 155.425 47.56 154.529 47.928C153.633 48.28 152.601 48.456 151.433 48.456ZM151.433 45.216C152.185 45.216 152.809 45.056 153.305 44.736C153.801 44.416 154.177 43.968 154.433 43.392C154.705 42.816 154.841 42.176 154.841 41.472C154.841 40.72 154.705 40.064 154.433 39.504C154.161 38.928 153.769 38.472 153.257 38.136C152.761 37.8 152.153 37.632 151.433 37.632C150.729 37.632 150.121 37.8 149.609 38.136C149.097 38.472 148.705 38.928 148.433 39.504C148.177 40.064 148.049 40.72 148.049 41.472C148.049 42.176 148.177 42.816 148.433 43.392C148.689 43.968 149.073 44.416 149.585 44.736C150.097 45.056 150.713 45.216 151.433 45.216ZM161.361 48V34.848H164.409V40.488H164.193C164.193 39.144 164.361 38.024 164.697 37.128C165.049 36.232 165.577 35.56 166.281 35.112C166.985 34.664 167.841 34.44 168.849 34.44H169.017C170.553 34.44 171.721 34.944 172.521 35.952C173.337 36.944 173.745 38.456 173.745 40.488V48H169.905V40.272C169.905 39.568 169.697 38.992 169.281 38.544C168.865 38.096 168.305 37.872 167.601 37.872C166.881 37.872 166.297 38.104 165.849 38.568C165.417 39.016 165.201 39.608 165.201 40.344V48H161.361ZM184.962 48V44.112H184.314V39.888C184.314 39.216 184.154 38.712 183.834 38.376C183.514 38.04 183.002 37.872 182.298 37.872C181.946 37.872 181.482 37.88 180.906 37.896C180.33 37.912 179.738 37.936 179.13 37.968C178.522 38 177.97 38.032 177.474 38.064V34.824C177.842 34.792 178.274 34.76 178.77 34.728C179.266 34.696 179.778 34.672 180.306 34.656C180.834 34.64 181.33 34.632 181.794 34.632C183.138 34.632 184.266 34.824 185.178 35.208C186.106 35.592 186.81 36.176 187.29 36.96C187.77 37.728 188.01 38.72 188.01 39.936V48H184.962ZM180.762 48.336C179.818 48.336 178.986 48.168 178.266 47.832C177.562 47.496 177.01 47.016 176.61 46.392C176.21 45.752 176.01 44.992 176.01 44.112C176.01 43.152 176.258 42.368 176.754 41.76C177.25 41.136 177.946 40.68 178.842 40.392C179.738 40.088 180.77 39.936 181.938 39.936H184.746V42.072H181.914C181.242 42.072 180.722 42.24 180.354 42.576C180.002 42.896 179.826 43.336 179.826 43.896C179.826 44.424 180.002 44.856 180.354 45.192C180.722 45.512 181.242 45.672 181.914 45.672C182.346 45.672 182.73 45.6 183.066 45.456C183.418 45.296 183.706 45.032 183.93 44.664C184.154 44.296 184.282 43.784 184.314 43.128L185.226 44.088C185.146 45 184.922 45.768 184.554 46.392C184.202 47.016 183.706 47.496 183.066 47.832C182.442 48.168 181.674 48.336 180.762 48.336ZM191.436 48V30.48H195.3V48H191.436ZM189.876 33.312V30.48H195.3V33.312H189.876ZM203.877 48V34.848H206.925V40.488H206.853C206.853 38.632 207.245 37.2 208.029 36.192C208.829 35.184 209.981 34.68 211.485 34.68H211.989V37.992H211.029C209.973 37.992 209.157 38.28 208.581 38.856C208.005 39.416 207.717 40.232 207.717 41.304V48H203.877ZM214.603 48V34.848H218.443V48H214.603ZM212.851 37.68V34.848H218.443V37.68H212.851ZM216.091 33.552C215.371 33.552 214.835 33.368 214.483 33C214.147 32.616 213.979 32.136 213.979 31.56C213.979 30.968 214.147 30.488 214.483 30.12C214.835 29.736 215.371 29.544 216.091 29.544C216.811 29.544 217.339 29.736 217.675 30.12C218.027 30.488 218.203 30.968 218.203 31.56C218.203 32.136 218.027 32.616 217.675 33C217.339 33.368 216.811 33.552 216.091 33.552ZM226.986 48.408C225.114 48.408 223.65 48.024 222.594 47.256C221.538 46.488 220.978 45.408 220.914 44.016H224.322C224.386 44.432 224.634 44.808 225.066 45.144C225.514 45.464 226.178 45.624 227.058 45.624C227.73 45.624 228.282 45.512 228.714 45.288C229.162 45.048 229.386 44.712 229.386 44.28C229.386 43.896 229.218 43.592 228.882 43.368C228.546 43.128 227.946 42.96 227.082 42.864L226.05 42.768C224.466 42.608 223.274 42.168 222.474 41.448C221.69 40.728 221.298 39.808 221.298 38.688C221.298 37.76 221.53 36.984 221.994 36.36C222.458 35.736 223.098 35.264 223.914 34.944C224.746 34.624 225.69 34.464 226.746 34.464C228.442 34.464 229.81 34.84 230.85 35.592C231.89 36.328 232.434 37.4 232.482 38.808H229.074C229.01 38.376 228.786 38.016 228.402 37.728C228.018 37.424 227.45 37.272 226.698 37.272C226.106 37.272 225.634 37.384 225.282 37.608C224.93 37.832 224.754 38.136 224.754 38.52C224.754 38.888 224.906 39.168 225.21 39.36C225.514 39.552 226.01 39.688 226.698 39.768L227.73 39.864C229.346 40.04 230.602 40.488 231.498 41.208C232.394 41.928 232.842 42.896 232.842 44.112C232.842 44.992 232.602 45.76 232.122 46.416C231.642 47.056 230.962 47.552 230.082 47.904C229.202 48.24 228.17 48.408 226.986 48.408ZM244.594 48L240.442 41.856H238.594L243.946 34.848H247.978L242.938 41.376L242.986 39.504L248.914 48H244.594ZM235.33 48V30.48H239.17V48H235.33Z" fill="#3E4852"/>
<rect x="257" y="24" width="58" height="32" rx="8" fill="#EA3829"/>
<path d="M267.816 45V35.048L268.52 35.592H265.528V33.32H270.424V45H267.816ZM277.956 45.304C277.028 45.304 276.233 45.1547 275.572 44.856C274.91 44.5467 274.372 44.1307 273.956 43.608C273.55 43.0853 273.246 42.4827 273.044 41.8C272.852 41.1067 272.756 40.376 272.756 39.608V38.696C272.756 37.6293 272.942 36.664 273.316 35.8C273.689 34.936 274.26 34.248 275.028 33.736C275.796 33.224 276.772 32.968 277.956 32.968C279.14 32.968 280.11 33.224 280.868 33.736C281.636 34.248 282.206 34.936 282.58 35.8C282.953 36.664 283.14 37.6293 283.14 38.696V39.608C283.14 40.376 283.038 41.1067 282.836 41.8C282.644 42.4827 282.34 43.0853 281.924 43.608C281.518 44.1307 280.985 44.5467 280.324 44.856C279.673 45.1547 278.884 45.304 277.956 45.304ZM277.956 42.888C278.82 42.888 279.46 42.5893 279.876 41.992C280.302 41.384 280.516 40.4453 280.516 39.176C280.516 37.832 280.297 36.8667 279.86 36.28C279.433 35.6827 278.798 35.384 277.956 35.384C277.092 35.384 276.446 35.6827 276.02 36.28C275.593 36.8667 275.38 37.8213 275.38 39.144C275.38 40.424 275.588 41.368 276.004 41.976C276.43 42.584 277.081 42.888 277.956 42.888ZM290.159 45.304C289.231 45.304 288.436 45.1547 287.775 44.856C287.114 44.5467 286.575 44.1307 286.159 43.608C285.754 43.0853 285.45 42.4827 285.247 41.8C285.055 41.1067 284.959 40.376 284.959 39.608V38.696C284.959 37.6293 285.146 36.664 285.519 35.8C285.892 34.936 286.463 34.248 287.231 33.736C287.999 33.224 288.975 32.968 290.159 32.968C291.343 32.968 292.314 33.224 293.071 33.736C293.839 34.248 294.41 34.936 294.783 35.8C295.156 36.664 295.343 37.6293 295.343 38.696V39.608C295.343 40.376 295.242 41.1067 295.039 41.8C294.847 42.4827 294.543 43.0853 294.127 43.608C293.722 44.1307 293.188 44.5467 292.527 44.856C291.876 45.1547 291.087 45.304 290.159 45.304ZM290.159 42.888C291.023 42.888 291.663 42.5893 292.079 41.992C292.506 41.384 292.719 40.4453 292.719 39.176C292.719 37.832 292.5 36.8667 292.063 36.28C291.636 35.6827 291.002 35.384 290.159 35.384C289.295 35.384 288.65 35.6827 288.223 36.28C287.796 36.8667 287.583 37.8213 287.583 39.144C287.583 40.424 287.791 41.368 288.207 41.976C288.634 42.584 289.284 42.888 290.159 42.888ZM299.214 45L302.406 36.24H304.014L300.834 45H299.214ZM298.614 41.052C298.142 41.052 297.746 40.948 297.426 40.74C297.114 40.524 296.878 40.24 296.718 39.888C296.566 39.528 296.49 39.132 296.49 38.7V38.388C296.49 37.932 296.57 37.528 296.73 37.176C296.89 36.824 297.13 36.548 297.45 36.348C297.77 36.148 298.158 36.048 298.614 36.048C299.078 36.048 299.466 36.148 299.778 36.348C300.098 36.548 300.338 36.824 300.498 37.176C300.658 37.528 300.738 37.932 300.738 38.388V38.7C300.738 39.132 300.658 39.528 300.498 39.888C300.346 40.24 300.114 40.524 299.802 40.74C299.49 40.948 299.094 41.052 298.614 41.052ZM298.614 39.768C298.862 39.768 299.042 39.68 299.154 39.504C299.274 39.32 299.334 39.004 299.334 38.556C299.334 38.084 299.274 37.76 299.154 37.584C299.034 37.408 298.854 37.32 298.614 37.32C298.374 37.32 298.194 37.408 298.074 37.584C297.954 37.76 297.894 38.08 297.894 38.544C297.894 38.992 297.954 39.308 298.074 39.492C298.194 39.676 298.374 39.768 298.614 39.768ZM304.578 45.204C304.098 45.204 303.702 45.1 303.39 44.892C303.078 44.684 302.842 44.404 302.682 44.052C302.53 43.692 302.454 43.296 302.454 42.864V42.552C302.454 42.088 302.534 41.68 302.694 41.328C302.854 40.976 303.09 40.7 303.402 40.5C303.722 40.3 304.114 40.2 304.578 40.2C305.042 40.2 305.43 40.3 305.742 40.5C306.054 40.7 306.29 40.976 306.45 41.328C306.61 41.68 306.69 42.088 306.69 42.552V42.864C306.69 43.296 306.61 43.692 306.45 44.052C306.298 44.404 306.066 44.684 305.754 44.892C305.45 45.1 305.058 45.204 304.578 45.204ZM304.578 43.932C304.826 43.932 305.006 43.844 305.118 43.668C305.238 43.484 305.298 43.168 305.298 42.72C305.298 42.24 305.238 41.916 305.118 41.748C304.998 41.572 304.818 41.484 304.578 41.484C304.338 41.484 304.154 41.572 304.026 41.748C303.906 41.916 303.846 42.236 303.846 42.708C303.846 43.156 303.906 43.472 304.026 43.656C304.146 43.84 304.33 43.932 304.578 43.932Z" fill="white"/>
<path d="M282.112 291V273.336H286.72V280.92H286.464C286.464 279.085 286.699 277.571 287.168 276.376C287.637 275.16 288.331 274.253 289.248 273.656C290.187 273.059 291.317 272.76 292.64 272.76H292.896C294.901 272.76 296.448 273.432 297.536 274.776C298.645 276.099 299.2 278.136 299.2 280.888V291H293.376V280.728C293.376 279.917 293.131 279.256 292.64 278.744C292.171 278.211 291.52 277.944 290.688 277.944C289.856 277.944 289.184 278.211 288.672 278.744C288.181 279.256 287.936 279.939 287.936 280.792V291H282.112ZM301.512 292.92L308.168 266.04H314.184L307.528 292.92H301.512ZM327.488 291V285.816H326.528V280.28C326.528 279.469 326.336 278.872 325.952 278.488C325.589 278.083 324.981 277.88 324.128 277.88C323.722 277.88 323.125 277.891 322.336 277.912C321.546 277.933 320.714 277.965 319.84 278.008C318.965 278.051 318.165 278.093 317.44 278.136V273.272C317.952 273.229 318.56 273.187 319.264 273.144C319.968 273.101 320.693 273.069 321.44 273.048C322.208 273.027 322.912 273.016 323.552 273.016C325.365 273.016 326.901 273.283 328.16 273.816C329.44 274.349 330.41 275.149 331.072 276.216C331.754 277.283 332.096 278.637 332.096 280.28V291H327.488ZM321.888 291.448C320.65 291.448 319.552 291.224 318.592 290.776C317.632 290.328 316.874 289.688 316.32 288.856C315.786 288.003 315.52 286.989 315.52 285.816C315.52 284.493 315.872 283.427 316.576 282.616C317.28 281.784 318.25 281.176 319.488 280.792C320.725 280.408 322.144 280.216 323.744 280.216H327.168V283.224H323.744C322.954 283.224 322.346 283.427 321.92 283.832C321.493 284.216 321.28 284.739 321.28 285.4C321.28 286.04 321.493 286.563 321.92 286.968C322.346 287.352 322.954 287.544 323.744 287.544C324.256 287.544 324.704 287.459 325.088 287.288C325.493 287.096 325.824 286.776 326.08 286.328C326.336 285.88 326.485 285.261 326.528 284.472L327.872 285.752C327.765 286.968 327.466 288.003 326.976 288.856C326.506 289.688 325.845 290.328 324.992 290.776C324.16 291.224 323.125 291.448 321.888 291.448Z" fill="#3E4852"/>
<path d="M280.182 257L283.556 246.78H287.266L290.766 257H288.386L285.558 248.362L286.286 248.656H284.48L285.236 248.362L282.478 257H280.182ZM282.744 254.466L283.444 252.562H287.448L288.162 254.466H282.744ZM294.858 257.238C293.766 257.238 292.912 257.014 292.296 256.566C291.68 256.118 291.353 255.488 291.316 254.676H293.304C293.341 254.919 293.486 255.138 293.738 255.334C293.999 255.521 294.386 255.614 294.9 255.614C295.292 255.614 295.614 255.549 295.866 255.418C296.127 255.278 296.258 255.082 296.258 254.83C296.258 254.606 296.16 254.429 295.964 254.298C295.768 254.158 295.418 254.06 294.914 254.004L294.312 253.948C293.388 253.855 292.692 253.598 292.226 253.178C291.768 252.758 291.54 252.221 291.54 251.568C291.54 251.027 291.675 250.574 291.946 250.21C292.216 249.846 292.59 249.571 293.066 249.384C293.551 249.197 294.102 249.104 294.718 249.104C295.707 249.104 296.505 249.323 297.112 249.762C297.718 250.191 298.036 250.817 298.064 251.638H296.076C296.038 251.386 295.908 251.176 295.684 251.008C295.46 250.831 295.128 250.742 294.69 250.742C294.344 250.742 294.069 250.807 293.864 250.938C293.658 251.069 293.556 251.246 293.556 251.47C293.556 251.685 293.644 251.848 293.822 251.96C293.999 252.072 294.288 252.151 294.69 252.198L295.292 252.254C296.234 252.357 296.967 252.618 297.49 253.038C298.012 253.458 298.274 254.023 298.274 254.732C298.274 255.245 298.134 255.693 297.854 256.076C297.574 256.449 297.177 256.739 296.664 256.944C296.15 257.14 295.548 257.238 294.858 257.238ZM302.637 257.238C301.545 257.238 300.691 257.014 300.075 256.566C299.459 256.118 299.132 255.488 299.095 254.676H301.083C301.12 254.919 301.265 255.138 301.517 255.334C301.778 255.521 302.166 255.614 302.679 255.614C303.071 255.614 303.393 255.549 303.645 255.418C303.906 255.278 304.037 255.082 304.037 254.83C304.037 254.606 303.939 254.429 303.743 254.298C303.547 254.158 303.197 254.06 302.693 254.004L302.091 253.948C301.167 253.855 300.472 253.598 300.005 253.178C299.548 252.758 299.319 252.221 299.319 251.568C299.319 251.027 299.454 250.574 299.725 250.21C299.996 249.846 300.369 249.571 300.845 249.384C301.33 249.197 301.881 249.104 302.497 249.104C303.486 249.104 304.284 249.323 304.891 249.762C305.498 250.191 305.815 250.817 305.843 251.638H303.855C303.818 251.386 303.687 251.176 303.463 251.008C303.239 250.831 302.908 250.742 302.469 250.742C302.124 250.742 301.848 250.807 301.643 250.938C301.438 251.069 301.335 251.246 301.335 251.47C301.335 251.685 301.424 251.848 301.601 251.96C301.778 252.072 302.068 252.151 302.469 252.198L303.071 252.254C304.014 252.357 304.746 252.618 305.269 253.038C305.792 253.458 306.053 254.023 306.053 254.732C306.053 255.245 305.913 255.693 305.633 256.076C305.353 256.449 304.956 256.739 304.443 256.944C303.93 257.14 303.328 257.238 302.637 257.238ZM311.018 257.266C310.365 257.266 309.786 257.154 309.282 256.93C308.788 256.706 308.372 256.407 308.036 256.034C307.71 255.651 307.458 255.227 307.28 254.76C307.112 254.284 307.028 253.799 307.028 253.304V253.024C307.028 252.511 307.112 252.021 307.28 251.554C307.458 251.078 307.71 250.653 308.036 250.28C308.363 249.907 308.769 249.613 309.254 249.398C309.749 249.174 310.309 249.062 310.934 249.062C311.756 249.062 312.446 249.249 313.006 249.622C313.576 249.986 314.01 250.467 314.308 251.064C314.607 251.652 314.756 252.296 314.756 252.996V253.752H307.966V252.478H313.398L312.67 253.066C312.67 252.609 312.605 252.217 312.474 251.89C312.344 251.563 312.148 251.316 311.886 251.148C311.634 250.971 311.317 250.882 310.934 250.882C310.542 250.882 310.211 250.971 309.94 251.148C309.67 251.325 309.464 251.587 309.324 251.932C309.184 252.268 309.114 252.683 309.114 253.178C309.114 253.635 309.18 254.037 309.31 254.382C309.441 254.718 309.646 254.979 309.926 255.166C310.206 255.353 310.57 255.446 311.018 255.446C311.429 255.446 311.765 255.367 312.026 255.208C312.288 255.049 312.465 254.853 312.558 254.62H314.616C314.504 255.133 314.285 255.591 313.958 255.992C313.632 256.393 313.221 256.706 312.726 256.93C312.232 257.154 311.662 257.266 311.018 257.266ZM319.727 257.098C318.952 257.098 318.327 257.005 317.851 256.818C317.375 256.622 317.025 256.3 316.801 255.852C316.586 255.395 316.479 254.779 316.479 254.004V247.256H318.565V254.088C318.565 254.452 318.658 254.732 318.845 254.928C319.041 255.115 319.316 255.208 319.671 255.208H320.805V257.098H319.727ZM315.317 250.966V249.328H320.805V250.966H315.317ZM325.168 257.238C324.076 257.238 323.222 257.014 322.606 256.566C321.99 256.118 321.664 255.488 321.626 254.676H323.614C323.652 254.919 323.796 255.138 324.048 255.334C324.31 255.521 324.697 255.614 325.21 255.614C325.602 255.614 325.924 255.549 326.176 255.418C326.438 255.278 326.568 255.082 326.568 254.83C326.568 254.606 326.47 254.429 326.274 254.298C326.078 254.158 325.728 254.06 325.224 254.004L324.622 253.948C323.698 253.855 323.003 253.598 322.536 253.178C322.079 252.758 321.85 252.221 321.85 251.568C321.85 251.027 321.986 250.574 322.256 250.21C322.527 249.846 322.9 249.571 323.376 249.384C323.862 249.197 324.412 249.104 325.028 249.104C326.018 249.104 326.816 249.323 327.422 249.762C328.029 250.191 328.346 250.817 328.374 251.638H326.386C326.349 251.386 326.218 251.176 325.994 251.008C325.77 250.831 325.439 250.742 325 250.742C324.655 250.742 324.38 250.807 324.174 250.938C323.969 251.069 323.866 251.246 323.866 251.47C323.866 251.685 323.955 251.848 324.132 251.96C324.31 252.072 324.599 252.151 325 252.198L325.602 252.254C326.545 252.357 327.278 252.618 327.8 253.038C328.323 253.458 328.584 254.023 328.584 254.732C328.584 255.245 328.444 255.693 328.164 256.076C327.884 256.449 327.488 256.739 326.974 256.944C326.461 257.14 325.859 257.238 325.168 257.238ZM337.609 257V254.732H337.231V252.268C337.231 251.876 337.138 251.582 336.951 251.386C336.764 251.19 336.466 251.092 336.055 251.092C335.85 251.092 335.579 251.097 335.243 251.106C334.907 251.115 334.562 251.129 334.207 251.148C333.852 251.167 333.53 251.185 333.241 251.204V249.314C333.456 249.295 333.708 249.277 333.997 249.258C334.286 249.239 334.585 249.225 334.893 249.216C335.201 249.207 335.49 249.202 335.761 249.202C336.545 249.202 337.203 249.314 337.735 249.538C338.276 249.762 338.687 250.103 338.967 250.56C339.247 251.008 339.387 251.587 339.387 252.296V257H337.609ZM335.159 257.196C334.608 257.196 334.123 257.098 333.703 256.902C333.292 256.706 332.97 256.426 332.737 256.062C332.504 255.689 332.387 255.245 332.387 254.732C332.387 254.172 332.532 253.715 332.821 253.36C333.11 252.996 333.516 252.73 334.039 252.562C334.562 252.385 335.164 252.296 335.845 252.296H337.483V253.542H335.831C335.439 253.542 335.136 253.64 334.921 253.836C334.716 254.023 334.613 254.279 334.613 254.606C334.613 254.914 334.716 255.166 334.921 255.362C335.136 255.549 335.439 255.642 335.831 255.642C336.083 255.642 336.307 255.6 336.503 255.516C336.708 255.423 336.876 255.269 337.007 255.054C337.138 254.839 337.212 254.541 337.231 254.158L337.763 254.718C337.716 255.25 337.586 255.698 337.371 256.062C337.166 256.426 336.876 256.706 336.503 256.902C336.139 257.098 335.691 257.196 335.159 257.196ZM344.774 257.098C343.999 257.098 343.374 257.005 342.898 256.818C342.422 256.622 342.072 256.3 341.848 255.852C341.633 255.395 341.526 254.779 341.526 254.004V247.256H343.612V254.088C343.612 254.452 343.705 254.732 343.892 254.928C344.088 255.115 344.363 255.208 344.718 255.208H345.852V257.098H344.774ZM340.364 250.966V249.328H345.852V250.966H340.364ZM350.297 257V249.328H352.075V252.618H352.033C352.033 251.535 352.262 250.7 352.719 250.112C353.186 249.524 353.858 249.23 354.735 249.23H355.029V251.162H354.469C353.853 251.162 353.377 251.33 353.041 251.666C352.705 251.993 352.537 252.469 352.537 253.094V257H350.297ZM356.554 257V249.328H358.794V257H356.554ZM355.532 250.98V249.328H358.794V250.98H355.532ZM357.422 248.572C357.002 248.572 356.689 248.465 356.484 248.25C356.288 248.026 356.19 247.746 356.19 247.41C356.19 247.065 356.288 246.785 356.484 246.57C356.689 246.346 357.002 246.234 357.422 246.234C357.842 246.234 358.15 246.346 358.346 246.57C358.551 246.785 358.654 247.065 358.654 247.41C358.654 247.746 358.551 248.026 358.346 248.25C358.15 248.465 357.842 248.572 357.422 248.572ZM363.778 257.238C362.686 257.238 361.832 257.014 361.216 256.566C360.6 256.118 360.273 255.488 360.236 254.676H362.224C362.261 254.919 362.406 255.138 362.658 255.334C362.919 255.521 363.306 255.614 363.82 255.614C364.212 255.614 364.534 255.549 364.786 255.418C365.047 255.278 365.178 255.082 365.178 254.83C365.178 254.606 365.08 254.429 364.884 254.298C364.688 254.158 364.338 254.06 363.834 254.004L363.232 253.948C362.308 253.855 361.612 253.598 361.146 253.178C360.688 252.758 360.46 252.221 360.46 251.568C360.46 251.027 360.595 250.574 360.866 250.21C361.136 249.846 361.51 249.571 361.986 249.384C362.471 249.197 363.022 249.104 363.638 249.104C364.627 249.104 365.425 249.323 366.032 249.762C366.638 250.191 366.956 250.817 366.984 251.638H364.996C364.958 251.386 364.828 251.176 364.604 251.008C364.38 250.831 364.048 250.742 363.61 250.742C363.264 250.742 362.989 250.807 362.784 250.938C362.578 251.069 362.476 251.246 362.476 251.47C362.476 251.685 362.564 251.848 362.742 251.96C362.919 252.072 363.208 252.151 363.61 252.198L364.212 252.254C365.154 252.357 365.887 252.618 366.41 253.038C366.932 253.458 367.194 254.023 367.194 254.732C367.194 255.245 367.054 255.693 366.774 256.076C366.494 256.449 366.097 256.739 365.584 256.944C365.07 257.14 364.468 257.238 363.778 257.238ZM374.049 257L371.627 253.416H370.549L373.671 249.328H376.023L373.083 253.136L373.111 252.044L376.569 257H374.049ZM368.645 257V246.78H370.885V257H368.645Z" fill="#3E4852"/>
<circle cx="152" cy="192" r="104" fill="#EA3829"/>
<path d="M152 192L48 192C48 249.438 94.5624 296 152 296L152 192Z" fill="#EA3829"/>
<path d="M152 192L152 88C94.5624 88 48 134.562 48 192L152 192Z" fill="#EA3829"/>
<path d="M152 192L256 192C256 134.562 209.438 88 152 88L152 192Z" fill="#EA3829"/>
<path d="M208 192C208 222.928 182.928 248 152 248V136C182.928 136 208 161.072 208 192Z" fill="black" fill-opacity="0.2"/>
<path d="M152 192H96C96 161.072 121.072 136 152 136V192Z" fill="black" fill-opacity="0.2"/>
<path d="M152 192L96 192C96 222.928 121.072 248 152 248L152 192Z" fill="black" fill-opacity="0.2"/>
<circle cx="152" cy="192" r="48" fill="white"/>
<path d="M357.838 109.266C356.914 109.266 356.121 109.107 355.458 108.79C354.795 108.463 354.254 108.039 353.834 107.516C353.414 106.984 353.101 106.415 352.896 105.808C352.7 105.192 352.602 104.595 352.602 104.016V103.708C352.602 103.073 352.705 102.448 352.91 101.832C353.115 101.207 353.428 100.642 353.848 100.138C354.277 99.634 354.814 99.2327 355.458 98.934C356.111 98.626 356.881 98.472 357.768 98.472C358.692 98.472 359.509 98.6447 360.218 98.99C360.927 99.3353 361.492 99.816 361.912 100.432C362.341 101.039 362.593 101.753 362.668 102.574H360.358C360.293 102.163 360.143 101.813 359.91 101.524C359.677 101.235 359.373 101.011 359 100.852C358.636 100.693 358.225 100.614 357.768 100.614C357.311 100.614 356.905 100.693 356.55 100.852C356.195 101.011 355.897 101.235 355.654 101.524C355.421 101.813 355.239 102.159 355.108 102.56C354.987 102.952 354.926 103.391 354.926 103.876C354.926 104.352 354.987 104.791 355.108 105.192C355.239 105.584 355.425 105.929 355.668 106.228C355.92 106.517 356.228 106.741 356.592 106.9C356.956 107.049 357.371 107.124 357.838 107.124C358.547 107.124 359.145 106.951 359.63 106.606C360.125 106.261 360.423 105.785 360.526 105.178H362.822C362.738 105.925 362.486 106.611 362.066 107.236C361.655 107.852 361.091 108.347 360.372 108.72C359.663 109.084 358.818 109.266 357.838 109.266ZM364.219 109V101.328H365.997V104.618H365.955C365.955 103.535 366.184 102.7 366.641 102.112C367.108 101.524 367.78 101.23 368.657 101.23H368.951V103.162H368.391C367.775 103.162 367.299 103.33 366.963 103.666C366.627 103.993 366.459 104.469 366.459 105.094V109H364.219ZM370.476 109V101.328H372.716V109H370.476ZM369.454 102.98V101.328H372.716V102.98H369.454ZM371.344 100.572C370.924 100.572 370.611 100.465 370.406 100.25C370.21 100.026 370.112 99.746 370.112 99.41C370.112 99.0647 370.21 98.7847 370.406 98.57C370.611 98.346 370.924 98.234 371.344 98.234C371.764 98.234 372.072 98.346 372.268 98.57C372.473 98.7847 372.576 99.0647 372.576 99.41C372.576 99.746 372.473 100.026 372.268 100.25C372.072 100.465 371.764 100.572 371.344 100.572ZM378.274 109.098C377.499 109.098 376.874 109.005 376.398 108.818C375.922 108.622 375.572 108.3 375.348 107.852C375.133 107.395 375.026 106.779 375.026 106.004V99.256H377.112V106.088C377.112 106.452 377.205 106.732 377.392 106.928C377.588 107.115 377.863 107.208 378.218 107.208H379.352V109.098H378.274ZM373.864 102.966V101.328H379.352V102.966H373.864ZM381.222 109V101.328H383.462V109H381.222ZM380.2 102.98V101.328H383.462V102.98H380.2ZM382.09 100.572C381.67 100.572 381.357 100.465 381.152 100.25C380.956 100.026 380.858 99.746 380.858 99.41C380.858 99.0647 380.956 98.7847 381.152 98.57C381.357 98.346 381.67 98.234 382.09 98.234C382.51 98.234 382.818 98.346 383.014 98.57C383.219 98.7847 383.322 99.0647 383.322 99.41C383.322 99.746 383.219 100.026 383.014 100.25C382.818 100.465 382.51 100.572 382.09 100.572ZM388.978 109.266C388.315 109.266 387.736 109.159 387.242 108.944C386.756 108.72 386.35 108.421 386.024 108.048C385.697 107.675 385.454 107.255 385.296 106.788C385.137 106.312 385.058 105.822 385.058 105.318V105.052C385.058 104.529 385.142 104.03 385.31 103.554C385.478 103.069 385.725 102.639 386.052 102.266C386.378 101.893 386.784 101.599 387.27 101.384C387.764 101.169 388.329 101.062 388.964 101.062C389.654 101.062 390.266 101.197 390.798 101.468C391.33 101.729 391.754 102.098 392.072 102.574C392.389 103.05 392.566 103.596 392.604 104.212H390.406C390.368 103.867 390.228 103.577 389.986 103.344C389.752 103.101 389.412 102.98 388.964 102.98C388.59 102.98 388.278 103.073 388.026 103.26C387.783 103.447 387.601 103.703 387.48 104.03C387.358 104.357 387.298 104.744 387.298 105.192C387.298 105.603 387.354 105.976 387.466 106.312C387.578 106.639 387.755 106.895 387.998 107.082C388.25 107.259 388.576 107.348 388.978 107.348C389.276 107.348 389.528 107.297 389.734 107.194C389.948 107.082 390.116 106.933 390.238 106.746C390.368 106.55 390.448 106.326 390.476 106.074H392.66C392.632 106.709 392.454 107.269 392.128 107.754C391.801 108.23 391.367 108.603 390.826 108.874C390.284 109.135 389.668 109.266 388.978 109.266ZM398.726 109V106.732H398.348V104.268C398.348 103.876 398.255 103.582 398.068 103.386C397.882 103.19 397.583 103.092 397.172 103.092C396.967 103.092 396.696 103.097 396.36 103.106C396.024 103.115 395.679 103.129 395.324 103.148C394.97 103.167 394.648 103.185 394.358 103.204V101.314C394.573 101.295 394.825 101.277 395.114 101.258C395.404 101.239 395.702 101.225 396.01 101.216C396.318 101.207 396.608 101.202 396.878 101.202C397.662 101.202 398.32 101.314 398.852 101.538C399.394 101.762 399.804 102.103 400.084 102.56C400.364 103.008 400.504 103.587 400.504 104.296V109H398.726ZM396.276 109.196C395.726 109.196 395.24 109.098 394.82 108.902C394.41 108.706 394.088 108.426 393.854 108.062C393.621 107.689 393.504 107.245 393.504 106.732C393.504 106.172 393.649 105.715 393.938 105.36C394.228 104.996 394.634 104.73 395.156 104.562C395.679 104.385 396.281 104.296 396.962 104.296H398.6V105.542H396.948C396.556 105.542 396.253 105.64 396.038 105.836C395.833 106.023 395.73 106.279 395.73 106.606C395.73 106.914 395.833 107.166 396.038 107.362C396.253 107.549 396.556 107.642 396.948 107.642C397.2 107.642 397.424 107.6 397.62 107.516C397.826 107.423 397.994 107.269 398.124 107.054C398.255 106.839 398.33 106.541 398.348 106.158L398.88 106.718C398.834 107.25 398.703 107.698 398.488 108.062C398.283 108.426 397.994 108.706 397.62 108.902C397.256 109.098 396.808 109.196 396.276 109.196ZM402.503 109V98.78H404.757V109H402.503ZM401.593 100.432V98.78H404.757V100.432H401.593Z" fill="#3E4852"/>
<path d="M359.756 145V134.78H362.052V145H359.756ZM353.148 145V134.78H355.444V145H353.148ZM355.038 140.87V138.854H360.162V140.87H355.038ZM364.583 145V137.328H366.823V145H364.583ZM363.561 138.98V137.328H366.823V138.98H363.561ZM365.451 136.572C365.031 136.572 364.719 136.465 364.513 136.25C364.317 136.026 364.219 135.746 364.219 135.41C364.219 135.065 364.317 134.785 364.513 134.57C364.719 134.346 365.031 134.234 365.451 134.234C365.871 134.234 366.179 134.346 366.375 134.57C366.581 134.785 366.683 135.065 366.683 135.41C366.683 135.746 366.581 136.026 366.375 136.25C366.179 136.465 365.871 136.572 365.451 136.572ZM371.919 148.052C371.546 148.052 371.163 148.038 370.771 148.01C370.379 147.982 370.02 147.945 369.693 147.898V146.008C370.02 146.055 370.379 146.092 370.771 146.12C371.172 146.157 371.536 146.176 371.863 146.176C372.47 146.176 372.96 146.106 373.333 145.966C373.716 145.826 373.996 145.611 374.173 145.322C374.35 145.042 374.439 144.678 374.439 144.23V142.704L374.845 141.808C374.826 142.489 374.691 143.073 374.439 143.558C374.196 144.043 373.856 144.417 373.417 144.678C372.978 144.93 372.456 145.056 371.849 145.056C371.326 145.056 370.85 144.963 370.421 144.776C370.001 144.58 369.642 144.309 369.343 143.964C369.044 143.619 368.816 143.217 368.657 142.76C368.498 142.293 368.419 141.789 368.419 141.248V140.926C368.419 140.385 368.503 139.881 368.671 139.414C368.839 138.947 369.082 138.541 369.399 138.196C369.716 137.851 370.094 137.585 370.533 137.398C370.972 137.202 371.457 137.104 371.989 137.104C372.605 137.104 373.137 137.239 373.585 137.51C374.042 137.781 374.402 138.177 374.663 138.7C374.924 139.223 375.064 139.853 375.083 140.59L374.775 140.674V137.328H376.553V144.09C376.553 145.033 376.385 145.793 376.049 146.372C375.713 146.951 375.2 147.375 374.509 147.646C373.828 147.917 372.964 148.052 371.919 148.052ZM372.549 143.166C372.894 143.166 373.207 143.091 373.487 142.942C373.767 142.783 373.986 142.559 374.145 142.27C374.313 141.981 374.397 141.631 374.397 141.22V140.814C374.397 140.413 374.308 140.077 374.131 139.806C373.963 139.526 373.739 139.316 373.459 139.176C373.179 139.027 372.88 138.952 372.563 138.952C372.19 138.952 371.858 139.041 371.569 139.218C371.28 139.395 371.056 139.643 370.897 139.96C370.738 140.277 370.659 140.651 370.659 141.08C370.659 141.519 370.738 141.897 370.897 142.214C371.065 142.522 371.289 142.76 371.569 142.928C371.858 143.087 372.185 143.166 372.549 143.166ZM378.493 145V134.78H380.733V140.674H380.397C380.397 139.899 380.495 139.246 380.691 138.714C380.887 138.182 381.176 137.781 381.559 137.51C381.941 137.23 382.422 137.09 383.001 137.09H383.099C383.948 137.09 384.597 137.393 385.045 138C385.493 138.597 385.717 139.475 385.717 140.632V145H383.477V140.492C383.477 140.072 383.351 139.736 383.099 139.484C382.856 139.223 382.534 139.092 382.133 139.092C381.713 139.092 381.372 139.227 381.111 139.498C380.859 139.769 380.733 140.128 380.733 140.576V145H378.493Z" fill="#3E4852"/>
<path d="M353.148 181V170.78H356.312L358.65 176.52H358.916L361.226 170.78H364.446V181H362.178V172.278L362.5 172.306L359.798 178.928H357.614L354.898 172.306L355.248 172.278V181H353.148ZM370.126 181.266C369.473 181.266 368.894 181.154 368.39 180.93C367.895 180.706 367.48 180.407 367.144 180.034C366.817 179.651 366.565 179.227 366.388 178.76C366.22 178.284 366.136 177.799 366.136 177.304V177.024C366.136 176.511 366.22 176.021 366.388 175.554C366.565 175.078 366.817 174.653 367.144 174.28C367.471 173.907 367.877 173.613 368.362 173.398C368.857 173.174 369.417 173.062 370.042 173.062C370.863 173.062 371.554 173.249 372.114 173.622C372.683 173.986 373.117 174.467 373.416 175.064C373.715 175.652 373.864 176.296 373.864 176.996V177.752H367.074V176.478H372.506L371.778 177.066C371.778 176.609 371.713 176.217 371.582 175.89C371.451 175.563 371.255 175.316 370.994 175.148C370.742 174.971 370.425 174.882 370.042 174.882C369.65 174.882 369.319 174.971 369.048 175.148C368.777 175.325 368.572 175.587 368.432 175.932C368.292 176.268 368.222 176.683 368.222 177.178C368.222 177.635 368.287 178.037 368.418 178.382C368.549 178.718 368.754 178.979 369.034 179.166C369.314 179.353 369.678 179.446 370.126 179.446C370.537 179.446 370.873 179.367 371.134 179.208C371.395 179.049 371.573 178.853 371.666 178.62H373.724C373.612 179.133 373.393 179.591 373.066 179.992C372.739 180.393 372.329 180.706 371.834 180.93C371.339 181.154 370.77 181.266 370.126 181.266ZM378.512 181.252C377.971 181.252 377.476 181.154 377.028 180.958C376.59 180.762 376.207 180.491 375.88 180.146C375.554 179.791 375.302 179.376 375.124 178.9C374.956 178.424 374.872 177.911 374.872 177.36V177.038C374.872 176.487 374.952 175.974 375.11 175.498C375.278 175.022 375.516 174.607 375.824 174.252C376.142 173.888 376.52 173.608 376.958 173.412C377.397 173.207 377.887 173.104 378.428 173.104C379.044 173.104 379.576 173.239 380.024 173.51C380.472 173.771 380.822 174.163 381.074 174.686C381.326 175.199 381.466 175.834 381.494 176.59L380.906 176.044V170.78H383.16V181H381.382V177.822H381.69C381.662 178.55 381.508 179.171 381.228 179.684C380.958 180.197 380.589 180.589 380.122 180.86C379.656 181.121 379.119 181.252 378.512 181.252ZM379.072 179.376C379.418 179.376 379.73 179.301 380.01 179.152C380.3 178.993 380.528 178.765 380.696 178.466C380.874 178.167 380.962 177.808 380.962 177.388V176.87C380.962 176.459 380.874 176.114 380.696 175.834C380.519 175.554 380.286 175.339 379.996 175.19C379.707 175.041 379.394 174.966 379.058 174.966C378.685 174.966 378.349 175.064 378.05 175.26C377.761 175.447 377.532 175.708 377.364 176.044C377.196 176.371 377.112 176.753 377.112 177.192C377.112 177.64 377.196 178.027 377.364 178.354C377.532 178.681 377.766 178.933 378.064 179.11C378.363 179.287 378.699 179.376 379.072 179.376ZM385.556 181V173.328H387.796V181H385.556ZM384.534 174.98V173.328H387.796V174.98H384.534ZM386.424 172.572C386.004 172.572 385.691 172.465 385.486 172.25C385.29 172.026 385.192 171.746 385.192 171.41C385.192 171.065 385.29 170.785 385.486 170.57C385.691 170.346 386.004 170.234 386.424 170.234C386.844 170.234 387.152 170.346 387.348 170.57C387.553 170.785 387.656 171.065 387.656 171.41C387.656 171.746 387.553 172.026 387.348 172.25C387.152 172.465 386.844 172.572 386.424 172.572ZM392.458 181.238C391.571 181.238 390.89 180.953 390.414 180.384C389.938 179.805 389.7 178.937 389.7 177.78V173.328H391.94V177.892C391.94 178.303 392.056 178.629 392.29 178.872C392.523 179.115 392.836 179.236 393.228 179.236C393.629 179.236 393.956 179.11 394.208 178.858C394.46 178.606 394.586 178.265 394.586 177.836V173.328H396.826V181H395.048V177.766H395.202C395.202 178.541 395.099 179.189 394.894 179.712C394.698 180.225 394.404 180.608 394.012 180.86C393.62 181.112 393.134 181.238 392.556 181.238H392.458ZM398.891 181V173.328H400.669V176.632H400.543C400.543 175.848 400.641 175.195 400.837 174.672C401.033 174.149 401.327 173.757 401.719 173.496C402.111 173.225 402.592 173.09 403.161 173.09H403.259C403.838 173.09 404.318 173.225 404.701 173.496C405.093 173.757 405.387 174.149 405.583 174.672C405.788 175.195 405.891 175.848 405.891 176.632H405.345C405.345 175.848 405.443 175.195 405.639 174.672C405.844 174.149 406.143 173.757 406.535 173.496C406.927 173.225 407.408 173.09 407.977 173.09H408.075C408.654 173.09 409.139 173.225 409.531 173.496C409.932 173.757 410.236 174.149 410.441 174.672C410.646 175.195 410.749 175.848 410.749 176.632V181H408.509V176.506C408.509 176.086 408.397 175.745 408.173 175.484C407.958 175.223 407.65 175.092 407.249 175.092C406.848 175.092 406.53 175.227 406.297 175.498C406.064 175.759 405.947 176.109 405.947 176.548V181H403.693V176.506C403.693 176.086 403.581 175.745 403.357 175.484C403.142 175.223 402.839 175.092 402.447 175.092C402.036 175.092 401.714 175.227 401.481 175.498C401.248 175.759 401.131 176.109 401.131 176.548V181H398.891Z" fill="#3E4852"/>
<path d="M353.148 217V206.78H355.444V217H353.148ZM355.164 217V214.984H359.448V217H355.164ZM364.471 217.266C363.799 217.266 363.202 217.163 362.679 216.958C362.156 216.743 361.713 216.454 361.349 216.09C360.994 215.726 360.724 215.311 360.537 214.844C360.35 214.368 360.257 213.869 360.257 213.346V213.024C360.257 212.492 360.35 211.988 360.537 211.512C360.733 211.027 361.013 210.602 361.377 210.238C361.75 209.874 362.198 209.589 362.721 209.384C363.244 209.169 363.827 209.062 364.471 209.062C365.134 209.062 365.722 209.169 366.235 209.384C366.758 209.589 367.201 209.874 367.565 210.238C367.929 210.602 368.209 211.027 368.405 211.512C368.601 211.988 368.699 212.492 368.699 213.024V213.346C368.699 213.869 368.606 214.368 368.419 214.844C368.232 215.311 367.957 215.726 367.593 216.09C367.238 216.454 366.8 216.743 366.277 216.958C365.754 217.163 365.152 217.266 364.471 217.266ZM364.471 215.376C364.91 215.376 365.274 215.283 365.563 215.096C365.852 214.909 366.072 214.648 366.221 214.312C366.38 213.976 366.459 213.603 366.459 213.192C366.459 212.753 366.38 212.371 366.221 212.044C366.062 211.708 365.834 211.442 365.535 211.246C365.246 211.05 364.891 210.952 364.471 210.952C364.06 210.952 363.706 211.05 363.407 211.246C363.108 211.442 362.88 211.708 362.721 212.044C362.572 212.371 362.497 212.753 362.497 213.192C362.497 213.603 362.572 213.976 362.721 214.312C362.87 214.648 363.094 214.909 363.393 215.096C363.692 215.283 364.051 215.376 364.471 215.376ZM372.899 217L374.299 209.58H376.749L378.373 217H376.637L374.971 209.636H375.965L374.467 217H372.899ZM372.367 217L372.353 215.138H373.893L373.907 217H372.367ZM371.359 217L369.301 209.328H371.499L373.417 217H371.359ZM377.211 217L377.225 215.138H378.765V217H377.211ZM377.841 217L379.549 209.328H381.607L379.759 217H377.841Z" fill="#3E4852"/>
<rect x="280" y="88" width="64" height="32" rx="4" fill="#EA3829"/>
<path d="M331.271 109.294C330.338 109.294 329.577 109.079 328.989 108.65C328.401 108.221 327.967 107.628 327.687 106.872C327.407 106.107 327.267 105.225 327.267 104.226V103.582C327.267 102.527 327.416 101.622 327.715 100.866C328.014 100.101 328.457 99.5127 329.045 99.102C329.642 98.682 330.384 98.472 331.271 98.472C332.158 98.472 332.895 98.682 333.483 99.102C334.08 99.5127 334.528 100.101 334.827 100.866C335.126 101.622 335.275 102.527 335.275 103.582V104.226C335.275 105.225 335.135 106.107 334.855 106.872C334.575 107.628 334.141 108.221 333.553 108.65C332.965 109.079 332.204 109.294 331.271 109.294ZM331.271 107.194C331.691 107.194 332.027 107.091 332.279 106.886C332.54 106.671 332.727 106.321 332.839 105.836C332.96 105.351 333.021 104.711 333.021 103.918C333.021 103.078 332.96 102.415 332.839 101.93C332.718 101.445 332.526 101.099 332.265 100.894C332.013 100.689 331.682 100.586 331.271 100.586C330.87 100.586 330.538 100.689 330.277 100.894C330.016 101.099 329.824 101.445 329.703 101.93C329.582 102.406 329.521 103.059 329.521 103.89C329.521 104.693 329.577 105.337 329.689 105.822C329.81 106.307 330.002 106.657 330.263 106.872C330.524 107.087 330.86 107.194 331.271 107.194Z" fill="white"/>
<rect x="280" y="124" width="64" height="32" rx="4" fill="#F68511"/>
<path d="M331.271 145.294C330.338 145.294 329.577 145.079 328.989 144.65C328.401 144.221 327.967 143.628 327.687 142.872C327.407 142.107 327.267 141.225 327.267 140.226V139.582C327.267 138.527 327.416 137.622 327.715 136.866C328.014 136.101 328.457 135.513 329.045 135.102C329.642 134.682 330.384 134.472 331.271 134.472C332.158 134.472 332.895 134.682 333.483 135.102C334.08 135.513 334.528 136.101 334.827 136.866C335.126 137.622 335.275 138.527 335.275 139.582V140.226C335.275 141.225 335.135 142.107 334.855 142.872C334.575 143.628 334.141 144.221 333.553 144.65C332.965 145.079 332.204 145.294 331.271 145.294ZM331.271 143.194C331.691 143.194 332.027 143.091 332.279 142.886C332.54 142.671 332.727 142.321 332.839 141.836C332.96 141.351 333.021 140.711 333.021 139.918C333.021 139.078 332.96 138.415 332.839 137.93C332.718 137.445 332.526 137.099 332.265 136.894C332.013 136.689 331.682 136.586 331.271 136.586C330.87 136.586 330.538 136.689 330.277 136.894C330.016 137.099 329.824 137.445 329.703 137.93C329.582 138.406 329.521 139.059 329.521 139.89C329.521 140.693 329.577 141.337 329.689 141.822C329.81 142.307 330.002 142.657 330.263 142.872C330.524 143.087 330.86 143.194 331.271 143.194Z" fill="white"/>
<rect x="280" y="160" width="64" height="32" rx="4" fill="#F9B208"/>
<path d="M331.271 181.294C330.338 181.294 329.577 181.079 328.989 180.65C328.401 180.221 327.967 179.628 327.687 178.872C327.407 178.107 327.267 177.225 327.267 176.226V175.582C327.267 174.527 327.416 173.622 327.715 172.866C328.014 172.101 328.457 171.513 329.045 171.102C329.642 170.682 330.384 170.472 331.271 170.472C332.158 170.472 332.895 170.682 333.483 171.102C334.08 171.513 334.528 172.101 334.827 172.866C335.126 173.622 335.275 174.527 335.275 175.582V176.226C335.275 177.225 335.135 178.107 334.855 178.872C334.575 179.628 334.141 180.221 333.553 180.65C332.965 181.079 332.204 181.294 331.271 181.294ZM331.271 179.194C331.691 179.194 332.027 179.091 332.279 178.886C332.54 178.671 332.727 178.321 332.839 177.836C332.96 177.351 333.021 176.711 333.021 175.918C333.021 175.078 332.96 174.415 332.839 173.93C332.718 173.445 332.526 173.099 332.265 172.894C332.013 172.689 331.682 172.586 331.271 172.586C330.87 172.586 330.538 172.689 330.277 172.894C330.016 173.099 329.824 173.445 329.703 173.93C329.582 174.406 329.521 175.059 329.521 175.89C329.521 176.693 329.577 177.337 329.689 177.822C329.81 178.307 330.002 178.657 330.263 178.872C330.524 179.087 330.86 179.194 331.271 179.194Z" fill="white"/>
<rect x="280" y="196" width="64" height="32" rx="4" fill="#0FB5AE"/>
<path d="M331.271 217.294C330.338 217.294 329.577 217.079 328.989 216.65C328.401 216.221 327.967 215.628 327.687 214.872C327.407 214.107 327.267 213.225 327.267 212.226V211.582C327.267 210.527 327.416 209.622 327.715 208.866C328.014 208.101 328.457 207.513 329.045 207.102C329.642 206.682 330.384 206.472 331.271 206.472C332.158 206.472 332.895 206.682 333.483 207.102C334.08 207.513 334.528 208.101 334.827 208.866C335.126 209.622 335.275 210.527 335.275 211.582V212.226C335.275 213.225 335.135 214.107 334.855 214.872C334.575 215.628 334.141 216.221 333.553 216.65C332.965 217.079 332.204 217.294 331.271 217.294ZM331.271 215.194C331.691 215.194 332.027 215.091 332.279 214.886C332.54 214.671 332.727 214.321 332.839 213.836C332.96 213.351 333.021 212.711 333.021 211.918C333.021 211.078 332.96 210.415 332.839 209.93C332.718 209.445 332.526 209.099 332.265 208.894C332.013 208.689 331.682 208.586 331.271 208.586C330.87 208.586 330.538 208.689 330.277 208.894C330.016 209.099 329.824 209.445 329.703 209.93C329.582 210.406 329.521 211.059 329.521 211.89C329.521 212.693 329.577 213.337 329.689 213.822C329.81 214.307 330.002 214.657 330.263 214.872C330.524 215.087 330.86 215.194 331.271 215.194Z" fill="white"/>
<rect x="0.5" y="0.5" width="511" height="327" rx="15.5" stroke="#E1E4E7"/>
</svg>
