<svg width="512" height="328" viewBox="0 0 512 328" fill="none" xmlns="http://www.w3.org/2000/svg">
<rect x="0.5" y="0.5" width="511" height="327" rx="15.5" fill="white"/>
<path d="M58.368 48.456C56.784 48.456 55.4 48.184 54.216 47.64C53.048 47.08 52.08 46.352 51.312 45.456C50.544 44.544 49.968 43.56 49.584 42.504C49.216 41.448 49.032 40.432 49.032 39.456V38.928C49.032 37.84 49.224 36.768 49.608 35.712C50.008 34.64 50.6 33.672 51.384 32.808C52.168 31.944 53.144 31.256 54.312 30.744C55.48 30.216 56.832 29.952 58.368 29.952C59.904 29.952 61.256 30.216 62.424 30.744C63.592 31.256 64.568 31.944 65.352 32.808C66.136 33.672 66.728 34.64 67.128 35.712C67.528 36.768 67.728 37.84 67.728 38.928V39.456C67.728 40.432 67.536 41.448 67.152 42.504C66.768 43.56 66.192 44.544 65.424 45.456C64.656 46.352 63.68 47.08 62.496 47.64C61.328 48.184 59.952 48.456 58.368 48.456ZM58.368 44.784C59.2 44.784 59.944 44.64 60.6 44.352C61.272 44.064 61.84 43.664 62.304 43.152C62.784 42.64 63.144 42.048 63.384 41.376C63.624 40.704 63.744 39.984 63.744 39.216C63.744 38.4 63.616 37.656 63.36 36.984C63.12 36.296 62.76 35.704 62.28 35.208C61.816 34.696 61.256 34.304 60.6 34.032C59.944 33.76 59.2 33.624 58.368 33.624C57.536 33.624 56.792 33.76 56.136 34.032C55.48 34.304 54.912 34.696 54.432 35.208C53.968 35.704 53.616 36.296 53.376 36.984C53.136 37.656 53.016 38.4 53.016 39.216C53.016 39.984 53.136 40.704 53.376 41.376C53.616 42.048 53.968 42.64 54.432 43.152C54.912 43.664 55.48 44.064 56.136 44.352C56.792 44.64 57.536 44.784 58.368 44.784ZM70.4942 52.8V34.848H73.5422V40.536L73.1342 40.512C73.1982 39.2 73.4702 38.096 73.9502 37.2C74.4302 36.288 75.0782 35.608 75.8942 35.16C76.7102 34.696 77.6302 34.464 78.6542 34.464C79.5662 34.464 80.3902 34.632 81.1262 34.968C81.8782 35.304 82.5182 35.776 83.0462 36.384C83.5902 36.976 83.9982 37.68 84.2702 38.496C84.5582 39.296 84.7022 40.176 84.7022 41.136V41.688C84.7022 42.632 84.5662 43.52 84.2942 44.352C84.0222 45.168 83.6222 45.88 83.0942 46.488C82.5822 47.096 81.9502 47.576 81.1982 47.928C80.4622 48.264 79.6142 48.432 78.6542 48.432C77.6622 48.432 76.7662 48.232 75.9662 47.832C75.1822 47.416 74.5502 46.792 74.0702 45.96C73.5902 45.112 73.3262 44.04 73.2782 42.744L74.3342 44.184V52.8H70.4942ZM77.5742 45.216C78.2302 45.216 78.7982 45.056 79.2782 44.736C79.7742 44.416 80.1582 43.968 80.4302 43.392C80.7022 42.816 80.8382 42.152 80.8382 41.4C80.8382 40.648 80.7022 39.992 80.4302 39.432C80.1582 38.872 79.7822 38.44 79.3022 38.136C78.8222 37.816 78.2462 37.656 77.5742 37.656C76.9982 37.656 76.4542 37.792 75.9422 38.064C75.4302 38.336 75.0142 38.728 74.6942 39.24C74.3902 39.736 74.2382 40.344 74.2382 41.064V41.952C74.2382 42.64 74.3982 43.232 74.7182 43.728C75.0542 44.208 75.4782 44.576 75.9902 44.832C76.5022 45.088 77.0302 45.216 77.5742 45.216ZM93.3932 48.456C92.2732 48.456 91.2812 48.264 90.4172 47.88C89.5692 47.496 88.8572 46.984 88.2812 46.344C87.7212 45.688 87.2892 44.96 86.9852 44.16C86.6972 43.344 86.5532 42.512 86.5532 41.664V41.184C86.5532 40.304 86.6972 39.464 86.9852 38.664C87.2892 37.848 87.7212 37.12 88.2812 36.48C88.8412 35.84 89.5372 35.336 90.3692 34.968C91.2172 34.584 92.1772 34.392 93.2492 34.392C94.6572 34.392 95.8412 34.712 96.8012 35.352C97.7772 35.976 98.5212 36.8 99.0332 37.824C99.5452 38.832 99.8012 39.936 99.8012 41.136V42.432H88.1612V40.248H97.4732L96.2252 41.256C96.2252 40.472 96.1132 39.8 95.8892 39.24C95.6652 38.68 95.3292 38.256 94.8812 37.968C94.4492 37.664 93.9052 37.512 93.2492 37.512C92.5772 37.512 92.0092 37.664 91.5452 37.968C91.0812 38.272 90.7292 38.72 90.4892 39.312C90.2492 39.888 90.1292 40.6 90.1292 41.448C90.1292 42.232 90.2412 42.92 90.4652 43.512C90.6892 44.088 91.0412 44.536 91.5212 44.856C92.0012 45.176 92.6252 45.336 93.3932 45.336C94.0972 45.336 94.6732 45.2 95.1212 44.928C95.5692 44.656 95.8732 44.32 96.0332 43.92H99.5612C99.3692 44.8 98.9932 45.584 98.4332 46.272C97.8732 46.96 97.1692 47.496 96.3212 47.88C95.4732 48.264 94.4972 48.456 93.3932 48.456ZM102.346 48V34.848H105.394V40.488H105.322C105.322 38.632 105.714 37.2 106.498 36.192C107.298 35.184 108.45 34.68 109.954 34.68H110.458V37.992H109.498C108.442 37.992 107.626 38.28 107.05 38.856C106.474 39.416 106.186 40.232 106.186 41.304V48H102.346ZM120.298 48V44.112H119.65V39.888C119.65 39.216 119.49 38.712 119.17 38.376C118.85 38.04 118.338 37.872 117.634 37.872C117.282 37.872 116.818 37.88 116.242 37.896C115.666 37.912 115.074 37.936 114.466 37.968C113.858 38 113.306 38.032 112.81 38.064V34.824C113.178 34.792 113.61 34.76 114.106 34.728C114.602 34.696 115.114 34.672 115.642 34.656C116.17 34.64 116.666 34.632 117.13 34.632C118.474 34.632 119.602 34.824 120.514 35.208C121.442 35.592 122.146 36.176 122.626 36.96C123.106 37.728 123.346 38.72 123.346 39.936V48H120.298ZM116.098 48.336C115.154 48.336 114.322 48.168 113.602 47.832C112.898 47.496 112.346 47.016 111.946 46.392C111.546 45.752 111.346 44.992 111.346 44.112C111.346 43.152 111.594 42.368 112.09 41.76C112.586 41.136 113.282 40.68 114.178 40.392C115.074 40.088 116.106 39.936 117.274 39.936H120.082V42.072H117.25C116.578 42.072 116.058 42.24 115.69 42.576C115.338 42.896 115.162 43.336 115.162 43.896C115.162 44.424 115.338 44.856 115.69 45.192C116.058 45.512 116.578 45.672 117.25 45.672C117.682 45.672 118.066 45.6 118.402 45.456C118.754 45.296 119.042 45.032 119.266 44.664C119.49 44.296 119.618 43.784 119.65 43.128L120.562 44.088C120.482 45 120.258 45.768 119.89 46.392C119.538 47.016 119.042 47.496 118.402 47.832C117.778 48.168 117.01 48.336 116.098 48.336ZM132.58 48.168C131.252 48.168 130.18 48.008 129.364 47.688C128.548 47.352 127.948 46.8 127.564 46.032C127.196 45.248 127.012 44.192 127.012 42.864V31.296H130.588V43.008C130.588 43.632 130.748 44.112 131.068 44.448C131.404 44.768 131.876 44.928 132.484 44.928H134.428V48.168H132.58ZM125.02 37.656V34.848H134.428V37.656H125.02ZM137.634 48V34.848H141.474V48H137.634ZM135.882 37.68V34.848H141.474V37.68H135.882ZM139.122 33.552C138.402 33.552 137.866 33.368 137.514 33C137.178 32.616 137.01 32.136 137.01 31.56C137.01 30.968 137.178 30.488 137.514 30.12C137.866 29.736 138.402 29.544 139.122 29.544C139.842 29.544 140.37 29.736 140.706 30.12C141.058 30.488 141.234 30.968 141.234 31.56C141.234 32.136 141.058 32.616 140.706 33C140.37 33.368 139.842 33.552 139.122 33.552ZM151.433 48.456C150.281 48.456 149.257 48.28 148.361 47.928C147.465 47.56 146.705 47.064 146.081 46.44C145.473 45.816 145.009 45.104 144.689 44.304C144.369 43.488 144.209 42.632 144.209 41.736V41.184C144.209 40.272 144.369 39.408 144.689 38.592C145.025 37.76 145.505 37.032 146.129 36.408C146.769 35.784 147.537 35.296 148.433 34.944C149.329 34.576 150.329 34.392 151.433 34.392C152.569 34.392 153.577 34.576 154.457 34.944C155.353 35.296 156.113 35.784 156.737 36.408C157.361 37.032 157.841 37.76 158.177 38.592C158.513 39.408 158.681 40.272 158.681 41.184V41.736C158.681 42.632 158.521 43.488 158.201 44.304C157.881 45.104 157.409 45.816 156.785 46.44C156.177 47.064 155.425 47.56 154.529 47.928C153.633 48.28 152.601 48.456 151.433 48.456ZM151.433 45.216C152.185 45.216 152.809 45.056 153.305 44.736C153.801 44.416 154.177 43.968 154.433 43.392C154.705 42.816 154.841 42.176 154.841 41.472C154.841 40.72 154.705 40.064 154.433 39.504C154.161 38.928 153.769 38.472 153.257 38.136C152.761 37.8 152.153 37.632 151.433 37.632C150.729 37.632 150.121 37.8 149.609 38.136C149.097 38.472 148.705 38.928 148.433 39.504C148.177 40.064 148.049 40.72 148.049 41.472C148.049 42.176 148.177 42.816 148.433 43.392C148.689 43.968 149.073 44.416 149.585 44.736C150.097 45.056 150.713 45.216 151.433 45.216ZM161.361 48V34.848H164.409V40.488H164.193C164.193 39.144 164.361 38.024 164.697 37.128C165.049 36.232 165.577 35.56 166.281 35.112C166.985 34.664 167.841 34.44 168.849 34.44H169.017C170.553 34.44 171.721 34.944 172.521 35.952C173.337 36.944 173.745 38.456 173.745 40.488V48H169.905V40.272C169.905 39.568 169.697 38.992 169.281 38.544C168.865 38.096 168.305 37.872 167.601 37.872C166.881 37.872 166.297 38.104 165.849 38.568C165.417 39.016 165.201 39.608 165.201 40.344V48H161.361ZM184.962 48V44.112H184.314V39.888C184.314 39.216 184.154 38.712 183.834 38.376C183.514 38.04 183.002 37.872 182.298 37.872C181.946 37.872 181.482 37.88 180.906 37.896C180.33 37.912 179.738 37.936 179.13 37.968C178.522 38 177.97 38.032 177.474 38.064V34.824C177.842 34.792 178.274 34.76 178.77 34.728C179.266 34.696 179.778 34.672 180.306 34.656C180.834 34.64 181.33 34.632 181.794 34.632C183.138 34.632 184.266 34.824 185.178 35.208C186.106 35.592 186.81 36.176 187.29 36.96C187.77 37.728 188.01 38.72 188.01 39.936V48H184.962ZM180.762 48.336C179.818 48.336 178.986 48.168 178.266 47.832C177.562 47.496 177.01 47.016 176.61 46.392C176.21 45.752 176.01 44.992 176.01 44.112C176.01 43.152 176.258 42.368 176.754 41.76C177.25 41.136 177.946 40.68 178.842 40.392C179.738 40.088 180.77 39.936 181.938 39.936H184.746V42.072H181.914C181.242 42.072 180.722 42.24 180.354 42.576C180.002 42.896 179.826 43.336 179.826 43.896C179.826 44.424 180.002 44.856 180.354 45.192C180.722 45.512 181.242 45.672 181.914 45.672C182.346 45.672 182.73 45.6 183.066 45.456C183.418 45.296 183.706 45.032 183.93 44.664C184.154 44.296 184.282 43.784 184.314 43.128L185.226 44.088C185.146 45 184.922 45.768 184.554 46.392C184.202 47.016 183.706 47.496 183.066 47.832C182.442 48.168 181.674 48.336 180.762 48.336ZM191.436 48V30.48H195.3V48H191.436ZM189.876 33.312V30.48H195.3V33.312H189.876ZM203.877 48V34.848H206.925V40.488H206.853C206.853 38.632 207.245 37.2 208.029 36.192C208.829 35.184 209.981 34.68 211.485 34.68H211.989V37.992H211.029C209.973 37.992 209.157 38.28 208.581 38.856C208.005 39.416 207.717 40.232 207.717 41.304V48H203.877ZM214.603 48V34.848H218.443V48H214.603ZM212.851 37.68V34.848H218.443V37.68H212.851ZM216.091 33.552C215.371 33.552 214.835 33.368 214.483 33C214.147 32.616 213.979 32.136 213.979 31.56C213.979 30.968 214.147 30.488 214.483 30.12C214.835 29.736 215.371 29.544 216.091 29.544C216.811 29.544 217.339 29.736 217.675 30.12C218.027 30.488 218.203 30.968 218.203 31.56C218.203 32.136 218.027 32.616 217.675 33C217.339 33.368 216.811 33.552 216.091 33.552ZM226.986 48.408C225.114 48.408 223.65 48.024 222.594 47.256C221.538 46.488 220.978 45.408 220.914 44.016H224.322C224.386 44.432 224.634 44.808 225.066 45.144C225.514 45.464 226.178 45.624 227.058 45.624C227.73 45.624 228.282 45.512 228.714 45.288C229.162 45.048 229.386 44.712 229.386 44.28C229.386 43.896 229.218 43.592 228.882 43.368C228.546 43.128 227.946 42.96 227.082 42.864L226.05 42.768C224.466 42.608 223.274 42.168 222.474 41.448C221.69 40.728 221.298 39.808 221.298 38.688C221.298 37.76 221.53 36.984 221.994 36.36C222.458 35.736 223.098 35.264 223.914 34.944C224.746 34.624 225.69 34.464 226.746 34.464C228.442 34.464 229.81 34.84 230.85 35.592C231.89 36.328 232.434 37.4 232.482 38.808H229.074C229.01 38.376 228.786 38.016 228.402 37.728C228.018 37.424 227.45 37.272 226.698 37.272C226.106 37.272 225.634 37.384 225.282 37.608C224.93 37.832 224.754 38.136 224.754 38.52C224.754 38.888 224.906 39.168 225.21 39.36C225.514 39.552 226.01 39.688 226.698 39.768L227.73 39.864C229.346 40.04 230.602 40.488 231.498 41.208C232.394 41.928 232.842 42.896 232.842 44.112C232.842 44.992 232.602 45.76 232.122 46.416C231.642 47.056 230.962 47.552 230.082 47.904C229.202 48.24 228.17 48.408 226.986 48.408ZM244.594 48L240.442 41.856H238.594L243.946 34.848H247.978L242.938 41.376L242.986 39.504L248.914 48H244.594ZM235.33 48V30.48H239.17V48H235.33Z" fill="#3E4852"/>
<rect x="257" y="24" width="49" height="32" rx="8" fill="#EA3829"/>
<path d="M267.288 45L271.384 35.704L271.208 35.464H265.528V33.32H274.376V34.984L270.072 45H267.288ZM265.528 37.352V33.32H267.656V37.352H265.528ZM280.831 45.304C279.903 45.304 279.108 45.1547 278.447 44.856C277.785 44.5467 277.247 44.1307 276.831 43.608C276.425 43.0853 276.121 42.4827 275.919 41.8C275.727 41.1067 275.631 40.376 275.631 39.608V38.696C275.631 37.6293 275.817 36.664 276.191 35.8C276.564 34.936 277.135 34.248 277.903 33.736C278.671 33.224 279.647 32.968 280.831 32.968C282.015 32.968 282.985 33.224 283.743 33.736C284.511 34.248 285.081 34.936 285.455 35.8C285.828 36.664 286.015 37.6293 286.015 38.696V39.608C286.015 40.376 285.913 41.1067 285.711 41.8C285.519 42.4827 285.215 43.0853 284.799 43.608C284.393 44.1307 283.86 44.5467 283.199 44.856C282.548 45.1547 281.759 45.304 280.831 45.304ZM280.831 42.888C281.695 42.888 282.335 42.5893 282.751 41.992C283.177 41.384 283.391 40.4453 283.391 39.176C283.391 37.832 283.172 36.8667 282.735 36.28C282.308 35.6827 281.673 35.384 280.831 35.384C279.967 35.384 279.321 35.6827 278.895 36.28C278.468 36.8667 278.255 37.8213 278.255 39.144C278.255 40.424 278.463 41.368 278.879 41.976C279.305 42.584 279.956 42.888 280.831 42.888ZM289.886 45L293.078 36.24H294.686L291.506 45H289.886ZM289.286 41.052C288.814 41.052 288.418 40.948 288.098 40.74C287.786 40.524 287.55 40.24 287.39 39.888C287.238 39.528 287.162 39.132 287.162 38.7V38.388C287.162 37.932 287.242 37.528 287.402 37.176C287.562 36.824 287.802 36.548 288.122 36.348C288.442 36.148 288.83 36.048 289.286 36.048C289.75 36.048 290.138 36.148 290.45 36.348C290.77 36.548 291.01 36.824 291.17 37.176C291.33 37.528 291.41 37.932 291.41 38.388V38.7C291.41 39.132 291.33 39.528 291.17 39.888C291.018 40.24 290.786 40.524 290.474 40.74C290.162 40.948 289.766 41.052 289.286 41.052ZM289.286 39.768C289.534 39.768 289.714 39.68 289.826 39.504C289.946 39.32 290.006 39.004 290.006 38.556C290.006 38.084 289.946 37.76 289.826 37.584C289.706 37.408 289.526 37.32 289.286 37.32C289.046 37.32 288.866 37.408 288.746 37.584C288.626 37.76 288.566 38.08 288.566 38.544C288.566 38.992 288.626 39.308 288.746 39.492C288.866 39.676 289.046 39.768 289.286 39.768ZM295.25 45.204C294.77 45.204 294.374 45.1 294.062 44.892C293.75 44.684 293.514 44.404 293.354 44.052C293.202 43.692 293.126 43.296 293.126 42.864V42.552C293.126 42.088 293.206 41.68 293.366 41.328C293.526 40.976 293.762 40.7 294.074 40.5C294.394 40.3 294.786 40.2 295.25 40.2C295.714 40.2 296.102 40.3 296.414 40.5C296.726 40.7 296.962 40.976 297.122 41.328C297.282 41.68 297.362 42.088 297.362 42.552V42.864C297.362 43.296 297.282 43.692 297.122 44.052C296.97 44.404 296.738 44.684 296.426 44.892C296.122 45.1 295.73 45.204 295.25 45.204ZM295.25 43.932C295.498 43.932 295.678 43.844 295.79 43.668C295.91 43.484 295.97 43.168 295.97 42.72C295.97 42.24 295.91 41.916 295.79 41.748C295.67 41.572 295.49 41.484 295.25 41.484C295.01 41.484 294.826 41.572 294.698 41.748C294.578 41.916 294.518 42.236 294.518 42.708C294.518 43.156 294.578 43.472 294.698 43.656C294.818 43.84 295.002 43.932 295.25 43.932Z" fill="white"/>
<path d="M288.704 291V271.736L290.112 272.824H283.008V267.64H294.656V291H288.704ZM282.368 291V285.816H299.904V291H282.368ZM312.441 291.704C310.265 291.704 308.484 291.213 307.097 290.232C305.71 289.251 304.686 287.896 304.025 286.168C303.364 284.419 303.033 282.392 303.033 280.088V278.616C303.033 276.205 303.385 274.136 304.089 272.408C304.793 270.659 305.838 269.315 307.225 268.376C308.633 267.416 310.372 266.936 312.441 266.936C314.51 266.936 316.238 267.416 317.625 268.376C319.033 269.315 320.089 270.659 320.793 272.408C321.497 274.136 321.849 276.205 321.849 278.616V280.088C321.849 282.392 321.518 284.419 320.857 286.168C320.196 287.896 319.172 289.251 317.785 290.232C316.398 291.213 314.617 291.704 312.441 291.704ZM312.441 286.2C313.316 286.2 314.009 285.997 314.521 285.592C315.054 285.165 315.438 284.451 315.673 283.448C315.908 282.445 316.025 281.091 316.025 279.384C316.025 277.592 315.897 276.195 315.641 275.192C315.406 274.189 315.022 273.485 314.489 273.08C313.977 272.653 313.294 272.44 312.441 272.44C311.609 272.44 310.926 272.643 310.393 273.048C309.86 273.453 309.465 274.157 309.209 275.16C308.974 276.163 308.857 277.549 308.857 279.32C308.857 281.048 308.974 282.413 309.209 283.416C309.444 284.419 309.828 285.133 310.361 285.56C310.894 285.987 311.588 286.2 312.441 286.2ZM325.49 290.968V285.816C325.49 284.813 325.671 283.917 326.034 283.128C326.397 282.339 326.962 281.645 327.73 281.048C328.519 280.429 329.554 279.875 330.834 279.384L334.578 277.944C335.495 277.581 336.135 277.133 336.498 276.6C336.882 276.045 337.074 275.363 337.074 274.552C337.074 273.805 336.807 273.176 336.274 272.664C335.741 272.131 334.983 271.864 334.002 271.864C333.021 271.864 332.263 272.141 331.73 272.696C331.197 273.229 330.93 273.955 330.93 274.872H325.17C325.17 273.336 325.501 271.971 326.162 270.776C326.845 269.581 327.837 268.643 329.138 267.96C330.461 267.277 332.082 266.936 334.002 266.936C335.901 266.936 337.501 267.267 338.802 267.928C340.125 268.589 341.127 269.485 341.81 270.616C342.493 271.725 342.834 272.973 342.834 274.36V274.744C342.834 276.6 342.29 278.157 341.202 279.416C340.135 280.653 338.535 281.677 336.402 282.488L332.658 283.928C332.125 284.141 331.751 284.376 331.538 284.632C331.346 284.867 331.25 285.176 331.25 285.56V286.776L329.938 285.848H342.77V290.968H325.49ZM345.835 286.872V280.824L354.315 266.936L359.019 269.912L352.043 281.432L352.523 282.136H365.995V286.872H345.835ZM357.995 291V274.072H363.499V291H357.995Z" fill="#3E4852"/>
<path d="M280.182 257L283.556 246.78H287.266L290.766 257H288.386L285.558 248.362L286.286 248.656H284.48L285.236 248.362L282.478 257H280.182ZM282.744 254.466L283.444 252.562H287.448L288.162 254.466H282.744ZM294.858 257.238C293.766 257.238 292.912 257.014 292.296 256.566C291.68 256.118 291.353 255.488 291.316 254.676H293.304C293.341 254.919 293.486 255.138 293.738 255.334C293.999 255.521 294.386 255.614 294.9 255.614C295.292 255.614 295.614 255.549 295.866 255.418C296.127 255.278 296.258 255.082 296.258 254.83C296.258 254.606 296.16 254.429 295.964 254.298C295.768 254.158 295.418 254.06 294.914 254.004L294.312 253.948C293.388 253.855 292.692 253.598 292.226 253.178C291.768 252.758 291.54 252.221 291.54 251.568C291.54 251.027 291.675 250.574 291.946 250.21C292.216 249.846 292.59 249.571 293.066 249.384C293.551 249.197 294.102 249.104 294.718 249.104C295.707 249.104 296.505 249.323 297.112 249.762C297.718 250.191 298.036 250.817 298.064 251.638H296.076C296.038 251.386 295.908 251.176 295.684 251.008C295.46 250.831 295.128 250.742 294.69 250.742C294.344 250.742 294.069 250.807 293.864 250.938C293.658 251.069 293.556 251.246 293.556 251.47C293.556 251.685 293.644 251.848 293.822 251.96C293.999 252.072 294.288 252.151 294.69 252.198L295.292 252.254C296.234 252.357 296.967 252.618 297.49 253.038C298.012 253.458 298.274 254.023 298.274 254.732C298.274 255.245 298.134 255.693 297.854 256.076C297.574 256.449 297.177 256.739 296.664 256.944C296.15 257.14 295.548 257.238 294.858 257.238ZM302.637 257.238C301.545 257.238 300.691 257.014 300.075 256.566C299.459 256.118 299.132 255.488 299.095 254.676H301.083C301.12 254.919 301.265 255.138 301.517 255.334C301.778 255.521 302.166 255.614 302.679 255.614C303.071 255.614 303.393 255.549 303.645 255.418C303.906 255.278 304.037 255.082 304.037 254.83C304.037 254.606 303.939 254.429 303.743 254.298C303.547 254.158 303.197 254.06 302.693 254.004L302.091 253.948C301.167 253.855 300.472 253.598 300.005 253.178C299.548 252.758 299.319 252.221 299.319 251.568C299.319 251.027 299.454 250.574 299.725 250.21C299.996 249.846 300.369 249.571 300.845 249.384C301.33 249.197 301.881 249.104 302.497 249.104C303.486 249.104 304.284 249.323 304.891 249.762C305.498 250.191 305.815 250.817 305.843 251.638H303.855C303.818 251.386 303.687 251.176 303.463 251.008C303.239 250.831 302.908 250.742 302.469 250.742C302.124 250.742 301.848 250.807 301.643 250.938C301.438 251.069 301.335 251.246 301.335 251.47C301.335 251.685 301.424 251.848 301.601 251.96C301.778 252.072 302.068 252.151 302.469 252.198L303.071 252.254C304.014 252.357 304.746 252.618 305.269 253.038C305.792 253.458 306.053 254.023 306.053 254.732C306.053 255.245 305.913 255.693 305.633 256.076C305.353 256.449 304.956 256.739 304.443 256.944C303.93 257.14 303.328 257.238 302.637 257.238ZM311.018 257.266C310.365 257.266 309.786 257.154 309.282 256.93C308.788 256.706 308.372 256.407 308.036 256.034C307.71 255.651 307.458 255.227 307.28 254.76C307.112 254.284 307.028 253.799 307.028 253.304V253.024C307.028 252.511 307.112 252.021 307.28 251.554C307.458 251.078 307.71 250.653 308.036 250.28C308.363 249.907 308.769 249.613 309.254 249.398C309.749 249.174 310.309 249.062 310.934 249.062C311.756 249.062 312.446 249.249 313.006 249.622C313.576 249.986 314.01 250.467 314.308 251.064C314.607 251.652 314.756 252.296 314.756 252.996V253.752H307.966V252.478H313.398L312.67 253.066C312.67 252.609 312.605 252.217 312.474 251.89C312.344 251.563 312.148 251.316 311.886 251.148C311.634 250.971 311.317 250.882 310.934 250.882C310.542 250.882 310.211 250.971 309.94 251.148C309.67 251.325 309.464 251.587 309.324 251.932C309.184 252.268 309.114 252.683 309.114 253.178C309.114 253.635 309.18 254.037 309.31 254.382C309.441 254.718 309.646 254.979 309.926 255.166C310.206 255.353 310.57 255.446 311.018 255.446C311.429 255.446 311.765 255.367 312.026 255.208C312.288 255.049 312.465 254.853 312.558 254.62H314.616C314.504 255.133 314.285 255.591 313.958 255.992C313.632 256.393 313.221 256.706 312.726 256.93C312.232 257.154 311.662 257.266 311.018 257.266ZM319.727 257.098C318.952 257.098 318.327 257.005 317.851 256.818C317.375 256.622 317.025 256.3 316.801 255.852C316.586 255.395 316.479 254.779 316.479 254.004V247.256H318.565V254.088C318.565 254.452 318.658 254.732 318.845 254.928C319.041 255.115 319.316 255.208 319.671 255.208H320.805V257.098H319.727ZM315.317 250.966V249.328H320.805V250.966H315.317ZM325.168 257.238C324.076 257.238 323.222 257.014 322.606 256.566C321.99 256.118 321.664 255.488 321.626 254.676H323.614C323.652 254.919 323.796 255.138 324.048 255.334C324.31 255.521 324.697 255.614 325.21 255.614C325.602 255.614 325.924 255.549 326.176 255.418C326.438 255.278 326.568 255.082 326.568 254.83C326.568 254.606 326.47 254.429 326.274 254.298C326.078 254.158 325.728 254.06 325.224 254.004L324.622 253.948C323.698 253.855 323.003 253.598 322.536 253.178C322.079 252.758 321.85 252.221 321.85 251.568C321.85 251.027 321.986 250.574 322.256 250.21C322.527 249.846 322.9 249.571 323.376 249.384C323.862 249.197 324.412 249.104 325.028 249.104C326.018 249.104 326.816 249.323 327.422 249.762C328.029 250.191 328.346 250.817 328.374 251.638H326.386C326.349 251.386 326.218 251.176 325.994 251.008C325.77 250.831 325.439 250.742 325 250.742C324.655 250.742 324.38 250.807 324.174 250.938C323.969 251.069 323.866 251.246 323.866 251.47C323.866 251.685 323.955 251.848 324.132 251.96C324.31 252.072 324.599 252.151 325 252.198L325.602 252.254C326.545 252.357 327.278 252.618 327.8 253.038C328.323 253.458 328.584 254.023 328.584 254.732C328.584 255.245 328.444 255.693 328.164 256.076C327.884 256.449 327.488 256.739 326.974 256.944C326.461 257.14 325.859 257.238 325.168 257.238ZM337.609 257V254.732H337.231V252.268C337.231 251.876 337.138 251.582 336.951 251.386C336.764 251.19 336.466 251.092 336.055 251.092C335.85 251.092 335.579 251.097 335.243 251.106C334.907 251.115 334.562 251.129 334.207 251.148C333.852 251.167 333.53 251.185 333.241 251.204V249.314C333.456 249.295 333.708 249.277 333.997 249.258C334.286 249.239 334.585 249.225 334.893 249.216C335.201 249.207 335.49 249.202 335.761 249.202C336.545 249.202 337.203 249.314 337.735 249.538C338.276 249.762 338.687 250.103 338.967 250.56C339.247 251.008 339.387 251.587 339.387 252.296V257H337.609ZM335.159 257.196C334.608 257.196 334.123 257.098 333.703 256.902C333.292 256.706 332.97 256.426 332.737 256.062C332.504 255.689 332.387 255.245 332.387 254.732C332.387 254.172 332.532 253.715 332.821 253.36C333.11 252.996 333.516 252.73 334.039 252.562C334.562 252.385 335.164 252.296 335.845 252.296H337.483V253.542H335.831C335.439 253.542 335.136 253.64 334.921 253.836C334.716 254.023 334.613 254.279 334.613 254.606C334.613 254.914 334.716 255.166 334.921 255.362C335.136 255.549 335.439 255.642 335.831 255.642C336.083 255.642 336.307 255.6 336.503 255.516C336.708 255.423 336.876 255.269 337.007 255.054C337.138 254.839 337.212 254.541 337.231 254.158L337.763 254.718C337.716 255.25 337.586 255.698 337.371 256.062C337.166 256.426 336.876 256.706 336.503 256.902C336.139 257.098 335.691 257.196 335.159 257.196ZM344.774 257.098C343.999 257.098 343.374 257.005 342.898 256.818C342.422 256.622 342.072 256.3 341.848 255.852C341.633 255.395 341.526 254.779 341.526 254.004V247.256H343.612V254.088C343.612 254.452 343.705 254.732 343.892 254.928C344.088 255.115 344.363 255.208 344.718 255.208H345.852V257.098H344.774ZM340.364 250.966V249.328H345.852V250.966H340.364ZM350.297 257V249.328H352.075V252.618H352.033C352.033 251.535 352.262 250.7 352.719 250.112C353.186 249.524 353.858 249.23 354.735 249.23H355.029V251.162H354.469C353.853 251.162 353.377 251.33 353.041 251.666C352.705 251.993 352.537 252.469 352.537 253.094V257H350.297ZM356.554 257V249.328H358.794V257H356.554ZM355.532 250.98V249.328H358.794V250.98H355.532ZM357.422 248.572C357.002 248.572 356.689 248.465 356.484 248.25C356.288 248.026 356.19 247.746 356.19 247.41C356.19 247.065 356.288 246.785 356.484 246.57C356.689 246.346 357.002 246.234 357.422 246.234C357.842 246.234 358.15 246.346 358.346 246.57C358.551 246.785 358.654 247.065 358.654 247.41C358.654 247.746 358.551 248.026 358.346 248.25C358.15 248.465 357.842 248.572 357.422 248.572ZM363.778 257.238C362.686 257.238 361.832 257.014 361.216 256.566C360.6 256.118 360.273 255.488 360.236 254.676H362.224C362.261 254.919 362.406 255.138 362.658 255.334C362.919 255.521 363.306 255.614 363.82 255.614C364.212 255.614 364.534 255.549 364.786 255.418C365.047 255.278 365.178 255.082 365.178 254.83C365.178 254.606 365.08 254.429 364.884 254.298C364.688 254.158 364.338 254.06 363.834 254.004L363.232 253.948C362.308 253.855 361.612 253.598 361.146 253.178C360.688 252.758 360.46 252.221 360.46 251.568C360.46 251.027 360.595 250.574 360.866 250.21C361.136 249.846 361.51 249.571 361.986 249.384C362.471 249.197 363.022 249.104 363.638 249.104C364.627 249.104 365.425 249.323 366.032 249.762C366.638 250.191 366.956 250.817 366.984 251.638H364.996C364.958 251.386 364.828 251.176 364.604 251.008C364.38 250.831 364.048 250.742 363.61 250.742C363.264 250.742 362.989 250.807 362.784 250.938C362.578 251.069 362.476 251.246 362.476 251.47C362.476 251.685 362.564 251.848 362.742 251.96C362.919 252.072 363.208 252.151 363.61 252.198L364.212 252.254C365.154 252.357 365.887 252.618 366.41 253.038C366.932 253.458 367.194 254.023 367.194 254.732C367.194 255.245 367.054 255.693 366.774 256.076C366.494 256.449 366.097 256.739 365.584 256.944C365.07 257.14 364.468 257.238 363.778 257.238ZM374.049 257L371.627 253.416H370.549L373.671 249.328H376.023L373.083 253.136L373.111 252.044L376.569 257H374.049ZM368.645 257V246.78H370.885V257H368.645Z" fill="#3E4852"/>
<circle cx="152" cy="192" r="104" fill="#F68511"/>
<path d="M152 192L48 192C48 249.438 94.5624 296 152 296L152 192Z" fill="#F9B208"/>
<path d="M152 192L152 88C94.5624 88 48 134.562 48 192L152 192Z" fill="#0FB5AE"/>
<path d="M152 192L256 192C256 134.562 209.438 88 152 88L152 192Z" fill="#EA3829"/>
<path d="M208 192C208 222.928 182.928 248 152 248V136C182.928 136 208 161.072 208 192Z" fill="black" fill-opacity="0.2"/>
<path d="M152 192H96C96 161.072 121.072 136 152 136V192Z" fill="black" fill-opacity="0.2"/>
<path d="M152 192L96 192C96 222.928 121.072 248 152 248L152 192Z" fill="black" fill-opacity="0.2"/>
<circle cx="152" cy="192" r="48" fill="white"/>
<path d="M357.838 109.266C356.914 109.266 356.121 109.107 355.458 108.79C354.795 108.463 354.254 108.039 353.834 107.516C353.414 106.984 353.101 106.415 352.896 105.808C352.7 105.192 352.602 104.595 352.602 104.016V103.708C352.602 103.073 352.705 102.448 352.91 101.832C353.115 101.207 353.428 100.642 353.848 100.138C354.277 99.634 354.814 99.2327 355.458 98.934C356.111 98.626 356.881 98.472 357.768 98.472C358.692 98.472 359.509 98.6447 360.218 98.99C360.927 99.3353 361.492 99.816 361.912 100.432C362.341 101.039 362.593 101.753 362.668 102.574H360.358C360.293 102.163 360.143 101.813 359.91 101.524C359.677 101.235 359.373 101.011 359 100.852C358.636 100.693 358.225 100.614 357.768 100.614C357.311 100.614 356.905 100.693 356.55 100.852C356.195 101.011 355.897 101.235 355.654 101.524C355.421 101.813 355.239 102.159 355.108 102.56C354.987 102.952 354.926 103.391 354.926 103.876C354.926 104.352 354.987 104.791 355.108 105.192C355.239 105.584 355.425 105.929 355.668 106.228C355.92 106.517 356.228 106.741 356.592 106.9C356.956 107.049 357.371 107.124 357.838 107.124C358.547 107.124 359.145 106.951 359.63 106.606C360.125 106.261 360.423 105.785 360.526 105.178H362.822C362.738 105.925 362.486 106.611 362.066 107.236C361.655 107.852 361.091 108.347 360.372 108.72C359.663 109.084 358.818 109.266 357.838 109.266ZM364.219 109V101.328H365.997V104.618H365.955C365.955 103.535 366.184 102.7 366.641 102.112C367.108 101.524 367.78 101.23 368.657 101.23H368.951V103.162H368.391C367.775 103.162 367.299 103.33 366.963 103.666C366.627 103.993 366.459 104.469 366.459 105.094V109H364.219ZM370.476 109V101.328H372.716V109H370.476ZM369.454 102.98V101.328H372.716V102.98H369.454ZM371.344 100.572C370.924 100.572 370.611 100.465 370.406 100.25C370.21 100.026 370.112 99.746 370.112 99.41C370.112 99.0647 370.21 98.7847 370.406 98.57C370.611 98.346 370.924 98.234 371.344 98.234C371.764 98.234 372.072 98.346 372.268 98.57C372.473 98.7847 372.576 99.0647 372.576 99.41C372.576 99.746 372.473 100.026 372.268 100.25C372.072 100.465 371.764 100.572 371.344 100.572ZM378.274 109.098C377.499 109.098 376.874 109.005 376.398 108.818C375.922 108.622 375.572 108.3 375.348 107.852C375.133 107.395 375.026 106.779 375.026 106.004V99.256H377.112V106.088C377.112 106.452 377.205 106.732 377.392 106.928C377.588 107.115 377.863 107.208 378.218 107.208H379.352V109.098H378.274ZM373.864 102.966V101.328H379.352V102.966H373.864ZM381.222 109V101.328H383.462V109H381.222ZM380.2 102.98V101.328H383.462V102.98H380.2ZM382.09 100.572C381.67 100.572 381.357 100.465 381.152 100.25C380.956 100.026 380.858 99.746 380.858 99.41C380.858 99.0647 380.956 98.7847 381.152 98.57C381.357 98.346 381.67 98.234 382.09 98.234C382.51 98.234 382.818 98.346 383.014 98.57C383.219 98.7847 383.322 99.0647 383.322 99.41C383.322 99.746 383.219 100.026 383.014 100.25C382.818 100.465 382.51 100.572 382.09 100.572ZM388.978 109.266C388.315 109.266 387.736 109.159 387.242 108.944C386.756 108.72 386.35 108.421 386.024 108.048C385.697 107.675 385.454 107.255 385.296 106.788C385.137 106.312 385.058 105.822 385.058 105.318V105.052C385.058 104.529 385.142 104.03 385.31 103.554C385.478 103.069 385.725 102.639 386.052 102.266C386.378 101.893 386.784 101.599 387.27 101.384C387.764 101.169 388.329 101.062 388.964 101.062C389.654 101.062 390.266 101.197 390.798 101.468C391.33 101.729 391.754 102.098 392.072 102.574C392.389 103.05 392.566 103.596 392.604 104.212H390.406C390.368 103.867 390.228 103.577 389.986 103.344C389.752 103.101 389.412 102.98 388.964 102.98C388.59 102.98 388.278 103.073 388.026 103.26C387.783 103.447 387.601 103.703 387.48 104.03C387.358 104.357 387.298 104.744 387.298 105.192C387.298 105.603 387.354 105.976 387.466 106.312C387.578 106.639 387.755 106.895 387.998 107.082C388.25 107.259 388.576 107.348 388.978 107.348C389.276 107.348 389.528 107.297 389.734 107.194C389.948 107.082 390.116 106.933 390.238 106.746C390.368 106.55 390.448 106.326 390.476 106.074H392.66C392.632 106.709 392.454 107.269 392.128 107.754C391.801 108.23 391.367 108.603 390.826 108.874C390.284 109.135 389.668 109.266 388.978 109.266ZM398.726 109V106.732H398.348V104.268C398.348 103.876 398.255 103.582 398.068 103.386C397.882 103.19 397.583 103.092 397.172 103.092C396.967 103.092 396.696 103.097 396.36 103.106C396.024 103.115 395.679 103.129 395.324 103.148C394.97 103.167 394.648 103.185 394.358 103.204V101.314C394.573 101.295 394.825 101.277 395.114 101.258C395.404 101.239 395.702 101.225 396.01 101.216C396.318 101.207 396.608 101.202 396.878 101.202C397.662 101.202 398.32 101.314 398.852 101.538C399.394 101.762 399.804 102.103 400.084 102.56C400.364 103.008 400.504 103.587 400.504 104.296V109H398.726ZM396.276 109.196C395.726 109.196 395.24 109.098 394.82 108.902C394.41 108.706 394.088 108.426 393.854 108.062C393.621 107.689 393.504 107.245 393.504 106.732C393.504 106.172 393.649 105.715 393.938 105.36C394.228 104.996 394.634 104.73 395.156 104.562C395.679 104.385 396.281 104.296 396.962 104.296H398.6V105.542H396.948C396.556 105.542 396.253 105.64 396.038 105.836C395.833 106.023 395.73 106.279 395.73 106.606C395.73 106.914 395.833 107.166 396.038 107.362C396.253 107.549 396.556 107.642 396.948 107.642C397.2 107.642 397.424 107.6 397.62 107.516C397.826 107.423 397.994 107.269 398.124 107.054C398.255 106.839 398.33 106.541 398.348 106.158L398.88 106.718C398.834 107.25 398.703 107.698 398.488 108.062C398.283 108.426 397.994 108.706 397.62 108.902C397.256 109.098 396.808 109.196 396.276 109.196ZM402.503 109V98.78H404.757V109H402.503ZM401.593 100.432V98.78H404.757V100.432H401.593Z" fill="#3E4852"/>
<path d="M359.756 145V134.78H362.052V145H359.756ZM353.148 145V134.78H355.444V145H353.148ZM355.038 140.87V138.854H360.162V140.87H355.038ZM364.583 145V137.328H366.823V145H364.583ZM363.561 138.98V137.328H366.823V138.98H363.561ZM365.451 136.572C365.031 136.572 364.719 136.465 364.513 136.25C364.317 136.026 364.219 135.746 364.219 135.41C364.219 135.065 364.317 134.785 364.513 134.57C364.719 134.346 365.031 134.234 365.451 134.234C365.871 134.234 366.179 134.346 366.375 134.57C366.581 134.785 366.683 135.065 366.683 135.41C366.683 135.746 366.581 136.026 366.375 136.25C366.179 136.465 365.871 136.572 365.451 136.572ZM371.919 148.052C371.546 148.052 371.163 148.038 370.771 148.01C370.379 147.982 370.02 147.945 369.693 147.898V146.008C370.02 146.055 370.379 146.092 370.771 146.12C371.172 146.157 371.536 146.176 371.863 146.176C372.47 146.176 372.96 146.106 373.333 145.966C373.716 145.826 373.996 145.611 374.173 145.322C374.35 145.042 374.439 144.678 374.439 144.23V142.704L374.845 141.808C374.826 142.489 374.691 143.073 374.439 143.558C374.196 144.043 373.856 144.417 373.417 144.678C372.978 144.93 372.456 145.056 371.849 145.056C371.326 145.056 370.85 144.963 370.421 144.776C370.001 144.58 369.642 144.309 369.343 143.964C369.044 143.619 368.816 143.217 368.657 142.76C368.498 142.293 368.419 141.789 368.419 141.248V140.926C368.419 140.385 368.503 139.881 368.671 139.414C368.839 138.947 369.082 138.541 369.399 138.196C369.716 137.851 370.094 137.585 370.533 137.398C370.972 137.202 371.457 137.104 371.989 137.104C372.605 137.104 373.137 137.239 373.585 137.51C374.042 137.781 374.402 138.177 374.663 138.7C374.924 139.223 375.064 139.853 375.083 140.59L374.775 140.674V137.328H376.553V144.09C376.553 145.033 376.385 145.793 376.049 146.372C375.713 146.951 375.2 147.375 374.509 147.646C373.828 147.917 372.964 148.052 371.919 148.052ZM372.549 143.166C372.894 143.166 373.207 143.091 373.487 142.942C373.767 142.783 373.986 142.559 374.145 142.27C374.313 141.981 374.397 141.631 374.397 141.22V140.814C374.397 140.413 374.308 140.077 374.131 139.806C373.963 139.526 373.739 139.316 373.459 139.176C373.179 139.027 372.88 138.952 372.563 138.952C372.19 138.952 371.858 139.041 371.569 139.218C371.28 139.395 371.056 139.643 370.897 139.96C370.738 140.277 370.659 140.651 370.659 141.08C370.659 141.519 370.738 141.897 370.897 142.214C371.065 142.522 371.289 142.76 371.569 142.928C371.858 143.087 372.185 143.166 372.549 143.166ZM378.493 145V134.78H380.733V140.674H380.397C380.397 139.899 380.495 139.246 380.691 138.714C380.887 138.182 381.176 137.781 381.559 137.51C381.941 137.23 382.422 137.09 383.001 137.09H383.099C383.948 137.09 384.597 137.393 385.045 138C385.493 138.597 385.717 139.475 385.717 140.632V145H383.477V140.492C383.477 140.072 383.351 139.736 383.099 139.484C382.856 139.223 382.534 139.092 382.133 139.092C381.713 139.092 381.372 139.227 381.111 139.498C380.859 139.769 380.733 140.128 380.733 140.576V145H378.493Z" fill="#3E4852"/>
<path d="M353.148 181V170.78H356.312L358.65 176.52H358.916L361.226 170.78H364.446V181H362.178V172.278L362.5 172.306L359.798 178.928H357.614L354.898 172.306L355.248 172.278V181H353.148ZM370.126 181.266C369.473 181.266 368.894 181.154 368.39 180.93C367.895 180.706 367.48 180.407 367.144 180.034C366.817 179.651 366.565 179.227 366.388 178.76C366.22 178.284 366.136 177.799 366.136 177.304V177.024C366.136 176.511 366.22 176.021 366.388 175.554C366.565 175.078 366.817 174.653 367.144 174.28C367.471 173.907 367.877 173.613 368.362 173.398C368.857 173.174 369.417 173.062 370.042 173.062C370.863 173.062 371.554 173.249 372.114 173.622C372.683 173.986 373.117 174.467 373.416 175.064C373.715 175.652 373.864 176.296 373.864 176.996V177.752H367.074V176.478H372.506L371.778 177.066C371.778 176.609 371.713 176.217 371.582 175.89C371.451 175.563 371.255 175.316 370.994 175.148C370.742 174.971 370.425 174.882 370.042 174.882C369.65 174.882 369.319 174.971 369.048 175.148C368.777 175.325 368.572 175.587 368.432 175.932C368.292 176.268 368.222 176.683 368.222 177.178C368.222 177.635 368.287 178.037 368.418 178.382C368.549 178.718 368.754 178.979 369.034 179.166C369.314 179.353 369.678 179.446 370.126 179.446C370.537 179.446 370.873 179.367 371.134 179.208C371.395 179.049 371.573 178.853 371.666 178.62H373.724C373.612 179.133 373.393 179.591 373.066 179.992C372.739 180.393 372.329 180.706 371.834 180.93C371.339 181.154 370.77 181.266 370.126 181.266ZM378.512 181.252C377.971 181.252 377.476 181.154 377.028 180.958C376.59 180.762 376.207 180.491 375.88 180.146C375.554 179.791 375.302 179.376 375.124 178.9C374.956 178.424 374.872 177.911 374.872 177.36V177.038C374.872 176.487 374.952 175.974 375.11 175.498C375.278 175.022 375.516 174.607 375.824 174.252C376.142 173.888 376.52 173.608 376.958 173.412C377.397 173.207 377.887 173.104 378.428 173.104C379.044 173.104 379.576 173.239 380.024 173.51C380.472 173.771 380.822 174.163 381.074 174.686C381.326 175.199 381.466 175.834 381.494 176.59L380.906 176.044V170.78H383.16V181H381.382V177.822H381.69C381.662 178.55 381.508 179.171 381.228 179.684C380.958 180.197 380.589 180.589 380.122 180.86C379.656 181.121 379.119 181.252 378.512 181.252ZM379.072 179.376C379.418 179.376 379.73 179.301 380.01 179.152C380.3 178.993 380.528 178.765 380.696 178.466C380.874 178.167 380.962 177.808 380.962 177.388V176.87C380.962 176.459 380.874 176.114 380.696 175.834C380.519 175.554 380.286 175.339 379.996 175.19C379.707 175.041 379.394 174.966 379.058 174.966C378.685 174.966 378.349 175.064 378.05 175.26C377.761 175.447 377.532 175.708 377.364 176.044C377.196 176.371 377.112 176.753 377.112 177.192C377.112 177.64 377.196 178.027 377.364 178.354C377.532 178.681 377.766 178.933 378.064 179.11C378.363 179.287 378.699 179.376 379.072 179.376ZM385.556 181V173.328H387.796V181H385.556ZM384.534 174.98V173.328H387.796V174.98H384.534ZM386.424 172.572C386.004 172.572 385.691 172.465 385.486 172.25C385.29 172.026 385.192 171.746 385.192 171.41C385.192 171.065 385.29 170.785 385.486 170.57C385.691 170.346 386.004 170.234 386.424 170.234C386.844 170.234 387.152 170.346 387.348 170.57C387.553 170.785 387.656 171.065 387.656 171.41C387.656 171.746 387.553 172.026 387.348 172.25C387.152 172.465 386.844 172.572 386.424 172.572ZM392.458 181.238C391.571 181.238 390.89 180.953 390.414 180.384C389.938 179.805 389.7 178.937 389.7 177.78V173.328H391.94V177.892C391.94 178.303 392.056 178.629 392.29 178.872C392.523 179.115 392.836 179.236 393.228 179.236C393.629 179.236 393.956 179.11 394.208 178.858C394.46 178.606 394.586 178.265 394.586 177.836V173.328H396.826V181H395.048V177.766H395.202C395.202 178.541 395.099 179.189 394.894 179.712C394.698 180.225 394.404 180.608 394.012 180.86C393.62 181.112 393.134 181.238 392.556 181.238H392.458ZM398.891 181V173.328H400.669V176.632H400.543C400.543 175.848 400.641 175.195 400.837 174.672C401.033 174.149 401.327 173.757 401.719 173.496C402.111 173.225 402.592 173.09 403.161 173.09H403.259C403.838 173.09 404.318 173.225 404.701 173.496C405.093 173.757 405.387 174.149 405.583 174.672C405.788 175.195 405.891 175.848 405.891 176.632H405.345C405.345 175.848 405.443 175.195 405.639 174.672C405.844 174.149 406.143 173.757 406.535 173.496C406.927 173.225 407.408 173.09 407.977 173.09H408.075C408.654 173.09 409.139 173.225 409.531 173.496C409.932 173.757 410.236 174.149 410.441 174.672C410.646 175.195 410.749 175.848 410.749 176.632V181H408.509V176.506C408.509 176.086 408.397 175.745 408.173 175.484C407.958 175.223 407.65 175.092 407.249 175.092C406.848 175.092 406.53 175.227 406.297 175.498C406.064 175.759 405.947 176.109 405.947 176.548V181H403.693V176.506C403.693 176.086 403.581 175.745 403.357 175.484C403.142 175.223 402.839 175.092 402.447 175.092C402.036 175.092 401.714 175.227 401.481 175.498C401.248 175.759 401.131 176.109 401.131 176.548V181H398.891Z" fill="#3E4852"/>
<path d="M353.148 217V206.78H355.444V217H353.148ZM355.164 217V214.984H359.448V217H355.164ZM364.471 217.266C363.799 217.266 363.202 217.163 362.679 216.958C362.156 216.743 361.713 216.454 361.349 216.09C360.994 215.726 360.724 215.311 360.537 214.844C360.35 214.368 360.257 213.869 360.257 213.346V213.024C360.257 212.492 360.35 211.988 360.537 211.512C360.733 211.027 361.013 210.602 361.377 210.238C361.75 209.874 362.198 209.589 362.721 209.384C363.244 209.169 363.827 209.062 364.471 209.062C365.134 209.062 365.722 209.169 366.235 209.384C366.758 209.589 367.201 209.874 367.565 210.238C367.929 210.602 368.209 211.027 368.405 211.512C368.601 211.988 368.699 212.492 368.699 213.024V213.346C368.699 213.869 368.606 214.368 368.419 214.844C368.232 215.311 367.957 215.726 367.593 216.09C367.238 216.454 366.8 216.743 366.277 216.958C365.754 217.163 365.152 217.266 364.471 217.266ZM364.471 215.376C364.91 215.376 365.274 215.283 365.563 215.096C365.852 214.909 366.072 214.648 366.221 214.312C366.38 213.976 366.459 213.603 366.459 213.192C366.459 212.753 366.38 212.371 366.221 212.044C366.062 211.708 365.834 211.442 365.535 211.246C365.246 211.05 364.891 210.952 364.471 210.952C364.06 210.952 363.706 211.05 363.407 211.246C363.108 211.442 362.88 211.708 362.721 212.044C362.572 212.371 362.497 212.753 362.497 213.192C362.497 213.603 362.572 213.976 362.721 214.312C362.87 214.648 363.094 214.909 363.393 215.096C363.692 215.283 364.051 215.376 364.471 215.376ZM372.899 217L374.299 209.58H376.749L378.373 217H376.637L374.971 209.636H375.965L374.467 217H372.899ZM372.367 217L372.353 215.138H373.893L373.907 217H372.367ZM371.359 217L369.301 209.328H371.499L373.417 217H371.359ZM377.211 217L377.225 215.138H378.765V217H377.211ZM377.841 217L379.549 209.328H381.607L379.759 217H377.841Z" fill="#3E4852"/>
<rect x="280" y="88" width="64" height="32" rx="4" fill="#EA3829"/>
<path d="M308.709 108.986V106.872C308.709 106.443 308.784 106.065 308.933 105.738C309.083 105.402 309.321 105.108 309.647 104.856C309.983 104.595 310.422 104.352 310.963 104.128L312.671 103.442C313.101 103.265 313.409 103.045 313.595 102.784C313.782 102.513 313.875 102.177 313.875 101.776C313.875 101.375 313.74 101.043 313.469 100.782C313.208 100.521 312.83 100.39 312.335 100.39C311.85 100.39 311.472 100.525 311.201 100.796C310.931 101.067 310.795 101.431 310.795 101.888H308.583C308.583 101.244 308.723 100.665 309.003 100.152C309.283 99.6293 309.703 99.2187 310.263 98.92C310.823 98.6213 311.514 98.472 312.335 98.472C313.157 98.472 313.843 98.6213 314.393 98.92C314.953 99.2093 315.378 99.5967 315.667 100.082C315.957 100.567 316.101 101.104 316.101 101.692V101.874C316.101 102.667 315.873 103.33 315.415 103.862C314.958 104.394 314.281 104.837 313.385 105.192L311.691 105.892C311.402 106.013 311.201 106.139 311.089 106.27C310.987 106.391 310.935 106.555 310.935 106.76V107.488L310.417 107.026H316.115V108.986H308.709ZM321.908 109.266C321.096 109.266 320.391 109.112 319.794 108.804C319.197 108.487 318.735 108.062 318.408 107.53C318.091 106.998 317.932 106.41 317.932 105.766H320.144C320.144 106.083 320.219 106.363 320.368 106.606C320.527 106.849 320.741 107.035 321.012 107.166C321.283 107.297 321.591 107.362 321.936 107.362C322.3 107.362 322.617 107.287 322.888 107.138C323.159 106.979 323.364 106.769 323.504 106.508C323.644 106.237 323.714 105.934 323.714 105.598C323.714 105.253 323.644 104.949 323.504 104.688C323.364 104.417 323.159 104.203 322.888 104.044C322.627 103.885 322.314 103.806 321.95 103.806C321.605 103.806 321.287 103.876 320.998 104.016C320.718 104.156 320.513 104.333 320.382 104.548H318.226L318.744 98.78H325.058V100.74H319.71L320.536 100.152L320.228 103.47L319.752 103.33C319.939 103.106 320.144 102.905 320.368 102.728C320.601 102.551 320.877 102.411 321.194 102.308C321.511 102.196 321.889 102.14 322.328 102.14C323.075 102.14 323.714 102.294 324.246 102.602C324.787 102.901 325.203 103.307 325.492 103.82C325.781 104.324 325.926 104.889 325.926 105.514V105.696C325.926 106.321 325.767 106.905 325.45 107.446C325.142 107.987 324.689 108.426 324.092 108.762C323.495 109.098 322.767 109.266 321.908 109.266ZM331.495 109.294C330.758 109.294 330.123 109.168 329.591 108.916C329.068 108.664 328.639 108.314 328.303 107.866C327.967 107.418 327.72 106.9 327.561 106.312C327.402 105.715 327.323 105.075 327.323 104.394V103.792C327.323 102.112 327.748 100.843 328.597 99.984C329.456 99.1253 330.702 98.696 332.335 98.696C332.671 98.696 333.002 98.7053 333.329 98.724C333.656 98.7427 333.968 98.7707 334.267 98.808V100.74C333.978 100.703 333.66 100.675 333.315 100.656C332.97 100.637 332.62 100.628 332.265 100.628C331.528 100.628 330.954 100.754 330.543 101.006C330.132 101.258 329.843 101.631 329.675 102.126C329.516 102.611 329.437 103.213 329.437 103.932V105.332H328.975C328.984 104.651 329.12 104.077 329.381 103.61C329.642 103.143 330.006 102.789 330.473 102.546C330.94 102.303 331.472 102.182 332.069 102.182C332.778 102.182 333.385 102.327 333.889 102.616C334.393 102.896 334.78 103.293 335.051 103.806C335.322 104.319 335.457 104.926 335.457 105.626C335.457 106.363 335.289 107.007 334.953 107.558C334.626 108.109 334.164 108.538 333.567 108.846C332.979 109.145 332.288 109.294 331.495 109.294ZM331.425 107.39C331.808 107.39 332.134 107.315 332.405 107.166C332.676 107.017 332.881 106.811 333.021 106.55C333.17 106.289 333.245 105.99 333.245 105.654C333.245 105.299 333.175 104.996 333.035 104.744C332.895 104.483 332.69 104.282 332.419 104.142C332.158 103.993 331.836 103.918 331.453 103.918C331.126 103.918 330.818 103.983 330.529 104.114C330.24 104.245 330.006 104.441 329.829 104.702C329.661 104.954 329.577 105.271 329.577 105.654C329.577 105.981 329.642 106.279 329.773 106.55C329.913 106.811 330.118 107.017 330.389 107.166C330.669 107.315 331.014 107.39 331.425 107.39Z" fill="white"/>
<rect x="280" y="124" width="64" height="32" rx="4" fill="#F68511"/>
<path d="M308.709 144.986V142.872C308.709 142.443 308.784 142.065 308.933 141.738C309.083 141.402 309.321 141.108 309.647 140.856C309.983 140.595 310.422 140.352 310.963 140.128L312.671 139.442C313.101 139.265 313.409 139.045 313.595 138.784C313.782 138.513 313.875 138.177 313.875 137.776C313.875 137.375 313.74 137.043 313.469 136.782C313.208 136.521 312.83 136.39 312.335 136.39C311.85 136.39 311.472 136.525 311.201 136.796C310.931 137.067 310.795 137.431 310.795 137.888H308.583C308.583 137.244 308.723 136.665 309.003 136.152C309.283 135.629 309.703 135.219 310.263 134.92C310.823 134.621 311.514 134.472 312.335 134.472C313.157 134.472 313.843 134.621 314.393 134.92C314.953 135.209 315.378 135.597 315.667 136.082C315.957 136.567 316.101 137.104 316.101 137.692V137.874C316.101 138.667 315.873 139.33 315.415 139.862C314.958 140.394 314.281 140.837 313.385 141.192L311.691 141.892C311.402 142.013 311.201 142.139 311.089 142.27C310.987 142.391 310.935 142.555 310.935 142.76V143.488L310.417 143.026H316.115V144.986H308.709ZM321.908 145.266C321.096 145.266 320.391 145.112 319.794 144.804C319.197 144.487 318.735 144.062 318.408 143.53C318.091 142.998 317.932 142.41 317.932 141.766H320.144C320.144 142.083 320.219 142.363 320.368 142.606C320.527 142.849 320.741 143.035 321.012 143.166C321.283 143.297 321.591 143.362 321.936 143.362C322.3 143.362 322.617 143.287 322.888 143.138C323.159 142.979 323.364 142.769 323.504 142.508C323.644 142.237 323.714 141.934 323.714 141.598C323.714 141.253 323.644 140.949 323.504 140.688C323.364 140.417 323.159 140.203 322.888 140.044C322.627 139.885 322.314 139.806 321.95 139.806C321.605 139.806 321.287 139.876 320.998 140.016C320.718 140.156 320.513 140.333 320.382 140.548H318.226L318.744 134.78H325.058V136.74H319.71L320.536 136.152L320.228 139.47L319.752 139.33C319.939 139.106 320.144 138.905 320.368 138.728C320.601 138.551 320.877 138.411 321.194 138.308C321.511 138.196 321.889 138.14 322.328 138.14C323.075 138.14 323.714 138.294 324.246 138.602C324.787 138.901 325.203 139.307 325.492 139.82C325.781 140.324 325.926 140.889 325.926 141.514V141.696C325.926 142.321 325.767 142.905 325.45 143.446C325.142 143.987 324.689 144.426 324.092 144.762C323.495 145.098 322.767 145.266 321.908 145.266ZM331.495 145.294C330.758 145.294 330.123 145.168 329.591 144.916C329.068 144.664 328.639 144.314 328.303 143.866C327.967 143.418 327.72 142.9 327.561 142.312C327.402 141.715 327.323 141.075 327.323 140.394V139.792C327.323 138.112 327.748 136.843 328.597 135.984C329.456 135.125 330.702 134.696 332.335 134.696C332.671 134.696 333.002 134.705 333.329 134.724C333.656 134.743 333.968 134.771 334.267 134.808V136.74C333.978 136.703 333.66 136.675 333.315 136.656C332.97 136.637 332.62 136.628 332.265 136.628C331.528 136.628 330.954 136.754 330.543 137.006C330.132 137.258 329.843 137.631 329.675 138.126C329.516 138.611 329.437 139.213 329.437 139.932V141.332H328.975C328.984 140.651 329.12 140.077 329.381 139.61C329.642 139.143 330.006 138.789 330.473 138.546C330.94 138.303 331.472 138.182 332.069 138.182C332.778 138.182 333.385 138.327 333.889 138.616C334.393 138.896 334.78 139.293 335.051 139.806C335.322 140.319 335.457 140.926 335.457 141.626C335.457 142.363 335.289 143.007 334.953 143.558C334.626 144.109 334.164 144.538 333.567 144.846C332.979 145.145 332.288 145.294 331.495 145.294ZM331.425 143.39C331.808 143.39 332.134 143.315 332.405 143.166C332.676 143.017 332.881 142.811 333.021 142.55C333.17 142.289 333.245 141.99 333.245 141.654C333.245 141.299 333.175 140.996 333.035 140.744C332.895 140.483 332.69 140.282 332.419 140.142C332.158 139.993 331.836 139.918 331.453 139.918C331.126 139.918 330.818 139.983 330.529 140.114C330.24 140.245 330.006 140.441 329.829 140.702C329.661 140.954 329.577 141.271 329.577 141.654C329.577 141.981 329.642 142.279 329.773 142.55C329.913 142.811 330.118 143.017 330.389 143.166C330.669 143.315 331.014 143.39 331.425 143.39Z" fill="white"/>
<rect x="280" y="160" width="64" height="32" rx="4" fill="#F9B208"/>
<path d="M308.709 180.986V178.872C308.709 178.443 308.784 178.065 308.933 177.738C309.083 177.402 309.321 177.108 309.647 176.856C309.983 176.595 310.422 176.352 310.963 176.128L312.671 175.442C313.101 175.265 313.409 175.045 313.595 174.784C313.782 174.513 313.875 174.177 313.875 173.776C313.875 173.375 313.74 173.043 313.469 172.782C313.208 172.521 312.83 172.39 312.335 172.39C311.85 172.39 311.472 172.525 311.201 172.796C310.931 173.067 310.795 173.431 310.795 173.888H308.583C308.583 173.244 308.723 172.665 309.003 172.152C309.283 171.629 309.703 171.219 310.263 170.92C310.823 170.621 311.514 170.472 312.335 170.472C313.157 170.472 313.843 170.621 314.393 170.92C314.953 171.209 315.378 171.597 315.667 172.082C315.957 172.567 316.101 173.104 316.101 173.692V173.874C316.101 174.667 315.873 175.33 315.415 175.862C314.958 176.394 314.281 176.837 313.385 177.192L311.691 177.892C311.402 178.013 311.201 178.139 311.089 178.27C310.987 178.391 310.935 178.555 310.935 178.76V179.488L310.417 179.026H316.115V180.986H308.709ZM321.908 181.266C321.096 181.266 320.391 181.112 319.794 180.804C319.197 180.487 318.735 180.062 318.408 179.53C318.091 178.998 317.932 178.41 317.932 177.766H320.144C320.144 178.083 320.219 178.363 320.368 178.606C320.527 178.849 320.741 179.035 321.012 179.166C321.283 179.297 321.591 179.362 321.936 179.362C322.3 179.362 322.617 179.287 322.888 179.138C323.159 178.979 323.364 178.769 323.504 178.508C323.644 178.237 323.714 177.934 323.714 177.598C323.714 177.253 323.644 176.949 323.504 176.688C323.364 176.417 323.159 176.203 322.888 176.044C322.627 175.885 322.314 175.806 321.95 175.806C321.605 175.806 321.287 175.876 320.998 176.016C320.718 176.156 320.513 176.333 320.382 176.548H318.226L318.744 170.78H325.058V172.74H319.71L320.536 172.152L320.228 175.47L319.752 175.33C319.939 175.106 320.144 174.905 320.368 174.728C320.601 174.551 320.877 174.411 321.194 174.308C321.511 174.196 321.889 174.14 322.328 174.14C323.075 174.14 323.714 174.294 324.246 174.602C324.787 174.901 325.203 175.307 325.492 175.82C325.781 176.324 325.926 176.889 325.926 177.514V177.696C325.926 178.321 325.767 178.905 325.45 179.446C325.142 179.987 324.689 180.426 324.092 180.762C323.495 181.098 322.767 181.266 321.908 181.266ZM331.495 181.294C330.758 181.294 330.123 181.168 329.591 180.916C329.068 180.664 328.639 180.314 328.303 179.866C327.967 179.418 327.72 178.9 327.561 178.312C327.402 177.715 327.323 177.075 327.323 176.394V175.792C327.323 174.112 327.748 172.843 328.597 171.984C329.456 171.125 330.702 170.696 332.335 170.696C332.671 170.696 333.002 170.705 333.329 170.724C333.656 170.743 333.968 170.771 334.267 170.808V172.74C333.978 172.703 333.66 172.675 333.315 172.656C332.97 172.637 332.62 172.628 332.265 172.628C331.528 172.628 330.954 172.754 330.543 173.006C330.132 173.258 329.843 173.631 329.675 174.126C329.516 174.611 329.437 175.213 329.437 175.932V177.332H328.975C328.984 176.651 329.12 176.077 329.381 175.61C329.642 175.143 330.006 174.789 330.473 174.546C330.94 174.303 331.472 174.182 332.069 174.182C332.778 174.182 333.385 174.327 333.889 174.616C334.393 174.896 334.78 175.293 335.051 175.806C335.322 176.319 335.457 176.926 335.457 177.626C335.457 178.363 335.289 179.007 334.953 179.558C334.626 180.109 334.164 180.538 333.567 180.846C332.979 181.145 332.288 181.294 331.495 181.294ZM331.425 179.39C331.808 179.39 332.134 179.315 332.405 179.166C332.676 179.017 332.881 178.811 333.021 178.55C333.17 178.289 333.245 177.99 333.245 177.654C333.245 177.299 333.175 176.996 333.035 176.744C332.895 176.483 332.69 176.282 332.419 176.142C332.158 175.993 331.836 175.918 331.453 175.918C331.126 175.918 330.818 175.983 330.529 176.114C330.24 176.245 330.006 176.441 329.829 176.702C329.661 176.954 329.577 177.271 329.577 177.654C329.577 177.981 329.642 178.279 329.773 178.55C329.913 178.811 330.118 179.017 330.389 179.166C330.669 179.315 331.014 179.39 331.425 179.39Z" fill="white"/>
<rect x="280" y="196" width="64" height="32" rx="4" fill="#0FB5AE"/>
<path d="M308.709 216.986V214.872C308.709 214.443 308.784 214.065 308.933 213.738C309.083 213.402 309.321 213.108 309.647 212.856C309.983 212.595 310.422 212.352 310.963 212.128L312.671 211.442C313.101 211.265 313.409 211.045 313.595 210.784C313.782 210.513 313.875 210.177 313.875 209.776C313.875 209.375 313.74 209.043 313.469 208.782C313.208 208.521 312.83 208.39 312.335 208.39C311.85 208.39 311.472 208.525 311.201 208.796C310.931 209.067 310.795 209.431 310.795 209.888H308.583C308.583 209.244 308.723 208.665 309.003 208.152C309.283 207.629 309.703 207.219 310.263 206.92C310.823 206.621 311.514 206.472 312.335 206.472C313.157 206.472 313.843 206.621 314.393 206.92C314.953 207.209 315.378 207.597 315.667 208.082C315.957 208.567 316.101 209.104 316.101 209.692V209.874C316.101 210.667 315.873 211.33 315.415 211.862C314.958 212.394 314.281 212.837 313.385 213.192L311.691 213.892C311.402 214.013 311.201 214.139 311.089 214.27C310.987 214.391 310.935 214.555 310.935 214.76V215.488L310.417 215.026H316.115V216.986H308.709ZM321.908 217.266C321.096 217.266 320.391 217.112 319.794 216.804C319.197 216.487 318.735 216.062 318.408 215.53C318.091 214.998 317.932 214.41 317.932 213.766H320.144C320.144 214.083 320.219 214.363 320.368 214.606C320.527 214.849 320.741 215.035 321.012 215.166C321.283 215.297 321.591 215.362 321.936 215.362C322.3 215.362 322.617 215.287 322.888 215.138C323.159 214.979 323.364 214.769 323.504 214.508C323.644 214.237 323.714 213.934 323.714 213.598C323.714 213.253 323.644 212.949 323.504 212.688C323.364 212.417 323.159 212.203 322.888 212.044C322.627 211.885 322.314 211.806 321.95 211.806C321.605 211.806 321.287 211.876 320.998 212.016C320.718 212.156 320.513 212.333 320.382 212.548H318.226L318.744 206.78H325.058V208.74H319.71L320.536 208.152L320.228 211.47L319.752 211.33C319.939 211.106 320.144 210.905 320.368 210.728C320.601 210.551 320.877 210.411 321.194 210.308C321.511 210.196 321.889 210.14 322.328 210.14C323.075 210.14 323.714 210.294 324.246 210.602C324.787 210.901 325.203 211.307 325.492 211.82C325.781 212.324 325.926 212.889 325.926 213.514V213.696C325.926 214.321 325.767 214.905 325.45 215.446C325.142 215.987 324.689 216.426 324.092 216.762C323.495 217.098 322.767 217.266 321.908 217.266ZM331.495 217.294C330.758 217.294 330.123 217.168 329.591 216.916C329.068 216.664 328.639 216.314 328.303 215.866C327.967 215.418 327.72 214.9 327.561 214.312C327.402 213.715 327.323 213.075 327.323 212.394V211.792C327.323 210.112 327.748 208.843 328.597 207.984C329.456 207.125 330.702 206.696 332.335 206.696C332.671 206.696 333.002 206.705 333.329 206.724C333.656 206.743 333.968 206.771 334.267 206.808V208.74C333.978 208.703 333.66 208.675 333.315 208.656C332.97 208.637 332.62 208.628 332.265 208.628C331.528 208.628 330.954 208.754 330.543 209.006C330.132 209.258 329.843 209.631 329.675 210.126C329.516 210.611 329.437 211.213 329.437 211.932V213.332H328.975C328.984 212.651 329.12 212.077 329.381 211.61C329.642 211.143 330.006 210.789 330.473 210.546C330.94 210.303 331.472 210.182 332.069 210.182C332.778 210.182 333.385 210.327 333.889 210.616C334.393 210.896 334.78 211.293 335.051 211.806C335.322 212.319 335.457 212.926 335.457 213.626C335.457 214.363 335.289 215.007 334.953 215.558C334.626 216.109 334.164 216.538 333.567 216.846C332.979 217.145 332.288 217.294 331.495 217.294ZM331.425 215.39C331.808 215.39 332.134 215.315 332.405 215.166C332.676 215.017 332.881 214.811 333.021 214.55C333.17 214.289 333.245 213.99 333.245 213.654C333.245 213.299 333.175 212.996 333.035 212.744C332.895 212.483 332.69 212.282 332.419 212.142C332.158 211.993 331.836 211.918 331.453 211.918C331.126 211.918 330.818 211.983 330.529 212.114C330.24 212.245 330.006 212.441 329.829 212.702C329.661 212.954 329.577 213.271 329.577 213.654C329.577 213.981 329.642 214.279 329.773 214.55C329.913 214.811 330.118 215.017 330.389 215.166C330.669 215.315 331.014 215.39 331.425 215.39Z" fill="white"/>
<rect x="0.5" y="0.5" width="511" height="327" rx="15.5" stroke="#E1E4E7"/>
</svg>
