<svg width="303" height="60" viewBox="0 0 303 60" fill="none" xmlns="http://www.w3.org/2000/svg">
<path d="M68.7838 36.5538V30.5288H73.3041C74.1556 30.5288 74.897 30.3594 75.524 30.0204C76.1552 29.6815 76.6424 29.1982 76.994 28.5703C77.3456 27.9429 77.5193 27.2024 77.5193 26.3488C77.5193 25.4701 77.3456 24.7169 76.994 24.0895C76.6424 23.4616 76.1552 22.9846 75.524 22.6584C74.897 22.3318 74.1556 22.1687 73.3041 22.1687H68.7838V16.1437H73.1134C75.4731 16.1437 77.515 16.5389 79.235 17.3299C80.955 18.1208 82.2767 19.2566 83.2088 20.7376C84.1365 22.2191 84.6025 23.9891 84.6025 26.0475V26.65C84.6025 28.6834 84.1365 30.4407 83.2088 31.9217C82.2767 33.4032 80.955 34.5453 79.235 35.3486C77.515 36.1522 75.4731 36.5538 73.1134 36.5538H68.7838ZM62.5352 43.8591V16.1437H69.5379V43.8591H62.5352Z" fill="#E20074"/>
<path d="M88.8928 43.8595V23.0731H95.7474V43.8595H88.8928ZM86.2578 28.0437V23.0731H95.7474V28.0437H86.2578Z" fill="#E20074"/>
<path d="M95.715 16.3704H88.9082V21.4546H95.715V16.3704Z" fill="#E20074"/>
<path d="M99.1367 43.8593V23.073H104.559V31.9974H104.259C104.259 29.8385 104.534 28.0499 105.085 26.6315C105.64 25.2128 106.461 24.1524 107.55 23.4492C108.643 22.7463 109.969 22.3951 111.524 22.3951H111.825C114.184 22.3951 116.015 23.1793 117.307 24.7485C118.599 26.3176 119.243 28.7214 119.243 31.9597V43.8593H112.392V31.7716C112.392 30.8175 112.109 30.033 111.545 29.4178C110.977 28.8031 110.206 28.4956 109.228 28.4956C108.249 28.4956 107.465 28.8031 106.872 29.4178C106.284 30.033 105.987 30.8425 105.987 31.847V43.8593H99.1367Z" fill="#E20074"/>
<path d="M137.396 43.8594L131.258 34.144H128.474L136.608 23.073H143.764L136.041 33.5039V30.1902L145.043 43.8594H137.396ZM122.637 43.8594V16.3698H129.491V43.8594H122.637Z" fill="#E20074"/>
<path d="M144.699 52.1442V46.4204H149.481C150.062 46.4204 150.549 46.345 150.951 46.1941C151.354 46.0438 151.68 45.7989 151.93 45.46C152.18 45.1211 152.371 44.6504 152.493 44.048L157.166 23.0731H163.639L158.183 45.3659C157.78 47.0728 157.221 48.4225 156.505 49.4138C155.789 50.4056 154.811 51.1084 153.569 51.5227C152.324 51.937 150.714 52.1442 148.727 52.1442H144.699ZM151.29 43.4079V38.1357H155.658V43.4079H151.29ZM148.126 43.4079L142.063 23.0731H148.918L154.603 43.4079H148.126Z" fill="#E20074"/>
<path d="M177.29 44.3402C175.447 44.3402 173.867 44.0153 172.562 43.3658C171.253 42.716 170.185 41.864 169.367 40.8096C168.55 39.7552 167.953 38.6113 167.575 37.3781C167.198 36.1449 167.008 34.9447 167.008 33.7772V33.2408C167.008 31.9792 167.203 30.7223 167.588 29.4704C167.974 28.2182 168.58 27.0837 169.397 26.0669C170.215 25.0502 171.265 24.2359 172.545 23.6242C173.824 23.012 175.341 22.7062 177.09 22.7062C178.861 22.7062 180.391 23.0167 181.683 23.6382C182.971 24.2597 184.004 25.1302 184.775 26.2508C185.546 27.3709 186.017 28.6935 186.186 30.2186H184.013C183.86 28.9947 183.466 27.9733 182.827 27.1544C182.187 26.3355 181.373 25.7187 180.382 25.3044C179.395 24.89 178.298 24.6833 177.09 24.6833C175.794 24.6833 174.65 24.9138 173.663 25.3751C172.672 25.8365 171.85 26.4766 171.189 27.2955C170.532 28.1148 170.033 29.0561 169.694 30.1199C169.355 31.1836 169.185 32.3181 169.185 33.523C169.185 34.6715 169.351 35.7729 169.677 36.8274C170.007 37.8818 170.511 38.8278 171.189 39.6658C171.867 40.5037 172.714 41.1629 173.731 41.6429C174.748 42.1229 175.934 42.3631 177.29 42.3631C179.175 42.3631 180.755 41.8878 182.034 40.9367C183.314 39.986 184.106 38.616 184.407 36.8274H186.584C186.377 38.2398 185.885 39.5154 185.114 40.6545C184.343 41.7933 183.301 42.6927 181.992 43.3514C180.683 44.0106 179.115 44.3402 177.29 44.3402Z" fill="#3E4852"/>
<path d="M189.098 49.9173V48.0249H191.017C191.674 48.0249 192.242 47.9448 192.712 47.7847C193.182 47.6246 193.576 47.3471 193.898 46.9518C194.216 46.5562 194.491 46.0101 194.716 45.3136L199.744 29.1589H201.807L196.55 45.9067C196.249 46.8671 195.838 47.6436 195.309 48.2367C194.783 48.8298 194.152 49.2581 193.419 49.5216C192.682 49.7851 191.843 49.9173 190.903 49.9173H189.098ZM193.953 43.7322V41.9529H196.639V43.7322H193.953ZM193.699 43.7322L188.276 29.1589H190.454L195.677 43.7322H193.699Z" fill="#3E4852"/>
<path d="M211.21 44.5795C209.893 44.5795 208.736 44.2876 207.749 43.7038C206.762 43.12 205.991 42.3011 205.436 41.2467C204.877 40.1923 204.58 38.9777 204.546 37.6034H205.195V44.0991H203.5V23.4822H205.618V33.7906L204.801 35.683C204.834 34.1766 205.144 32.901 205.716 31.8559C206.292 30.8112 207.063 30.0156 208.033 29.4695C209.003 28.9234 210.109 28.6506 211.35 28.6506C212.443 28.6506 213.43 28.8573 214.316 29.2716C215.201 29.686 215.959 30.2507 216.59 30.9662C217.222 31.6817 217.7 32.5057 218.031 33.4377C218.361 34.3697 218.526 35.3534 218.526 36.3888V36.7845C218.526 37.8012 218.357 38.7756 218.014 39.7076C217.679 40.6396 217.192 41.4725 216.561 42.2071C215.93 42.9413 215.163 43.5204 214.26 43.944C213.354 44.3677 212.341 44.5795 211.21 44.5795ZM210.981 42.7155C212.113 42.7155 213.083 42.4422 213.892 41.8961C214.701 41.3501 215.324 40.6159 215.756 39.6932C216.188 38.7705 216.408 37.7351 216.408 36.5866C216.408 35.4191 216.184 34.3791 215.743 33.4657C215.298 32.5527 214.671 31.8326 213.849 31.3051C213.032 30.7781 212.074 30.5146 210.981 30.5146C209.969 30.5146 209.045 30.7404 208.215 31.1924C207.389 31.644 206.732 32.2795 206.254 33.0988C205.771 33.9177 205.533 34.8828 205.533 35.9936V37.3776C205.533 38.4316 205.771 39.3589 206.254 40.1592C206.732 40.9595 207.389 41.5856 208.215 42.0376C209.045 42.4892 209.969 42.7155 210.981 42.7155Z" fill="#3E4852"/>
<path d="M227.673 44.5798C226.393 44.5798 225.283 44.3582 224.343 43.9159C223.398 43.4732 222.627 42.8801 222.025 42.1366C221.424 41.3927 220.975 40.5598 220.682 39.6371C220.39 38.7145 220.246 37.7638 220.246 36.7848V36.3891C220.246 35.4291 220.39 34.4874 220.682 33.5651C220.975 32.6424 221.424 31.8138 222.025 31.0796C222.627 30.3454 223.385 29.757 224.3 29.3143C225.211 28.872 226.279 28.6509 227.503 28.6509C229.066 28.6509 230.371 28.9991 231.413 29.6956C232.46 30.3925 233.248 31.2821 233.773 32.3645C234.302 33.4473 234.565 34.6098 234.565 35.8528V36.9542H221.208V35.316H233.095L232.561 36.1349C232.561 35.0241 232.366 34.0498 231.981 33.2118C231.595 32.3738 231.028 31.7151 230.286 31.2351C229.541 30.7547 228.613 30.5149 227.503 30.5149C226.338 30.5149 225.368 30.7877 224.597 31.3338C223.822 31.8799 223.245 32.6047 222.86 33.5083C222.47 34.4124 222.28 35.4384 222.28 36.5869C222.28 37.7168 222.47 38.7475 222.86 39.6795C223.245 40.6115 223.839 41.3504 224.635 41.8964C225.436 42.4425 226.448 42.7157 227.673 42.7157C228.973 42.7157 230.028 42.4192 230.837 41.8261C231.646 41.233 232.146 40.5314 232.333 39.7219H234.311C234.12 40.7195 233.726 41.5812 233.125 42.3061C232.523 43.0309 231.761 43.591 230.837 43.9867C229.914 44.3819 228.859 44.5798 227.673 44.5798Z" fill="#3E4852"/>
<path d="M238.027 44.0992V29.1591H239.722V35.4006H239.552C239.552 33.2163 240.031 31.6018 240.993 30.5571C241.954 29.512 243.458 28.9896 245.513 28.9896H245.992V30.91H245.115C243.497 30.91 242.264 31.329 241.416 32.1669C240.569 33.0045 240.146 34.233 240.146 35.8526V44.0992H238.027Z" fill="#3E4852"/>
<path d="M255.678 44.3402C253.945 44.3402 252.483 44.0623 251.301 43.5069C250.111 42.9515 249.213 42.1797 248.603 41.1909C247.989 40.2025 247.684 39.0871 247.684 37.8441H249.831C249.831 38.6351 250.022 39.3739 250.412 40.0615C250.797 40.7486 251.416 41.304 252.272 41.7276C253.132 42.1513 254.267 42.3631 255.678 42.3631C256.978 42.3631 258.054 42.1746 258.91 41.7984C259.766 41.4218 260.41 40.9134 260.833 40.2733C261.257 39.6327 261.469 38.9176 261.469 38.1267C261.469 37.1286 261.075 36.2957 260.295 35.6272C259.512 34.9587 258.342 34.5588 256.779 34.427L254.407 34.2008C252.636 34.0504 251.23 33.4997 250.183 32.5486C249.141 31.598 248.616 30.341 248.616 28.7782C248.616 27.592 248.899 26.5473 249.463 25.6433C250.031 24.7397 250.836 24.0241 251.878 23.4971C252.924 22.9697 254.178 22.7062 255.648 22.7062C257.135 22.7062 258.41 22.9743 259.474 23.5111C260.541 24.0478 261.354 24.7867 261.918 25.728C262.486 26.6693 262.765 27.7615 262.765 29.0044H260.622C260.622 28.2512 260.452 27.545 260.109 26.8862C259.774 26.2271 259.236 25.695 258.503 25.2904C257.766 24.8854 256.817 24.6833 255.648 24.6833C254.538 24.6833 253.619 24.8714 252.894 25.248C252.17 25.6246 251.632 26.1237 251.285 26.7447C250.937 27.3662 250.763 28.044 250.763 28.7782C250.763 29.7009 251.094 30.4821 251.751 31.1226C252.411 31.7628 253.36 32.1296 254.602 32.2241L256.978 32.4499C258.368 32.563 259.563 32.8689 260.55 33.3679C261.537 33.8666 262.295 34.5164 262.82 35.3167C263.35 36.1165 263.612 37.0536 263.612 38.1267C263.612 39.3315 263.286 40.405 262.638 41.3464C261.99 42.2877 261.071 43.0219 259.884 43.5493C258.698 44.0763 257.296 44.3402 255.678 44.3402Z" fill="#3E4852"/>
<path d="M275.674 43.8597V39.3691H275.335V34.0596C275.335 32.9488 275.043 32.0969 274.458 31.5038C273.874 30.9107 272.971 30.6141 271.747 30.6141C271.184 30.6141 270.612 30.6235 270.04 30.6421C269.464 30.6612 268.917 30.6845 268.4 30.7128C267.883 30.7412 267.426 30.7739 267.032 30.8116V28.9475C267.447 28.9098 267.871 28.8721 268.303 28.8348C268.735 28.7971 269.184 28.7734 269.641 28.7641C270.103 28.7548 270.552 28.7501 270.984 28.7501C272.51 28.7501 273.738 28.9382 274.67 29.3148C275.602 29.6915 276.284 30.2799 276.721 31.0801C277.153 31.88 277.369 32.9391 277.369 34.2574V43.8597H275.674ZM270.62 44.2554C269.565 44.2554 268.633 44.0668 267.824 43.6902C267.011 43.3136 266.388 42.7675 265.943 42.0524C265.503 41.3369 265.282 40.4706 265.282 39.4538C265.282 38.4561 265.511 37.6089 265.973 36.912C266.435 36.2155 267.1 35.6834 267.977 35.3165C268.854 34.9493 269.913 34.7658 271.154 34.7658H275.53V36.3757H271.014C269.828 36.3757 268.917 36.6625 268.29 37.2369C267.659 37.8109 267.341 38.5595 267.341 39.4822C267.341 40.4235 267.672 41.1721 268.328 41.7275C268.989 42.2829 269.883 42.5608 271.014 42.5608C271.709 42.5608 272.378 42.4337 273.018 42.1795C273.658 41.9253 274.196 41.492 274.628 40.8802C275.06 40.2681 275.297 39.4259 275.335 38.3524L275.954 39.228C275.882 40.3388 275.619 41.2662 275.166 42.0101C274.712 42.7536 274.102 43.3136 273.331 43.6902C272.556 44.0668 271.654 44.2554 270.62 44.2554Z" fill="#3E4852"/>
<path d="M281.24 43.8598V27.7615C281.24 26.1987 281.642 25.0409 282.452 24.2876C283.261 23.5344 284.477 23.1582 286.095 23.1582H287.989V24.9655H285.701C284.909 24.9655 284.307 25.1726 283.892 25.5869C283.477 26.0013 283.269 26.5846 283.269 27.3378V43.8598H281.24ZM279.062 30.6706V29.0324H288.298V30.6706H279.062Z" fill="#3E4852"/>
<path d="M295.73 44.3403C294.447 44.3403 293.337 44.1187 292.396 43.6764C291.456 43.2337 290.681 42.6406 290.079 41.8971C289.478 41.1532 289.028 40.3203 288.74 39.3976C288.448 38.475 288.3 37.5243 288.3 36.5453V36.1496C288.3 35.1896 288.448 34.2479 288.74 33.3256C289.028 32.4029 289.478 31.5743 290.079 30.8401C290.681 30.1059 291.439 29.5175 292.354 29.0748C293.265 28.6325 294.337 28.4114 295.561 28.4114C297.12 28.4114 298.425 28.7596 299.471 29.4561C300.513 30.153 301.301 31.0426 301.827 32.125C302.356 33.2078 302.619 34.3703 302.619 35.6133V36.7147H289.261V35.0765H301.149L300.615 35.8954C300.615 34.7846 300.42 33.8103 300.035 32.9723C299.649 32.1343 299.086 31.4756 298.34 30.9956C297.599 30.5152 296.671 30.2754 295.561 30.2754C294.392 30.2754 293.422 30.5482 292.651 31.0943C291.88 31.6404 291.299 32.3652 290.914 33.2688C290.528 34.1729 290.333 35.1989 290.333 36.3474C290.333 37.4773 290.528 38.508 290.914 39.44C291.299 40.372 291.892 41.1108 292.693 41.6569C293.494 42.203 294.506 42.4762 295.73 42.4762C297.027 42.4762 298.082 42.1797 298.891 41.5866C299.7 40.9935 300.2 40.2919 300.39 39.4824H302.365C302.178 40.48 301.78 41.3417 301.178 42.0666C300.577 42.7914 299.814 43.3515 298.891 43.7472C297.967 44.1424 296.912 44.3403 295.73 44.3403Z" fill="#3E4852"/>
<path fill-rule="evenodd" clip-rule="evenodd" d="M18.8403 53.1855C19.0503 53.8311 19.5001 54.378 20.0701 54.726C20.9401 55.1976 21.5098 56.1138 21.5098 57.162C21.5098 58.7283 20.2198 60 18.6598 60C17.0998 60 15.8402 58.7283 15.8402 57.162C15.8402 56.7882 15.9001 56.4312 16.0201 56.1042C16.2901 55.4943 16.2898 54.8157 16.1098 54.1911C15.1498 51.0645 12.3 42.5604 12.3 42.5604C12.12 42.0504 12.2698 41.4882 12.6598 41.1084C12.6598 41.1084 14.04 39.7179 15 38.7594C15.48 38.2746 15.54 37.5123 15.15 36.9486C14.79 36.4647 14.55 35.9127 14.4 35.3292C14.22 34.7142 13.68 34.284 13.05 34.284C12.06 34.257 10.8 34.257 10.8 34.257C10.8 34.257 7.13977 41.5563 5.75977 44.3733C5.42977 44.9808 5.37012 45.6771 5.52012 46.3359C5.64012 46.5486 5.67012 46.7844 5.67012 47.0277C5.67012 48.594 4.41012 49.8654 2.82012 49.8654C1.26012 49.8654 0 48.594 0 47.0277C0 45.8391 0.720118 44.82 1.77012 44.3979C2.37012 44.1387 2.87989 43.6662 3.17989 43.0662C4.70989 40.1082 8.67013 32.2035 8.67013 32.2035C8.91013 31.7226 9.38989 31.419 9.92989 31.419H12.75C13.56 31.419 14.1902 30.7836 14.1902 30C14.1902 29.2164 13.56 28.581 12.75 28.581C11.52 28.581 9.92989 28.581 9.92989 28.581C9.38989 28.581 8.91013 28.2774 8.67013 27.7965C8.67013 27.7965 4.70977 19.8918 3.20977 16.9182C2.90977 16.3113 2.40012 15.8331 1.77012 15.5709C0.720118 15.18 0 14.1609 0 12.9723C0 11.406 1.26012 10.1346 2.82012 10.1346C4.41012 10.1346 5.67012 11.406 5.67012 12.9723C5.67012 13.2156 5.63989 13.4514 5.57989 13.6767C5.42989 14.3235 5.49024 15.0072 5.79024 15.6036C7.14024 18.4437 10.8 25.743 10.8 25.743H13.05C13.68 25.7427 14.25 25.3044 14.4 24.6771C14.55 24.0873 14.79 23.5353 15.15 23.0352C15.51 22.4829 15.4501 21.7359 14.9701 21.261C14.0401 20.2821 12.6598 18.8916 12.6598 18.8916C12.2698 18.5118 12.12 17.9496 12.3 17.4396C12.3 17.4396 15.1501 8.9355 16.1701 5.8344C16.3801 5.1915 16.3498 4.4931 16.1098 3.8655C15.8998 3.5688 15.8402 3.2118 15.8402 2.838C15.8402 1.2717 17.0998 0 18.6598 0C20.2198 0 21.5098 1.2717 21.5098 2.838C21.5098 3.8862 20.94 4.8024 20.1 5.2938C19.5 5.6391 19.0801 6.1815 18.8701 6.8217C17.8201 9.8295 15.2701 17.505 15.2701 17.505C15.2701 17.505 16.6201 18.8634 17.5201 19.7595C17.9701 20.2134 18.6899 20.3061 19.2299 19.9848C20.7599 19.1004 23.6403 17.4489 23.6403 17.4489C25.3803 16.4349 27.5398 16.4349 29.3098 17.4489C29.3098 17.4489 32.1603 19.1004 33.6903 19.9848C34.2603 20.3061 34.95 20.2134 35.4 19.7595C36.3 18.8634 37.6799 17.505 37.6799 17.505C37.6799 17.505 35.0998 9.82951 34.1098 6.81451C33.8998 6.16891 33.4499 5.62201 32.8799 5.27401C32.0099 4.80241 31.4403 3.8862 31.4403 2.838C31.4403 1.2717 32.7003 0 34.2903 0C35.8503 0 37.1098 1.2717 37.1098 2.838C37.1098 3.2118 37.05 3.5688 36.9 3.8958C36.66 4.5057 36.6303 5.18429 36.8403 5.80889C37.8003 8.93549 40.65 17.4396 40.65 17.4396C40.8 17.9496 40.6803 18.5118 40.2903 18.8916C40.2903 18.8916 38.91 20.2821 37.95 21.2406C37.47 21.7254 37.38 22.4877 37.8 23.0514C38.13 23.5353 38.4 24.0873 38.55 24.6708C38.7 25.2858 39.27 25.716 39.9 25.716C40.89 25.743 42.15 25.743 42.15 25.743C42.15 25.743 45.7803 18.4437 47.1903 15.6267C47.4903 15.0192 47.58 14.3229 47.4 13.6641C47.31 13.4514 47.2799 13.2156 47.2799 12.9723C47.2799 11.406 48.54 10.1346 50.1 10.1346C51.69 10.1346 52.9501 11.406 52.9501 12.9723C52.9501 14.1609 52.2299 15.18 51.1799 15.6021C50.5499 15.8613 50.0702 16.3338 49.7702 16.9338C48.2402 19.8918 44.2799 27.7965 44.2799 27.7965C44.0399 28.2774 43.5602 28.581 43.0202 28.581H40.1702C39.3902 28.581 38.7598 29.2164 38.7598 30C38.7598 30.7836 39.3902 31.419 40.1702 31.419C41.4302 31.419 43.0202 31.419 43.0202 31.419C43.5602 31.419 44.0399 31.7226 44.2799 32.2035C44.2799 32.2035 48.2403 40.1082 49.7403 43.0818C50.0403 43.6887 50.5499 44.1669 51.1799 44.4291C52.2299 44.82 52.9501 45.8391 52.9501 47.0277C52.9501 48.594 51.69 49.8654 50.1 49.8654C48.54 49.8654 47.2799 48.594 47.2799 47.0277C47.2799 46.7844 47.3102 46.5486 47.3702 46.3233C47.5202 45.6765 47.4598 44.9928 47.1598 44.3964C45.7798 41.5563 42.15 34.257 42.15 34.257H39.9C39.27 34.2573 38.7002 34.6956 38.5202 35.3229C38.4002 35.9127 38.13 36.4647 37.8 36.9648C37.44 37.5171 37.4999 38.2641 37.9799 38.739C38.9099 39.7179 40.2903 41.1084 40.2903 41.1084C40.6803 41.4882 40.8 42.0504 40.65 42.5604C40.65 42.5604 37.7999 51.0645 36.7799 54.1656C36.5699 54.8085 36.5703 55.5069 36.8403 56.1345C37.0503 56.4312 37.1098 56.7882 37.1098 57.162C37.1098 58.7283 35.8503 60 34.2903 60C32.7003 60 31.4403 58.7283 31.4403 57.162C31.4403 56.1138 32.01 55.1976 32.85 54.7062C33.42 54.3609 33.8699 53.8185 34.0799 53.1783C35.0999 50.1705 37.6799 42.495 37.6799 42.495C37.6799 42.495 36.3 41.1366 35.4 40.2405C34.95 39.7866 34.2603 39.6939 33.6903 40.0152C32.1603 40.8996 29.3098 42.5511 29.3098 42.5511C27.5398 43.5651 25.3803 43.5651 23.6403 42.5511C23.6403 42.5511 20.7599 40.8996 19.2299 40.0152C18.6899 39.6939 17.9701 39.7866 17.5201 40.2405C16.6201 41.1366 15.2701 42.495 15.2701 42.495C15.2701 42.495 17.8203 50.1705 18.8403 53.1855ZM26.4598 35.676C23.3398 35.676 20.7903 33.1326 20.7903 30C20.7903 26.8674 23.3398 24.324 26.4598 24.324C29.6098 24.324 32.1598 26.8674 32.1598 30C32.1598 33.1326 29.6098 35.676 26.4598 35.676Z" fill="#E20074"/>
<path fill-rule="evenodd" clip-rule="evenodd" d="M29.2527 13.3787C29.5337 13.8148 29.5701 14.3742 29.3136 14.8359C29.0693 15.2976 28.5929 15.5846 28.0677 15.5846C27.0417 15.5846 25.8815 15.5846 24.8555 15.5846C24.3303 15.5846 23.8539 15.2976 23.6096 14.8359C23.3531 14.3742 23.3901 13.8148 23.671 13.3787C24.1963 12.5921 24.7823 11.7163 25.2831 10.97C25.5396 10.5755 25.9915 10.3386 26.4556 10.3386C26.932 10.3386 27.3842 10.5755 27.6407 10.97C28.1415 11.7163 28.7275 12.5921 29.2527 13.3787Z" fill="#E20074"/>
</svg>
