<svg width="240" height="76" viewBox="0 0 240 76" fill="none" xmlns="http://www.w3.org/2000/svg">
<g clip-path="url(#clip0_2301_95472)">
<path d="M118.92 20.5091C117.608 20.5091 116.48 20.2798 115.539 19.8228C114.598 19.3643 113.822 18.7608 113.212 18.0109C112.602 17.2625 112.151 16.4489 111.859 15.5732C111.568 14.6975 111.422 13.8488 111.422 13.0257V12.5878C111.422 11.6723 111.571 10.7742 111.869 9.89056C112.168 9.00847 112.625 8.20919 113.242 7.49269C113.858 6.77619 114.631 6.20618 115.559 5.78105C116.487 5.35752 117.574 5.14417 118.821 5.14417C120.147 5.14417 121.323 5.39254 122.351 5.89091C123.379 6.38768 124.204 7.08507 124.827 7.9799C125.451 8.87632 125.815 9.91445 125.921 11.0959H122.222C122.129 10.5911 121.93 10.1533 121.625 9.7823C121.32 9.40972 120.929 9.12152 120.452 8.91612C119.974 8.71073 119.431 8.60724 118.821 8.60724C118.251 8.60724 117.737 8.70755 117.279 8.90658C116.822 9.10561 116.437 9.38742 116.126 9.75204C115.814 10.1167 115.575 10.5577 115.41 11.0752C115.244 11.5927 115.161 12.177 115.161 12.8266C115.161 13.4778 115.244 14.0606 115.41 14.5781C115.575 15.0955 115.821 15.5398 116.146 15.9123C116.47 16.2833 116.865 16.5651 117.329 16.7578C117.793 16.9505 118.324 17.046 118.92 17.046C119.848 17.046 120.634 16.8215 121.277 16.3693C121.92 15.9187 122.308 15.3153 122.441 14.559H126.14C126.021 15.6464 125.656 16.6416 125.046 17.5444C124.436 18.4456 123.614 19.1652 122.58 19.7034C121.546 20.24 120.326 20.5091 118.92 20.5091Z" fill="#E90064"/>
<path d="M127.85 24.4898V21.4646H130.376C130.681 21.4646 130.94 21.4248 131.152 21.3452C131.364 21.2655 131.537 21.1366 131.669 20.9566C131.802 20.7783 131.901 20.5299 131.967 20.2115L134.434 9.12488H137.855L134.971 20.9073C134.759 21.8101 134.464 22.5234 134.086 23.0472C133.708 23.5711 133.191 23.9421 132.534 24.1618C131.878 24.3799 131.026 24.4898 129.978 24.4898H127.85ZM131.331 19.8724V17.086H133.638V19.8724H131.331ZM129.66 19.8724L126.458 9.12488H130.078L133.081 19.8724H129.66Z" fill="#E90064"/>
<path d="M145.572 20.4694C144.67 20.4694 143.885 20.2847 143.215 19.9121C142.545 19.5411 142.022 18.9966 141.644 18.2801C141.266 17.5636 141.064 16.6879 141.037 15.6529H141.355V20.1112H138.491V5.58215H142.111V13.0656L141.316 13.8617C141.355 12.7869 141.561 11.8714 141.932 11.1151C142.303 10.3588 142.817 9.7856 143.474 9.39392C144.13 9.00223 144.889 8.8064 145.751 8.8064C146.493 8.8064 147.163 8.94332 147.76 9.214C148.356 9.48627 148.864 9.87158 149.281 10.3684C149.699 10.8667 150.02 11.4543 150.246 12.131C150.471 12.8076 150.584 13.5496 150.584 14.3601V14.8377C150.584 15.6466 150.471 16.3933 150.246 17.0764C150.02 17.7594 149.689 18.3565 149.251 18.8676C148.814 19.3787 148.287 19.7736 147.67 20.0522C147.054 20.3309 146.354 20.4694 145.572 20.4694ZM144.538 17.484C145.015 17.484 145.436 17.3614 145.801 17.1162C146.165 16.871 146.45 16.5287 146.656 16.0908C146.861 15.6529 146.964 15.1562 146.964 14.5989C146.964 14.0273 146.861 13.5337 146.656 13.1149C146.45 12.6978 146.169 12.373 145.811 12.1405C145.453 11.908 145.028 11.7918 144.538 11.7918C144.1 11.7918 143.692 11.8921 143.314 12.0911C142.937 12.2902 142.628 12.5816 142.39 12.9669C142.151 13.3506 142.032 13.8155 142.032 14.3601V15.0368C142.032 15.5542 142.158 15.9953 142.409 16.3599C142.661 16.7245 142.98 17.0031 143.364 17.1958C143.749 17.3885 144.14 17.484 144.538 17.484Z" fill="#E90064"/>
<path d="M156.69 20.5091C155.762 20.5091 154.94 20.3499 154.224 20.0315C153.508 19.713 152.904 19.2815 152.414 18.7386C151.923 18.194 151.549 17.5842 151.29 16.9075C151.032 16.2308 150.902 15.5334 150.902 14.8169V14.4189C150.902 13.6769 151.032 12.9636 151.29 12.2789C151.549 11.5959 151.92 10.9892 152.404 10.459C152.888 9.92722 153.481 9.50686 154.184 9.19479C154.887 8.88271 155.682 8.72668 156.571 8.72668C157.751 8.72668 158.752 8.99259 159.574 9.52279C160.396 10.0546 161.026 10.7536 161.464 11.6229C161.901 12.4923 162.12 13.4381 162.12 14.4587V15.613H152.414V13.6626H160.032L158.779 14.5383C158.779 13.9157 158.696 13.3871 158.53 12.9556C158.364 12.5257 158.119 12.1961 157.794 11.9716C157.469 11.7455 157.061 11.6325 156.571 11.6325C156.093 11.6325 155.679 11.7423 155.328 11.9605C154.976 12.1802 154.708 12.5114 154.522 12.9556C154.337 13.4014 154.244 13.9619 154.244 14.6386C154.244 15.2484 154.33 15.7754 154.502 16.2197C154.675 16.6655 154.94 17.0062 155.298 17.2451C155.656 17.4839 156.12 17.6033 156.69 17.6033C157.194 17.6033 157.608 17.5173 157.933 17.3454C158.258 17.1718 158.487 16.941 158.619 16.648H161.921C161.762 17.3916 161.447 18.0555 160.976 18.6383C160.506 19.2226 159.909 19.6796 159.186 20.0123C158.464 20.3435 157.632 20.5091 156.69 20.5091Z" fill="#E90064"/>
<path d="M162.757 20.1111V9.1248H165.621V13.9015H165.581C165.581 12.3634 165.903 11.1549 166.546 10.2792C167.189 9.40344 168.114 8.96558 169.32 8.96558H169.758V12.0704H168.923C168.114 12.0704 167.487 12.2901 167.043 12.728C166.599 13.1659 166.377 13.7964 166.377 14.618V20.1111H162.757Z" fill="#E90064"/>
<path d="M176.599 20.5091C175.247 20.5091 174.11 20.2973 173.188 19.8722C172.267 19.4487 171.57 18.8675 171.1 18.1303C170.629 17.3947 170.394 16.5492 170.394 15.5939H173.974C173.974 15.9378 174.07 16.2531 174.262 16.5381C174.454 16.8247 174.743 17.046 175.127 17.2052C175.512 17.3644 176.002 17.4441 176.599 17.4441C177.116 17.4441 177.557 17.3788 177.922 17.245C178.286 17.1129 178.565 16.9266 178.757 16.6878C178.949 16.4489 179.045 16.1639 179.045 15.8327C179.045 15.4076 178.866 15.0796 178.508 14.8471C178.15 14.6147 177.547 14.465 176.699 14.3997L175.764 14.3201C174.265 14.1864 173.072 13.7167 172.184 12.9062C171.295 12.0974 170.851 11.0226 170.851 9.68199C170.851 8.72666 171.073 7.91144 171.517 7.23475C171.961 6.55806 172.588 6.04059 173.397 5.68234C174.206 5.32409 175.16 5.14417 176.261 5.14417C177.454 5.14417 178.465 5.34319 179.294 5.74125C180.123 6.1393 180.756 6.69975 181.194 7.42262C181.631 8.14708 181.85 8.98619 181.85 9.94152H178.27C178.27 9.62308 178.19 9.33011 178.031 9.0658C177.872 8.7999 177.643 8.59131 177.345 8.43846C177.047 8.2856 176.685 8.20919 176.261 8.20919C175.863 8.20919 175.528 8.27287 175.257 8.39865C174.985 8.52444 174.779 8.70118 174.64 8.92569C174.501 9.15178 174.431 9.40335 174.431 9.68199C174.431 10.0546 174.557 10.373 174.809 10.6373C175.061 10.9032 175.498 11.0624 176.122 11.115L177.057 11.1946C178.144 11.2885 179.105 11.5226 179.941 11.9015C180.776 12.2789 181.432 12.7932 181.91 13.4444C182.387 14.094 182.626 14.8901 182.626 15.8327C182.626 16.7737 182.384 17.5969 181.9 18.3007C181.416 19.0028 180.726 19.5474 179.831 19.9327C178.936 20.3164 177.859 20.5091 176.599 20.5091Z" fill="#E90064"/>
<path d="M190.383 20.1111V16.8869H189.786V13.4445C189.786 12.9398 189.67 12.5656 189.438 12.3188C189.206 12.0736 188.825 11.951 188.295 11.951C188.043 11.951 187.671 11.9574 187.181 11.9717C186.69 11.9844 186.173 12.0051 185.629 12.0306C185.086 12.0577 184.588 12.0847 184.138 12.1102V9.085C184.456 9.05953 184.834 9.03246 185.271 9.00539C185.709 8.97992 186.163 8.95922 186.634 8.94648C187.105 8.93215 187.539 8.92578 187.937 8.92578C189.064 8.92578 190.022 9.09137 190.811 9.42415C191.6 9.75533 192.203 10.2537 192.621 10.9161C193.038 11.58 193.247 12.4223 193.247 13.4445V20.1111H190.383ZM186.902 20.3898C186.133 20.3898 185.45 20.2512 184.854 19.9726C184.257 19.694 183.79 19.2927 183.452 18.7673C183.113 18.2434 182.944 17.6177 182.944 16.8869C182.944 16.0653 183.163 15.3981 183.601 14.887C184.038 14.3759 184.642 14.0018 185.411 13.7629C186.18 13.5241 187.061 13.4047 188.056 13.4047H190.184V15.2756H188.056C187.565 15.2756 187.187 15.3981 186.922 15.6433C186.657 15.8886 186.524 16.2166 186.524 16.6289C186.524 17.027 186.657 17.3486 186.922 17.5938C187.187 17.839 187.565 17.9616 188.056 17.9616C188.374 17.9616 188.656 17.9059 188.901 17.7928C189.147 17.6798 189.349 17.484 189.508 17.2053C189.667 16.9267 189.76 16.543 189.786 16.051L190.622 16.8471C190.555 17.6034 190.373 18.2434 190.075 18.7673C189.776 19.2927 189.365 19.694 188.842 19.9726C188.318 20.2512 187.671 20.3898 186.902 20.3898Z" fill="#E90064"/>
<path d="M195.117 20.111V9.16447C195.117 7.87795 195.488 6.91943 196.231 6.28891C196.973 5.65839 198.074 5.34314 199.532 5.34314H200.945V8.01011H199.453C199.135 8.01011 198.889 8.09609 198.717 8.26964C198.545 8.4416 198.458 8.6868 198.458 9.00524V20.111H195.117ZM193.884 11.9907V9.36349H201.104V11.9907H193.884Z" fill="#E90064"/>
<path d="M206.891 20.5091C205.963 20.5091 205.141 20.3499 204.425 20.0315C203.709 19.713 203.106 19.2815 202.615 18.7386C202.125 18.194 201.75 17.5842 201.491 16.9075C201.233 16.2308 201.104 15.5334 201.104 14.8169V14.4189C201.104 13.6769 201.233 12.9636 201.491 12.2789C201.75 11.5959 202.121 10.9892 202.605 10.459C203.089 9.92722 203.682 9.50686 204.385 9.19479C205.088 8.88271 205.884 8.72668 206.772 8.72668C207.952 8.72668 208.953 8.99259 209.775 9.52279C210.597 10.0546 211.227 10.7536 211.665 11.6229C212.102 12.4923 212.321 13.4381 212.321 14.4587V15.613H202.615V13.6626H210.233L208.98 14.5383C208.98 13.9157 208.897 13.3871 208.731 12.9556C208.565 12.5257 208.32 12.1961 207.995 11.9716C207.67 11.7455 207.263 11.6325 206.772 11.6325C206.295 11.6325 205.88 11.7423 205.529 11.9605C205.178 12.1802 204.909 12.5114 204.723 12.9556C204.538 13.4014 204.445 13.9619 204.445 14.6386C204.445 15.2484 204.531 15.7754 204.704 16.2197C204.876 16.6655 205.141 17.0062 205.499 17.2451C205.857 17.4839 206.321 17.6033 206.891 17.6033C207.395 17.6033 207.81 17.5173 208.135 17.3454C208.459 17.1718 208.688 16.941 208.821 16.648H212.122C211.963 17.3916 211.648 18.0555 211.178 18.6383C210.707 19.2226 210.11 19.6796 209.388 20.0123C208.665 20.3435 207.833 20.5091 206.891 20.5091Z" fill="#E90064"/>
<path d="M83.5211 47.9491V38.6986H90.4566C91.7631 38.6986 92.9006 38.4384 93.8626 37.9181C94.8311 37.3978 95.5786 36.6556 96.1181 35.6917C96.6576 34.7284 96.9241 33.5914 96.9241 32.2808C96.9241 30.9318 96.6576 29.7753 96.1181 28.8121C95.5786 27.8481 94.8311 27.1157 93.8626 26.6149C92.9006 26.1134 91.7631 25.863 90.4566 25.863H83.5211V16.6125H90.1641C93.7846 16.6125 96.9176 17.2194 99.5566 18.4338C102.196 19.6481 104.224 21.3919 105.654 23.6658C107.077 25.9404 107.792 28.6579 107.792 31.8184V32.7433C107.792 35.8653 107.077 38.5633 105.654 40.8372C104.224 43.1118 102.196 44.8654 99.5566 46.0986C96.9176 47.3325 93.7846 47.9491 90.1641 47.9491H83.5211ZM73.9336 59.1651V16.6125H84.6781V59.1651H73.9336Z" fill="#050047"/>
<path d="M113.217 59.1651V33.918H123.734V59.1651H113.217ZM109.174 41.5495V33.918H123.734V41.5495H109.174Z" fill="#050047"/>
<path d="M123.691 23.3499H113.247V31.1559H123.691V23.3499Z" fill="#050047"/>
<path d="M127.876 59.1651V27.251H136.196V40.953H135.735C135.735 37.6384 136.157 34.8923 137.002 32.7147C137.854 30.5364 139.115 28.9083 140.785 27.8286C142.462 26.7495 144.496 26.2103 146.882 26.2103H147.343C150.964 26.2103 153.772 27.4143 155.755 29.8235C157.737 32.2327 158.725 35.9232 158.725 40.8951V59.1651H148.215V40.6063C148.215 39.1416 147.779 37.937 146.915 36.9925C146.044 36.0488 144.861 35.5766 143.359 35.5766C141.858 35.5766 140.655 36.0488 139.745 36.9925C138.841 37.937 138.387 39.18 138.387 40.7221V59.1651H127.876Z" fill="#050047"/>
<path d="M193.937 72.2303L188.393 63.4423H203.284C204.175 63.4423 204.922 63.3266 205.54 63.095C206.157 62.8641 206.658 62.4881 207.041 61.9678C207.425 61.4475 207.717 60.7248 207.906 59.7999L217.513 16.6125H227.607L216.635 61.8234C216.018 64.444 215.16 66.5163 214.061 68.0383C212.963 69.5609 211.461 70.64 209.557 71.2761C207.646 71.9123 205.176 72.2303 202.127 72.2303H193.937ZM206.06 59.1651V50.3771H212.761V59.1651H206.06ZM201.204 59.1651L191.903 27.251H202.42L211.143 59.1651H201.204Z" fill="#050047"/>
<path d="M185.514 59.1651L176.096 44.2487H171.825L184.305 27.251H195.284L183.434 43.2659V38.1783L197.247 59.1651H185.514ZM162.868 59.1651V23.3478H173.385V59.1651H162.868Z" fill="#050047"/>
<path d="M234.042 27.7167C233.101 27.7167 232.273 27.5526 231.555 27.2227C230.837 26.8945 230.236 26.4575 229.753 25.9134C229.269 25.3693 228.907 24.7682 228.665 24.1084C228.424 23.4503 228.303 22.7922 228.303 22.1341V21.8128C228.303 21.1271 228.427 20.4587 228.676 19.8075C228.922 19.1546 229.292 18.5604 229.782 18.0232C230.272 17.486 230.873 17.0594 231.584 16.7433C232.297 16.4289 233.115 16.27 234.042 16.27C234.967 16.27 235.787 16.4289 236.498 16.7433C237.21 17.0594 237.81 17.486 238.3 18.0232C238.791 18.5604 239.16 19.1546 239.409 19.8075C239.657 20.4587 239.782 21.1271 239.782 21.8128V22.1341C239.782 22.7922 239.661 23.4503 239.419 24.1084C239.177 24.7682 238.815 25.3693 238.332 25.9134C237.848 26.4575 237.248 26.8945 236.529 27.2227C235.811 27.5526 234.981 27.7167 234.042 27.7167ZM234.042 26.6682C234.967 26.6682 235.777 26.4575 236.469 26.0343C237.159 25.6111 237.696 25.0463 238.08 24.3416C238.463 23.6351 238.654 22.8527 238.654 21.9925C238.654 21.1064 238.463 20.3101 238.08 19.6054C237.696 18.9007 237.159 18.3427 236.469 17.9334C235.777 17.524 234.967 17.3185 234.042 17.3185C233.115 17.3185 232.307 17.524 231.615 17.9334C230.923 18.3427 230.386 18.9007 230.005 19.6054C229.621 20.3101 229.43 21.1064 229.43 21.9925C229.43 22.8527 229.621 23.6351 230.005 24.3416C230.386 25.0463 230.923 25.6111 231.615 26.0343C232.307 26.4575 233.115 26.6682 234.042 26.6682ZM231.505 25.0567V18.6675H233.357V25.0567H231.505ZM235.19 25.0567L233.861 22.578H235.754L237.204 25.0567H235.19ZM232.371 23.3035V21.7714H234.142C234.479 21.7714 234.714 21.7006 234.848 21.5607C234.981 21.419 235.048 21.2273 235.048 20.9855C235.048 20.7437 234.981 20.5519 234.848 20.412C234.714 20.2704 234.479 20.1996 234.142 20.1996H232.371V18.6675H234.103C235.029 18.6675 235.727 18.8627 236.196 19.253C236.666 19.6417 236.902 20.2203 236.902 20.9855C236.902 21.7524 236.666 22.3293 236.196 22.7197C235.727 23.1083 235.029 23.3035 234.103 23.3035H232.371Z" fill="#E90064"/>
<path fill-rule="evenodd" clip-rule="evenodd" d="M23.8602 67.3666C24.126 68.1843 24.6955 68.8771 25.417 69.3179C26.5182 69.9152 27.2393 71.0757 27.2393 72.4035C27.2393 74.3874 25.6064 75.9983 23.6317 75.9983C21.657 75.9983 20.0627 74.3874 20.0627 72.4035C20.0627 71.93 20.1385 71.4778 20.2904 71.0636C20.6322 70.291 20.6317 69.4315 20.4039 68.6403C19.1887 64.68 15.5814 53.9081 15.5814 53.9081C15.3535 53.2621 15.5431 52.55 16.0368 52.0689C16.0368 52.0689 17.7839 50.3076 18.9991 49.0935C19.6067 48.4794 19.6826 47.5138 19.189 46.7998C18.7333 46.1869 18.4295 45.4877 18.2396 44.7486C18.0117 43.9696 17.3282 43.4247 16.5307 43.4247C15.2776 43.3905 13.6826 43.3905 13.6826 43.3905C13.6826 43.3905 9.04941 52.6363 7.30257 56.2045C6.88485 56.974 6.80935 57.8559 6.99922 58.6904C7.15112 58.9598 7.18909 59.2585 7.18909 59.5667C7.18909 61.5507 5.59416 63.1611 3.58149 63.1611C1.60681 63.1611 0.0117187 61.5507 0.0117187 59.5667C0.0117187 58.0611 0.923261 56.7703 2.25238 56.2356C3.01187 55.9073 3.65715 55.3088 4.03689 54.5488C5.97361 50.802 10.9866 40.7894 10.9866 40.7894C11.2904 40.1802 11.8977 39.7957 12.5812 39.7957H16.151C17.1763 39.7957 17.9741 38.9908 17.9741 37.9983C17.9741 37.0057 17.1763 36.2009 16.151 36.2009H12.5812C11.8977 36.2009 11.2904 35.8163 10.9866 35.2072C10.9866 35.2072 5.97346 25.1946 4.07472 21.428C3.69497 20.6593 3.04985 20.0535 2.25238 19.7214C0.923261 19.2263 0.0117187 17.9354 0.0117187 16.4299C0.0117187 14.4459 1.60681 12.8354 3.58149 12.8354C5.59416 12.8354 7.18909 14.4459 7.18909 16.4299C7.18909 16.7381 7.15082 17.0367 7.07487 17.3221C6.885 18.1414 6.96139 19.0074 7.34114 19.7629C9.05001 23.3603 13.6826 32.6061 13.6826 32.6061H16.5307C17.3282 32.6057 18.0497 32.0505 18.2396 31.2559C18.4295 30.5089 18.7333 29.8097 19.189 29.1762C19.6447 28.4766 19.5689 27.5304 18.9613 26.9289C17.784 25.6889 16.0368 23.9276 16.0368 23.9276C15.5431 23.4466 15.3535 22.7344 15.5814 22.0884C15.5814 22.0884 19.1891 11.3166 20.4803 7.38853C20.7461 6.57419 20.7077 5.68955 20.4039 4.89459C20.138 4.51877 20.0627 4.06657 20.0627 3.59309C20.0627 1.60911 21.657 -0.00170898 23.6317 -0.00170898C25.6064 -0.00170898 27.2393 1.60911 27.2393 3.59309C27.2393 4.92081 26.5181 6.08133 25.4548 6.70377C24.6953 7.14115 24.1638 7.82819 23.898 8.63911C22.5689 12.449 19.341 22.1713 19.341 22.1713C19.341 22.1713 21.0499 23.8919 22.1891 25.027C22.7587 25.6019 23.6698 25.7194 24.3534 25.3124C26.2901 24.1921 29.9361 22.1002 29.9361 22.1002C32.1387 20.8158 34.8722 20.8158 37.1128 22.1002C37.1128 22.1002 40.7209 24.1921 42.6577 25.3124C43.3792 25.7194 44.2523 25.6019 44.8219 25.027C45.9612 23.8919 47.7079 22.1713 47.7079 22.1713C47.7079 22.1713 44.4419 12.449 43.1887 8.63C42.9229 7.81224 42.3534 7.11949 41.6319 6.67869C40.5306 6.08134 39.8096 4.92081 39.8096 3.59309C39.8096 1.60911 41.4045 -0.00170898 43.4172 -0.00170898C45.3918 -0.00170898 46.9862 1.60911 46.9862 3.59309C46.9862 4.06657 46.9105 4.51878 46.7207 4.93298C46.4169 5.70552 46.3792 6.56506 46.645 7.35622C47.8602 11.3166 51.4675 22.0884 51.4675 22.0884C51.6574 22.7344 51.5058 23.4466 51.0121 23.9276C51.0121 23.9276 49.265 25.6889 48.0498 26.903C47.4422 27.5171 47.3283 28.4827 47.8599 29.1967C48.2776 29.8097 48.6194 30.5089 48.8093 31.248C48.9991 32.027 49.7207 32.5719 50.5181 32.5719C51.7713 32.6061 53.3662 32.6061 53.3662 32.6061C53.3662 32.6061 57.9615 23.3603 59.7463 19.7921C60.126 19.0226 60.2397 18.1406 60.0118 17.3061C59.8979 17.0367 59.8598 16.7381 59.8598 16.4299C59.8598 14.4459 61.4549 12.8354 63.4295 12.8354C65.4422 12.8354 67.0371 14.4459 67.0371 16.4299C67.0371 17.9354 66.1256 19.2263 64.7965 19.761C63.999 20.0893 63.3917 20.6878 63.012 21.4478C61.0753 25.1946 56.0623 35.2072 56.0623 35.2072C55.7585 35.8163 55.1512 36.2009 54.4677 36.2009H50.8601C49.8727 36.2009 49.0748 37.0057 49.0748 37.9983C49.0748 38.9908 49.8727 39.7957 50.8601 39.7957H54.4677C55.1512 39.7957 55.7585 40.1802 56.0623 40.7894C56.0623 40.7894 61.0754 50.802 62.9741 54.5686C63.3539 55.3373 63.999 55.943 64.7965 56.2751C66.1256 56.7703 67.0371 58.0611 67.0371 59.5667C67.0371 61.5507 65.4422 63.1611 63.4295 63.1611C61.4549 63.1611 59.8598 61.5507 59.8598 59.5667C59.8598 59.2585 59.898 58.9598 59.974 58.6744C60.1639 57.8552 60.0875 56.9891 59.7077 56.2337C57.9609 52.6362 53.3662 43.3905 53.3662 43.3905H50.5181C49.7207 43.3909 48.9993 43.946 48.7714 44.7406C48.6195 45.4877 48.2776 46.1869 47.8599 46.8204C47.4042 47.5199 47.48 48.4661 48.0876 49.0677C49.2648 50.3076 51.0121 52.0689 51.0121 52.0689C51.5058 52.55 51.6574 53.2621 51.4675 53.9081C51.4675 53.9081 47.8598 64.68 46.5686 68.608C46.3028 69.4224 46.3032 70.307 46.645 71.102C46.9108 71.4778 46.9862 71.93 46.9862 72.4035C46.9862 74.3874 45.3918 75.9983 43.4172 75.9983C41.4045 75.9983 39.8096 74.3874 39.8096 72.4035C39.8096 71.0757 40.5308 69.9152 41.5941 69.2928C42.3156 68.8554 42.8851 68.1684 43.1509 67.3574C44.442 63.5476 47.7079 53.8253 47.7079 53.8253C47.7079 53.8253 45.9612 52.1046 44.8219 50.9696C44.2523 50.3946 43.3792 50.2772 42.6577 50.6842C40.7209 51.8044 37.1128 53.8963 37.1128 53.8963C34.8722 55.1807 32.1387 55.1807 29.9361 53.8963C29.9361 53.8963 26.2901 51.8044 24.3534 50.6842C23.6698 50.2772 22.7587 50.3946 22.1891 50.9696C21.0499 52.1046 19.341 53.8253 19.341 53.8253C19.341 53.8253 22.569 63.5476 23.8602 67.3666ZM33.5051 45.1879C29.5558 45.1879 26.3285 41.9662 26.3285 37.9983C26.3285 34.0303 29.5558 30.8087 33.5051 30.8087C37.4925 30.8087 40.7204 34.0303 40.7204 37.9983C40.7204 41.9662 37.4925 45.1879 33.5051 45.1879Z" fill="#E90064"/>
<path fill-rule="evenodd" clip-rule="evenodd" d="M37.0451 16.9451C37.4007 17.4975 37.4468 18.206 37.1221 18.7909C36.8129 19.3757 36.2099 19.7393 35.5451 19.7393H31.479C30.8142 19.7393 30.2112 19.3757 29.9019 18.7909C29.5773 18.206 29.6241 17.4975 29.9797 16.9451C30.6445 15.9488 31.3864 14.8395 32.0203 13.8941C32.345 13.3944 32.917 13.0943 33.5045 13.0943C34.1075 13.0943 34.6799 13.3944 35.0045 13.8941C35.6384 14.8395 36.3803 15.9488 37.0451 16.9451Z" fill="#E90064"/>
</g>
<defs>
<clipPath id="clip0_2301_95472">
<rect width="240" height="76" fill="white"/>
</clipPath>
</defs>
</svg>
