<svg width="300" height="216" viewBox="0 0 300 216" fill="none" xmlns="http://www.w3.org/2000/svg">
<path d="M29.424 34.984V31.576H32.568C33.176 31.576 33.696 31.456 34.128 31.216C34.576 30.976 34.92 30.64 35.16 30.208C35.4 29.76 35.52 29.248 35.52 28.672C35.52 28.064 35.4 27.544 35.16 27.112C34.92 26.664 34.576 26.328 34.128 26.104C33.696 25.864 33.176 25.744 32.568 25.744H29.424V22.336H32.376C33.864 22.336 35.136 22.584 36.192 23.08C37.264 23.576 38.08 24.28 38.64 25.192C39.216 26.104 39.504 27.2 39.504 28.48V28.864C39.504 30.112 39.216 31.2 38.64 32.128C38.08 33.04 37.264 33.744 36.192 34.24C35.136 34.736 33.864 34.984 32.376 34.984H29.424ZM25.968 40V22.336H29.904V40H25.968ZM41.877 40V26.848H44.925V32.488H44.853C44.853 30.632 45.245 29.2 46.029 28.192C46.829 27.184 47.981 26.68 49.485 26.68H49.989V29.992H49.029C47.973 29.992 47.157 30.28 46.581 30.856C46.005 31.416 45.717 32.232 45.717 33.304V40H41.877ZM58.3163 40.456C57.1643 40.456 56.1403 40.28 55.2443 39.928C54.3483 39.56 53.5883 39.064 52.9643 38.44C52.3563 37.816 51.8923 37.104 51.5723 36.304C51.2523 35.488 51.0923 34.632 51.0923 33.736V33.184C51.0923 32.272 51.2523 31.408 51.5723 30.592C51.9083 29.76 52.3883 29.032 53.0123 28.408C53.6523 27.784 54.4203 27.296 55.3163 26.944C56.2123 26.576 57.2123 26.392 58.3163 26.392C59.4523 26.392 60.4603 26.576 61.3403 26.944C62.2363 27.296 62.9963 27.784 63.6203 28.408C64.2443 29.032 64.7243 29.76 65.0603 30.592C65.3963 31.408 65.5643 32.272 65.5643 33.184V33.736C65.5643 34.632 65.4043 35.488 65.0843 36.304C64.7643 37.104 64.2923 37.816 63.6683 38.44C63.0603 39.064 62.3083 39.56 61.4123 39.928C60.5163 40.28 59.4843 40.456 58.3163 40.456ZM58.3163 37.216C59.0683 37.216 59.6923 37.056 60.1883 36.736C60.6843 36.416 61.0603 35.968 61.3163 35.392C61.5883 34.816 61.7243 34.176 61.7243 33.472C61.7243 32.72 61.5883 32.064 61.3163 31.504C61.0443 30.928 60.6523 30.472 60.1403 30.136C59.6443 29.8 59.0363 29.632 58.3163 29.632C57.6123 29.632 57.0043 29.8 56.4922 30.136C55.9803 30.472 55.5883 30.928 55.3163 31.504C55.0603 32.064 54.9323 32.72 54.9323 33.472C54.9323 34.176 55.0603 34.816 55.3163 35.392C55.5723 35.968 55.9563 36.416 56.4683 36.736C56.9803 37.056 57.5963 37.216 58.3163 37.216ZM74.1482 40.456C73.0122 40.456 72.0202 40.272 71.1722 39.904C70.3402 39.52 69.6442 39.008 69.0842 38.368C68.5242 37.728 68.1082 37.008 67.8362 36.208C67.5642 35.392 67.4282 34.552 67.4282 33.688V33.232C67.4282 32.336 67.5722 31.48 67.8602 30.664C68.1482 29.832 68.5722 29.096 69.1322 28.456C69.6922 27.816 70.3882 27.312 71.2202 26.944C72.0682 26.576 73.0362 26.392 74.1242 26.392C75.3082 26.392 76.3562 26.624 77.2682 27.088C78.1802 27.536 78.9082 28.168 79.4522 28.984C79.9962 29.8 80.3002 30.736 80.3642 31.792H76.5962C76.5322 31.2 76.2922 30.704 75.8762 30.304C75.4762 29.888 74.8922 29.68 74.1242 29.68C73.4842 29.68 72.9482 29.84 72.5162 30.16C72.1002 30.48 71.7882 30.92 71.5802 31.48C71.3722 32.04 71.2682 32.704 71.2682 33.472C71.2682 34.176 71.3642 34.816 71.5562 35.392C71.7482 35.952 72.0522 36.392 72.4682 36.712C72.9002 37.016 73.4602 37.168 74.1482 37.168C74.6602 37.168 75.0922 37.08 75.4442 36.904C75.8122 36.712 76.1002 36.456 76.3082 36.136C76.5322 35.8 76.6682 35.416 76.7162 34.984H80.4602C80.4122 36.072 80.1082 37.032 79.5482 37.864C78.9882 38.68 78.2442 39.32 77.3162 39.784C76.3882 40.232 75.3322 40.456 74.1482 40.456ZM88.9401 40.456C87.8201 40.456 86.8281 40.264 85.9641 39.88C85.1161 39.496 84.4041 38.984 83.8281 38.344C83.2681 37.688 82.8361 36.96 82.5321 36.16C82.2441 35.344 82.1001 34.512 82.1001 33.664V33.184C82.1001 32.304 82.2441 31.464 82.5321 30.664C82.8361 29.848 83.2681 29.12 83.8281 28.48C84.3881 27.84 85.0841 27.336 85.9161 26.968C86.7641 26.584 87.7241 26.392 88.7961 26.392C90.2041 26.392 91.3881 26.712 92.3481 27.352C93.3241 27.976 94.0681 28.8 94.5801 29.824C95.0921 30.832 95.3481 31.936 95.3481 33.136V34.432H83.7081V32.248H93.0201L91.7721 33.256C91.7721 32.472 91.6601 31.8 91.4361 31.24C91.2121 30.68 90.8761 30.256 90.4281 29.968C89.9961 29.664 89.4521 29.512 88.7961 29.512C88.1241 29.512 87.5561 29.664 87.0921 29.968C86.6281 30.272 86.2761 30.72 86.0361 31.312C85.7961 31.888 85.6761 32.6 85.6761 33.448C85.6761 34.232 85.7881 34.92 86.0121 35.512C86.2361 36.088 86.5881 36.536 87.0681 36.856C87.5481 37.176 88.1721 37.336 88.9401 37.336C89.6441 37.336 90.2201 37.2 90.6681 36.928C91.1161 36.656 91.4201 36.32 91.5801 35.92H95.1081C94.9161 36.8 94.5401 37.584 93.9801 38.272C93.4201 38.96 92.7161 39.496 91.8681 39.88C91.0201 40.264 90.0441 40.456 88.9401 40.456ZM103.917 40.456C102.797 40.456 101.805 40.264 100.941 39.88C100.093 39.496 99.3806 38.984 98.8046 38.344C98.2446 37.688 97.8126 36.96 97.5086 36.16C97.2206 35.344 97.0766 34.512 97.0766 33.664V33.184C97.0766 32.304 97.2206 31.464 97.5086 30.664C97.8126 29.848 98.2446 29.12 98.8046 28.48C99.3646 27.84 100.061 27.336 100.893 26.968C101.741 26.584 102.701 26.392 103.773 26.392C105.181 26.392 106.365 26.712 107.325 27.352C108.301 27.976 109.045 28.8 109.557 29.824C110.069 30.832 110.325 31.936 110.325 33.136V34.432H98.6846V32.248H107.997L106.749 33.256C106.749 32.472 106.637 31.8 106.413 31.24C106.189 30.68 105.853 30.256 105.405 29.968C104.973 29.664 104.429 29.512 103.773 29.512C103.101 29.512 102.533 29.664 102.069 29.968C101.605 30.272 101.253 30.72 101.013 31.312C100.773 31.888 100.653 32.6 100.653 33.448C100.653 34.232 100.765 34.92 100.989 35.512C101.213 36.088 101.565 36.536 102.045 36.856C102.525 37.176 103.149 37.336 103.917 37.336C104.621 37.336 105.197 37.2 105.645 36.928C106.093 36.656 106.397 36.32 106.557 35.92H110.085C109.893 36.8 109.517 37.584 108.957 38.272C108.397 38.96 107.693 39.496 106.845 39.88C105.997 40.264 105.021 40.456 103.917 40.456ZM118.293 40.432C117.365 40.432 116.517 40.264 115.749 39.928C114.997 39.592 114.341 39.128 113.781 38.536C113.221 37.928 112.789 37.216 112.485 36.4C112.197 35.584 112.053 34.704 112.053 33.76V33.208C112.053 32.264 112.189 31.384 112.461 30.568C112.749 29.752 113.157 29.04 113.685 28.432C114.229 27.808 114.877 27.328 115.629 26.992C116.381 26.64 117.221 26.464 118.149 26.464C119.205 26.464 120.117 26.696 120.885 27.16C121.653 27.608 122.253 28.28 122.685 29.176C123.117 30.056 123.357 31.144 123.405 32.44L122.397 31.504V22.48H126.261V40H123.213V34.552H123.741C123.693 35.8 123.429 36.864 122.949 37.744C122.485 38.624 121.853 39.296 121.053 39.76C120.253 40.208 119.333 40.432 118.293 40.432ZM119.253 37.216C119.845 37.216 120.381 37.088 120.861 36.832C121.357 36.56 121.749 36.168 122.037 35.656C122.341 35.144 122.493 34.528 122.493 33.808V32.92C122.493 32.216 122.341 31.624 122.037 31.144C121.733 30.664 121.333 30.296 120.837 30.04C120.341 29.784 119.805 29.656 119.229 29.656C118.589 29.656 118.013 29.824 117.501 30.16C117.005 30.48 116.613 30.928 116.325 31.504C116.037 32.064 115.893 32.72 115.893 33.472C115.893 34.24 116.037 34.904 116.325 35.464C116.613 36.024 117.013 36.456 117.525 36.76C118.037 37.064 118.613 37.216 119.253 37.216ZM41.8061 72.168C40.4781 72.168 39.4061 72.008 38.5901 71.688C37.7741 71.352 37.1741 70.8 36.7901 70.032C36.4221 69.248 36.2381 68.192 36.2381 66.864V55.296H39.8141V67.008C39.8141 67.632 39.9741 68.112 40.2941 68.448C40.6301 68.768 41.1021 68.928 41.7101 68.928H43.6541V72.168H41.8061ZM34.2461 61.656V58.848H43.6541V61.656H34.2461ZM52.5975 72.456C51.4455 72.456 50.4215 72.28 49.5255 71.928C48.6295 71.56 47.8695 71.064 47.2455 70.44C46.6375 69.816 46.1735 69.104 45.8535 68.304C45.5335 67.488 45.3735 66.632 45.3735 65.736V65.184C45.3735 64.272 45.5335 63.408 45.8535 62.592C46.1895 61.76 46.6695 61.032 47.2935 60.408C47.9335 59.784 48.7015 59.296 49.5975 58.944C50.4935 58.576 51.4935 58.392 52.5975 58.392C53.7335 58.392 54.7415 58.576 55.6215 58.944C56.5175 59.296 57.2775 59.784 57.9015 60.408C58.5255 61.032 59.0055 61.76 59.3415 62.592C59.6775 63.408 59.8455 64.272 59.8455 65.184V65.736C59.8455 66.632 59.6855 67.488 59.3655 68.304C59.0455 69.104 58.5735 69.816 57.9495 70.44C57.3415 71.064 56.5895 71.56 55.6935 71.928C54.7975 72.28 53.7655 72.456 52.5975 72.456ZM52.5975 69.216C53.3495 69.216 53.9735 69.056 54.4695 68.736C54.9655 68.416 55.3415 67.968 55.5975 67.392C55.8695 66.816 56.0055 66.176 56.0055 65.472C56.0055 64.72 55.8695 64.064 55.5975 63.504C55.3255 62.928 54.9335 62.472 54.4215 62.136C53.9255 61.8 53.3175 61.632 52.5975 61.632C51.8935 61.632 51.2855 61.8 50.7735 62.136C50.2615 62.472 49.8695 62.928 49.5975 63.504C49.3415 64.064 49.2135 64.72 49.2135 65.472C49.2135 66.176 49.3415 66.816 49.5975 67.392C49.8535 67.968 50.2375 68.416 50.7495 68.736C51.2615 69.056 51.8775 69.216 52.5975 69.216ZM76.8285 72L72.6765 65.856H70.8285L76.1805 58.848H80.2125L75.1725 65.376L75.2205 63.504L81.1485 72H76.8285ZM67.5645 72V54.48H71.4045V72H67.5645ZM82.8926 72V58.848H85.9406V64.488H85.7246C85.7246 63.144 85.8926 62.024 86.2286 61.128C86.5806 60.232 87.1086 59.56 87.8126 59.112C88.5166 58.664 89.3726 58.44 90.3806 58.44H90.5486C92.0846 58.44 93.2526 58.944 94.0526 59.952C94.8686 60.944 95.2766 62.456 95.2766 64.488V72H91.4366V64.272C91.4366 63.568 91.2286 62.992 90.8126 62.544C90.3966 62.096 89.8366 61.872 89.1326 61.872C88.4126 61.872 87.8286 62.104 87.3806 62.568C86.9486 63.016 86.7326 63.608 86.7326 64.344V72H82.8926ZM104.957 72.456C103.805 72.456 102.781 72.28 101.885 71.928C100.989 71.56 100.229 71.064 99.6049 70.44C98.9969 69.816 98.5329 69.104 98.2129 68.304C97.8929 67.488 97.7329 66.632 97.7329 65.736V65.184C97.7329 64.272 97.8929 63.408 98.2129 62.592C98.5489 61.76 99.0289 61.032 99.6529 60.408C100.293 59.784 101.061 59.296 101.957 58.944C102.853 58.576 103.853 58.392 104.957 58.392C106.093 58.392 107.101 58.576 107.981 58.944C108.877 59.296 109.637 59.784 110.261 60.408C110.885 61.032 111.365 61.76 111.701 62.592C112.037 63.408 112.205 64.272 112.205 65.184V65.736C112.205 66.632 112.045 67.488 111.725 68.304C111.405 69.104 110.933 69.816 110.309 70.44C109.701 71.064 108.949 71.56 108.053 71.928C107.157 72.28 106.125 72.456 104.957 72.456ZM104.957 69.216C105.709 69.216 106.333 69.056 106.829 68.736C107.325 68.416 107.701 67.968 107.957 67.392C108.229 66.816 108.365 66.176 108.365 65.472C108.365 64.72 108.229 64.064 107.957 63.504C107.685 62.928 107.293 62.472 106.781 62.136C106.285 61.8 105.677 61.632 104.957 61.632C104.253 61.632 103.645 61.8 103.133 62.136C102.621 62.472 102.229 62.928 101.957 63.504C101.701 64.064 101.573 64.72 101.573 65.472C101.573 66.176 101.701 66.816 101.957 67.392C102.213 67.968 102.597 68.416 103.109 68.736C103.621 69.056 104.237 69.216 104.957 69.216ZM119.404 72L121.804 59.28H126.004L128.788 72H125.812L122.956 59.376H124.66L122.092 72H119.404ZM118.492 72L118.468 68.808H121.108L121.132 72H118.492ZM116.764 72L113.236 58.848H117.004L120.292 72H116.764ZM126.796 72L126.82 68.808H129.46V72H126.796ZM127.876 72L130.804 58.848H134.332L131.164 72H127.876ZM141.6 77.208V73.944H144.336C144.752 73.944 145.104 73.888 145.392 73.776C145.68 73.68 145.912 73.512 146.088 73.272C146.264 73.032 146.408 72.704 146.52 72.288L149.76 58.848H153.408L149.736 73.056C149.48 74.08 149.12 74.896 148.656 75.504C148.208 76.112 147.6 76.544 146.832 76.8C146.08 77.072 145.12 77.208 143.952 77.208H141.6ZM145.728 71.712V68.712H148.512V71.712H145.728ZM144.144 71.712L140.112 58.848H143.976L147.792 71.712H144.144ZM161.535 72.456C160.383 72.456 159.359 72.28 158.463 71.928C157.567 71.56 156.807 71.064 156.183 70.44C155.575 69.816 155.111 69.104 154.791 68.304C154.471 67.488 154.311 66.632 154.311 65.736V65.184C154.311 64.272 154.471 63.408 154.791 62.592C155.127 61.76 155.607 61.032 156.231 60.408C156.871 59.784 157.639 59.296 158.535 58.944C159.431 58.576 160.431 58.392 161.535 58.392C162.671 58.392 163.679 58.576 164.559 58.944C165.455 59.296 166.215 59.784 166.839 60.408C167.463 61.032 167.943 61.76 168.279 62.592C168.615 63.408 168.783 64.272 168.783 65.184V65.736C168.783 66.632 168.623 67.488 168.303 68.304C167.983 69.104 167.511 69.816 166.887 70.44C166.279 71.064 165.527 71.56 164.631 71.928C163.735 72.28 162.703 72.456 161.535 72.456ZM161.535 69.216C162.287 69.216 162.911 69.056 163.407 68.736C163.903 68.416 164.279 67.968 164.535 67.392C164.807 66.816 164.943 66.176 164.943 65.472C164.943 64.72 164.807 64.064 164.535 63.504C164.263 62.928 163.871 62.472 163.359 62.136C162.863 61.8 162.255 61.632 161.535 61.632C160.831 61.632 160.223 61.8 159.711 62.136C159.199 62.472 158.807 62.928 158.535 63.504C158.279 64.064 158.151 64.72 158.151 65.472C158.151 66.176 158.279 66.816 158.535 67.392C158.791 67.968 159.175 68.416 159.687 68.736C160.199 69.056 160.815 69.216 161.535 69.216ZM175.903 72.408C174.383 72.408 173.215 71.92 172.399 70.944C171.583 69.952 171.175 68.464 171.175 66.48V58.848H175.015V66.672C175.015 67.376 175.215 67.936 175.615 68.352C176.015 68.768 176.551 68.976 177.223 68.976C177.911 68.976 178.471 68.76 178.903 68.328C179.335 67.896 179.551 67.312 179.551 66.576V58.848H183.391V72H180.343V66.456H180.607C180.607 67.784 180.431 68.896 180.079 69.792C179.743 70.672 179.239 71.328 178.567 71.76C177.895 72.192 177.063 72.408 176.071 72.408H175.903ZM186.932 72V58.848H189.98V64.488H189.908C189.908 62.632 190.3 61.2 191.084 60.192C191.884 59.184 193.036 58.68 194.54 58.68H195.044V61.992H194.084C193.028 61.992 192.212 62.28 191.636 62.856C191.06 63.416 190.772 64.232 190.772 65.304V72H186.932ZM51.9323 104.456C50.8123 104.456 49.8203 104.264 48.9563 103.88C48.1083 103.496 47.3963 102.984 46.8203 102.344C46.2603 101.688 45.8283 100.96 45.5243 100.16C45.2363 99.344 45.0923 98.512 45.0923 97.664V97.184C45.0923 96.304 45.2363 95.464 45.5243 94.664C45.8283 93.848 46.2603 93.12 46.8203 92.48C47.3803 91.84 48.0763 91.336 48.9083 90.968C49.7563 90.584 50.7163 90.392 51.7883 90.392C53.1963 90.392 54.3803 90.712 55.3403 91.352C56.3163 91.976 57.0603 92.8 57.5723 93.824C58.0843 94.832 58.3403 95.936 58.3403 97.136V98.432H46.7003V96.248H56.0123L54.7643 97.256C54.7643 96.472 54.6523 95.8 54.4283 95.24C54.2043 94.68 53.8683 94.256 53.4203 93.968C52.9883 93.664 52.4443 93.512 51.7883 93.512C51.1163 93.512 50.5483 93.664 50.0843 93.968C49.6203 94.272 49.2683 94.72 49.0283 95.312C48.7883 95.888 48.6683 96.6 48.6683 97.448C48.6683 98.232 48.7803 98.92 49.0043 99.512C49.2283 100.088 49.5803 100.536 50.0603 100.856C50.5403 101.176 51.1643 101.336 51.9323 101.336C52.6363 101.336 53.2123 101.2 53.6603 100.928C54.1083 100.656 54.4123 100.32 54.5723 99.92H58.1003C57.9083 100.8 57.5323 101.584 56.9723 102.272C56.4123 102.96 55.7083 103.496 54.8603 103.88C54.0123 104.264 53.0363 104.456 51.9323 104.456ZM60.8848 104V90.848H63.9328V96.488H63.7168C63.7168 95.144 63.8848 94.024 64.2208 93.128C64.5728 92.232 65.1008 91.56 65.8048 91.112C66.5088 90.664 67.3648 90.44 68.3728 90.44H68.5408C70.0768 90.44 71.2448 90.944 72.0448 91.952C72.8608 92.944 73.2688 94.456 73.2688 96.488V104H69.4288V96.272C69.4288 95.568 69.2208 94.992 68.8048 94.544C68.3888 94.096 67.8288 93.872 67.1248 93.872C66.4048 93.872 65.8208 94.104 65.3728 94.568C64.9408 95.016 64.7248 95.608 64.7248 96.344V104H60.8848ZM78.9913 104L75.0553 90.848H79.0153L82.7113 104H78.9913ZM80.1913 104V100.808H84.0553V104H80.1913ZM81.6073 104L84.7993 90.848H88.4953L85.0873 104H81.6073ZM91.3916 104V90.848H95.2316V104H91.3916ZM89.6396 93.68V90.848H95.2316V93.68H89.6396ZM92.8796 89.552C92.1596 89.552 91.6236 89.368 91.2716 89C90.9356 88.616 90.7676 88.136 90.7676 87.56C90.7676 86.968 90.9356 86.488 91.2716 86.12C91.6236 85.736 92.1596 85.544 92.8796 85.544C93.5996 85.544 94.1276 85.736 94.4636 86.12C94.8156 86.488 94.9916 86.968 94.9916 87.56C94.9916 88.136 94.8156 88.616 94.4636 89C94.1276 89.368 93.5996 89.552 92.8796 89.552ZM98.7833 104V90.848H101.831V96.488H101.759C101.759 94.632 102.151 93.2 102.935 92.192C103.735 91.184 104.887 90.68 106.391 90.68H106.895V93.992H105.935C104.879 93.992 104.063 94.28 103.487 94.856C102.911 95.416 102.623 96.232 102.623 97.304V104H98.7833ZM115.223 104.456C114.071 104.456 113.047 104.28 112.151 103.928C111.255 103.56 110.495 103.064 109.871 102.44C109.263 101.816 108.799 101.104 108.479 100.304C108.159 99.488 107.999 98.632 107.999 97.736V97.184C107.999 96.272 108.159 95.408 108.479 94.592C108.815 93.76 109.295 93.032 109.919 92.408C110.559 91.784 111.327 91.296 112.223 90.944C113.119 90.576 114.119 90.392 115.223 90.392C116.359 90.392 117.367 90.576 118.247 90.944C119.143 91.296 119.903 91.784 120.527 92.408C121.151 93.032 121.631 93.76 121.967 94.592C122.303 95.408 122.471 96.272 122.471 97.184V97.736C122.471 98.632 122.311 99.488 121.991 100.304C121.671 101.104 121.199 101.816 120.575 102.44C119.967 103.064 119.215 103.56 118.319 103.928C117.423 104.28 116.391 104.456 115.223 104.456ZM115.223 101.216C115.975 101.216 116.599 101.056 117.095 100.736C117.591 100.416 117.967 99.968 118.223 99.392C118.495 98.816 118.631 98.176 118.631 97.472C118.631 96.72 118.495 96.064 118.223 95.504C117.951 94.928 117.559 94.472 117.047 94.136C116.551 93.8 115.943 93.632 115.223 93.632C114.519 93.632 113.911 93.8 113.398 94.136C112.887 94.472 112.495 94.928 112.223 95.504C111.967 96.064 111.839 96.72 111.839 97.472C111.839 98.176 111.967 98.816 112.223 99.392C112.479 99.968 112.863 100.416 113.375 100.736C113.887 101.056 114.503 101.216 115.223 101.216ZM125.15 104V90.848H128.198V96.488H127.982C127.982 95.144 128.15 94.024 128.486 93.128C128.838 92.232 129.366 91.56 130.07 91.112C130.774 90.664 131.63 90.44 132.638 90.44H132.806C134.342 90.44 135.51 90.944 136.31 91.952C137.126 92.944 137.534 94.456 137.534 96.488V104H133.694V96.272C133.694 95.568 133.486 94.992 133.07 94.544C132.654 94.096 132.094 93.872 131.39 93.872C130.67 93.872 130.086 94.104 129.638 94.568C129.206 95.016 128.99 95.608 128.99 96.344V104H125.15ZM140.807 104V90.848H143.855V96.512H143.639C143.639 95.168 143.807 94.048 144.143 93.152C144.479 92.256 144.983 91.584 145.655 91.136C146.327 90.672 147.151 90.44 148.127 90.44H148.295C149.287 90.44 150.111 90.672 150.767 91.136C151.439 91.584 151.943 92.256 152.279 93.152C152.631 94.048 152.807 95.168 152.807 96.512H151.871C151.871 95.168 152.039 94.048 152.375 93.152C152.727 92.256 153.239 91.584 153.911 91.136C154.583 90.672 155.407 90.44 156.383 90.44H156.551C157.543 90.44 158.375 90.672 159.047 91.136C159.735 91.584 160.255 92.256 160.607 93.152C160.959 94.048 161.135 95.168 161.135 96.512V104H157.295V96.296C157.295 95.576 157.103 94.992 156.719 94.544C156.351 94.096 155.823 93.872 155.135 93.872C154.447 93.872 153.903 94.104 153.503 94.568C153.103 95.016 152.903 95.616 152.903 96.368V104H149.039V96.296C149.039 95.576 148.847 94.992 148.463 94.544C148.095 94.096 147.575 93.872 146.903 93.872C146.199 93.872 145.647 94.104 145.247 94.568C144.847 95.016 144.647 95.616 144.647 96.368V104H140.807ZM170.432 104.456C169.312 104.456 168.32 104.264 167.456 103.88C166.608 103.496 165.896 102.984 165.32 102.344C164.76 101.688 164.328 100.96 164.024 100.16C163.736 99.344 163.592 98.512 163.592 97.664V97.184C163.592 96.304 163.736 95.464 164.024 94.664C164.328 93.848 164.76 93.12 165.32 92.48C165.88 91.84 166.576 91.336 167.408 90.968C168.256 90.584 169.216 90.392 170.288 90.392C171.696 90.392 172.88 90.712 173.84 91.352C174.816 91.976 175.56 92.8 176.072 93.824C176.584 94.832 176.84 95.936 176.84 97.136V98.432H165.2V96.248H174.512L173.264 97.256C173.264 96.472 173.152 95.8 172.928 95.24C172.704 94.68 172.368 94.256 171.92 93.968C171.488 93.664 170.944 93.512 170.288 93.512C169.616 93.512 169.048 93.664 168.584 93.968C168.12 94.272 167.768 94.72 167.528 95.312C167.288 95.888 167.168 96.6 167.168 97.448C167.168 98.232 167.28 98.92 167.504 99.512C167.728 100.088 168.08 100.536 168.56 100.856C169.04 101.176 169.664 101.336 170.432 101.336C171.136 101.336 171.712 101.2 172.16 100.928C172.608 100.656 172.912 100.32 173.072 99.92H176.6C176.408 100.8 176.032 101.584 175.472 102.272C174.912 102.96 174.208 103.496 173.36 103.88C172.512 104.264 171.536 104.456 170.432 104.456ZM179.385 104V90.848H182.433V96.488H182.217C182.217 95.144 182.385 94.024 182.721 93.128C183.073 92.232 183.601 91.56 184.305 91.112C185.009 90.664 185.865 90.44 186.873 90.44H187.041C188.577 90.44 189.745 90.944 190.545 91.952C191.361 92.944 191.769 94.456 191.769 96.488V104H187.929V96.272C187.929 95.568 187.721 94.992 187.305 94.544C186.889 94.096 186.329 93.872 185.625 93.872C184.905 93.872 184.321 94.104 183.873 94.568C183.441 95.016 183.225 95.608 183.225 96.344V104H179.385ZM201.017 104.168C199.689 104.168 198.617 104.008 197.801 103.688C196.985 103.352 196.385 102.8 196.001 102.032C195.633 101.248 195.449 100.192 195.449 98.864V87.296H199.025V99.008C199.025 99.632 199.185 100.112 199.505 100.448C199.841 100.768 200.313 100.928 200.921 100.928H202.865V104.168H201.017ZM193.457 93.656V90.848H202.865V93.656H193.457Z" fill="#3E4852"/>
<path d="M259.849 54V29.92L261.609 31.28H252.729V24.8H267.289V54H259.849ZM251.929 54V47.52H273.849V54H251.929Z" fill="#3E4852"/>
<rect x="48" y="136" width="121" height="56" rx="12" fill="#E20074"/>
<path d="M74 161V158.5C74 156.01 76.01 154 78.5 154H81" stroke="white" stroke-width="2" stroke-linecap="round" stroke-linejoin="round"/>
<path d="M87 154H89.5C91.99 154 94 156.01 94 158.5V161" stroke="white" stroke-width="2" stroke-linecap="round" stroke-linejoin="round"/>
<path d="M94 168V169.5C94 171.99 91.99 174 89.5 174H88" stroke="white" stroke-width="2" stroke-linecap="round" stroke-linejoin="round"/>
<path d="M81 174H78.5C76.01 174 74 171.99 74 169.5V167" stroke="white" stroke-width="2" stroke-linecap="round" stroke-linejoin="round"/>
<path d="M89 161.5V166.5C89 168.5 88 169.5 86 169.5H82C80 169.5 79 168.5 79 166.5V161.5C79 159.5 80 158.5 82 158.5H86C88 158.5 89 159.5 89 161.5Z" stroke="white" stroke-width="2" stroke-linecap="round" stroke-linejoin="round"/>
<path d="M91 164H77" stroke="white" stroke-width="2" stroke-linecap="round" stroke-linejoin="round"/>
<path d="M109.376 169.304C108.32 169.304 107.429 169.139 106.704 168.808C105.979 168.467 105.429 168.008 105.056 167.432C104.683 166.845 104.496 166.173 104.496 165.416H107.04C107.04 165.715 107.12 165.992 107.28 166.248C107.451 166.504 107.707 166.712 108.048 166.872C108.389 167.021 108.832 167.096 109.376 167.096C109.867 167.096 110.277 167.032 110.608 166.904C110.939 166.776 111.189 166.6 111.36 166.376C111.531 166.141 111.616 165.875 111.616 165.576C111.616 165.203 111.456 164.909 111.136 164.696C110.816 164.472 110.299 164.328 109.584 164.264L108.704 164.184C107.541 164.088 106.613 163.725 105.92 163.096C105.227 162.467 104.88 161.635 104.88 160.6C104.88 159.853 105.056 159.208 105.408 158.664C105.771 158.12 106.272 157.704 106.912 157.416C107.552 157.117 108.309 156.968 109.184 156.968C110.101 156.968 110.885 157.128 111.536 157.448C112.197 157.757 112.704 158.2 113.056 158.776C113.408 159.341 113.584 160.008 113.584 160.776H111.024C111.024 160.488 110.955 160.227 110.816 159.992C110.677 159.747 110.469 159.549 110.192 159.4C109.925 159.251 109.589 159.176 109.184 159.176C108.8 159.176 108.475 159.24 108.208 159.368C107.952 159.496 107.76 159.672 107.632 159.896C107.504 160.109 107.44 160.344 107.44 160.6C107.44 160.931 107.557 161.219 107.792 161.464C108.027 161.709 108.411 161.853 108.944 161.896L109.84 161.976C110.693 162.051 111.445 162.237 112.096 162.536C112.747 162.824 113.253 163.224 113.616 163.736C113.989 164.237 114.176 164.851 114.176 165.576C114.176 166.323 113.979 166.979 113.584 167.544C113.2 168.099 112.651 168.531 111.936 168.84C111.221 169.149 110.368 169.304 109.376 169.304ZM119.776 169.304C119.019 169.304 118.357 169.181 117.792 168.936C117.237 168.68 116.773 168.339 116.4 167.912C116.027 167.485 115.749 167.005 115.568 166.472C115.387 165.928 115.296 165.368 115.296 164.792V164.488C115.296 163.891 115.392 163.32 115.584 162.776C115.776 162.221 116.059 161.731 116.432 161.304C116.805 160.877 117.269 160.541 117.824 160.296C118.389 160.051 119.035 159.928 119.76 159.928C120.549 159.928 121.248 160.083 121.856 160.392C122.464 160.691 122.949 161.112 123.312 161.656C123.675 162.2 123.877 162.824 123.92 163.528H121.408C121.365 163.133 121.205 162.803 120.928 162.536C120.661 162.259 120.272 162.12 119.76 162.12C119.333 162.12 118.976 162.227 118.688 162.44C118.411 162.653 118.203 162.947 118.064 163.32C117.925 163.693 117.856 164.136 117.856 164.648C117.856 165.117 117.92 165.544 118.048 165.928C118.176 166.301 118.379 166.595 118.656 166.808C118.944 167.011 119.317 167.112 119.776 167.112C120.117 167.112 120.405 167.053 120.64 166.936C120.885 166.808 121.077 166.637 121.216 166.424C121.365 166.2 121.456 165.944 121.488 165.656H123.984C123.952 166.381 123.749 167.021 123.376 167.576C123.003 168.12 122.507 168.547 121.888 168.856C121.269 169.155 120.565 169.304 119.776 169.304ZM130.917 169V166.408H130.485V163.592C130.485 163.144 130.378 162.808 130.165 162.584C129.952 162.36 129.61 162.248 129.141 162.248C128.906 162.248 128.597 162.253 128.213 162.264C127.829 162.275 127.434 162.291 127.029 162.312C126.624 162.333 126.256 162.355 125.925 162.376V160.216C126.17 160.195 126.458 160.173 126.789 160.152C127.12 160.131 127.461 160.115 127.813 160.104C128.165 160.093 128.496 160.088 128.805 160.088C129.701 160.088 130.453 160.216 131.061 160.472C131.68 160.728 132.149 161.117 132.469 161.64C132.789 162.152 132.949 162.813 132.949 163.624V169H130.917ZM128.117 169.224C127.488 169.224 126.933 169.112 126.453 168.888C125.984 168.664 125.616 168.344 125.349 167.928C125.082 167.501 124.949 166.995 124.949 166.408C124.949 165.768 125.114 165.245 125.445 164.84C125.776 164.424 126.24 164.12 126.837 163.928C127.434 163.725 128.122 163.624 128.901 163.624H130.773V165.048H128.885C128.437 165.048 128.09 165.16 127.845 165.384C127.61 165.597 127.493 165.891 127.493 166.264C127.493 166.616 127.61 166.904 127.845 167.128C128.09 167.341 128.437 167.448 128.885 167.448C129.173 167.448 129.429 167.4 129.653 167.304C129.888 167.197 130.08 167.021 130.229 166.776C130.378 166.531 130.464 166.189 130.485 165.752L131.093 166.392C131.04 167 130.89 167.512 130.645 167.928C130.41 168.344 130.08 168.664 129.653 168.888C129.237 169.112 128.725 169.224 128.117 169.224ZM135.121 169V160.232H137.153V163.992H137.009C137.009 163.096 137.121 162.349 137.345 161.752C137.58 161.155 137.932 160.707 138.401 160.408C138.87 160.109 139.441 159.96 140.113 159.96H140.225C141.249 159.96 142.028 160.296 142.561 160.968C143.105 161.629 143.377 162.637 143.377 163.992V169H140.817V163.848C140.817 163.379 140.678 162.995 140.401 162.696C140.124 162.397 139.75 162.248 139.281 162.248C138.801 162.248 138.412 162.403 138.113 162.712C137.825 163.011 137.681 163.405 137.681 163.896V169H135.121Z" fill="white"/>
</svg>
