<svg width="512" height="328" viewBox="0 0 512 328" fill="none" xmlns="http://www.w3.org/2000/svg">
<rect x="0.5" y="0.5" width="511" height="327" rx="15.5" fill="white"/>
<path d="M49.968 48V30.336H53.904V48H49.968ZM60.6 48L55.464 40.464H59.784L65.16 48H60.6ZM52.848 42.384V39.288H57.168C57.744 39.288 58.24 39.176 58.656 38.952C59.088 38.712 59.416 38.384 59.64 37.968C59.88 37.536 60 37.04 60 36.48C60 35.92 59.88 35.432 59.64 35.016C59.416 34.584 59.088 34.256 58.656 34.032C58.24 33.792 57.744 33.672 57.168 33.672H52.848V30.336H56.856C58.312 30.336 59.576 30.56 60.648 31.008C61.72 31.44 62.544 32.088 63.12 32.952C63.696 33.816 63.984 34.904 63.984 36.216V36.6C63.984 37.896 63.688 38.976 63.096 39.84C62.52 40.688 61.696 41.328 60.624 41.76C59.568 42.176 58.312 42.384 56.856 42.384H52.848ZM73.0729 48.456C71.9529 48.456 70.9609 48.264 70.0969 47.88C69.2489 47.496 68.5369 46.984 67.9609 46.344C67.4009 45.688 66.9689 44.96 66.6649 44.16C66.3769 43.344 66.2329 42.512 66.2329 41.664V41.184C66.2329 40.304 66.3769 39.464 66.6649 38.664C66.9689 37.848 67.4009 37.12 67.9609 36.48C68.5209 35.84 69.2169 35.336 70.0489 34.968C70.8969 34.584 71.8569 34.392 72.9289 34.392C74.3369 34.392 75.5209 34.712 76.4809 35.352C77.4569 35.976 78.2009 36.8 78.7129 37.824C79.2249 38.832 79.4809 39.936 79.4809 41.136V42.432H67.8409V40.248H77.1529L75.9049 41.256C75.9049 40.472 75.7929 39.8 75.5689 39.24C75.3449 38.68 75.0089 38.256 74.5609 37.968C74.1289 37.664 73.5849 37.512 72.9289 37.512C72.2569 37.512 71.6889 37.664 71.2249 37.968C70.7609 38.272 70.4089 38.72 70.1689 39.312C69.9289 39.888 69.8089 40.6 69.8089 41.448C69.8089 42.232 69.9209 42.92 70.1449 43.512C70.3689 44.088 70.7209 44.536 71.2009 44.856C71.6809 45.176 72.3049 45.336 73.0729 45.336C73.7769 45.336 74.3529 45.2 74.8009 44.928C75.2489 44.656 75.5529 44.32 75.7129 43.92H79.2409C79.0489 44.8 78.6729 45.584 78.1129 46.272C77.5529 46.96 76.8489 47.496 76.0009 47.88C75.1529 48.264 74.1769 48.456 73.0729 48.456ZM82.0254 52.8V34.848H85.0734V40.536L84.6654 40.512C84.7294 39.2 85.0014 38.096 85.4814 37.2C85.9614 36.288 86.6094 35.608 87.4254 35.16C88.2414 34.696 89.1614 34.464 90.1854 34.464C91.0974 34.464 91.9214 34.632 92.6574 34.968C93.4094 35.304 94.0494 35.776 94.5774 36.384C95.1214 36.976 95.5294 37.68 95.8014 38.496C96.0894 39.296 96.2334 40.176 96.2334 41.136V41.688C96.2334 42.632 96.0974 43.52 95.8254 44.352C95.5534 45.168 95.1534 45.88 94.6254 46.488C94.1134 47.096 93.4814 47.576 92.7294 47.928C91.9934 48.264 91.1454 48.432 90.1854 48.432C89.1934 48.432 88.2974 48.232 87.4974 47.832C86.7134 47.416 86.0814 46.792 85.6014 45.96C85.1214 45.112 84.8574 44.04 84.8094 42.744L85.8654 44.184V52.8H82.0254ZM89.1054 45.216C89.7614 45.216 90.3294 45.056 90.8094 44.736C91.3054 44.416 91.6894 43.968 91.9614 43.392C92.2334 42.816 92.3694 42.152 92.3694 41.4C92.3694 40.648 92.2334 39.992 91.9614 39.432C91.6894 38.872 91.3134 38.44 90.8334 38.136C90.3534 37.816 89.7774 37.656 89.1054 37.656C88.5294 37.656 87.9854 37.792 87.4734 38.064C86.9614 38.336 86.5454 38.728 86.2254 39.24C85.9214 39.736 85.7694 40.344 85.7694 41.064V41.952C85.7694 42.64 85.9294 43.232 86.2494 43.728C86.5854 44.208 87.0094 44.576 87.5214 44.832C88.0334 45.088 88.5614 45.216 89.1054 45.216ZM103.34 48.408C101.82 48.408 100.652 47.92 99.8364 46.944C99.0204 45.952 98.6124 44.464 98.6124 42.48V34.848H102.452V42.672C102.452 43.376 102.652 43.936 103.052 44.352C103.452 44.768 103.988 44.976 104.66 44.976C105.348 44.976 105.908 44.76 106.34 44.328C106.772 43.896 106.988 43.312 106.988 42.576V34.848H110.828V48H107.78V42.456H108.044C108.044 43.784 107.868 44.896 107.516 45.792C107.18 46.672 106.676 47.328 106.004 47.76C105.332 48.192 104.5 48.408 103.508 48.408H103.34ZM120.345 48.168C119.017 48.168 117.945 48.008 117.129 47.688C116.313 47.352 115.713 46.8 115.329 46.032C114.961 45.248 114.777 44.192 114.777 42.864V31.296H118.353V43.008C118.353 43.632 118.513 44.112 118.833 44.448C119.169 44.768 119.641 44.928 120.249 44.928H122.193V48.168H120.345ZM112.785 37.656V34.848H122.193V37.656H112.785ZM132.673 48V44.112H132.025V39.888C132.025 39.216 131.865 38.712 131.545 38.376C131.225 38.04 130.713 37.872 130.009 37.872C129.657 37.872 129.193 37.88 128.617 37.896C128.041 37.912 127.449 37.936 126.841 37.968C126.233 38 125.681 38.032 125.185 38.064V34.824C125.553 34.792 125.985 34.76 126.481 34.728C126.977 34.696 127.489 34.672 128.017 34.656C128.545 34.64 129.041 34.632 129.505 34.632C130.849 34.632 131.977 34.824 132.889 35.208C133.817 35.592 134.521 36.176 135.001 36.96C135.481 37.728 135.721 38.72 135.721 39.936V48H132.673ZM128.473 48.336C127.529 48.336 126.697 48.168 125.977 47.832C125.273 47.496 124.721 47.016 124.321 46.392C123.921 45.752 123.721 44.992 123.721 44.112C123.721 43.152 123.969 42.368 124.465 41.76C124.961 41.136 125.657 40.68 126.553 40.392C127.449 40.088 128.481 39.936 129.649 39.936H132.457V42.072H129.625C128.953 42.072 128.433 42.24 128.065 42.576C127.713 42.896 127.537 43.336 127.537 43.896C127.537 44.424 127.713 44.856 128.065 45.192C128.433 45.512 128.953 45.672 129.625 45.672C130.057 45.672 130.441 45.6 130.777 45.456C131.129 45.296 131.417 45.032 131.641 44.664C131.865 44.296 131.993 43.784 132.025 43.128L132.937 44.088C132.857 45 132.633 45.768 132.265 46.392C131.913 47.016 131.417 47.496 130.777 47.832C130.153 48.168 129.385 48.336 128.473 48.336ZM144.955 48.168C143.627 48.168 142.555 48.008 141.739 47.688C140.923 47.352 140.323 46.8 139.939 46.032C139.571 45.248 139.387 44.192 139.387 42.864V31.296H142.963V43.008C142.963 43.632 143.123 44.112 143.443 44.448C143.779 44.768 144.251 44.928 144.859 44.928H146.803V48.168H144.955ZM137.395 37.656V34.848H146.803V37.656H137.395ZM150.009 48V34.848H153.849V48H150.009ZM148.257 37.68V34.848H153.849V37.68H148.257ZM151.497 33.552C150.777 33.552 150.241 33.368 149.889 33C149.553 32.616 149.385 32.136 149.385 31.56C149.385 30.968 149.553 30.488 149.889 30.12C150.241 29.736 150.777 29.544 151.497 29.544C152.217 29.544 152.745 29.736 153.081 30.12C153.433 30.488 153.609 30.968 153.609 31.56C153.609 32.136 153.433 32.616 153.081 33C152.745 33.368 152.217 33.552 151.497 33.552ZM163.808 48.456C162.656 48.456 161.632 48.28 160.736 47.928C159.84 47.56 159.08 47.064 158.456 46.44C157.848 45.816 157.384 45.104 157.064 44.304C156.744 43.488 156.584 42.632 156.584 41.736V41.184C156.584 40.272 156.744 39.408 157.064 38.592C157.4 37.76 157.88 37.032 158.504 36.408C159.144 35.784 159.912 35.296 160.808 34.944C161.704 34.576 162.704 34.392 163.808 34.392C164.944 34.392 165.952 34.576 166.832 34.944C167.728 35.296 168.488 35.784 169.112 36.408C169.736 37.032 170.216 37.76 170.552 38.592C170.888 39.408 171.056 40.272 171.056 41.184V41.736C171.056 42.632 170.896 43.488 170.576 44.304C170.256 45.104 169.784 45.816 169.16 46.44C168.552 47.064 167.8 47.56 166.904 47.928C166.008 48.28 164.976 48.456 163.808 48.456ZM163.808 45.216C164.56 45.216 165.184 45.056 165.68 44.736C166.176 44.416 166.552 43.968 166.808 43.392C167.08 42.816 167.216 42.176 167.216 41.472C167.216 40.72 167.08 40.064 166.808 39.504C166.536 38.928 166.144 38.472 165.632 38.136C165.136 37.8 164.528 37.632 163.808 37.632C163.104 37.632 162.496 37.8 161.984 38.136C161.472 38.472 161.08 38.928 160.808 39.504C160.552 40.064 160.424 40.72 160.424 41.472C160.424 42.176 160.552 42.816 160.808 43.392C161.064 43.968 161.448 44.416 161.96 44.736C162.472 45.056 163.088 45.216 163.808 45.216ZM173.736 48V34.848H176.784V40.488H176.568C176.568 39.144 176.736 38.024 177.072 37.128C177.424 36.232 177.952 35.56 178.656 35.112C179.36 34.664 180.216 34.44 181.224 34.44H181.392C182.928 34.44 184.096 34.944 184.896 35.952C185.712 36.944 186.12 38.456 186.12 40.488V48H182.28V40.272C182.28 39.568 182.072 38.992 181.656 38.544C181.24 38.096 180.68 37.872 179.976 37.872C179.256 37.872 178.672 38.104 178.224 38.568C177.792 39.016 177.576 39.608 177.576 40.344V48H173.736ZM197.337 48V44.112H196.689V39.888C196.689 39.216 196.529 38.712 196.209 38.376C195.889 38.04 195.377 37.872 194.673 37.872C194.321 37.872 193.857 37.88 193.281 37.896C192.705 37.912 192.113 37.936 191.505 37.968C190.897 38 190.345 38.032 189.849 38.064V34.824C190.217 34.792 190.649 34.76 191.145 34.728C191.641 34.696 192.153 34.672 192.681 34.656C193.209 34.64 193.705 34.632 194.169 34.632C195.513 34.632 196.641 34.824 197.553 35.208C198.481 35.592 199.185 36.176 199.665 36.96C200.145 37.728 200.385 38.72 200.385 39.936V48H197.337ZM193.137 48.336C192.193 48.336 191.361 48.168 190.641 47.832C189.937 47.496 189.385 47.016 188.985 46.392C188.585 45.752 188.385 44.992 188.385 44.112C188.385 43.152 188.633 42.368 189.129 41.76C189.625 41.136 190.321 40.68 191.217 40.392C192.113 40.088 193.145 39.936 194.313 39.936H197.121V42.072H194.289C193.617 42.072 193.097 42.24 192.729 42.576C192.377 42.896 192.201 43.336 192.201 43.896C192.201 44.424 192.377 44.856 192.729 45.192C193.097 45.512 193.617 45.672 194.289 45.672C194.721 45.672 195.105 45.6 195.441 45.456C195.793 45.296 196.081 45.032 196.305 44.664C196.529 44.296 196.657 43.784 196.689 43.128L197.601 44.088C197.521 45 197.297 45.768 196.929 46.392C196.577 47.016 196.081 47.496 195.441 47.832C194.817 48.168 194.049 48.336 193.137 48.336ZM203.811 48V30.48H207.675V48H203.811ZM202.251 33.312V30.48H207.675V33.312H202.251ZM216.252 48V34.848H219.3V40.488H219.228C219.228 38.632 219.62 37.2 220.404 36.192C221.204 35.184 222.356 34.68 223.86 34.68H224.364V37.992H223.404C222.348 37.992 221.532 38.28 220.956 38.856C220.38 39.416 220.092 40.232 220.092 41.304V48H216.252ZM226.978 48V34.848H230.818V48H226.978ZM225.226 37.68V34.848H230.818V37.68H225.226ZM228.466 33.552C227.746 33.552 227.21 33.368 226.858 33C226.522 32.616 226.354 32.136 226.354 31.56C226.354 30.968 226.522 30.488 226.858 30.12C227.21 29.736 227.746 29.544 228.466 29.544C229.186 29.544 229.714 29.736 230.05 30.12C230.402 30.488 230.578 30.968 230.578 31.56C230.578 32.136 230.402 32.616 230.05 33C229.714 33.368 229.186 33.552 228.466 33.552ZM239.361 48.408C237.489 48.408 236.025 48.024 234.969 47.256C233.913 46.488 233.353 45.408 233.289 44.016H236.697C236.761 44.432 237.009 44.808 237.441 45.144C237.889 45.464 238.553 45.624 239.433 45.624C240.105 45.624 240.657 45.512 241.089 45.288C241.537 45.048 241.761 44.712 241.761 44.28C241.761 43.896 241.593 43.592 241.257 43.368C240.921 43.128 240.321 42.96 239.457 42.864L238.425 42.768C236.841 42.608 235.649 42.168 234.849 41.448C234.065 40.728 233.673 39.808 233.673 38.688C233.673 37.76 233.905 36.984 234.369 36.36C234.833 35.736 235.473 35.264 236.289 34.944C237.121 34.624 238.065 34.464 239.121 34.464C240.817 34.464 242.185 34.84 243.225 35.592C244.265 36.328 244.809 37.4 244.857 38.808H241.449C241.385 38.376 241.161 38.016 240.777 37.728C240.393 37.424 239.825 37.272 239.073 37.272C238.481 37.272 238.009 37.384 237.657 37.608C237.305 37.832 237.129 38.136 237.129 38.52C237.129 38.888 237.281 39.168 237.585 39.36C237.889 39.552 238.385 39.688 239.073 39.768L240.105 39.864C241.721 40.04 242.977 40.488 243.873 41.208C244.769 41.928 245.217 42.896 245.217 44.112C245.217 44.992 244.977 45.76 244.497 46.416C244.017 47.056 243.337 47.552 242.457 47.904C241.577 48.24 240.545 48.408 239.361 48.408ZM256.969 48L252.817 41.856H250.969L256.321 34.848H260.353L255.313 41.376L255.361 39.504L261.289 48H256.969ZM247.705 48V30.48H251.545V48H247.705Z" fill="#3E4852"/>
<rect x="270" y="24" width="49" height="32" rx="8" fill="#EA3829"/>
<path d="M280.288 45L284.384 35.704L284.208 35.464H278.528V33.32H287.376V34.984L283.072 45H280.288ZM278.528 37.352V33.32H280.656V37.352H278.528ZM293.831 45.304C292.903 45.304 292.108 45.1547 291.447 44.856C290.785 44.5467 290.247 44.1307 289.831 43.608C289.425 43.0853 289.121 42.4827 288.919 41.8C288.727 41.1067 288.631 40.376 288.631 39.608V38.696C288.631 37.6293 288.817 36.664 289.191 35.8C289.564 34.936 290.135 34.248 290.903 33.736C291.671 33.224 292.647 32.968 293.831 32.968C295.015 32.968 295.985 33.224 296.743 33.736C297.511 34.248 298.081 34.936 298.455 35.8C298.828 36.664 299.015 37.6293 299.015 38.696V39.608C299.015 40.376 298.913 41.1067 298.711 41.8C298.519 42.4827 298.215 43.0853 297.799 43.608C297.393 44.1307 296.86 44.5467 296.199 44.856C295.548 45.1547 294.759 45.304 293.831 45.304ZM293.831 42.888C294.695 42.888 295.335 42.5893 295.751 41.992C296.177 41.384 296.391 40.4453 296.391 39.176C296.391 37.832 296.172 36.8667 295.735 36.28C295.308 35.6827 294.673 35.384 293.831 35.384C292.967 35.384 292.321 35.6827 291.895 36.28C291.468 36.8667 291.255 37.8213 291.255 39.144C291.255 40.424 291.463 41.368 291.879 41.976C292.305 42.584 292.956 42.888 293.831 42.888ZM302.886 45L306.078 36.24H307.686L304.506 45H302.886ZM302.286 41.052C301.814 41.052 301.418 40.948 301.098 40.74C300.786 40.524 300.55 40.24 300.39 39.888C300.238 39.528 300.162 39.132 300.162 38.7V38.388C300.162 37.932 300.242 37.528 300.402 37.176C300.562 36.824 300.802 36.548 301.122 36.348C301.442 36.148 301.83 36.048 302.286 36.048C302.75 36.048 303.138 36.148 303.45 36.348C303.77 36.548 304.01 36.824 304.17 37.176C304.33 37.528 304.41 37.932 304.41 38.388V38.7C304.41 39.132 304.33 39.528 304.17 39.888C304.018 40.24 303.786 40.524 303.474 40.74C303.162 40.948 302.766 41.052 302.286 41.052ZM302.286 39.768C302.534 39.768 302.714 39.68 302.826 39.504C302.946 39.32 303.006 39.004 303.006 38.556C303.006 38.084 302.946 37.76 302.826 37.584C302.706 37.408 302.526 37.32 302.286 37.32C302.046 37.32 301.866 37.408 301.746 37.584C301.626 37.76 301.566 38.08 301.566 38.544C301.566 38.992 301.626 39.308 301.746 39.492C301.866 39.676 302.046 39.768 302.286 39.768ZM308.25 45.204C307.77 45.204 307.374 45.1 307.062 44.892C306.75 44.684 306.514 44.404 306.354 44.052C306.202 43.692 306.126 43.296 306.126 42.864V42.552C306.126 42.088 306.206 41.68 306.366 41.328C306.526 40.976 306.762 40.7 307.074 40.5C307.394 40.3 307.786 40.2 308.25 40.2C308.714 40.2 309.102 40.3 309.414 40.5C309.726 40.7 309.962 40.976 310.122 41.328C310.282 41.68 310.362 42.088 310.362 42.552V42.864C310.362 43.296 310.282 43.692 310.122 44.052C309.97 44.404 309.738 44.684 309.426 44.892C309.122 45.1 308.73 45.204 308.25 45.204ZM308.25 43.932C308.498 43.932 308.678 43.844 308.79 43.668C308.91 43.484 308.97 43.168 308.97 42.72C308.97 42.24 308.91 41.916 308.79 41.748C308.67 41.572 308.49 41.484 308.25 41.484C308.01 41.484 307.826 41.572 307.698 41.748C307.578 41.916 307.518 42.236 307.518 42.708C307.518 43.156 307.578 43.472 307.698 43.656C307.818 43.84 308.002 43.932 308.25 43.932Z" fill="white"/>
<path d="M282.24 290.968V285.816C282.24 284.813 282.421 283.917 282.784 283.128C283.147 282.339 283.712 281.645 284.48 281.048C285.269 280.429 286.304 279.875 287.584 279.384L291.328 277.944C292.245 277.581 292.885 277.133 293.248 276.6C293.632 276.045 293.824 275.363 293.824 274.552C293.824 273.805 293.557 273.176 293.024 272.664C292.491 272.131 291.733 271.864 290.752 271.864C289.771 271.864 289.013 272.141 288.48 272.696C287.947 273.229 287.68 273.955 287.68 274.872H281.92C281.92 273.336 282.251 271.971 282.912 270.776C283.595 269.581 284.587 268.643 285.888 267.96C287.211 267.277 288.832 266.936 290.752 266.936C292.651 266.936 294.251 267.267 295.552 267.928C296.875 268.589 297.877 269.485 298.56 270.616C299.243 271.725 299.584 272.973 299.584 274.36V274.744C299.584 276.6 299.04 278.157 297.952 279.416C296.885 280.653 295.285 281.677 293.152 282.488L289.408 283.928C288.875 284.141 288.501 284.376 288.288 284.632C288.096 284.867 288 285.176 288 285.56V286.776L286.688 285.848H299.52V290.968H282.24ZM312.633 291.64C310.756 291.64 309.113 291.288 307.705 290.584C306.318 289.859 305.241 288.888 304.473 287.672C303.705 286.456 303.321 285.091 303.321 283.576H309.081C309.081 284.216 309.23 284.771 309.529 285.24C309.849 285.709 310.286 286.072 310.841 286.328C311.396 286.584 312.014 286.712 312.697 286.712C313.465 286.712 314.116 286.552 314.649 286.232C315.204 285.912 315.62 285.475 315.897 284.92C316.174 284.365 316.313 283.736 316.313 283.032C316.313 282.328 316.174 281.699 315.897 281.144C315.62 280.589 315.214 280.152 314.681 279.832C314.148 279.512 313.508 279.352 312.761 279.352C311.972 279.352 311.278 279.523 310.681 279.864C310.105 280.184 309.7 280.589 309.465 281.08H303.833L305.017 267.64H320.121V272.76H307.385L309.625 271.32L308.985 278.392L307.833 278.072C308.26 277.517 308.729 277.027 309.241 276.6C309.774 276.152 310.404 275.8 311.129 275.544C311.876 275.267 312.793 275.128 313.881 275.128C315.545 275.128 316.985 275.469 318.201 276.152C319.438 276.813 320.388 277.731 321.049 278.904C321.732 280.056 322.073 281.379 322.073 282.872V283.256C322.073 284.749 321.7 286.136 320.953 287.416C320.228 288.675 319.161 289.699 317.753 290.488C316.345 291.256 314.638 291.64 312.633 291.64ZM334.482 291.704C332.797 291.704 331.335 291.416 330.098 290.84C328.882 290.264 327.869 289.475 327.058 288.472C326.269 287.448 325.682 286.264 325.298 284.92C324.914 283.555 324.722 282.093 324.722 280.536V279.224C324.722 275.277 325.714 272.333 327.698 270.392C329.682 268.429 332.605 267.448 336.466 267.448C337.213 267.448 337.981 267.469 338.77 267.512C339.581 267.555 340.327 267.619 341.01 267.704V272.696C340.349 272.632 339.591 272.579 338.738 272.536C337.906 272.472 337.085 272.44 336.274 272.44C334.674 272.44 333.437 272.707 332.562 273.24C331.687 273.773 331.079 274.563 330.738 275.608C330.397 276.653 330.226 277.955 330.226 279.512V282.328H329.074C329.095 280.771 329.405 279.469 330.002 278.424C330.621 277.379 331.463 276.589 332.53 276.056C333.597 275.523 334.802 275.256 336.146 275.256C337.703 275.256 339.058 275.576 340.21 276.216C341.362 276.856 342.258 277.763 342.898 278.936C343.538 280.109 343.858 281.507 343.858 283.128C343.858 284.877 343.453 286.392 342.642 287.672C341.853 288.952 340.754 289.944 339.346 290.648C337.938 291.352 336.317 291.704 334.482 291.704ZM334.29 286.776C335.079 286.776 335.751 286.627 336.306 286.328C336.882 286.029 337.319 285.613 337.618 285.08C337.938 284.547 338.098 283.928 338.098 283.224C338.098 282.499 337.938 281.88 337.618 281.368C337.319 280.835 336.893 280.419 336.338 280.12C335.783 279.821 335.122 279.672 334.354 279.672C333.693 279.672 333.063 279.8 332.466 280.056C331.869 280.312 331.389 280.707 331.026 281.24C330.663 281.752 330.482 282.413 330.482 283.224C330.482 283.907 330.621 284.525 330.898 285.08C331.197 285.613 331.634 286.029 332.21 286.328C332.786 286.627 333.479 286.776 334.29 286.776Z" fill="#3E4852"/>
<path d="M280.182 257L283.556 246.78H287.266L290.766 257H288.386L285.558 248.362L286.286 248.656H284.48L285.236 248.362L282.478 257H280.182ZM282.744 254.466L283.444 252.562H287.448L288.162 254.466H282.744ZM294.858 257.238C293.766 257.238 292.912 257.014 292.296 256.566C291.68 256.118 291.353 255.488 291.316 254.676H293.304C293.341 254.919 293.486 255.138 293.738 255.334C293.999 255.521 294.386 255.614 294.9 255.614C295.292 255.614 295.614 255.549 295.866 255.418C296.127 255.278 296.258 255.082 296.258 254.83C296.258 254.606 296.16 254.429 295.964 254.298C295.768 254.158 295.418 254.06 294.914 254.004L294.312 253.948C293.388 253.855 292.692 253.598 292.226 253.178C291.768 252.758 291.54 252.221 291.54 251.568C291.54 251.027 291.675 250.574 291.946 250.21C292.216 249.846 292.59 249.571 293.066 249.384C293.551 249.197 294.102 249.104 294.718 249.104C295.707 249.104 296.505 249.323 297.112 249.762C297.718 250.191 298.036 250.817 298.064 251.638H296.076C296.038 251.386 295.908 251.176 295.684 251.008C295.46 250.831 295.128 250.742 294.69 250.742C294.344 250.742 294.069 250.807 293.864 250.938C293.658 251.069 293.556 251.246 293.556 251.47C293.556 251.685 293.644 251.848 293.822 251.96C293.999 252.072 294.288 252.151 294.69 252.198L295.292 252.254C296.234 252.357 296.967 252.618 297.49 253.038C298.012 253.458 298.274 254.023 298.274 254.732C298.274 255.245 298.134 255.693 297.854 256.076C297.574 256.449 297.177 256.739 296.664 256.944C296.15 257.14 295.548 257.238 294.858 257.238ZM302.637 257.238C301.545 257.238 300.691 257.014 300.075 256.566C299.459 256.118 299.132 255.488 299.095 254.676H301.083C301.12 254.919 301.265 255.138 301.517 255.334C301.778 255.521 302.166 255.614 302.679 255.614C303.071 255.614 303.393 255.549 303.645 255.418C303.906 255.278 304.037 255.082 304.037 254.83C304.037 254.606 303.939 254.429 303.743 254.298C303.547 254.158 303.197 254.06 302.693 254.004L302.091 253.948C301.167 253.855 300.472 253.598 300.005 253.178C299.548 252.758 299.319 252.221 299.319 251.568C299.319 251.027 299.454 250.574 299.725 250.21C299.996 249.846 300.369 249.571 300.845 249.384C301.33 249.197 301.881 249.104 302.497 249.104C303.486 249.104 304.284 249.323 304.891 249.762C305.498 250.191 305.815 250.817 305.843 251.638H303.855C303.818 251.386 303.687 251.176 303.463 251.008C303.239 250.831 302.908 250.742 302.469 250.742C302.124 250.742 301.848 250.807 301.643 250.938C301.438 251.069 301.335 251.246 301.335 251.47C301.335 251.685 301.424 251.848 301.601 251.96C301.778 252.072 302.068 252.151 302.469 252.198L303.071 252.254C304.014 252.357 304.746 252.618 305.269 253.038C305.792 253.458 306.053 254.023 306.053 254.732C306.053 255.245 305.913 255.693 305.633 256.076C305.353 256.449 304.956 256.739 304.443 256.944C303.93 257.14 303.328 257.238 302.637 257.238ZM311.018 257.266C310.365 257.266 309.786 257.154 309.282 256.93C308.788 256.706 308.372 256.407 308.036 256.034C307.71 255.651 307.458 255.227 307.28 254.76C307.112 254.284 307.028 253.799 307.028 253.304V253.024C307.028 252.511 307.112 252.021 307.28 251.554C307.458 251.078 307.71 250.653 308.036 250.28C308.363 249.907 308.769 249.613 309.254 249.398C309.749 249.174 310.309 249.062 310.934 249.062C311.756 249.062 312.446 249.249 313.006 249.622C313.576 249.986 314.01 250.467 314.308 251.064C314.607 251.652 314.756 252.296 314.756 252.996V253.752H307.966V252.478H313.398L312.67 253.066C312.67 252.609 312.605 252.217 312.474 251.89C312.344 251.563 312.148 251.316 311.886 251.148C311.634 250.971 311.317 250.882 310.934 250.882C310.542 250.882 310.211 250.971 309.94 251.148C309.67 251.325 309.464 251.587 309.324 251.932C309.184 252.268 309.114 252.683 309.114 253.178C309.114 253.635 309.18 254.037 309.31 254.382C309.441 254.718 309.646 254.979 309.926 255.166C310.206 255.353 310.57 255.446 311.018 255.446C311.429 255.446 311.765 255.367 312.026 255.208C312.288 255.049 312.465 254.853 312.558 254.62H314.616C314.504 255.133 314.285 255.591 313.958 255.992C313.632 256.393 313.221 256.706 312.726 256.93C312.232 257.154 311.662 257.266 311.018 257.266ZM319.727 257.098C318.952 257.098 318.327 257.005 317.851 256.818C317.375 256.622 317.025 256.3 316.801 255.852C316.586 255.395 316.479 254.779 316.479 254.004V247.256H318.565V254.088C318.565 254.452 318.658 254.732 318.845 254.928C319.041 255.115 319.316 255.208 319.671 255.208H320.805V257.098H319.727ZM315.317 250.966V249.328H320.805V250.966H315.317ZM325.168 257.238C324.076 257.238 323.222 257.014 322.606 256.566C321.99 256.118 321.664 255.488 321.626 254.676H323.614C323.652 254.919 323.796 255.138 324.048 255.334C324.31 255.521 324.697 255.614 325.21 255.614C325.602 255.614 325.924 255.549 326.176 255.418C326.438 255.278 326.568 255.082 326.568 254.83C326.568 254.606 326.47 254.429 326.274 254.298C326.078 254.158 325.728 254.06 325.224 254.004L324.622 253.948C323.698 253.855 323.003 253.598 322.536 253.178C322.079 252.758 321.85 252.221 321.85 251.568C321.85 251.027 321.986 250.574 322.256 250.21C322.527 249.846 322.9 249.571 323.376 249.384C323.862 249.197 324.412 249.104 325.028 249.104C326.018 249.104 326.816 249.323 327.422 249.762C328.029 250.191 328.346 250.817 328.374 251.638H326.386C326.349 251.386 326.218 251.176 325.994 251.008C325.77 250.831 325.439 250.742 325 250.742C324.655 250.742 324.38 250.807 324.174 250.938C323.969 251.069 323.866 251.246 323.866 251.47C323.866 251.685 323.955 251.848 324.132 251.96C324.31 252.072 324.599 252.151 325 252.198L325.602 252.254C326.545 252.357 327.278 252.618 327.8 253.038C328.323 253.458 328.584 254.023 328.584 254.732C328.584 255.245 328.444 255.693 328.164 256.076C327.884 256.449 327.488 256.739 326.974 256.944C326.461 257.14 325.859 257.238 325.168 257.238ZM337.609 257V254.732H337.231V252.268C337.231 251.876 337.138 251.582 336.951 251.386C336.764 251.19 336.466 251.092 336.055 251.092C335.85 251.092 335.579 251.097 335.243 251.106C334.907 251.115 334.562 251.129 334.207 251.148C333.852 251.167 333.53 251.185 333.241 251.204V249.314C333.456 249.295 333.708 249.277 333.997 249.258C334.286 249.239 334.585 249.225 334.893 249.216C335.201 249.207 335.49 249.202 335.761 249.202C336.545 249.202 337.203 249.314 337.735 249.538C338.276 249.762 338.687 250.103 338.967 250.56C339.247 251.008 339.387 251.587 339.387 252.296V257H337.609ZM335.159 257.196C334.608 257.196 334.123 257.098 333.703 256.902C333.292 256.706 332.97 256.426 332.737 256.062C332.504 255.689 332.387 255.245 332.387 254.732C332.387 254.172 332.532 253.715 332.821 253.36C333.11 252.996 333.516 252.73 334.039 252.562C334.562 252.385 335.164 252.296 335.845 252.296H337.483V253.542H335.831C335.439 253.542 335.136 253.64 334.921 253.836C334.716 254.023 334.613 254.279 334.613 254.606C334.613 254.914 334.716 255.166 334.921 255.362C335.136 255.549 335.439 255.642 335.831 255.642C336.083 255.642 336.307 255.6 336.503 255.516C336.708 255.423 336.876 255.269 337.007 255.054C337.138 254.839 337.212 254.541 337.231 254.158L337.763 254.718C337.716 255.25 337.586 255.698 337.371 256.062C337.166 256.426 336.876 256.706 336.503 256.902C336.139 257.098 335.691 257.196 335.159 257.196ZM344.774 257.098C343.999 257.098 343.374 257.005 342.898 256.818C342.422 256.622 342.072 256.3 341.848 255.852C341.633 255.395 341.526 254.779 341.526 254.004V247.256H343.612V254.088C343.612 254.452 343.705 254.732 343.892 254.928C344.088 255.115 344.363 255.208 344.718 255.208H345.852V257.098H344.774ZM340.364 250.966V249.328H345.852V250.966H340.364ZM350.297 257V249.328H352.075V252.618H352.033C352.033 251.535 352.262 250.7 352.719 250.112C353.186 249.524 353.858 249.23 354.735 249.23H355.029V251.162H354.469C353.853 251.162 353.377 251.33 353.041 251.666C352.705 251.993 352.537 252.469 352.537 253.094V257H350.297ZM356.554 257V249.328H358.794V257H356.554ZM355.532 250.98V249.328H358.794V250.98H355.532ZM357.422 248.572C357.002 248.572 356.689 248.465 356.484 248.25C356.288 248.026 356.19 247.746 356.19 247.41C356.19 247.065 356.288 246.785 356.484 246.57C356.689 246.346 357.002 246.234 357.422 246.234C357.842 246.234 358.15 246.346 358.346 246.57C358.551 246.785 358.654 247.065 358.654 247.41C358.654 247.746 358.551 248.026 358.346 248.25C358.15 248.465 357.842 248.572 357.422 248.572ZM363.778 257.238C362.686 257.238 361.832 257.014 361.216 256.566C360.6 256.118 360.273 255.488 360.236 254.676H362.224C362.261 254.919 362.406 255.138 362.658 255.334C362.919 255.521 363.306 255.614 363.82 255.614C364.212 255.614 364.534 255.549 364.786 255.418C365.047 255.278 365.178 255.082 365.178 254.83C365.178 254.606 365.08 254.429 364.884 254.298C364.688 254.158 364.338 254.06 363.834 254.004L363.232 253.948C362.308 253.855 361.612 253.598 361.146 253.178C360.688 252.758 360.46 252.221 360.46 251.568C360.46 251.027 360.595 250.574 360.866 250.21C361.136 249.846 361.51 249.571 361.986 249.384C362.471 249.197 363.022 249.104 363.638 249.104C364.627 249.104 365.425 249.323 366.032 249.762C366.638 250.191 366.956 250.817 366.984 251.638H364.996C364.958 251.386 364.828 251.176 364.604 251.008C364.38 250.831 364.048 250.742 363.61 250.742C363.264 250.742 362.989 250.807 362.784 250.938C362.578 251.069 362.476 251.246 362.476 251.47C362.476 251.685 362.564 251.848 362.742 251.96C362.919 252.072 363.208 252.151 363.61 252.198L364.212 252.254C365.154 252.357 365.887 252.618 366.41 253.038C366.932 253.458 367.194 254.023 367.194 254.732C367.194 255.245 367.054 255.693 366.774 256.076C366.494 256.449 366.097 256.739 365.584 256.944C365.07 257.14 364.468 257.238 363.778 257.238ZM374.049 257L371.627 253.416H370.549L373.671 249.328H376.023L373.083 253.136L373.111 252.044L376.569 257H374.049ZM368.645 257V246.78H370.885V257H368.645Z" fill="#3E4852"/>
<circle cx="152" cy="192" r="104" fill="#F68511"/>
<path d="M152 192L48 192C48 249.438 94.5624 296 152 296L152 192Z" fill="#F9B208"/>
<path d="M152 192L152 88C94.5624 88 48 134.562 48 192L152 192Z" fill="#0FB5AE"/>
<path d="M152 192L256 192C256 134.562 209.438 88 152 88L152 192Z" fill="#EA3829"/>
<path d="M208 192C208 222.928 182.928 248 152 248V136C182.928 136 208 161.072 208 192Z" fill="black" fill-opacity="0.2"/>
<path d="M152 192H96C96 161.072 121.072 136 152 136V192Z" fill="black" fill-opacity="0.2"/>
<path d="M152 192L96 192C96 222.928 121.072 248 152 248L152 192Z" fill="black" fill-opacity="0.2"/>
<circle cx="152" cy="192" r="48" fill="white"/>
<path d="M357.838 109.266C356.914 109.266 356.121 109.107 355.458 108.79C354.795 108.463 354.254 108.039 353.834 107.516C353.414 106.984 353.101 106.415 352.896 105.808C352.7 105.192 352.602 104.595 352.602 104.016V103.708C352.602 103.073 352.705 102.448 352.91 101.832C353.115 101.207 353.428 100.642 353.848 100.138C354.277 99.634 354.814 99.2327 355.458 98.934C356.111 98.626 356.881 98.472 357.768 98.472C358.692 98.472 359.509 98.6447 360.218 98.99C360.927 99.3353 361.492 99.816 361.912 100.432C362.341 101.039 362.593 101.753 362.668 102.574H360.358C360.293 102.163 360.143 101.813 359.91 101.524C359.677 101.235 359.373 101.011 359 100.852C358.636 100.693 358.225 100.614 357.768 100.614C357.311 100.614 356.905 100.693 356.55 100.852C356.195 101.011 355.897 101.235 355.654 101.524C355.421 101.813 355.239 102.159 355.108 102.56C354.987 102.952 354.926 103.391 354.926 103.876C354.926 104.352 354.987 104.791 355.108 105.192C355.239 105.584 355.425 105.929 355.668 106.228C355.92 106.517 356.228 106.741 356.592 106.9C356.956 107.049 357.371 107.124 357.838 107.124C358.547 107.124 359.145 106.951 359.63 106.606C360.125 106.261 360.423 105.785 360.526 105.178H362.822C362.738 105.925 362.486 106.611 362.066 107.236C361.655 107.852 361.091 108.347 360.372 108.72C359.663 109.084 358.818 109.266 357.838 109.266ZM364.219 109V101.328H365.997V104.618H365.955C365.955 103.535 366.184 102.7 366.641 102.112C367.108 101.524 367.78 101.23 368.657 101.23H368.951V103.162H368.391C367.775 103.162 367.299 103.33 366.963 103.666C366.627 103.993 366.459 104.469 366.459 105.094V109H364.219ZM370.476 109V101.328H372.716V109H370.476ZM369.454 102.98V101.328H372.716V102.98H369.454ZM371.344 100.572C370.924 100.572 370.611 100.465 370.406 100.25C370.21 100.026 370.112 99.746 370.112 99.41C370.112 99.0647 370.21 98.7847 370.406 98.57C370.611 98.346 370.924 98.234 371.344 98.234C371.764 98.234 372.072 98.346 372.268 98.57C372.473 98.7847 372.576 99.0647 372.576 99.41C372.576 99.746 372.473 100.026 372.268 100.25C372.072 100.465 371.764 100.572 371.344 100.572ZM378.274 109.098C377.499 109.098 376.874 109.005 376.398 108.818C375.922 108.622 375.572 108.3 375.348 107.852C375.133 107.395 375.026 106.779 375.026 106.004V99.256H377.112V106.088C377.112 106.452 377.205 106.732 377.392 106.928C377.588 107.115 377.863 107.208 378.218 107.208H379.352V109.098H378.274ZM373.864 102.966V101.328H379.352V102.966H373.864ZM381.222 109V101.328H383.462V109H381.222ZM380.2 102.98V101.328H383.462V102.98H380.2ZM382.09 100.572C381.67 100.572 381.357 100.465 381.152 100.25C380.956 100.026 380.858 99.746 380.858 99.41C380.858 99.0647 380.956 98.7847 381.152 98.57C381.357 98.346 381.67 98.234 382.09 98.234C382.51 98.234 382.818 98.346 383.014 98.57C383.219 98.7847 383.322 99.0647 383.322 99.41C383.322 99.746 383.219 100.026 383.014 100.25C382.818 100.465 382.51 100.572 382.09 100.572ZM388.978 109.266C388.315 109.266 387.736 109.159 387.242 108.944C386.756 108.72 386.35 108.421 386.024 108.048C385.697 107.675 385.454 107.255 385.296 106.788C385.137 106.312 385.058 105.822 385.058 105.318V105.052C385.058 104.529 385.142 104.03 385.31 103.554C385.478 103.069 385.725 102.639 386.052 102.266C386.378 101.893 386.784 101.599 387.27 101.384C387.764 101.169 388.329 101.062 388.964 101.062C389.654 101.062 390.266 101.197 390.798 101.468C391.33 101.729 391.754 102.098 392.072 102.574C392.389 103.05 392.566 103.596 392.604 104.212H390.406C390.368 103.867 390.228 103.577 389.986 103.344C389.752 103.101 389.412 102.98 388.964 102.98C388.59 102.98 388.278 103.073 388.026 103.26C387.783 103.447 387.601 103.703 387.48 104.03C387.358 104.357 387.298 104.744 387.298 105.192C387.298 105.603 387.354 105.976 387.466 106.312C387.578 106.639 387.755 106.895 387.998 107.082C388.25 107.259 388.576 107.348 388.978 107.348C389.276 107.348 389.528 107.297 389.734 107.194C389.948 107.082 390.116 106.933 390.238 106.746C390.368 106.55 390.448 106.326 390.476 106.074H392.66C392.632 106.709 392.454 107.269 392.128 107.754C391.801 108.23 391.367 108.603 390.826 108.874C390.284 109.135 389.668 109.266 388.978 109.266ZM398.726 109V106.732H398.348V104.268C398.348 103.876 398.255 103.582 398.068 103.386C397.882 103.19 397.583 103.092 397.172 103.092C396.967 103.092 396.696 103.097 396.36 103.106C396.024 103.115 395.679 103.129 395.324 103.148C394.97 103.167 394.648 103.185 394.358 103.204V101.314C394.573 101.295 394.825 101.277 395.114 101.258C395.404 101.239 395.702 101.225 396.01 101.216C396.318 101.207 396.608 101.202 396.878 101.202C397.662 101.202 398.32 101.314 398.852 101.538C399.394 101.762 399.804 102.103 400.084 102.56C400.364 103.008 400.504 103.587 400.504 104.296V109H398.726ZM396.276 109.196C395.726 109.196 395.24 109.098 394.82 108.902C394.41 108.706 394.088 108.426 393.854 108.062C393.621 107.689 393.504 107.245 393.504 106.732C393.504 106.172 393.649 105.715 393.938 105.36C394.228 104.996 394.634 104.73 395.156 104.562C395.679 104.385 396.281 104.296 396.962 104.296H398.6V105.542H396.948C396.556 105.542 396.253 105.64 396.038 105.836C395.833 106.023 395.73 106.279 395.73 106.606C395.73 106.914 395.833 107.166 396.038 107.362C396.253 107.549 396.556 107.642 396.948 107.642C397.2 107.642 397.424 107.6 397.62 107.516C397.826 107.423 397.994 107.269 398.124 107.054C398.255 106.839 398.33 106.541 398.348 106.158L398.88 106.718C398.834 107.25 398.703 107.698 398.488 108.062C398.283 108.426 397.994 108.706 397.62 108.902C397.256 109.098 396.808 109.196 396.276 109.196ZM402.503 109V98.78H404.757V109H402.503ZM401.593 100.432V98.78H404.757V100.432H401.593Z" fill="#3E4852"/>
<path d="M359.756 145V134.78H362.052V145H359.756ZM353.148 145V134.78H355.444V145H353.148ZM355.038 140.87V138.854H360.162V140.87H355.038ZM364.583 145V137.328H366.823V145H364.583ZM363.561 138.98V137.328H366.823V138.98H363.561ZM365.451 136.572C365.031 136.572 364.719 136.465 364.513 136.25C364.317 136.026 364.219 135.746 364.219 135.41C364.219 135.065 364.317 134.785 364.513 134.57C364.719 134.346 365.031 134.234 365.451 134.234C365.871 134.234 366.179 134.346 366.375 134.57C366.581 134.785 366.683 135.065 366.683 135.41C366.683 135.746 366.581 136.026 366.375 136.25C366.179 136.465 365.871 136.572 365.451 136.572ZM371.919 148.052C371.546 148.052 371.163 148.038 370.771 148.01C370.379 147.982 370.02 147.945 369.693 147.898V146.008C370.02 146.055 370.379 146.092 370.771 146.12C371.172 146.157 371.536 146.176 371.863 146.176C372.47 146.176 372.96 146.106 373.333 145.966C373.716 145.826 373.996 145.611 374.173 145.322C374.35 145.042 374.439 144.678 374.439 144.23V142.704L374.845 141.808C374.826 142.489 374.691 143.073 374.439 143.558C374.196 144.043 373.856 144.417 373.417 144.678C372.978 144.93 372.456 145.056 371.849 145.056C371.326 145.056 370.85 144.963 370.421 144.776C370.001 144.58 369.642 144.309 369.343 143.964C369.044 143.619 368.816 143.217 368.657 142.76C368.498 142.293 368.419 141.789 368.419 141.248V140.926C368.419 140.385 368.503 139.881 368.671 139.414C368.839 138.947 369.082 138.541 369.399 138.196C369.716 137.851 370.094 137.585 370.533 137.398C370.972 137.202 371.457 137.104 371.989 137.104C372.605 137.104 373.137 137.239 373.585 137.51C374.042 137.781 374.402 138.177 374.663 138.7C374.924 139.223 375.064 139.853 375.083 140.59L374.775 140.674V137.328H376.553V144.09C376.553 145.033 376.385 145.793 376.049 146.372C375.713 146.951 375.2 147.375 374.509 147.646C373.828 147.917 372.964 148.052 371.919 148.052ZM372.549 143.166C372.894 143.166 373.207 143.091 373.487 142.942C373.767 142.783 373.986 142.559 374.145 142.27C374.313 141.981 374.397 141.631 374.397 141.22V140.814C374.397 140.413 374.308 140.077 374.131 139.806C373.963 139.526 373.739 139.316 373.459 139.176C373.179 139.027 372.88 138.952 372.563 138.952C372.19 138.952 371.858 139.041 371.569 139.218C371.28 139.395 371.056 139.643 370.897 139.96C370.738 140.277 370.659 140.651 370.659 141.08C370.659 141.519 370.738 141.897 370.897 142.214C371.065 142.522 371.289 142.76 371.569 142.928C371.858 143.087 372.185 143.166 372.549 143.166ZM378.493 145V134.78H380.733V140.674H380.397C380.397 139.899 380.495 139.246 380.691 138.714C380.887 138.182 381.176 137.781 381.559 137.51C381.941 137.23 382.422 137.09 383.001 137.09H383.099C383.948 137.09 384.597 137.393 385.045 138C385.493 138.597 385.717 139.475 385.717 140.632V145H383.477V140.492C383.477 140.072 383.351 139.736 383.099 139.484C382.856 139.223 382.534 139.092 382.133 139.092C381.713 139.092 381.372 139.227 381.111 139.498C380.859 139.769 380.733 140.128 380.733 140.576V145H378.493Z" fill="#3E4852"/>
<path d="M353.148 181V170.78H356.312L358.65 176.52H358.916L361.226 170.78H364.446V181H362.178V172.278L362.5 172.306L359.798 178.928H357.614L354.898 172.306L355.248 172.278V181H353.148ZM370.126 181.266C369.473 181.266 368.894 181.154 368.39 180.93C367.895 180.706 367.48 180.407 367.144 180.034C366.817 179.651 366.565 179.227 366.388 178.76C366.22 178.284 366.136 177.799 366.136 177.304V177.024C366.136 176.511 366.22 176.021 366.388 175.554C366.565 175.078 366.817 174.653 367.144 174.28C367.471 173.907 367.877 173.613 368.362 173.398C368.857 173.174 369.417 173.062 370.042 173.062C370.863 173.062 371.554 173.249 372.114 173.622C372.683 173.986 373.117 174.467 373.416 175.064C373.715 175.652 373.864 176.296 373.864 176.996V177.752H367.074V176.478H372.506L371.778 177.066C371.778 176.609 371.713 176.217 371.582 175.89C371.451 175.563 371.255 175.316 370.994 175.148C370.742 174.971 370.425 174.882 370.042 174.882C369.65 174.882 369.319 174.971 369.048 175.148C368.777 175.325 368.572 175.587 368.432 175.932C368.292 176.268 368.222 176.683 368.222 177.178C368.222 177.635 368.287 178.037 368.418 178.382C368.549 178.718 368.754 178.979 369.034 179.166C369.314 179.353 369.678 179.446 370.126 179.446C370.537 179.446 370.873 179.367 371.134 179.208C371.395 179.049 371.573 178.853 371.666 178.62H373.724C373.612 179.133 373.393 179.591 373.066 179.992C372.739 180.393 372.329 180.706 371.834 180.93C371.339 181.154 370.77 181.266 370.126 181.266ZM378.512 181.252C377.971 181.252 377.476 181.154 377.028 180.958C376.59 180.762 376.207 180.491 375.88 180.146C375.554 179.791 375.302 179.376 375.124 178.9C374.956 178.424 374.872 177.911 374.872 177.36V177.038C374.872 176.487 374.952 175.974 375.11 175.498C375.278 175.022 375.516 174.607 375.824 174.252C376.142 173.888 376.52 173.608 376.958 173.412C377.397 173.207 377.887 173.104 378.428 173.104C379.044 173.104 379.576 173.239 380.024 173.51C380.472 173.771 380.822 174.163 381.074 174.686C381.326 175.199 381.466 175.834 381.494 176.59L380.906 176.044V170.78H383.16V181H381.382V177.822H381.69C381.662 178.55 381.508 179.171 381.228 179.684C380.958 180.197 380.589 180.589 380.122 180.86C379.656 181.121 379.119 181.252 378.512 181.252ZM379.072 179.376C379.418 179.376 379.73 179.301 380.01 179.152C380.3 178.993 380.528 178.765 380.696 178.466C380.874 178.167 380.962 177.808 380.962 177.388V176.87C380.962 176.459 380.874 176.114 380.696 175.834C380.519 175.554 380.286 175.339 379.996 175.19C379.707 175.041 379.394 174.966 379.058 174.966C378.685 174.966 378.349 175.064 378.05 175.26C377.761 175.447 377.532 175.708 377.364 176.044C377.196 176.371 377.112 176.753 377.112 177.192C377.112 177.64 377.196 178.027 377.364 178.354C377.532 178.681 377.766 178.933 378.064 179.11C378.363 179.287 378.699 179.376 379.072 179.376ZM385.556 181V173.328H387.796V181H385.556ZM384.534 174.98V173.328H387.796V174.98H384.534ZM386.424 172.572C386.004 172.572 385.691 172.465 385.486 172.25C385.29 172.026 385.192 171.746 385.192 171.41C385.192 171.065 385.29 170.785 385.486 170.57C385.691 170.346 386.004 170.234 386.424 170.234C386.844 170.234 387.152 170.346 387.348 170.57C387.553 170.785 387.656 171.065 387.656 171.41C387.656 171.746 387.553 172.026 387.348 172.25C387.152 172.465 386.844 172.572 386.424 172.572ZM392.458 181.238C391.571 181.238 390.89 180.953 390.414 180.384C389.938 179.805 389.7 178.937 389.7 177.78V173.328H391.94V177.892C391.94 178.303 392.056 178.629 392.29 178.872C392.523 179.115 392.836 179.236 393.228 179.236C393.629 179.236 393.956 179.11 394.208 178.858C394.46 178.606 394.586 178.265 394.586 177.836V173.328H396.826V181H395.048V177.766H395.202C395.202 178.541 395.099 179.189 394.894 179.712C394.698 180.225 394.404 180.608 394.012 180.86C393.62 181.112 393.134 181.238 392.556 181.238H392.458ZM398.891 181V173.328H400.669V176.632H400.543C400.543 175.848 400.641 175.195 400.837 174.672C401.033 174.149 401.327 173.757 401.719 173.496C402.111 173.225 402.592 173.09 403.161 173.09H403.259C403.838 173.09 404.318 173.225 404.701 173.496C405.093 173.757 405.387 174.149 405.583 174.672C405.788 175.195 405.891 175.848 405.891 176.632H405.345C405.345 175.848 405.443 175.195 405.639 174.672C405.844 174.149 406.143 173.757 406.535 173.496C406.927 173.225 407.408 173.09 407.977 173.09H408.075C408.654 173.09 409.139 173.225 409.531 173.496C409.932 173.757 410.236 174.149 410.441 174.672C410.646 175.195 410.749 175.848 410.749 176.632V181H408.509V176.506C408.509 176.086 408.397 175.745 408.173 175.484C407.958 175.223 407.65 175.092 407.249 175.092C406.848 175.092 406.53 175.227 406.297 175.498C406.064 175.759 405.947 176.109 405.947 176.548V181H403.693V176.506C403.693 176.086 403.581 175.745 403.357 175.484C403.142 175.223 402.839 175.092 402.447 175.092C402.036 175.092 401.714 175.227 401.481 175.498C401.248 175.759 401.131 176.109 401.131 176.548V181H398.891Z" fill="#3E4852"/>
<path d="M353.148 217V206.78H355.444V217H353.148ZM355.164 217V214.984H359.448V217H355.164ZM364.471 217.266C363.799 217.266 363.202 217.163 362.679 216.958C362.156 216.743 361.713 216.454 361.349 216.09C360.994 215.726 360.724 215.311 360.537 214.844C360.35 214.368 360.257 213.869 360.257 213.346V213.024C360.257 212.492 360.35 211.988 360.537 211.512C360.733 211.027 361.013 210.602 361.377 210.238C361.75 209.874 362.198 209.589 362.721 209.384C363.244 209.169 363.827 209.062 364.471 209.062C365.134 209.062 365.722 209.169 366.235 209.384C366.758 209.589 367.201 209.874 367.565 210.238C367.929 210.602 368.209 211.027 368.405 211.512C368.601 211.988 368.699 212.492 368.699 213.024V213.346C368.699 213.869 368.606 214.368 368.419 214.844C368.232 215.311 367.957 215.726 367.593 216.09C367.238 216.454 366.8 216.743 366.277 216.958C365.754 217.163 365.152 217.266 364.471 217.266ZM364.471 215.376C364.91 215.376 365.274 215.283 365.563 215.096C365.852 214.909 366.072 214.648 366.221 214.312C366.38 213.976 366.459 213.603 366.459 213.192C366.459 212.753 366.38 212.371 366.221 212.044C366.062 211.708 365.834 211.442 365.535 211.246C365.246 211.05 364.891 210.952 364.471 210.952C364.06 210.952 363.706 211.05 363.407 211.246C363.108 211.442 362.88 211.708 362.721 212.044C362.572 212.371 362.497 212.753 362.497 213.192C362.497 213.603 362.572 213.976 362.721 214.312C362.87 214.648 363.094 214.909 363.393 215.096C363.692 215.283 364.051 215.376 364.471 215.376ZM372.899 217L374.299 209.58H376.749L378.373 217H376.637L374.971 209.636H375.965L374.467 217H372.899ZM372.367 217L372.353 215.138H373.893L373.907 217H372.367ZM371.359 217L369.301 209.328H371.499L373.417 217H371.359ZM377.211 217L377.225 215.138H378.765V217H377.211ZM377.841 217L379.549 209.328H381.607L379.759 217H377.841Z" fill="#3E4852"/>
<rect x="280" y="88" width="64" height="32" rx="4" fill="#EA3829"/>
<path d="M322.034 109.294C321.297 109.294 320.662 109.168 320.13 108.916C319.607 108.664 319.178 108.314 318.842 107.866C318.506 107.418 318.259 106.9 318.1 106.312C317.941 105.715 317.862 105.075 317.862 104.394V103.792C317.862 102.112 318.287 100.843 319.136 99.984C319.995 99.1253 321.241 98.696 322.874 98.696C323.21 98.696 323.541 98.7053 323.868 98.724C324.195 98.7427 324.507 98.7707 324.806 98.808V100.74C324.517 100.703 324.199 100.675 323.854 100.656C323.509 100.637 323.159 100.628 322.804 100.628C322.067 100.628 321.493 100.754 321.082 101.006C320.671 101.258 320.382 101.631 320.214 102.126C320.055 102.611 319.976 103.213 319.976 103.932V105.332H319.514C319.523 104.651 319.659 104.077 319.92 103.61C320.181 103.143 320.545 102.789 321.012 102.546C321.479 102.303 322.011 102.182 322.608 102.182C323.317 102.182 323.924 102.327 324.428 102.616C324.932 102.896 325.319 103.293 325.59 103.806C325.861 104.319 325.996 104.926 325.996 105.626C325.996 106.363 325.828 107.007 325.492 107.558C325.165 108.109 324.703 108.538 324.106 108.846C323.518 109.145 322.827 109.294 322.034 109.294ZM321.964 107.39C322.347 107.39 322.673 107.315 322.944 107.166C323.215 107.017 323.42 106.811 323.56 106.55C323.709 106.289 323.784 105.99 323.784 105.654C323.784 105.299 323.714 104.996 323.574 104.744C323.434 104.483 323.229 104.282 322.958 104.142C322.697 103.993 322.375 103.918 321.992 103.918C321.665 103.918 321.357 103.983 321.068 104.114C320.779 104.245 320.545 104.441 320.368 104.702C320.2 104.954 320.116 105.271 320.116 105.654C320.116 105.981 320.181 106.279 320.312 106.55C320.452 106.811 320.657 107.017 320.928 107.166C321.208 107.315 321.553 107.39 321.964 107.39ZM327.071 107.04V104.646L330.907 98.486L332.685 99.648L329.409 104.926L329.605 105.22H335.681V107.04H327.071ZM332.405 109V101.636H334.533V109H332.405Z" fill="white"/>
<rect x="280" y="124" width="64" height="32" rx="4" fill="#F68511"/>
<path d="M322.034 145.294C321.297 145.294 320.662 145.168 320.13 144.916C319.607 144.664 319.178 144.314 318.842 143.866C318.506 143.418 318.259 142.9 318.1 142.312C317.941 141.715 317.862 141.075 317.862 140.394V139.792C317.862 138.112 318.287 136.843 319.136 135.984C319.995 135.125 321.241 134.696 322.874 134.696C323.21 134.696 323.541 134.705 323.868 134.724C324.195 134.743 324.507 134.771 324.806 134.808V136.74C324.517 136.703 324.199 136.675 323.854 136.656C323.509 136.637 323.159 136.628 322.804 136.628C322.067 136.628 321.493 136.754 321.082 137.006C320.671 137.258 320.382 137.631 320.214 138.126C320.055 138.611 319.976 139.213 319.976 139.932V141.332H319.514C319.523 140.651 319.659 140.077 319.92 139.61C320.181 139.143 320.545 138.789 321.012 138.546C321.479 138.303 322.011 138.182 322.608 138.182C323.317 138.182 323.924 138.327 324.428 138.616C324.932 138.896 325.319 139.293 325.59 139.806C325.861 140.319 325.996 140.926 325.996 141.626C325.996 142.363 325.828 143.007 325.492 143.558C325.165 144.109 324.703 144.538 324.106 144.846C323.518 145.145 322.827 145.294 322.034 145.294ZM321.964 143.39C322.347 143.39 322.673 143.315 322.944 143.166C323.215 143.017 323.42 142.811 323.56 142.55C323.709 142.289 323.784 141.99 323.784 141.654C323.784 141.299 323.714 140.996 323.574 140.744C323.434 140.483 323.229 140.282 322.958 140.142C322.697 139.993 322.375 139.918 321.992 139.918C321.665 139.918 321.357 139.983 321.068 140.114C320.779 140.245 320.545 140.441 320.368 140.702C320.2 140.954 320.116 141.271 320.116 141.654C320.116 141.981 320.181 142.279 320.312 142.55C320.452 142.811 320.657 143.017 320.928 143.166C321.208 143.315 321.553 143.39 321.964 143.39ZM327.071 143.04V140.646L330.907 134.486L332.685 135.648L329.409 140.926L329.605 141.22H335.681V143.04H327.071ZM332.405 145V137.636H334.533V145H332.405Z" fill="white"/>
<rect x="280" y="160" width="64" height="32" rx="4" fill="#F9B208"/>
<path d="M322.034 181.294C321.297 181.294 320.662 181.168 320.13 180.916C319.607 180.664 319.178 180.314 318.842 179.866C318.506 179.418 318.259 178.9 318.1 178.312C317.941 177.715 317.862 177.075 317.862 176.394V175.792C317.862 174.112 318.287 172.843 319.136 171.984C319.995 171.125 321.241 170.696 322.874 170.696C323.21 170.696 323.541 170.705 323.868 170.724C324.195 170.743 324.507 170.771 324.806 170.808V172.74C324.517 172.703 324.199 172.675 323.854 172.656C323.509 172.637 323.159 172.628 322.804 172.628C322.067 172.628 321.493 172.754 321.082 173.006C320.671 173.258 320.382 173.631 320.214 174.126C320.055 174.611 319.976 175.213 319.976 175.932V177.332H319.514C319.523 176.651 319.659 176.077 319.92 175.61C320.181 175.143 320.545 174.789 321.012 174.546C321.479 174.303 322.011 174.182 322.608 174.182C323.317 174.182 323.924 174.327 324.428 174.616C324.932 174.896 325.319 175.293 325.59 175.806C325.861 176.319 325.996 176.926 325.996 177.626C325.996 178.363 325.828 179.007 325.492 179.558C325.165 180.109 324.703 180.538 324.106 180.846C323.518 181.145 322.827 181.294 322.034 181.294ZM321.964 179.39C322.347 179.39 322.673 179.315 322.944 179.166C323.215 179.017 323.42 178.811 323.56 178.55C323.709 178.289 323.784 177.99 323.784 177.654C323.784 177.299 323.714 176.996 323.574 176.744C323.434 176.483 323.229 176.282 322.958 176.142C322.697 175.993 322.375 175.918 321.992 175.918C321.665 175.918 321.357 175.983 321.068 176.114C320.779 176.245 320.545 176.441 320.368 176.702C320.2 176.954 320.116 177.271 320.116 177.654C320.116 177.981 320.181 178.279 320.312 178.55C320.452 178.811 320.657 179.017 320.928 179.166C321.208 179.315 321.553 179.39 321.964 179.39ZM327.071 179.04V176.646L330.907 170.486L332.685 171.648L329.409 176.926L329.605 177.22H335.681V179.04H327.071ZM332.405 181V173.636H334.533V181H332.405Z" fill="white"/>
<rect x="280" y="196" width="64" height="32" rx="4" fill="#0FB5AE"/>
<path d="M322.034 217.294C321.297 217.294 320.662 217.168 320.13 216.916C319.607 216.664 319.178 216.314 318.842 215.866C318.506 215.418 318.259 214.9 318.1 214.312C317.941 213.715 317.862 213.075 317.862 212.394V211.792C317.862 210.112 318.287 208.843 319.136 207.984C319.995 207.125 321.241 206.696 322.874 206.696C323.21 206.696 323.541 206.705 323.868 206.724C324.195 206.743 324.507 206.771 324.806 206.808V208.74C324.517 208.703 324.199 208.675 323.854 208.656C323.509 208.637 323.159 208.628 322.804 208.628C322.067 208.628 321.493 208.754 321.082 209.006C320.671 209.258 320.382 209.631 320.214 210.126C320.055 210.611 319.976 211.213 319.976 211.932V213.332H319.514C319.523 212.651 319.659 212.077 319.92 211.61C320.181 211.143 320.545 210.789 321.012 210.546C321.479 210.303 322.011 210.182 322.608 210.182C323.317 210.182 323.924 210.327 324.428 210.616C324.932 210.896 325.319 211.293 325.59 211.806C325.861 212.319 325.996 212.926 325.996 213.626C325.996 214.363 325.828 215.007 325.492 215.558C325.165 216.109 324.703 216.538 324.106 216.846C323.518 217.145 322.827 217.294 322.034 217.294ZM321.964 215.39C322.347 215.39 322.673 215.315 322.944 215.166C323.215 215.017 323.42 214.811 323.56 214.55C323.709 214.289 323.784 213.99 323.784 213.654C323.784 213.299 323.714 212.996 323.574 212.744C323.434 212.483 323.229 212.282 322.958 212.142C322.697 211.993 322.375 211.918 321.992 211.918C321.665 211.918 321.357 211.983 321.068 212.114C320.779 212.245 320.545 212.441 320.368 212.702C320.2 212.954 320.116 213.271 320.116 213.654C320.116 213.981 320.181 214.279 320.312 214.55C320.452 214.811 320.657 215.017 320.928 215.166C321.208 215.315 321.553 215.39 321.964 215.39ZM327.071 215.04V212.646L330.907 206.486L332.685 207.648L329.409 212.926L329.605 213.22H335.681V215.04H327.071ZM332.405 217V209.636H334.533V217H332.405Z" fill="white"/>
<rect x="0.5" y="0.5" width="511" height="327" rx="15.5" stroke="#E1E4E7"/>
</svg>
