<svg width="24" height="24" viewBox="0 0 24 24" fill="none" xmlns="http://www.w3.org/2000/svg">
<path d="M18.4096 9.43311L18.4063 9.43186C17.4179 9.0671 16.3343 8.93031 15.2085 9.04518L15.2085 9.04516L15.2014 9.04593C13.7472 9.2048 12.3485 9.96745 11.2721 10.9806C10.1957 11.9938 9.34843 13.3452 9.10398 14.7936L9.10378 14.7948C8.722 17.0739 9.44878 19.2178 10.8545 20.7367C10.549 20.7721 10.2839 20.7803 10.0771 20.7599C9.87928 20.7403 9.81078 20.7019 9.81033 20.7027C9.81032 20.7027 9.81033 20.7027 9.81037 20.7028L4.322 16.6015C4.32156 16.6012 4.32112 16.6008 4.32068 16.6005C4.15196 16.4728 3.94622 16.2235 3.78124 15.8926C3.61592 15.561 3.54004 15.2447 3.54004 15.03V6.94001C3.54004 6.61768 3.66845 6.21967 3.92407 5.84962C4.17914 5.48037 4.50501 5.21985 4.80382 5.10535L10.2977 3.04762C10.4381 2.99636 10.6888 2.95251 10.99 2.95251C11.2913 2.95251 11.542 2.99636 11.6824 3.04764C11.683 3.04788 11.6837 3.04812 11.6843 3.04836L17.177 5.10562C17.1773 5.10574 17.1777 5.10587 17.178 5.10599C17.4821 5.22105 17.8101 5.48225 18.0657 5.85101C18.3217 6.2203 18.45 6.61783 18.45 6.94001V9.437C18.4479 9.43762 18.4455 9.43814 18.4428 9.43845C18.4367 9.43917 18.4262 9.4393 18.4096 9.43311Z" fill="#3892F3" stroke="#3892F3" stroke-width="2"/>
<path d="M12.5 16.01C12.5 14.0823 14.0723 12.51 16 12.51C17.9292 12.51 19.5 14.0737 19.5 16.01C19.5 17.9377 17.9277 19.51 16 19.51C14.0723 19.51 12.5 17.9377 12.5 16.01Z" fill="#3892F3" stroke="#3892F3" stroke-width="2"/>
<path d="M21 22C20.73 22 20.48 21.89 20.29 21.71C20.25 21.66 20.2 21.61 20.17 21.55C20.13 21.5 20.1 21.44 20.08 21.38C20.05 21.32 20.03 21.26 20.02 21.2C20.01 21.13 20 21.07 20 21C20 20.87 20.03 20.74 20.08 20.62C20.13 20.49 20.2 20.39 20.29 20.29C20.52 20.06 20.87 19.95 21.19 20.02C21.26 20.03 21.32 20.05 21.38 20.08C21.44 20.1 21.5 20.13 21.55 20.17C21.61 20.2 21.66 20.25 21.71 20.29C21.8 20.39 21.87 20.49 21.92 20.62C21.97 20.74 22 20.87 22 21C22 21.26 21.89 21.52 21.71 21.71C21.66 21.75 21.61 21.79 21.55 21.83C21.5 21.87 21.44 21.9 21.38 21.92C21.32 21.95 21.26 21.97 21.19 21.98C21.13 21.99 21.06 22 21 22Z" fill="#3892F3"/>
</svg>
