<svg width="24" height="24" viewBox="0 0 24 24" fill="none" xmlns="http://www.w3.org/2000/svg">
<path d="M21.75 9.76136C20.3537 9.88874 19.25 11.072 19.25 12.5C19.25 13.9276 20.3529 15.1104 21.7486 15.2385C21.7238 17.2497 21.382 18.2613 20.8216 18.8216C20.2396 19.4037 19.1706 19.75 17 19.75H11.75V18.5C11.75 17.5377 10.9623 16.75 10 16.75C9.03772 16.75 8.25 17.5377 8.25 18.5V19.75H7C4.82944 19.75 3.76042 19.4037 3.17836 18.8216C2.59629 18.2396 2.25 17.1706 2.25 15V14.7386C3.64634 14.6113 4.75 13.428 4.75 12C4.75 10.572 3.64634 9.38874 2.25 9.26136V9C2.25 6.82944 2.59629 5.76042 3.17836 5.17836C3.76042 4.59629 4.82944 4.25 7 4.25H8.25V5.5C8.25 6.46229 9.03772 7.25 10 7.25C10.9623 7.25 11.75 6.46229 11.75 5.5V4.25H17C19.1706 4.25 20.2396 4.59629 20.8216 5.17836C21.4037 5.76042 21.75 6.82944 21.75 9V9.76136ZM10 15.92C10.9623 15.92 11.75 15.1323 11.75 14.17V9.83C11.75 8.86772 10.9623 8.08 10 8.08C9.03772 8.08 8.25 8.86772 8.25 9.83V14.17C8.25 15.1323 9.03772 15.92 10 15.92Z" fill="#EA3829" stroke="#EA3829" stroke-width="2"/>
</svg>
