<svg width="40" height="40" viewBox="0 0 40 40" fill="none" xmlns="http://www.w3.org/2000/svg">
<g clip-path="url(#clip0_1101_42545)">
<path d="M3.22522 11.4425C1.34672 15.1107 0.650608 19.4167 1.52862 23.7707" stroke="#3E4852" stroke-width="2" stroke-miterlimit="10" stroke-linecap="round"/>
<path d="M28.3464 3.08127C24.7419 1.31199 20.5469 0.673877 16.3065 1.52888C11.4894 2.50003 7.47374 5.22422 4.78906 8.90304" stroke="#3E4852" stroke-width="2" stroke-miterlimit="10" stroke-linecap="round"/>
<path d="M38.5471 16.3064C37.5508 11.3656 34.7103 7.26724 30.8867 4.58411" stroke="#3E4852" stroke-width="2" stroke-miterlimit="10" stroke-linecap="round"/>
<path d="M38.9303 20.4185C38.9563 19.0646 38.8363 17.6869 38.5576 16.3044" stroke="#3E4852" stroke-width="2" stroke-miterlimit="10" stroke-linecap="round"/>
<path d="M1.53906 23.7689C1.59381 24.04 1.65393 24.3085 1.71955 24.5745" stroke="#3E4852" stroke-width="2" stroke-miterlimit="10" stroke-linecap="round"/>
<path d="M15.1631 38.2827C19.3932 33.4681 21.4072 26.8045 20.0426 20.0376" stroke="#3E4852" stroke-width="2" stroke-miterlimit="10" stroke-linecap="round"/>
<path d="M15.5942 22.0341C16.3343 27.4953 14.2938 32.7702 10.4912 36.3279" stroke="#3E4852" stroke-width="2" stroke-miterlimit="10" stroke-linecap="round"/>
<path d="M25.1878 24.1916C25.1832 22.5138 25.0147 20.812 24.6705 19.1046L24.6757 19.1027C24.1594 16.5412 21.6644 14.8832 19.1029 15.3998C17.1895 15.7856 15.7802 17.2755 15.4053 19.0726" stroke="#3E4852" stroke-width="2" stroke-miterlimit="10" stroke-linecap="round"/>
<path d="M20.6406 38.9118C23.0034 35.4589 24.5362 31.4414 25.0215 27.1855" stroke="#3E4852" stroke-width="2" stroke-miterlimit="10" stroke-linecap="round"/>
<path d="M10.2248 28.5038C9.48709 30.4033 8.2666 32.0912 6.68359 33.3879" stroke="#3E4852" stroke-width="2" stroke-miterlimit="10" stroke-linecap="round"/>
<path d="M29.5042 29.2189C30.0915 25.6536 30.0545 21.9238 29.298 18.1716L29.2994 18.1706C28.2679 13.0552 23.2856 9.74486 18.1705 10.7763C13.0552 11.8078 9.74464 16.7902 10.7762 21.9057L10.7872 21.9035C11.0322 23.1185 11.0813 24.3275 10.9561 25.4976" stroke="#3E4852" stroke-width="2" stroke-miterlimit="10" stroke-linecap="round"/>
<path d="M26.8125 37.6645C27.6688 35.9068 28.3601 34.0633 28.8702 32.1581" stroke="#3E4852" stroke-width="2" stroke-miterlimit="10" stroke-linecap="round"/>
<path d="M5.88223 20.5991C5.91257 21.34 6.00133 22.0881 6.1526 22.8382L6.1598 22.8363C6.68926 25.462 5.69483 28.0407 3.78613 29.6582" stroke="#3E4852" stroke-width="2" stroke-miterlimit="10" stroke-linecap="round"/>
<path d="M34.2469 19.0723C34.1563 18.4619 34.0495 17.8506 33.9263 17.2387L33.9235 17.2386C32.3771 9.56933 24.9074 4.60637 17.2385 6.15255C11.3449 7.34101 7.04913 12.0278 6.07812 17.615" stroke="#3E4852" stroke-width="2" stroke-miterlimit="10" stroke-linecap="round"/>
<path d="M33.4414 33.3392C34.4046 29.7263 34.8051 25.9217 34.5606 22.046" stroke="#3E4852" stroke-width="2" stroke-miterlimit="10" stroke-linecap="round"/>
</g>
<defs>
<clipPath id="clip0_1101_42545">
<rect width="40" height="40" fill="white"/>
</clipPath>
</defs>
</svg>
