<svg width="24" height="24" viewBox="0 0 24 24" fill="none" xmlns="http://www.w3.org/2000/svg">
<path d="M4.9899 6.71604L4.99061 6.71563L10.9161 3.28824C10.9168 3.28784 10.9175 3.28744 10.9182 3.28704C11.5919 2.90303 12.4115 2.90596 13.0699 3.28599C13.0699 3.28601 13.0699 3.28602 13.0699 3.28604L19.0033 6.71216C19.0043 6.71275 19.0053 6.71334 19.0063 6.71393C19.672 7.10653 20.0817 7.81077 20.0899 8.58475V15.42C20.0899 16.1948 19.6788 16.9036 19.0199 17.284L19.0199 17.284L13.0838 20.7118C13.0832 20.7121 13.0826 20.7124 13.0821 20.7127C12.4083 21.097 11.5884 21.0941 10.93 20.714C10.93 20.714 10.9299 20.714 10.9299 20.714L4.99655 17.2878C4.99555 17.2872 4.99455 17.2867 4.99355 17.2861C4.32764 16.8933 3.91992 16.1805 3.91992 15.42V8.58C3.91992 7.80523 4.33108 7.09639 4.9899 6.71604ZM13.417 17.6671L13.4356 17.6485L13.4532 17.629C13.6161 17.448 13.748 17.2425 13.843 17.0146C13.9356 16.7923 13.9999 16.5317 13.9999 16.25C13.9999 15.9734 13.9379 15.7172 13.848 15.4976C13.7423 15.2285 13.5961 15.0298 13.4532 14.871L13.4356 14.8515L13.417 14.8329C13.2735 14.6894 13.1098 14.5705 12.9331 14.4785C13.423 14.1674 13.7499 13.6199 13.7499 13V7.75C13.7499 6.78772 12.9622 6 11.9999 6C11.0376 6 10.2499 6.78772 10.2499 7.75V13C10.2499 13.6219 10.5789 14.1708 11.0713 14.4814C10.8884 14.5752 10.7429 14.6869 10.621 14.7967L10.6014 14.8143L10.5828 14.8329C10.1948 15.2209 9.99992 15.74 9.99992 16.25C9.99992 16.4794 10.0349 16.7458 10.1468 17.0146L10.1601 17.0464L10.1755 17.0772C10.2658 17.2579 10.3834 17.4476 10.5466 17.629L10.5818 17.6681L10.621 17.7033C10.7797 17.8462 10.9784 17.9923 11.2475 18.0981C11.4671 18.188 11.7233 18.25 11.9999 18.25C12.5252 18.25 13.0326 18.0515 13.417 17.6671Z" fill="#EA3829" stroke="#EA3829" stroke-width="2"/>
</svg>
