<svg width="48" height="48" viewBox="0 0 48 48" fill="none" xmlns="http://www.w3.org/2000/svg">
<path opacity="0.3" d="M24 44C35.0457 44 44 35.0457 44 24C44 12.9543 35.0457 4 24 4C12.9543 4 4 12.9543 4 24C4 35.0457 12.9543 44 24 44Z" fill="#0FB5AE"/>
<path d="M33.5379 15.6354C34.2916 14.8279 35.5572 14.7842 36.3647 15.5379C37.1722 16.2916 37.2158 17.5571 36.4621 18.3646L22.4621 33.3646C21.7309 34.1481 20.5121 34.216 19.6985 33.5185L12.6985 27.5185C11.8598 26.7997 11.7627 25.5371 12.4815 24.6984C13.2004 23.8598 14.463 23.7627 15.3016 24.4815L20.846 29.2338L33.5379 15.6354Z" fill="#0FB5AE"/>
</svg>
